<svg width="400" height="400" viewBox="0 0 400 400" fill="none" xmlns="http://www.w3.org/2000/svg">
<rect width="400" height="400" fill="#9D1A4F"/>
<path fill-rule="evenodd" clip-rule="evenodd" d="M100.403 129.104C85.493 130.389 73.6955 135.158 65.6038 143.169C59.3524 149.358 55.892 156.493 54.6778 165.695C54.3116 168.471 54.3151 174.486 54.6846 177.303C55.4885 183.433 57.2896 188.252 60.3621 192.494C62.3432 195.23 65.8863 198.91 68.5912 201.042C73.9729 205.284 82.1802 208.993 97.4964 214.105C108.068 217.633 114.057 220.123 117.051 222.235C120.46 224.64 121.955 228.484 121.078 232.585C120.435 235.586 117.773 238.108 114.22 239.083C111.775 239.754 108.402 239.826 105.901 239.261C102.605 238.517 99.5657 236.232 98.1863 233.46C97.4523 231.986 96.8557 230 96.6081 228.207C96.5062 227.469 96.3887 226.632 96.3467 226.346L96.2706 225.826H75.3848H54.4987L54.2191 226.249C53.9856 226.602 53.9573 226.885 54.0476 227.968C55.4428 244.705 63.7137 256.847 78.8298 264.35C85.5129 267.667 92.6988 269.649 101.856 270.701C104.94 271.055 115.945 271.109 118.973 270.785C129.595 269.647 138.063 266.742 145.537 261.672C148.887 259.4 152.645 255.934 154.911 253.028L155.953 251.69L155.995 260.373C156.036 269.03 156.037 269.057 156.386 269.425L156.736 269.793H175.976H195.217L195.568 269.423L195.919 269.053V241.844V214.635H205.77H215.62V241.867V269.098L215.994 269.446L216.368 269.793H235.67C254.127 269.793 254.983 269.78 255.237 269.502C255.477 269.241 255.508 268.316 255.545 260.349L255.587 251.487L256.39 252.686C256.831 253.346 257.327 254.029 257.492 254.205C257.657 254.381 258.058 254.836 258.385 255.217C258.864 255.776 259.958 256.977 260.636 257.687C260.922 257.987 261.734 258.601 261.844 258.602C261.911 258.602 261.965 258.71 261.965 258.842C261.965 258.973 262.02 259.082 262.086 259.083C262.153 259.084 262.561 259.408 262.994 259.803C263.426 260.197 263.88 260.52 264.003 260.52C264.126 260.52 264.226 260.628 264.226 260.76C264.226 260.892 264.321 261 264.438 261C264.554 261 264.79 261.13 264.963 261.288C265.135 261.447 265.748 261.888 266.325 262.27C267.284 262.903 267.584 263.084 268.766 263.743C268.978 263.861 269.188 263.998 269.232 264.047C269.411 264.246 273.281 266.027 273.915 266.202C274.137 266.264 274.428 266.399 274.561 266.504C274.694 266.608 275.566 266.93 276.499 267.218C277.431 267.506 278.318 267.806 278.47 267.885C278.621 267.964 279.057 268.076 279.439 268.133C279.82 268.191 280.26 268.303 280.416 268.383C281.128 268.744 285.704 269.623 288.61 269.956C289.454 270.053 290.653 270.207 291.274 270.297C291.896 270.388 295.239 270.498 298.702 270.542C303.641 270.605 305.732 270.565 308.391 270.36C312.83 270.018 315.944 269.678 317.757 269.338C320.568 268.809 322.547 268.386 323.894 268.026C324.249 267.931 324.794 267.796 325.105 267.725C325.415 267.654 325.997 267.489 326.396 267.359C326.796 267.228 327.45 267.03 327.85 266.918C328.249 266.805 328.885 266.579 329.261 266.415C329.638 266.25 330.128 266.116 330.351 266.116C330.574 266.116 330.756 266.044 330.756 265.956C330.756 265.868 330.866 265.796 331.001 265.796C331.135 265.796 331.372 265.728 331.526 265.645C331.68 265.563 332.424 265.265 333.179 264.984C335.087 264.273 334.968 264.324 337.26 263.247C338.395 262.715 339.43 262.279 339.561 262.279C339.692 262.279 339.799 262.207 339.799 262.119C339.799 262.031 339.945 261.959 340.122 261.959C340.3 261.959 340.445 261.887 340.445 261.799C340.445 261.711 340.591 261.639 340.768 261.639C340.946 261.639 341.091 261.567 341.091 261.48C341.091 261.392 341.235 261.32 341.411 261.32C342.029 261.32 341.986 260.565 341.172 257.083C341.049 256.555 340.83 255.584 340.687 254.924C340.543 254.265 340.293 253.15 340.131 252.446C339.969 251.743 339.71 250.556 339.554 249.808C339.399 249.061 339.14 247.91 338.979 247.25C338.817 246.591 338.501 245.188 338.276 244.133C337.219 239.188 337.234 239.236 336.856 239.531C336.743 239.62 336.433 239.742 336.166 239.804C335.9 239.865 335.173 240.156 334.551 240.45C333.93 240.744 333.208 241.032 332.947 241.09C332.687 241.148 332.183 241.335 331.827 241.505C331.471 241.675 331.063 241.814 330.92 241.814C330.777 241.814 330.591 241.872 330.506 241.942C330.422 242.012 330.062 242.16 329.707 242.272C329.352 242.384 328.916 242.536 328.738 242.61C327.935 242.945 325.293 243.733 324.972 243.733C324.776 243.733 324.49 243.799 324.335 243.88C323.917 244.098 322.453 244.479 320.906 244.772C320.151 244.914 319.279 245.094 318.968 245.17C318.433 245.302 317.685 245.414 314.689 245.813C312.512 246.103 309.487 246.284 306.76 246.287C303.801 246.291 300.07 246.031 299.841 245.804C299.757 245.72 299.449 245.651 299.157 245.651C298.093 245.651 293.618 244.393 292.889 243.889C292.8 243.827 292.518 243.727 292.261 243.667C292.005 243.606 291.562 243.38 291.277 243.165C290.992 242.95 290.675 242.774 290.573 242.774C290.47 242.774 290.386 242.702 290.386 242.614C290.386 242.526 290.277 242.454 290.144 242.454C290.011 242.454 289.902 242.382 289.902 242.294C289.902 242.206 289.793 242.134 289.659 242.134C289.526 242.134 289.417 242.062 289.417 241.974C289.417 241.886 289.326 241.814 289.215 241.814C289.103 241.814 288.711 241.534 288.343 241.191C287.976 240.848 287.522 240.52 287.335 240.461C287.148 240.402 286.995 240.279 286.995 240.188C286.995 240.02 286.248 239.032 285.582 238.319C285.382 238.106 285.219 237.874 285.219 237.805C285.219 237.737 285.128 237.583 285.017 237.465C284.396 236.801 284.096 236.25 283.206 234.14C283.002 233.657 282.718 232.989 282.574 232.656C282.43 232.323 282.312 231.981 282.312 231.896C282.312 231.798 293.647 231.742 313.783 231.742H345.255L345.345 231.382C345.836 229.425 345.993 227.253 346 222.309C346.008 216.305 345.688 212.596 344.88 209.359C344.76 208.875 344.473 207.688 344.244 206.721C344.014 205.754 343.72 204.639 343.591 204.243C343.461 203.847 343.249 203.2 343.12 202.804C342.99 202.408 342.728 201.689 342.537 201.205C342.346 200.721 342.152 200.164 342.106 199.966C342.06 199.768 341.958 199.606 341.88 199.606C341.802 199.606 341.737 199.497 341.737 199.364C341.737 199.057 339.867 195.35 339.643 195.213C339.551 195.157 339.476 194.971 339.476 194.801C339.476 194.63 339.413 194.49 339.335 194.49C339.257 194.49 339.102 194.274 338.992 194.011C338.882 193.747 338.746 193.531 338.69 193.531C338.634 193.53 338.374 193.189 338.111 192.771C337.849 192.354 337.54 191.955 337.425 191.884C337.31 191.814 337.216 191.66 337.216 191.541C337.216 191.423 337.016 191.106 336.772 190.837C336.527 190.569 336.073 190.051 335.762 189.687C334.439 188.138 334.425 188.123 332.614 186.427C330.909 184.831 330.622 184.578 330.516 184.578C330.419 184.578 329.876 184.142 329.371 183.658C329.164 183.46 328.899 183.299 328.781 183.299C328.663 183.299 328.462 183.155 328.334 182.979C328.206 182.803 328.009 182.659 327.895 182.659C327.781 182.659 327.688 182.587 327.688 182.499C327.688 182.411 327.579 182.339 327.446 182.339C327.313 182.339 327.204 182.276 327.204 182.198C327.204 182.121 327.077 182.017 326.921 181.968C326.644 181.881 325.748 181.378 325.589 181.22C325.545 181.176 325.29 181.032 325.024 180.9C324.757 180.769 324.503 180.625 324.459 180.581C324.273 180.396 322.957 179.781 322.748 179.781C322.623 179.781 322.521 179.709 322.521 179.621C322.521 179.534 322.419 179.462 322.294 179.462C322.169 179.462 321.788 179.328 321.446 179.164C320.257 178.594 319.282 178.183 319.118 178.183C319.027 178.183 318.652 178.039 318.284 177.863C317.917 177.687 317.52 177.543 317.402 177.543C317.284 177.543 317.061 177.477 316.907 177.397C316.621 177.247 314.694 176.68 313.962 176.529C313.74 176.483 313.268 176.368 312.913 176.271C311.902 175.998 309.423 175.528 307.745 175.291C304.806 174.876 303.53 174.794 298.945 174.727C295.238 174.672 293.42 174.715 291.597 174.899C288.711 175.191 285.429 175.708 285.165 175.914C285.062 175.994 284.54 176.109 284.008 176.167C283.119 176.265 282.432 176.43 281.585 176.75C281.408 176.817 280.826 176.996 280.294 177.149C279.761 177.301 278.78 177.641 278.114 177.903C277.447 178.166 276.43 178.565 275.853 178.79C275.275 179.016 274.688 179.295 274.548 179.411C274.408 179.527 274.176 179.621 274.033 179.621C273.89 179.621 273.731 179.688 273.681 179.769C273.63 179.85 273.371 179.964 273.106 180.022C272.84 180.079 272.622 180.175 272.622 180.234C272.621 180.293 272.458 180.421 272.258 180.518C270.93 181.17 269.666 181.876 268.847 182.423C268.324 182.773 267.783 183.131 267.645 183.219C267.506 183.307 267.243 183.511 267.061 183.672C266.878 183.833 266.529 184.069 266.285 184.196C266.041 184.322 265.841 184.491 265.841 184.571C265.841 184.651 265.714 184.758 265.558 184.81C265.403 184.861 265.011 185.136 264.688 185.42C264.364 185.704 263.815 186.166 263.467 186.446C262.543 187.19 260.673 189.049 260.673 189.224C260.673 189.306 260.565 189.374 260.431 189.374C260.298 189.374 260.189 189.428 260.189 189.494C260.189 189.599 259.572 190.339 258.624 191.371C258.464 191.546 258.164 191.933 257.959 192.231C257.755 192.529 257.5 192.862 257.394 192.972C257.288 193.082 257.093 193.333 256.959 193.531C256.826 193.728 256.636 193.974 256.537 194.078C256.437 194.181 256.308 194.414 256.25 194.597C256.192 194.779 256 195.056 255.825 195.213C255.508 195.498 255.506 195.351 255.506 163.523C255.506 132.749 255.495 131.537 255.211 131.283C254.939 131.04 253.348 131.018 235.619 131.018H216.322H215.62V131.758V157.209V182.659H205.77H195.919V157.186V131.714L195.546 131.366L195.172 131.018H175.87C157.409 131.018 156.556 131.031 156.302 131.309C156.062 131.572 156.032 132.562 155.994 141.422L155.953 151.243L155.161 150.044C153.26 147.162 150.863 144.374 148.456 142.245C140.268 135.003 130.052 130.879 116.454 129.327C113.917 129.037 102.945 128.885 100.403 129.104ZM104.449 160.443C102.162 160.713 99.8681 161.91 98.5711 163.512C97.8268 164.43 97.2705 165.707 96.9966 167.124C96.3228 170.611 97.1166 173.287 99.5237 175.642C100.919 177.007 103.539 178.811 105.657 179.864C108.706 181.38 114.429 183.602 123.172 186.664C130.284 189.155 136.095 191.558 141.248 194.139C146.678 196.859 150.394 199.604 154.493 203.923C155.203 204.67 155.84 205.306 155.908 205.335C155.977 205.365 156.033 198.08 156.033 189.148V172.907H137.326H118.617L118.511 171.406C118.149 166.309 115.685 162.809 111.359 161.246C109.282 160.495 106.623 160.187 104.449 160.443ZM294.181 198.405C293.826 198.526 293.034 198.78 292.422 198.97C289.478 199.884 287.362 201.269 285.865 203.264C285.643 203.56 285.334 203.917 285.178 204.058C285.023 204.199 284.896 204.401 284.896 204.507C284.896 204.613 284.796 204.799 284.673 204.92C284.351 205.239 283.538 206.846 282.792 208.639C282.633 209.021 282.087 210.775 281.843 211.69C281.27 213.832 280.617 219.613 280.721 221.611C280.751 222.183 280.814 222.309 281.071 222.309C281.366 222.309 282.65 222.04 285.622 221.355C286.333 221.191 287.496 220.938 288.206 220.791C288.917 220.644 289.861 220.43 290.305 220.316C290.749 220.201 291.839 219.945 292.728 219.746C295.442 219.139 298.192 218.48 298.71 218.313C298.981 218.226 299.562 218.108 300.002 218.052C300.442 217.995 300.934 217.881 301.095 217.799C301.256 217.717 301.729 217.587 302.145 217.509C303.479 217.261 303.863 217.172 304.193 217.032C304.37 216.957 304.734 216.859 305 216.814C305.267 216.77 305.812 216.653 306.211 216.555C306.611 216.456 307.229 216.314 307.584 216.238C307.939 216.162 308.884 215.947 309.683 215.76C310.482 215.573 311.418 215.359 311.762 215.285C312.483 215.13 312.7 214.878 312.596 214.315C312.555 214.095 312.474 213.484 312.415 212.956C312.196 211.004 311.384 207.841 310.744 206.444C310.553 206.028 310.395 205.632 310.392 205.565C310.389 205.497 310.295 205.334 310.183 205.202C310.071 205.07 309.82 204.652 309.627 204.274C309.433 203.895 309.204 203.499 309.118 203.394C307.997 202.034 307.446 201.426 307.222 201.302C307.072 201.219 306.621 200.901 306.217 200.595C305.814 200.29 305.23 199.939 304.919 199.816C304.328 199.582 304.075 199.476 303.143 199.077C302.832 198.944 302.215 198.783 301.771 198.719C301.326 198.656 300.781 198.533 300.559 198.447C299.879 198.184 294.93 198.152 294.181 198.405Z" fill="white"/>
</svg>
