<svg width="73" height="36" viewBox="0 0 73 36" fill="none" xmlns="http://www.w3.org/2000/svg">
<path fill-rule="evenodd" clip-rule="evenodd" d="M11.6008 0.0915017C7.87325 0.413852 4.92388 1.6096 2.90096 3.61863C1.3381 5.17077 0.473001 6.95989 0.169456 9.26758C0.0778957 9.96377 0.0787839 11.4721 0.171151 12.1786C0.372115 13.7157 0.822406 14.9242 1.59053 15.9881C2.0858 16.674 2.97156 17.5969 3.64781 18.1316C4.99323 19.1954 7.04506 20.1255 10.8741 21.4074C13.5171 22.2923 15.0142 22.9166 15.7627 23.4463C16.6149 24.0493 16.9888 25.0133 16.7694 26.0416C16.6088 26.7942 15.9434 27.4267 15.055 27.6712C14.4437 27.8395 13.6006 27.8576 12.9752 27.7159C12.1512 27.5293 11.3914 26.9562 11.0466 26.2612C10.8631 25.8914 10.7139 25.3934 10.652 24.9439C10.6266 24.7589 10.5972 24.5489 10.5867 24.4772L10.5677 24.3469H5.34619H0.124685L0.0547635 24.4529C-0.00361208 24.5413 -0.0106769 24.6124 0.0118901 24.8839C0.36069 29.0812 2.42842 32.1261 6.20745 34.0075C7.87822 34.8392 9.6747 35.3363 11.9641 35.6002C12.7349 35.6891 15.4863 35.7026 16.2434 35.6212C18.8987 35.3358 21.0157 34.6074 22.8843 33.3361C23.7217 32.7663 24.6613 31.8971 25.2276 31.1682L25.4882 30.8329L25.4986 33.0103C25.5091 35.1811 25.5093 35.188 25.5965 35.2801L25.6839 35.3726H30.4941H35.3043L35.3921 35.2798L35.4799 35.187V28.3637V21.5404H37.9424H40.405V28.3693V35.1982L40.4985 35.2854L40.5919 35.3726H45.4174C50.0318 35.3726 50.2458 35.3694 50.3093 35.2996C50.3691 35.234 50.3769 35.0021 50.3863 33.0043L50.3967 30.7819L50.5974 31.0826C50.7078 31.248 50.8318 31.4194 50.873 31.4635C50.9141 31.5076 51.0146 31.6217 51.0962 31.7172C51.2159 31.8574 51.4896 32.1585 51.6589 32.3365C51.7306 32.4118 51.9335 32.5659 51.9611 32.566C51.9777 32.566 51.9913 32.5931 51.9913 32.6262C51.9913 32.6592 52.005 32.6865 52.0216 32.6867C52.0382 32.687 52.1404 32.7682 52.2484 32.8672C52.3565 32.9662 52.4701 33.0471 52.5007 33.0471C52.5314 33.0471 52.5565 33.0742 52.5565 33.1073C52.5565 33.1404 52.5803 33.1674 52.6095 33.1674C52.6386 33.1674 52.6976 33.2 52.7407 33.2397C52.7837 33.2795 52.937 33.3903 53.0813 33.4859C53.3209 33.6446 53.3961 33.6901 53.6915 33.8553C53.7445 33.8849 53.7969 33.9193 53.808 33.9316C53.8527 33.9815 54.8203 34.4281 54.9787 34.472C55.0343 34.4874 55.1069 34.5215 55.1402 34.5477C55.1735 34.5739 55.3915 34.6544 55.6247 34.7267C55.8578 34.7989 56.0796 34.8742 56.1174 34.894C56.1553 34.9138 56.2643 34.9419 56.3597 34.9563C56.455 34.9708 56.565 34.9989 56.6041 35.0189C56.7819 35.1095 57.926 35.3299 58.6525 35.4135C58.8634 35.4377 59.1631 35.4762 59.3186 35.499C59.474 35.5218 60.3097 35.5494 61.1756 35.5604C62.4103 35.576 62.933 35.5662 63.5978 35.5148C64.7076 35.429 65.486 35.3437 65.9393 35.2583C66.642 35.1258 67.1369 35.0198 67.4734 34.9294C67.5622 34.9056 67.6984 34.8716 67.7762 34.8538C67.8539 34.8361 67.9992 34.7948 68.0991 34.7621C68.199 34.7293 68.3625 34.6795 68.4625 34.6514C68.5624 34.6233 68.7212 34.5666 68.8153 34.5253C68.9094 34.4841 69.032 34.4504 69.0877 34.4504C69.1435 34.4504 69.1891 34.4324 69.1891 34.4103C69.1891 34.3883 69.2166 34.3702 69.2502 34.3702C69.2838 34.3702 69.3429 34.3532 69.3814 34.3324C69.42 34.3116 69.6059 34.237 69.7947 34.1664C70.2718 33.9882 70.242 34.0009 70.8151 33.7311C71.0987 33.5975 71.3576 33.4882 71.3904 33.4882C71.4231 33.4882 71.4499 33.4701 71.4499 33.4481C71.4499 33.426 71.4862 33.408 71.5306 33.408C71.575 33.408 71.6113 33.3899 71.6113 33.3679C71.6113 33.3458 71.6477 33.3278 71.6921 33.3278C71.7365 33.3278 71.7728 33.3098 71.7728 33.2877C71.7728 33.2657 71.8088 33.2476 71.8528 33.2476C72.0071 33.2476 71.9965 33.0584 71.793 32.1851C71.7621 32.0528 71.7076 31.8093 71.6717 31.6439C71.6358 31.4785 71.5733 31.1988 71.5328 31.0224C71.4923 30.846 71.4274 30.5483 71.3886 30.3609C71.3498 30.1735 71.2851 29.8848 71.2447 29.7194C71.2044 29.554 71.1252 29.2022 71.0689 28.9376C70.8048 27.6975 70.8085 27.7097 70.7141 27.7837C70.6858 27.8058 70.6081 27.8366 70.5415 27.852C70.4749 27.8674 70.2933 27.9403 70.1378 28.0141C69.9824 28.0878 69.8019 28.1601 69.7368 28.1746C69.6717 28.1892 69.5457 28.236 69.4568 28.2786C69.3678 28.3213 69.2658 28.3562 69.23 28.3562C69.1942 28.3562 69.1477 28.3706 69.1265 28.3881C69.1055 28.4057 69.0155 28.4429 68.9267 28.471C68.8379 28.499 68.7289 28.5371 68.6845 28.5557C68.4837 28.6398 67.8233 28.8373 67.743 28.8373C67.694 28.8373 67.6224 28.8539 67.5838 28.8741C67.4793 28.9289 67.1134 29.0244 66.7265 29.0978C66.5378 29.1336 66.3198 29.1786 66.2421 29.1977C66.1081 29.2307 65.9211 29.2588 65.1723 29.3589C64.6279 29.4316 63.8718 29.477 63.1899 29.4779C62.4503 29.479 61.5176 29.4136 61.4603 29.3567C61.4392 29.3357 61.3622 29.3185 61.2892 29.3185C61.0232 29.3185 59.9045 29.0028 59.7223 28.8764C59.7001 28.861 59.6295 28.8359 59.5653 28.8207C59.5013 28.8054 59.3905 28.7488 59.3193 28.6949C59.2481 28.6409 59.1688 28.5968 59.1432 28.5968C59.1175 28.5968 59.0965 28.5787 59.0965 28.5567C59.0965 28.5346 59.0693 28.5166 59.036 28.5166C59.0027 28.5166 58.9754 28.4986 58.9754 28.4765C58.9754 28.4545 58.9482 28.4364 58.9149 28.4364C58.8816 28.4364 58.8543 28.4184 58.8543 28.3963C58.8543 28.3743 58.8315 28.3562 58.8036 28.3562C58.7757 28.3562 58.6777 28.2859 58.5858 28.1999C58.4939 28.1139 58.3805 28.0315 58.3337 28.0168C58.287 28.002 58.2487 27.9712 58.2487 27.9484C58.2487 27.9062 58.062 27.6585 57.8955 27.4798C57.8456 27.4261 57.8047 27.3682 57.8047 27.3509C57.8047 27.3336 57.782 27.2952 57.7542 27.2654C57.5989 27.0991 57.5239 26.9609 57.3015 26.4317C57.2505 26.3105 57.1794 26.143 57.1434 26.0595C57.1074 25.9761 57.078 25.8904 57.078 25.8691C57.078 25.8443 59.9117 25.8303 64.9459 25.8303H72.8137L72.8363 25.7401C72.959 25.2492 72.9982 24.7047 73 23.4648C73.0021 21.9591 72.922 21.029 72.7201 20.2173C72.69 20.096 72.6183 19.7983 72.5609 19.5557C72.5036 19.3132 72.4301 19.0335 72.3977 18.9343C72.3653 18.8351 72.3123 18.6727 72.2799 18.5735C72.2475 18.4742 72.182 18.2938 72.1342 18.1725C72.0864 18.0512 72.038 17.9114 72.0265 17.8618C72.015 17.8122 71.9896 17.7716 71.97 17.7716C71.9504 17.7716 71.9343 17.7442 71.9343 17.7108C71.9343 17.6339 71.4667 16.7041 71.4108 16.6698C71.3879 16.6557 71.3691 16.6092 71.3691 16.5664C71.3691 16.5236 71.3532 16.4886 71.3336 16.4886C71.3141 16.4886 71.2756 16.4345 71.248 16.3683C71.2204 16.3022 71.1864 16.248 71.1725 16.248C71.1585 16.2479 71.0934 16.1622 71.0278 16.0575C70.9622 15.9528 70.885 15.8527 70.8562 15.8351C70.8275 15.8174 70.8039 15.7788 70.8039 15.7491C70.8039 15.7195 70.754 15.64 70.6929 15.5726C70.6318 15.5052 70.5183 15.3753 70.4406 15.284C70.1098 14.8955 70.1063 14.8918 69.6534 14.4664C69.2273 14.0662 69.1555 14.0028 69.129 14.0028C69.1048 14.0028 68.969 13.8934 68.8427 13.7723C68.791 13.7226 68.7247 13.6821 68.6952 13.6821C68.6658 13.6821 68.6156 13.646 68.5836 13.6019C68.5516 13.5578 68.5021 13.5217 68.4737 13.5217C68.4453 13.5217 68.4221 13.5036 68.4221 13.4816C68.4221 13.4595 68.3948 13.4415 68.3615 13.4415C68.3282 13.4415 68.301 13.4255 68.301 13.4061C68.301 13.3866 68.2692 13.3607 68.2303 13.3484C68.161 13.3266 67.937 13.2004 67.8973 13.1608C67.8862 13.1497 67.8226 13.1137 67.756 13.0807C67.6894 13.0477 67.6258 13.0116 67.6147 13.0006C67.5682 12.9542 67.2392 12.8 67.187 12.8C67.1557 12.8 67.1302 12.782 67.1302 12.7599C67.1302 12.7379 67.1047 12.7198 67.0735 12.7198C67.0423 12.7198 66.9469 12.6862 66.8616 12.6452C66.5643 12.5022 66.3204 12.3991 66.2794 12.3991C66.2567 12.3991 66.163 12.363 66.0711 12.3189C65.9791 12.2748 65.8799 12.2387 65.8504 12.2387C65.821 12.2387 65.7653 12.2222 65.7268 12.202C65.6553 12.1646 65.1734 12.0222 64.9906 11.9845C64.9351 11.973 64.817 11.9439 64.7282 11.9198C64.4754 11.8512 63.8557 11.7333 63.4363 11.6739C62.7016 11.5699 62.3825 11.5494 61.2362 11.5325C60.3094 11.5188 59.8551 11.5295 59.3993 11.5757C58.6777 11.6488 57.8573 11.7786 57.7914 11.8301C57.7654 11.8503 57.6351 11.879 57.5019 11.8937C57.2797 11.9183 57.1081 11.9597 56.8963 12.0398C56.8519 12.0566 56.7066 12.1016 56.5734 12.1399C56.4402 12.1781 56.1949 12.2632 56.0284 12.3291C55.8618 12.3949 55.6075 12.495 55.4632 12.5515C55.3189 12.6081 55.1721 12.6781 55.137 12.7071C55.102 12.7362 55.044 12.7599 55.0082 12.7599C54.9724 12.7599 54.9328 12.7766 54.9201 12.7969C54.9075 12.8173 54.8428 12.8458 54.7765 12.8603C54.7101 12.8747 54.6556 12.8987 54.6555 12.9134C54.6553 12.9282 54.6144 12.9604 54.5646 12.9848C54.2325 13.1483 53.9164 13.3252 53.7117 13.4625C53.581 13.5502 53.4458 13.64 53.4112 13.662C53.3765 13.6841 53.3108 13.7352 53.2652 13.7757C53.2196 13.8161 53.1323 13.8752 53.0712 13.907C53.0102 13.9388 52.9602 13.9811 52.9602 14.0011C52.9602 14.0211 52.9285 14.048 52.8896 14.0609C52.8507 14.0738 52.7528 14.1427 52.6719 14.214C52.5911 14.2853 52.4537 14.4011 52.3667 14.4714C52.1358 14.6578 51.6684 15.1241 51.6684 15.1679C51.6684 15.1886 51.6411 15.2056 51.6078 15.2056C51.5745 15.2056 51.5473 15.2192 51.5473 15.2357C51.5473 15.262 51.3929 15.4477 51.1561 15.7065C51.1159 15.7504 51.0411 15.8474 50.9899 15.9221C50.9386 15.9968 50.8751 16.0804 50.8486 16.1079C50.8221 16.1355 50.7732 16.1985 50.7399 16.248C50.7066 16.2976 50.659 16.3592 50.6342 16.3851C50.6093 16.411 50.5771 16.4696 50.5625 16.5153C50.5479 16.5609 50.5001 16.6305 50.4562 16.6699C50.3769 16.7413 50.3765 16.7045 50.3765 8.72292C50.3765 1.00547 50.3737 0.701762 50.3027 0.637894C50.2349 0.576912 49.837 0.571539 45.4047 0.571539H40.5806H40.405V0.757131V7.13939V13.5217H37.9424H35.4799V7.13378V0.745905L35.3864 0.658702L35.293 0.571539H30.4675C25.8522 0.571539 25.6391 0.574707 25.5755 0.644509C25.5155 0.710342 25.508 0.95868 25.4986 3.18041L25.4882 5.64335L25.2904 5.34265C24.8149 4.61984 24.2156 3.9207 23.6141 3.38697C21.567 1.57075 19.0129 0.536538 15.6134 0.147352C14.9792 0.0747427 12.2362 0.0365738 11.6008 0.0915017ZM12.6124 7.95048C12.0405 8.0182 11.467 8.31845 11.1428 8.71999C10.9567 8.95037 10.8176 9.27043 10.7492 9.62582C10.5807 10.5003 10.7792 11.1714 11.3809 11.762C11.7296 12.1043 12.3848 12.5567 12.9142 12.8207C13.6766 13.201 15.1073 13.7582 17.293 14.5261C19.0711 15.1507 20.5237 15.7533 21.812 16.4005C23.1695 17.0826 24.0986 17.771 25.1234 18.8541C25.3007 19.0415 25.4599 19.2009 25.4771 19.2082C25.4943 19.2156 25.5084 17.3889 25.5084 15.1488V11.076H20.8314H16.1544L16.1277 10.6996C16.0373 9.42154 15.4213 8.5439 14.3399 8.15191C13.8205 7.96363 13.1558 7.88617 12.6124 7.95048ZM60.0452 17.4704C59.9564 17.5006 59.7585 17.5643 59.6054 17.612C58.8695 17.8411 58.3405 18.1886 57.9661 18.6888C57.9106 18.763 57.8335 18.8526 57.7946 18.8879C57.7557 18.9232 57.7239 18.9739 57.7239 19.0005C57.7239 19.0271 57.6989 19.0737 57.6683 19.1041C57.5878 19.184 57.3846 19.587 57.198 20.0369C57.1583 20.1326 57.0218 20.5725 56.9607 20.8019C56.8176 21.339 56.6542 22.7887 56.6803 23.2897C56.6877 23.4332 56.7036 23.4648 56.7677 23.4648C56.8415 23.4648 57.1625 23.3974 57.9056 23.2256C58.0832 23.1845 58.3739 23.1209 58.5515 23.0841C58.7292 23.0473 58.9653 22.9937 59.0763 22.965C59.1874 22.9362 59.4599 22.8719 59.6819 22.8221C60.3605 22.6698 61.0479 22.5046 61.1775 22.4628C61.2452 22.441 61.3905 22.4114 61.5005 22.3972C61.6104 22.3829 61.7334 22.3544 61.7738 22.3338C61.8141 22.3133 61.9322 22.2806 62.0362 22.2612C62.3698 22.199 62.4657 22.1766 62.5482 22.1415C62.5926 22.1226 62.6834 22.098 62.75 22.0868C62.8167 22.0756 62.9529 22.0464 63.0528 22.0218C63.1527 21.9971 63.3072 21.9614 63.396 21.9424C63.4848 21.9233 63.721 21.8694 63.9208 21.8225C64.1206 21.7755 64.3544 21.722 64.4404 21.7034C64.6208 21.6644 64.675 21.6012 64.649 21.4602C64.6389 21.405 64.6184 21.2517 64.6037 21.1194C64.5489 20.6297 64.3461 19.8367 64.186 19.4863C64.1383 19.3819 64.0987 19.2827 64.098 19.2657C64.0973 19.2488 64.0738 19.2079 64.0457 19.1748C64.0176 19.1418 63.9551 19.037 63.9067 18.942C63.8584 18.8471 63.8011 18.7479 63.7795 18.7215C63.4992 18.3803 63.3616 18.228 63.3054 18.1967C63.2681 18.176 63.1552 18.0963 63.0544 18.0196C62.9536 17.9429 62.8076 17.8549 62.7299 17.8241C62.582 17.7654 62.5188 17.739 62.2858 17.6388C62.2081 17.6054 62.0537 17.565 61.9426 17.5491C61.8316 17.5331 61.6954 17.5025 61.6399 17.4809C61.4698 17.415 60.2324 17.4068 60.0452 17.4704Z" fill="white"/>
</svg>
