<svg xmlns="http://www.w3.org/2000/svg" width="150" height="30" fill="none"><path fill="#C22076" d="M36 13.463 24.518 27 18 21.039 11.482 27 0 13.463l6.518-5.961 7.146 8.414V3h8.672v12.916l7.146-8.414 4.156 3.788L36 13.463Z"/><path fill="#040483" d="M44.176 24v-3.312h4.2c1.024 0 1.92-.2 2.688-.6a4.283 4.283 0 0 0 1.776-1.8c.416-.784.624-1.712.624-2.784 0-1.072-.216-1.992-.648-2.76a4.317 4.317 0 0 0-1.776-1.776c-.752-.416-1.64-.624-2.664-.624h-4.32V7.056h4.368c1.28 0 2.456.208 3.528.624 1.088.4 2.032.984 2.832 1.752a7.546 7.546 0 0 1 1.872 2.688c.448 1.024.672 2.16.672 3.408 0 1.232-.224 2.368-.672 3.408a7.692 7.692 0 0 1-1.848 2.688 8.534 8.534 0 0 1-2.832 1.752c-1.072.416-2.24.624-3.504.624h-4.296Zm-2.544 0V7.056H45.4V24h-3.768Zm23.518.264c-1.264 0-2.392-.256-3.384-.768a5.935 5.935 0 0 1-2.304-2.184c-.56-.928-.84-1.976-.84-3.144 0-1.168.272-2.208.816-3.12a6.031 6.031 0 0 1 2.256-2.184c.944-.528 2.008-.792 3.192-.792 1.152 0 2.168.248 3.048.744a5.332 5.332 0 0 1 2.064 2.064c.512.88.768 1.888.768 3.024 0 .208-.016.432-.048.672a5.997 5.997 0 0 1-.12.792l-10.056.024v-2.52l8.496-.024-1.584 1.056c-.016-.672-.12-1.224-.312-1.656-.192-.448-.48-.784-.864-1.008-.368-.24-.824-.36-1.368-.36-.576 0-1.08.136-1.512.408a2.65 2.65 0 0 0-.984 1.104c-.224.48-.336 1.064-.336 1.752s.12 1.28.36 1.776c.256.48.608.856 1.056 1.128.464.256 1.008.384 1.632.384.576 0 1.096-.096 1.56-.288a3.557 3.557 0 0 0 1.224-.912l2.016 2.016a5.443 5.443 0 0 1-2.088 1.512c-.816.336-1.712.504-2.688.504Zm11.636.024a8.02 8.02 0 0 1-3.888-1.008 6.509 6.509 0 0 1-1.44-1.152l2.088-2.112c.384.416.84.744 1.368.984a4.379 4.379 0 0 0 1.728.336c.432 0 .76-.064.984-.192.24-.128.36-.304.36-.528 0-.288-.144-.504-.432-.648-.272-.16-.624-.296-1.056-.408l-1.368-.408a6.127 6.127 0 0 1-1.368-.6 3.033 3.033 0 0 1-1.056-1.056c-.272-.464-.408-1.048-.408-1.752 0-.752.192-1.4.576-1.944.384-.56.928-1 1.632-1.32.704-.32 1.528-.48 2.472-.48.992 0 1.904.176 2.736.528.848.336 1.536.84 2.064 1.512l-2.088 2.112c-.368-.432-.784-.736-1.248-.912a3.594 3.594 0 0 0-1.32-.264c-.416 0-.728.064-.936.192a.54.54 0 0 0-.312.504c0 .24.136.432.408.576.272.144.624.272 1.056.384.432.112.888.248 1.368.408.48.16.936.376 1.368.648.432.272.784.64 1.056 1.104.272.448.408 1.04.408 1.776 0 1.136-.432 2.04-1.296 2.712-.848.672-2 1.008-3.456 1.008ZM83.53 24V12.336h3.672V24H83.53Zm1.848-13.272c-.576 0-1.056-.192-1.44-.576-.368-.4-.552-.88-.552-1.44 0-.576.184-1.056.552-1.44.384-.384.864-.576 1.44-.576s1.048.192 1.416.576c.368.384.552.864.552 1.44 0 .56-.184 1.04-.552 1.44-.368.384-.84.576-1.416.576Zm9.354 18.504c-1.28 0-2.408-.224-3.384-.672-.96-.432-1.72-1.048-2.28-1.848l2.256-2.256c.416.496.88.872 1.392 1.128.528.256 1.16.384 1.896.384.912 0 1.624-.224 2.136-.672.528-.448.792-1.08.792-1.896v-2.976l.624-2.544-.552-2.544v-3h3.6v10.968c0 1.2-.28 2.24-.84 3.12-.56.88-1.328 1.568-2.304 2.064-.976.496-2.088.744-3.336.744Zm-.168-5.592c-1.072 0-2.024-.256-2.856-.768a5.491 5.491 0 0 1-1.968-2.088c-.48-.88-.72-1.856-.72-2.928 0-1.088.24-2.064.72-2.928a5.313 5.313 0 0 1 1.968-2.064c.832-.512 1.784-.768 2.856-.768.8 0 1.512.152 2.136.456.64.288 1.152.704 1.536 1.248.4.528.624 1.144.672 1.848v4.44a3.463 3.463 0 0 1-.672 1.848 3.955 3.955 0 0 1-1.536 1.248c-.64.304-1.352.456-2.136.456Zm.696-3.264c.512 0 .952-.112 1.32-.336.384-.224.672-.52.864-.888.208-.384.312-.816.312-1.296 0-.48-.104-.912-.312-1.296a2.156 2.156 0 0 0-.864-.912c-.368-.224-.808-.336-1.32-.336-.496 0-.936.112-1.32.336-.384.224-.68.528-.888.912a2.677 2.677 0 0 0-.312 1.296c0 .448.104.872.312 1.272.208.384.496.688.864.912.384.224.832.336 1.344.336ZM111.508 24v-6.648c0-.608-.192-1.096-.576-1.464-.368-.384-.84-.576-1.416-.576-.4 0-.752.088-1.056.264-.304.16-.544.4-.72.72a2.07 2.07 0 0 0-.264 1.056l-1.416-.696c0-.912.2-1.712.6-2.4.4-.688.952-1.216 1.656-1.584.72-.384 1.528-.576 2.424-.576.864 0 1.624.208 2.28.624.672.4 1.2.936 1.584 1.608.384.672.576 1.408.576 2.208V24h-3.672Zm-7.704 0V12.336h3.672V24h-3.672Z"/><path fill="#C22076" d="m128.88 24-6.864-8.832 6.648-8.112h4.656l-7.488 8.808v-1.536L133.56 24h-4.68Zm-10.248 0V7.056h3.768V24h-3.768Zm16.586 0V12.336h3.672V24h-3.672Zm1.848-13.272c-.576 0-1.056-.192-1.44-.576-.368-.4-.552-.88-.552-1.44 0-.576.184-1.056.552-1.44.384-.384.864-.576 1.44-.576s1.048.192 1.416.576c.368.384.552.864.552 1.44 0 .56-.184 1.04-.552 1.44-.368.384-.84.576-1.416.576ZM143.132 24V7.512h3.672V24h-3.672Zm-2.64-8.544v-3.12h8.952v3.12h-8.952Z"/></svg>