<svg width="24" height="24" viewBox="0 0 24 24" fill="none" xmlns="http://www.w3.org/2000/svg">
<g clip-path="url(#clip0_270_25545)">
<path d="M12 0C5.38028 0 0 5.38028 0 12C0 18.6197 5.38028 24 12 24C18.6197 24 24 18.6197 24 12C24 5.38028 18.6197 0 12 0ZM12 22.7887C6.05634 22.7887 1.21127 17.9437 1.21127 12C1.21127 6.05634 6.05634 1.21127 12 1.21127C17.9437 1.21127 22.7887 6.05634 22.7887 12C22.7887 17.9437 17.9437 22.7887 12 22.7887Z" fill="black"/>
<path d="M12.8451 11.9437L16.3663 8.42253C16.5916 8.19718 16.5916 7.80281 16.3663 7.57746C16.1409 7.35211 15.7465 7.35211 15.5212 7.57746L12.0001 11.0986L8.47893 7.57746C8.25358 7.35211 7.85921 7.35211 7.63386 7.57746C7.40851 7.80281 7.40851 8.19718 7.63386 8.42253L11.155 11.9437L7.63386 15.4366C7.40851 15.662 7.40851 16.0563 7.63386 16.2817C7.74653 16.3944 7.91555 16.4507 8.05639 16.4507C8.19724 16.4507 8.36625 16.3944 8.47893 16.2817L12.0001 12.7606L15.5212 16.2817C15.6339 16.3944 15.8029 16.4507 15.9437 16.4507C16.0846 16.4507 16.2536 16.3944 16.3663 16.2817C16.5916 16.0563 16.5916 15.662 16.3663 15.4366L12.8451 11.9437Z" fill="black"/>
</g>
<defs>
<clipPath id="clip0_270_25545">
<rect width="24" height="24" fill="white"/>
</clipPath>
</defs>
</svg>
