<svg xmlns="http://www.w3.org/2000/svg" width="24" height="25" fill="none"><rect width="23" height="23" x=".5" y=".551" fill="#9D1A4F" rx="11.5"/><rect width="23" height="23" x=".5" y=".551" stroke="#AC295E" rx="11.5"/><path fill="#fff" d="M16.86 7.517a11.401 11.401 0 0 0-2.889-.908c-.124.225-.27.528-.37.769a10.605 10.605 0 0 0-3.201 0c-.1-.241-.249-.544-.374-.769a11.364 11.364 0 0 0-2.89.91c-1.829 2.762-2.324 5.456-2.077 8.111a11.547 11.547 0 0 0 3.543 1.816c.285-.393.54-.81.759-1.25a7.47 7.47 0 0 1-1.195-.581c.1-.075.198-.152.293-.232 2.303 1.077 4.806 1.077 7.082 0 .096.08.194.157.293.232a7.44 7.44 0 0 1-1.197.582c.22.439.473.857.759 1.25 1.156-.36 2.332-.91 3.544-1.817.291-3.078-.496-5.747-2.08-8.113Zm-7.186 6.48c-.691 0-1.258-.645-1.258-1.431 0-.787.555-1.433 1.258-1.433.704 0 1.271.645 1.259 1.433.001.786-.555 1.431-1.259 1.431Zm4.652 0c-.692 0-1.259-.645-1.259-1.431 0-.787.555-1.433 1.259-1.433.703 0 1.27.645 1.258 1.433 0 .786-.555 1.431-1.258 1.431Z"/></svg>