<svg width="20" height="20" viewBox="0 0 20 20" fill="none" xmlns="http://www.w3.org/2000/svg">
<g clip-path="url(#clip0_601_3079)">
<path d="M11.0355 4.9556C10.0287 5.11864 9.39693 5.76471 9.20739 6.82858C9.18293 6.97125 9.17274 7.21174 9.16663 7.92303L9.15644 8.83608H8.40439H7.65234V9.76341V10.6907H8.40643H9.16052V13.0243V15.3579H10.098H11.0355V13.0243V10.6907H11.7591C12.1565 10.6907 12.4826 10.6846 12.4826 10.6785C12.4826 10.6724 12.5335 10.2648 12.5947 9.7736C12.6558 9.28242 12.7068 8.87073 12.7068 8.8585C12.7068 8.8422 12.454 8.83608 11.8691 8.83608H11.0335L11.0396 8.01474C11.0457 7.28919 11.0498 7.18525 11.0824 7.10372C11.1619 6.89992 11.2821 6.78782 11.4982 6.71037C11.6042 6.67165 11.6755 6.66758 12.2441 6.65942L12.8698 6.65127V5.82789C12.8698 5.1859 12.8637 5.00043 12.8453 4.99432C12.7761 4.9719 12.236 4.94133 11.7591 4.93318C11.3453 4.92502 11.1864 4.93114 11.0355 4.9556Z" fill="white"/>
</g>
<defs>
<clipPath id="clip0_601_3079">
<rect width="10.4349" height="10.4349" fill="white" transform="translate(4.80078 4.7998)"/>
</clipPath>
</defs>
</svg>
