<svg width="20" height="20" viewBox="0 0 20 20" fill="none" xmlns="http://www.w3.org/2000/svg">
<path d="M13.2186 14.8272C13.8778 14.5724 14.3989 14.0511 14.6536 13.3916C14.7742 13.0792 14.8586 12.7229 14.8815 12.2015C14.8869 12.0794 14.8911 11.9769 14.8951 11.8741V8.39088C14.8923 8.31821 14.8893 8.24253 14.8854 8.1575C14.8625 7.63617 14.7781 7.27796 14.6575 6.96739C14.5331 6.63783 14.3414 6.34264 14.0906 6.0975C13.8453 5.84814 13.5484 5.65456 13.2226 5.53214C12.9103 5.41154 12.5541 5.32711 12.0329 5.30419C11.5079 5.27917 11.3412 5.27344 10.0099 5.27344C8.67861 5.27344 8.51163 5.27917 7.98869 5.30208C7.46757 5.325 7.1095 5.40942 6.79905 5.53003C6.46962 5.65456 6.17455 5.84633 5.9292 6.0975C5.68024 6.34294 5.48674 6.63994 5.36407 6.96558C5.24351 7.27796 5.15912 7.63436 5.13621 8.15569C5.1112 8.68094 5.10547 8.84768 5.10547 10.1798C5.10547 11.5119 5.11119 11.6787 5.1341 12.2018C5.15701 12.7232 5.2414 13.0817 5.36226 13.3919C5.48674 13.7215 5.68024 14.0167 5.9292 14.2621C6.17455 14.5112 6.47143 14.7051 6.79725 14.8275C7.1095 14.9481 7.46576 15.0325 7.98689 15.0554C8.50982 15.0786 8.6765 15.0844 10.0081 15.0844C11.3397 15.0844 11.5061 15.0786 12.0293 15.0554C12.5504 15.0325 12.9085 14.9481 13.2189 14.8275L13.2186 14.8272ZM10.0117 14.2024C8.70302 14.2024 8.54599 14.1967 8.03059 14.1738C7.55166 14.1527 7.29305 14.0722 7.12065 14.0052C6.90816 13.9265 6.71466 13.802 6.55733 13.6392C6.39457 13.48 6.26979 13.2885 6.19143 13.0756C6.12451 12.9032 6.04404 12.6423 6.02294 12.1653C6.00003 11.6479 5.99431 11.4926 5.99431 10.1834C5.99431 8.87422 6.00003 8.71713 6.02294 8.20182C6.04404 7.7227 6.12451 7.464 6.19143 7.29153C6.27009 7.07865 6.39457 6.88508 6.55944 6.72798C6.71828 6.56516 6.90997 6.44063 7.12246 6.36193C7.29486 6.295 7.55558 6.21449 8.0324 6.19338C8.54961 6.17047 8.70483 6.16474 10.0132 6.16474C11.3216 6.16474 11.4789 6.17047 11.9943 6.19338C12.4733 6.21449 12.7319 6.295 12.9043 6.36193C13.1168 6.44063 13.3103 6.56516 13.4673 6.72798C13.6301 6.88719 13.7548 7.07865 13.8332 7.29153C13.9001 7.464 13.9806 7.72451 14.0017 8.20182C14.0246 8.71924 14.0303 8.87452 14.0303 10.1834C14.0303 11.4923 14.0246 11.6458 14.0017 12.1632C13.9806 12.6423 13.9001 12.9011 13.8332 13.0735C13.6683 13.5011 13.3293 13.8403 12.9022 14.0049C12.7298 14.0719 12.4694 14.1524 11.9922 14.1735C11.475 14.1964 11.3198 14.2021 10.0114 14.2021L10.0117 14.2024Z" fill="white"/>
<path d="M10.0116 7.65918C8.62064 7.65918 7.49219 8.78808 7.49219 10.1796C7.49219 11.5711 8.62064 12.7 10.0116 12.7C11.4026 12.7 12.5307 11.5711 12.5307 10.1796C12.5307 8.78808 11.4023 7.65918 10.0116 7.65918ZM10.0116 11.8142C9.10922 11.8142 8.37741 11.0821 8.37741 10.1793C8.37741 9.27655 9.10922 8.54445 10.0116 8.54445C10.914 8.54445 11.6458 9.27655 11.6458 10.1793C11.6458 11.0821 10.914 11.8142 10.0116 11.8142Z" fill="white"/>
<path d="M13.2159 7.55995C13.2159 7.23491 12.9524 6.97168 12.6273 6.97168C12.3023 6.97168 12.0391 7.23521 12.0391 7.55995C12.0391 7.88469 12.3026 8.14822 12.6273 8.14822C12.9521 8.14822 13.2159 7.88499 13.2159 7.55995Z" fill="white"/>
</svg>
