<svg width="20" height="20" viewBox="0 0 20 20" fill="none" xmlns="http://www.w3.org/2000/svg">
<g clip-path="url(#clip0_601_3098)">
<path d="M6.25273 5.38608C5.94209 5.45305 5.624 5.7023 5.48263 5.98876C5.26686 6.42961 5.34871 6.94673 5.68725 7.30015C6.13368 7.76518 6.87587 7.76518 7.32044 7.30015C7.66084 6.94487 7.74083 6.43147 7.52319 5.99062C7.42461 5.78973 7.20697 5.5721 7.01166 5.47909C6.76612 5.3619 6.50942 5.33028 6.25273 5.38608Z" fill="white"/>
<path d="M12.0859 8.3993C11.5112 8.50905 11.022 8.82155 10.7206 9.27356L10.6332 9.40377L10.6276 8.96106L10.6239 8.52021H9.67523H8.72656V11.701V14.8818H9.71243H10.6983V13.2114C10.6983 12.1735 10.7057 11.4629 10.7188 11.3309C10.782 10.6519 11.035 10.2743 11.5112 10.1478C11.6804 10.1013 11.9669 10.092 12.1269 10.1274C12.4338 10.1925 12.6049 10.3245 12.7351 10.5924C12.9025 10.9421 12.9118 11.0649 12.9118 13.1538V14.8818H13.8977H14.8836V12.9696C14.8836 11.8759 14.8761 10.9477 14.865 10.7989C14.8017 9.92274 14.6101 9.3647 14.2344 8.96292C13.9814 8.6932 13.6447 8.51835 13.1927 8.42348C12.949 8.37326 12.3017 8.36023 12.0859 8.3993Z" fill="white"/>
<path d="M5.52084 8.53323C5.5134 8.53881 5.50781 9.9711 5.50781 11.714V14.8818H6.50337H7.49893L7.49521 11.7047L7.48963 8.52951L6.51082 8.52393C5.97303 8.52207 5.52642 8.52579 5.52084 8.53323Z" fill="white"/>
</g>
<defs>
<clipPath id="clip0_601_3098">
<rect width="9.52384" height="9.52384" fill="white" transform="translate(5.35547 5.35645)"/>
</clipPath>
</defs>
</svg>
