<svg width="30" height="30" viewBox="0 0 30 30" fill="none" xmlns="http://www.w3.org/2000/svg">
<path fill-rule="evenodd" clip-rule="evenodd" d="M15.6098 5.70675C15.9285 6.07727 16.8406 7.24335 17.6371 8.29741C19.0751 10.2015 19.1057 10.2216 22.2214 11.2927C24.3167 12.0131 25.3887 12.5343 25.4498 12.8617C25.5001 13.1316 24.6509 14.3687 23.563 15.6111L21.5849 17.8702L21.9438 21.0572C22.444 25.5032 22.4149 25.5269 18.0705 24.2176L14.7981 23.2312L11.9241 24.1889C7.80877 25.5598 7.83783 25.5814 7.83783 21.1489V17.5362L5.87349 15.4539C4.73855 14.2509 3.94868 13.1606 4.0026 12.8716C4.0661 12.5319 5.10069 12.026 7.22857 11.2942L10.3614 10.2171L11.8051 8.14914C14.2604 4.63262 14.5351 4.4562 15.6098 5.70675ZM11.5802 14.0206C10.9554 14.711 11.1899 15.1921 11.8743 14.6239C12.2425 14.3183 12.4192 14.3183 12.7873 14.6239C13.4717 15.1921 13.7063 14.711 13.0815 14.0206C12.7822 13.6902 12.4446 13.4197 12.3308 13.4197C12.217 13.4197 11.8794 13.6902 11.5802 14.0206ZM16.6723 14.0206C16.0474 14.711 16.282 15.1921 16.9664 14.6239C17.3309 14.3213 17.5134 14.3201 17.8722 14.6179C18.4799 15.1223 18.4617 14.501 17.8509 13.8903C17.2668 13.3065 17.3246 13.2999 16.6723 14.0206ZM13.2294 17.1175C13.2294 17.6902 14.2191 18.5118 14.9086 18.5118C15.676 18.5118 16.8238 17.6938 16.8238 17.1468C16.8238 16.8182 16.3931 16.7146 15.0266 16.7146C13.721 16.7146 13.2294 16.8248 13.2294 17.1175Z" fill="#F9B744"/>
</svg>
