<svg width="13" height="13" viewBox="0 0 13 13" fill="none" xmlns="http://www.w3.org/2000/svg">
<path d="M12.0923 2.1253L7.2302 0.0940228C7.10675 0.0424537 6.89694 0 6.76323 0C6.62872 0 6.4201 0.0424537 6.29576 0.0940228L1.43391 2.1253C0.980367 2.31294 0.684082 2.75728 0.684082 3.22701C0.684082 9.78042 5.47528 13 6.75918 13C8.05574 13 12.8393 9.74488 12.8393 3.22701C12.8393 2.75728 12.5431 2.31294 12.0923 2.1253ZM9.19277 5.07802C9.19277 5.21845 9.14463 5.3596 9.04637 5.47462L6.61532 8.31841C6.44517 8.51849 6.21979 8.50834 6.15395 8.50834C5.9933 8.50834 5.83817 8.44407 5.72421 8.32981L4.50869 7.11105C4.38891 7.01535 4.33066 6.85792 4.33066 6.68019C4.33066 6.35544 4.59149 6.0708 4.93843 6.0708C5.09394 6.0708 5.2494 6.13032 5.36816 6.24933L6.12002 7.00319L8.12386 4.65858C8.24438 4.51812 8.41458 4.44626 8.58576 4.44626C9.05096 4.46863 9.19277 4.89012 9.19277 5.07802Z" fill="white"/>
</svg>
