<svg width="12" height="12" viewBox="0 0 12 12" fill="none" xmlns="http://www.w3.org/2000/svg">
<g clip-path="url(#clip0_130_22807)">
<path d="M5.46234 0.0145597C4.30186 0.127248 3.23066 0.554523 2.291 1.27761C1.83292 1.62976 1.23858 2.2918 0.89561 2.83176C0.747614 3.06418 0.45867 3.6558 0.355308 3.93752C0.2402 4.2521 0.115695 4.73572 0.0546175 5.109C-0.0182058 5.5668 -0.0182058 6.43544 0.0546175 6.89323C0.160329 7.54119 0.327118 8.06237 0.611364 8.64225C0.921451 9.27377 1.24328 9.72217 1.76009 10.241C2.27925 10.7575 2.72794 11.0791 3.35986 11.389C3.9401 11.6731 4.46161 11.8398 5.10997 11.9454C5.56805 12.0182 6.43723 12.0182 6.89532 11.9454C7.54368 11.8398 8.06519 11.6731 8.64543 11.389C9.27734 11.0791 9.72603 10.7575 10.2452 10.241C10.762 9.72217 11.0838 9.27377 11.3939 8.64225C11.6006 8.22201 11.704 7.94734 11.8168 7.52476C11.9648 6.96131 12 6.65377 12 6.00112C12 5.34847 11.9648 5.04092 11.8168 4.47748C11.704 4.0549 11.6006 3.78022 11.3939 3.35999C11.0838 2.72847 10.762 2.28006 10.2452 1.76123C9.72603 1.24474 9.27734 0.923108 8.64543 0.613215C8.06754 0.329147 7.53193 0.160115 6.90706 0.0615129C6.56174 0.00751686 5.79122 -0.0183077 5.46234 0.0145597Z" fill="white"/>
<path d="M9.14801 3.42333C9.26546 3.46089 9.44635 3.63697 9.49568 3.76609C9.55206 3.91634 9.54736 4.1112 9.48158 4.24736C9.40641 4.39996 5.53973 8.23605 5.36589 8.33231C5.19675 8.42152 4.99942 8.42152 4.83028 8.32996C4.73162 8.27831 2.95097 6.68424 2.64793 6.3767C2.52813 6.25697 2.4694 6.11141 2.47175 5.94238C2.47645 5.58788 2.7372 5.34842 3.08957 5.3719C3.17414 5.37894 3.2775 5.40007 3.31744 5.42355C3.38087 5.45406 4.56718 6.52225 4.95244 6.89084L5.06285 6.99883L6.82001 5.24512C7.7855 4.28258 8.6077 3.47733 8.64999 3.4562C8.81208 3.37403 8.95773 3.36464 9.14801 3.42333Z" fill="#711BF2"/>
</g>
<defs>
<clipPath id="clip0_130_22807">
<rect width="12" height="12" fill="white" transform="matrix(1 0 0 -1 0 12)"/>
</clipPath>
</defs>
</svg>
