<svg width="227" height="45" viewBox="0 0 227 45" fill="none" xmlns="http://www.w3.org/2000/svg">
<rect width="43.9716" height="44" rx="3.75" fill="url(#paint0_linear_6006_462)"/>
<rect x="5.57285" y="4.76868" width="14.8488" height="14.8584" rx="1.51961" fill="url(#paint1_linear_6006_462)"/>
<rect x="5.57285" y="24.2968" width="33.4098" height="14.8584" rx="1.01307" fill="white" fill-opacity="0.2"/>
<g filter="url(#filter0_d_6006_462)">
<rect width="31.2363" height="13.8916" rx="1.01307" transform="matrix(0.993837 -0.110847 0.110705 0.993853 4.08897 25.5283)" fill="url(#paint2_linear_6006_462)" shape-rendering="crispEdges"/>
</g>
<rect opacity="0.6" width="26.2127" height="7.14432" rx="0.822415" transform="matrix(0.993837 -0.110847 0.110705 0.993853 6.76111 27.8213)" fill="url(#paint3_linear_6006_462)"/>
<rect x="24.0324" y="4.83789" width="14.8488" height="14.8584" rx="1.51961" fill="url(#paint4_linear_6006_462)"/>
<g filter="url(#filter1_d_6006_462)">
<path d="M37.9439 37.0797L32.7468 34.0337C32.5983 33.8852 32.4498 33.9595 32.3756 34.108C32.3013 34.1823 32.3013 34.2566 32.3013 34.3309L33.415 40.2743C33.415 40.4229 33.6377 40.5715 33.7862 40.4972C33.8605 40.4972 33.9347 40.4229 34.009 40.3486L35.1969 38.0455C35.1969 37.9712 35.2711 37.9712 35.2711 37.9712L37.8697 37.6741C38.0181 37.6741 38.1666 37.5255 38.1666 37.3026C38.0924 37.2283 38.0924 37.0797 37.9439 37.0797Z" fill="#FF7917"/>
<path d="M38.2935 37.3024C38.2935 37.5707 38.113 37.7899 37.8834 37.7985L37.8844 37.7994L35.3131 38.0934L35.3092 38.1031L34.1217 40.4069L34.1129 40.4244L34.0982 40.4381C34.0628 40.4736 34.0189 40.5181 33.9732 40.5524C33.9353 40.5808 33.8823 40.6101 33.8189 40.6188C33.6973 40.6678 33.568 40.6329 33.4781 40.5768C33.3896 40.5215 33.3008 40.4217 33.2906 40.2975L32.1773 34.3541L32.1744 34.3424V34.3307C32.1744 34.2572 32.1731 34.141 32.275 34.0309C32.3227 33.9455 32.3965 33.8667 32.4986 33.8375C32.6104 33.8056 32.7207 33.8425 32.815 33.9274L37.9888 36.9586C38.0305 36.9646 38.0687 36.9768 38.1021 36.9996C38.1453 37.0292 38.1734 37.0673 38.192 37.0983C38.208 37.1251 38.2259 37.162 38.234 37.1774C38.2453 37.199 38.2519 37.209 38.2564 37.2135L38.2935 37.2506V37.3024Z" stroke="white" stroke-width="0.253268"/>
</g>
<rect x="27.1672" y="9.17285" width="8.67909" height="2.17118" rx="0.328966" fill="url(#paint5_linear_6006_462)"/>
<rect x="27.1674" y="13.2728" width="8.67909" height="2.17118" rx="0.328966" fill="url(#paint6_linear_6006_462)"/>
<path d="M11.2639 11.7868L8.72633 14.9148C8.60205 15.068 8.71107 15.2969 8.90834 15.2969H17.1918C17.3526 15.2969 17.4656 15.1386 17.4135 14.9865L15.563 9.59034C15.4981 9.4011 15.2412 9.37492 15.1395 9.54718L13.1565 12.9047C13.0785 13.0368 12.8968 13.0596 12.7886 12.9509L11.612 11.7691C11.5137 11.6704 11.3516 11.6786 11.2639 11.7868Z" fill="url(#paint7_linear_6006_462)"/>
<path d="M9.41994 29.7748C9.4556 29.7302 9.51133 29.6833 9.59159 29.6743L10.5547 29.5669C10.6751 29.5534 10.7509 29.5043 10.8222 29.4151C10.8935 29.3258 10.9225 29.221 10.9091 29.1005C10.8957 28.9801 10.8444 28.8842 10.7574 28.8329C10.6682 28.7616 10.5634 28.7326 10.4631 28.7438L9.49995 28.8513C9.19898 28.8848 8.96937 29.0121 8.77324 29.2575C8.59494 29.4807 8.50361 29.7551 8.53714 30.0562L8.78746 32.3046C8.82099 32.6057 8.94813 32.8355 9.19343 33.0317C9.41643 33.21 9.69069 33.3014 9.99166 33.2678L10.9548 33.1603C11.0752 33.1469 11.151 33.0978 11.2223 33.0085C11.2936 32.9192 11.3226 32.8144 11.3091 32.6939C11.2957 32.5735 11.2444 32.4776 11.1552 32.4063C11.066 32.3349 10.9612 32.306 10.8609 32.3171L9.89779 32.4246C9.83759 32.4313 9.77516 32.418 9.70826 32.3645C9.66366 32.3288 9.61683 32.273 9.60789 32.1927L9.52743 31.47L10.7514 31.3335C10.8718 31.32 10.9476 31.2709 11.0189 31.1817C11.0902 31.0924 11.1192 30.9876 11.1058 30.8671C11.0923 30.7467 11.041 30.6508 10.9518 30.5794C10.8626 30.5081 10.7578 30.4791 10.6575 30.4903L9.43356 30.6269L9.35309 29.9042C9.37092 29.8819 9.38428 29.8194 9.41994 29.7748Z" fill="white"/>
<path d="M14.8211 29.3776C14.3998 29.4246 14.0922 29.5809 13.8805 29.8687C13.6106 29.6346 13.2762 29.55 12.8549 29.597C12.4737 29.6395 12.1482 29.8181 11.9164 30.1082C11.6869 30.4183 11.5822 30.7552 11.6247 31.1366L11.7923 32.6421C11.8057 32.7626 11.857 32.8585 11.944 32.9097C12.0332 32.9811 12.138 33.01 12.2583 32.9966C12.3787 32.9832 12.4545 32.9341 12.5258 32.8448C12.5971 32.7555 12.6261 32.6507 12.6127 32.5303L12.4451 31.0247C12.4272 30.8641 12.474 30.737 12.5609 30.6053C12.65 30.4937 12.7838 30.4179 12.9443 30.3999C13.1048 30.382 13.2319 30.4288 13.3634 30.5158C13.4749 30.6049 13.5508 30.7387 13.5686 30.8993L13.7362 32.4049C13.7497 32.5253 13.801 32.6212 13.8879 32.6725C13.9771 32.7438 14.0819 32.7728 14.2023 32.7593C14.3227 32.7459 14.4185 32.6946 14.4698 32.6076C14.5411 32.5183 14.57 32.4135 14.5566 32.293L14.389 30.7875C14.3711 30.6269 14.4179 30.4997 14.5048 30.3681C14.594 30.2565 14.7277 30.1806 14.8882 30.1627C15.0487 30.1448 15.1758 30.1916 15.3074 30.2785C15.4189 30.3677 15.4947 30.5015 15.5126 30.6621L15.6802 32.1676C15.6936 32.2881 15.7449 32.384 15.8319 32.4352C15.9211 32.5066 16.0259 32.5355 16.1462 32.5221C16.2666 32.5087 16.3625 32.4573 16.4338 32.3681C16.5051 32.2788 16.534 32.174 16.5229 32.0736L16.3553 30.568C16.3128 30.1866 16.1366 29.8811 15.8445 29.6292C15.5591 29.4375 15.2023 29.335 14.8211 29.3776Z" fill="white"/>
<path d="M18.4685 28.9686C18.007 29.0201 17.6437 29.2233 17.3584 29.5803C17.0731 29.9373 16.9573 30.3567 17.0065 30.7983C17.0556 31.24 17.2609 31.6235 17.6176 31.9089C17.9744 32.1943 18.3936 32.3101 18.835 32.2608C19.1761 32.2228 19.4681 32.1089 19.6486 31.9058C19.6732 31.9438 19.72 31.9995 19.7646 32.0352C19.8538 32.1065 19.9586 32.1355 20.079 32.122C20.1994 32.1086 20.2751 32.0595 20.3465 31.9702C20.4178 31.881 20.4467 31.7761 20.4333 31.6557L20.2948 30.4111C20.2434 29.9494 20.0404 29.5859 19.6836 29.3005C19.329 29.0352 18.9099 28.9194 18.4685 28.9686ZM18.7434 31.4378C18.5227 31.4624 18.3131 31.4045 18.1347 31.2618C17.9563 31.1191 17.8537 30.9274 17.8291 30.7065C17.8045 30.4857 17.8624 30.276 18.0051 30.0975C18.1477 29.919 18.3394 29.8163 18.5601 29.7917C18.7808 29.7671 18.9904 29.825 19.1688 29.9676C19.3472 30.1103 19.4475 30.282 19.4744 30.5229C19.4989 30.7438 19.441 30.9535 19.2984 31.132C19.158 31.3306 18.9641 31.4132 18.7434 31.4378Z" fill="white"/>
<path d="M21.2381 28.661C21.1177 28.6744 21.0219 28.7258 20.9506 28.815C20.8792 28.9043 20.8503 29.0091 20.8637 29.1296L21.1386 31.5989C21.152 31.7193 21.2033 31.8152 21.2903 31.8665C21.3795 31.9378 21.4843 31.9668 21.6047 31.9534C21.7251 31.9399 21.821 31.8886 21.8722 31.8016C21.9436 31.7123 21.9725 31.6074 21.9591 31.487L21.6864 29.0378C21.673 28.9173 21.6217 28.8214 21.5347 28.7702C21.4633 28.6765 21.3585 28.6476 21.2381 28.661Z" fill="white"/>
<path d="M20.8104 27.7345C20.7391 27.8237 20.6923 27.9509 20.7058 28.0713C20.7192 28.1918 20.7727 28.3077 20.882 28.3768C20.9712 28.4482 21.0982 28.495 21.2186 28.4815C21.339 28.4681 21.4549 28.4145 21.524 28.3052C21.6154 28.2137 21.6421 28.0888 21.6287 27.9683C21.6153 27.8479 21.5618 27.7319 21.4525 27.6628C21.2518 27.5023 20.9709 27.5336 20.8104 27.7345Z" fill="white"/>
<path d="M23.0583 27.461C22.9691 27.3896 22.8643 27.3606 22.7639 27.3718C22.6435 27.3853 22.5677 27.4344 22.4964 27.5236C22.4251 27.6129 22.3961 27.7178 22.4095 27.8382L22.8097 31.4317C22.8231 31.5522 22.8744 31.6481 22.9614 31.6994C23.0506 31.7707 23.1554 31.7997 23.2758 31.7862C23.3962 31.7728 23.472 31.7237 23.5433 31.6344C23.6147 31.5452 23.6436 31.4403 23.6302 31.3199L23.2301 27.7263C23.2189 27.626 23.1676 27.5301 23.0583 27.461Z" fill="white"/>
<path d="M182.031 24.6623L182.498 24.1952C183.587 23.1053 185.454 23.1053 186.699 24.1952L196.501 34.0041C197.59 35.0939 197.59 36.9623 196.501 38.2079L196.034 38.6749C194.945 39.7648 193.078 39.7648 191.833 38.6749L182.031 28.8661C180.786 27.6205 180.786 25.7522 182.031 24.6623Z" fill="#0081FF"/>
<path d="M209.263 9.24604C209.108 9.09034 209.108 8.93465 209.108 8.77895C209.108 8.62326 209.263 8.46756 209.263 8.31186L209.574 8.15617C209.73 8.00047 209.73 7.84478 209.73 7.68908L209.574 7.53338L208.952 6.44351C208.952 6.28781 208.796 6.28781 208.641 6.28781H208.485L208.174 6.44351H208.018C207.863 6.44351 207.863 6.44351 207.707 6.44351C207.552 6.28781 207.396 6.13212 207.396 5.97642V5.66503C207.396 5.50933 207.24 5.35364 207.085 5.35364H205.529C205.373 5.35364 205.218 5.50933 205.218 5.66503V5.97642C205.218 6.13212 205.062 6.28781 204.907 6.44351C204.751 6.44351 204.751 6.44351 204.595 6.44351H204.44L203.817 6.13212C203.817 6.13212 203.817 6.13212 203.662 6.13212C203.506 6.13212 203.506 6.13212 203.351 6.28781L202.728 7.37769L202.573 7.53338C202.417 7.68908 202.573 7.84478 202.728 8.00047L203.039 8.15617C203.195 8.31186 203.195 8.46756 203.195 8.62326C203.195 8.77895 203.039 8.93465 203.039 9.09034L202.728 9.24604C202.573 9.40174 202.573 9.55743 202.573 9.71313L203.351 11.1144C203.351 11.2701 203.506 11.2701 203.662 11.2701H203.817L204.129 11.1144H204.284C204.44 11.1144 204.44 11.1144 204.595 11.1144C204.751 11.2701 204.907 11.4258 204.907 11.5815V11.8929C204.907 12.0486 205.062 12.2043 205.218 12.2043H206.774C206.929 12.2043 207.085 12.0486 207.085 11.8929V11.5815C207.085 11.4258 207.24 11.2701 207.396 11.1144C207.552 11.1144 207.552 11.1144 207.707 11.1144H207.863L208.174 11.2701C208.174 11.2701 208.174 11.2701 208.33 11.2701C208.485 11.2701 208.485 11.2701 208.641 11.1144L209.419 9.71313C209.574 9.55743 209.419 9.40174 209.263 9.24604ZM206.151 10.3359C205.218 10.3359 204.44 9.55743 204.44 8.62326C204.44 8.46756 204.44 8.31186 204.44 8.31186C204.595 7.53338 205.218 7.0663 205.996 7.0663C206.774 7.0663 207.396 7.53338 207.552 8.31186C207.552 8.46756 207.552 8.62326 207.552 8.77895C207.863 9.55743 207.085 10.3359 206.151 10.3359Z" fill="url(#paint8_linear_6006_462)"/>
<path d="M63.0014 12.2057C63.3125 11.8943 63.7793 11.5829 64.4017 11.5829H71.8703C72.8039 11.5829 73.4263 11.2715 74.0487 10.6487C74.671 10.0259 74.9822 9.24744 74.9822 8.31326C74.9822 7.37909 74.671 6.60061 74.0487 6.13352C73.4263 5.51073 72.6483 5.19934 71.8703 5.19934H64.4017C62.0678 5.19934 60.2006 5.97782 58.4891 7.69048C56.9331 9.24744 55.9995 11.2715 55.9995 13.6069V31.0449C55.9995 33.3803 56.7775 35.2487 58.4891 36.9613C60.045 38.5183 62.0678 39.4525 64.4017 39.4525H71.8703C72.8039 39.4525 73.4263 39.1411 74.0487 38.5183C74.671 37.8955 74.9822 37.117 74.9822 36.1829C74.9822 35.2487 74.671 34.4702 74.0487 33.8474C73.4263 33.2246 72.6483 32.9132 71.8703 32.9132H64.4017C63.9349 32.9132 63.4681 32.7576 63.0014 32.2905C62.6902 31.9791 62.379 31.512 62.379 30.8892V25.2841H71.8703C72.8039 25.2841 73.4263 24.9727 74.0487 24.35C74.671 23.7272 74.9822 22.9487 74.9822 22.0145C74.9822 21.0803 74.671 20.3019 74.0487 19.6791C73.4263 19.0563 72.6483 18.7449 71.8703 18.7449H62.379V13.1398C62.5346 12.9841 62.6902 12.5171 63.0014 12.2057Z" fill="#211846"/>
<path d="M104.702 13.7627C101.435 13.7627 98.945 14.6969 97.0779 16.7209C95.2107 14.6969 92.7212 13.7627 89.4537 13.7627C86.4974 13.7627 83.8522 14.8526 81.8295 16.8766C79.8067 19.0564 78.7176 21.5475 78.7176 24.5057V36.1829C78.7176 37.1171 79.0288 37.8956 79.6511 38.3627C80.2735 38.9855 81.0515 39.2969 81.9851 39.2969C82.9187 39.2969 83.541 38.9855 84.1634 38.3627C84.7858 37.7399 85.097 36.9614 85.097 36.0272V24.35C85.097 23.1045 85.5638 22.1703 86.3418 21.2361C87.1197 20.4576 88.2089 19.9905 89.4537 19.9905C90.6984 19.9905 91.632 20.4576 92.5656 21.2361C93.3436 22.0146 93.8104 23.1045 93.8104 24.35V36.0272C93.8104 36.9614 94.1216 37.7399 94.7439 38.207C95.3663 38.8298 96.1443 39.1412 97.0779 39.1412C98.0115 39.1412 98.7894 38.8298 99.2562 38.207C99.8786 37.5842 100.19 36.8057 100.19 35.8715V24.1943C100.19 22.9488 100.657 22.0146 101.435 21.0804C102.213 20.3019 103.302 19.8348 104.546 19.8348C105.791 19.8348 106.725 20.3019 107.658 21.0804C108.436 21.8589 108.903 22.9488 108.903 24.1943V35.8715C108.903 36.8057 109.214 37.5842 109.837 38.0513C110.459 38.6741 111.237 38.9855 112.171 38.9855C113.104 38.9855 113.882 38.6741 114.505 38.0513C115.127 37.4285 115.438 36.65 115.438 35.8715V24.1943C115.438 21.2361 114.349 18.745 112.326 16.5652C110.304 14.8526 107.658 13.7627 104.702 13.7627Z" fill="#211846"/>
<path d="M133.023 13.7627C129.444 13.7627 126.488 15.0083 123.998 17.4994C121.509 19.9905 120.264 23.1045 120.264 26.5298C120.264 29.9551 121.509 33.069 123.998 35.5602C126.488 38.0513 129.6 39.2969 133.023 39.2969C135.668 39.2969 138.002 38.6741 139.558 37.2728C139.713 37.5842 140.025 38.0513 140.336 38.3627C140.958 38.9855 141.736 39.2969 142.67 39.2969C143.603 39.2969 144.226 38.9855 144.848 38.3627C145.47 37.7399 145.782 36.9614 145.782 36.0272V26.3741C145.782 22.7931 144.537 19.8348 142.047 17.3437C139.558 15.0083 136.446 13.7627 133.023 13.7627ZM133.023 32.9133C131.311 32.9133 129.755 32.2905 128.51 31.045C127.266 29.7994 126.643 28.2424 126.643 26.5298C126.643 24.8171 127.266 23.2602 128.51 22.0146C129.755 20.769 131.311 20.1462 133.023 20.1462C134.734 20.1462 136.29 20.769 137.535 22.0146C138.78 23.2602 139.402 24.6614 139.402 26.5298C139.402 28.2424 138.78 29.7994 137.535 31.045C136.29 32.4462 134.734 32.9133 133.023 32.9133Z" fill="#211846"/>
<path d="M154.488 13.7627C153.555 13.7627 152.777 14.0741 152.154 14.6969C151.532 15.3197 151.221 16.0981 151.221 17.0323V36.1829C151.221 37.1171 151.532 37.8956 152.154 38.3627C152.777 38.9855 153.555 39.2969 154.488 39.2969C155.422 39.2969 156.2 38.9855 156.667 38.3627C157.289 37.7399 157.6 36.9614 157.6 36.0272V17.0323C157.6 16.0981 157.289 15.3197 156.667 14.8526C156.2 14.0741 155.422 13.7627 154.488 13.7627Z" fill="#211846"/>
<path d="M152.002 6.28996C151.38 6.91275 150.913 7.84692 150.913 8.7811C150.913 9.71528 151.224 10.6495 152.002 11.2722C152.624 11.895 153.558 12.3621 154.492 12.3621C155.425 12.3621 156.359 12.0507 156.981 11.2722C157.759 10.6495 158.07 9.71528 158.07 8.7811C158.07 7.84692 157.759 6.91275 156.981 6.28996C155.581 4.8887 153.402 4.8887 152.002 6.28996Z" fill="#211846"/>
<path d="M169.429 6.13352C168.806 5.51073 168.028 5.19934 167.25 5.19934C166.317 5.19934 165.694 5.51073 165.072 6.13352C164.45 6.7563 164.138 7.53478 164.138 8.46896V36.3386C164.138 37.2727 164.45 38.0512 165.072 38.5183C165.694 39.1411 166.472 39.4525 167.406 39.4525C168.34 39.4525 168.962 39.1411 169.584 38.5183C170.207 37.8955 170.518 37.117 170.518 36.1829V8.31326C170.518 7.53478 170.207 6.7563 169.429 6.13352Z" fill="#211846"/>
<path d="M206.148 13.7627C205.215 13.7627 204.437 14.0741 203.814 14.6969C203.192 15.3197 202.881 16.0981 202.881 17.0323V36.1829C202.881 37.1171 203.192 37.8956 203.814 38.3627C204.437 38.9855 205.215 39.2969 206.148 39.2969C207.082 39.2969 207.86 38.9855 208.327 38.3627C208.949 37.7399 209.26 36.9614 209.26 36.0272V17.0323C209.26 16.0981 208.949 15.3197 208.327 14.8526C207.86 14.0741 207.082 13.7627 206.148 13.7627Z" fill="#0081FF"/>
<path d="M223.733 32.914H222.021C221.71 32.914 221.555 32.914 221.399 32.6026C221.243 32.4469 221.088 32.2912 221.088 31.9798V20.1469H223.577C224.511 20.1469 225.133 19.8355 225.756 19.2127C226.378 18.5899 226.689 17.8115 226.689 16.8773C226.689 15.9431 226.378 15.1646 225.756 14.5418C225.133 13.919 224.355 13.6077 223.577 13.6077H221.088V8.15829C221.088 7.22411 220.777 6.44563 220.154 5.82285C219.532 5.20006 218.754 4.88867 217.976 4.88867C217.042 4.88867 216.42 5.20006 215.798 5.82285C215.175 6.44563 214.864 7.22411 214.864 8.15829V31.9798C214.864 34.0039 215.642 35.7165 217.042 37.1178C218.443 38.519 220.154 39.2975 222.177 39.2975H223.888C224.822 39.2975 225.444 38.9861 226.067 38.3633C226.689 37.7406 227 36.9621 227 36.0279C227 35.0937 226.689 34.3152 226.067 33.6925C225.444 33.2254 224.666 32.914 223.733 32.914Z" fill="#0081FF"/>
<path d="M182.344 29.0196L181.877 28.5525C180.788 27.4626 180.788 25.5942 181.877 24.3487L191.679 14.5398C192.769 13.4499 194.636 13.4499 195.88 14.5398L196.347 15.0069C197.436 16.0968 197.436 17.9651 196.347 19.2107L186.545 29.0196C185.456 30.1094 183.588 30.1094 182.344 29.0196Z" fill="#0081FF"/>
<path d="M179.695 39.4525H179.073C177.517 39.4525 176.116 38.2069 176.116 36.4943V8.15757C176.116 6.60061 177.361 5.19934 179.073 5.19934H179.695C181.251 5.19934 182.651 6.44491 182.651 8.15757V36.4943C182.651 38.0512 181.251 39.4525 179.695 39.4525Z" fill="#0081FF"/>
<defs>
<filter id="filter0_d_6006_462" x="1.15559" y="21.1588" width="38.4485" height="23.1351" filterUnits="userSpaceOnUse" color-interpolation-filters="sRGB">
<feFlood flood-opacity="0" result="BackgroundImageFix"/>
<feColorMatrix in="SourceAlpha" type="matrix" values="0 0 0 0 0 0 0 0 0 0 0 0 0 0 0 0 0 0 127 0" result="hardAlpha"/>
<feOffset dy="2.02615"/>
<feGaussianBlur stdDeviation="1.51961"/>
<feComposite in2="hardAlpha" operator="out"/>
<feColorMatrix type="matrix" values="0 0 0 0 0.00791667 0 0 0 0 0.0322459 0 0 0 0 0.0791667 0 0 0 0.3 0"/>
<feBlend mode="normal" in2="BackgroundImageFix" result="effect1_dropShadow_6006_462"/>
<feBlend mode="normal" in="SourceGraphic" in2="effect1_dropShadow_6006_462" result="shape"/>
</filter>
<filter id="filter1_d_6006_462" x="29.5154" y="32.6861" width="11.4372" height="12.1367" filterUnits="userSpaceOnUse" color-interpolation-filters="sRGB">
<feFlood flood-opacity="0" result="BackgroundImageFix"/>
<feColorMatrix in="SourceAlpha" type="matrix" values="0 0 0 0 0 0 0 0 0 0 0 0 0 0 0 0 0 0 127 0" result="hardAlpha"/>
<feOffset dy="1.51961"/>
<feGaussianBlur stdDeviation="1.26634"/>
<feComposite in2="hardAlpha" operator="out"/>
<feColorMatrix type="matrix" values="0 0 0 0 0.00784314 0 0 0 0 0.0313726 0 0 0 0 0.0784314 0 0 0 0.4 0"/>
<feBlend mode="normal" in2="BackgroundImageFix" result="effect1_dropShadow_6006_462"/>
<feBlend mode="normal" in="SourceGraphic" in2="effect1_dropShadow_6006_462" result="shape"/>
</filter>
<linearGradient id="paint0_linear_6006_462" x1="22.0103" y1="43.976" x2="22.0103" y2="-0.0329387" gradientUnits="userSpaceOnUse">
<stop stop-color="#095BFF"/>
<stop offset="1" stop-color="#1EB5FE"/>
</linearGradient>
<linearGradient id="paint1_linear_6006_462" x1="17.0046" y1="4.76868" x2="7.23571" y2="19.6213" gradientUnits="userSpaceOnUse">
<stop stop-color="white"/>
<stop offset="1" stop-color="white" stop-opacity="0.76"/>
</linearGradient>
<linearGradient id="paint2_linear_6006_462" x1="24.0481" y1="1.70274e-07" x2="18.6908" y2="18.3272" gradientUnits="userSpaceOnUse">
<stop stop-color="white"/>
<stop offset="1" stop-color="white" stop-opacity="0.76"/>
</linearGradient>
<linearGradient id="paint3_linear_6006_462" x1="-0.713973" y1="6.33437" x2="4.37115" y2="-8.54439" gradientUnits="userSpaceOnUse">
<stop stop-color="#5E6EFF"/>
<stop offset="1" stop-color="#F1F3FE" stop-opacity="0.76"/>
</linearGradient>
<linearGradient id="paint4_linear_6006_462" x1="35.4642" y1="4.83789" x2="25.6953" y2="19.6905" gradientUnits="userSpaceOnUse">
<stop stop-color="white"/>
<stop offset="1" stop-color="white" stop-opacity="0.76"/>
</linearGradient>
<linearGradient id="paint5_linear_6006_462" x1="35.7258" y1="9.08934" x2="33.5508" y2="14.8917" gradientUnits="userSpaceOnUse">
<stop stop-color="#FFBB6B"/>
<stop offset="0.0001" stop-color="#FFA740"/>
<stop offset="1" stop-color="#FFA740" stop-opacity="0"/>
</linearGradient>
<linearGradient id="paint6_linear_6006_462" x1="35.7259" y1="13.1893" x2="33.5509" y2="18.9917" gradientUnits="userSpaceOnUse">
<stop stop-color="#FFBB6B"/>
<stop offset="0.0001" stop-color="#FFA740"/>
<stop offset="1" stop-color="#FFA740" stop-opacity="0"/>
</linearGradient>
<linearGradient id="paint7_linear_6006_462" x1="15.8023" y1="10.4844" x2="13.7268" y2="16.5213" gradientUnits="userSpaceOnUse">
<stop stop-color="#4DB9FF"/>
<stop offset="1" stop-color="#62C7FF"/>
</linearGradient>
<linearGradient id="paint8_linear_6006_462" x1="202.648" y1="8.70671" x2="209.637" y2="8.70671" gradientUnits="userSpaceOnUse">
<stop stop-color="#FC2F02"/>
<stop offset="1" stop-color="#FF5C00"/>
</linearGradient>
</defs>
</svg>
