<svg width="610" height="160" viewBox="0 0 610 160" fill="none" xmlns="http://www.w3.org/2000/svg">
<rect width="610" height="160" fill="black"/>
<g clip-path="url(#clip0_3928_7507)">
<path fill-rule="evenodd" clip-rule="evenodd" d="M138.258 69.0922C135.416 67.605 132.257 66.8282 129.05 66.8282C125.844 66.8282 122.685 67.605 119.843 69.0922C118.469 69.866 117.212 70.8321 116.111 71.9612V45.0713H103.736V113.442H116.111V87.2461C116.075 85.5631 116.481 83.9001 117.289 82.4235C118.053 81.0674 119.182 79.9539 120.549 79.2105C122.003 78.4377 123.629 78.0467 125.275 78.0739C126.496 78.0115 127.717 78.2059 128.858 78.6445C129.999 79.0831 131.036 79.7562 131.901 80.6204C132.766 81.4846 133.441 82.5208 133.881 83.662C134.322 84.8032 134.518 86.0242 134.458 87.2461V113.442H146.84V84.5061C146.903 81.3018 146.12 78.1376 144.569 75.3339C143.08 72.7109 140.896 70.5508 138.258 69.0922ZM84.3996 101.763C82.6204 102.51 80.7059 102.88 78.7767 102.85C76.6419 102.886 74.5366 102.347 72.6812 101.29C70.8929 100.256 69.4219 98.7519 68.4274 96.9405C67.3641 94.9838 66.8268 92.7843 66.8682 90.5574C66.8124 88.3289 67.3505 86.1257 68.4274 84.1744C69.4462 82.4052 70.9135 80.9366 72.6812 79.917C74.5383 78.8646 76.6428 78.3279 78.7767 78.3627C80.6687 78.3399 82.5464 78.6928 84.3013 79.4009C85.9402 80.0764 87.4081 81.1089 88.5982 82.4235L96.5353 74.3879C94.3602 71.9513 91.6838 70.0147 88.6902 68.7113C85.5575 67.3667 82.1789 66.6909 78.7704 66.727C74.3914 66.6714 70.0741 67.7643 66.2481 69.897C62.5391 71.9279 59.4563 74.9358 57.3333 78.595C55.2104 82.2542 54.1282 86.4251 54.2045 90.6557C54.1415 94.8589 55.2261 98.9997 57.3408 102.632C59.4555 106.264 62.5204 109.249 66.2052 111.267C70.0516 113.382 74.3822 114.458 78.7704 114.388C82.1789 114.424 85.5575 113.748 88.6902 112.404C91.7395 111.059 94.4758 109.095 96.7253 106.635L88.6902 98.5931C87.5199 99.963 86.0524 101.047 84.3996 101.763ZM184.695 68.8096C186.355 69.6502 187.857 70.7727 189.133 72.127V67.7713H201.41V113.442H189.133V109.019C187.848 110.368 186.348 111.495 184.695 112.354C181.976 113.743 178.957 114.442 175.905 114.388C171.938 114.442 168.038 113.359 164.666 111.267C161.331 109.192 158.62 106.251 156.821 102.758C154.955 98.9796 153.984 94.8214 153.984 90.6066C153.984 86.3917 154.955 82.2335 156.821 78.4548C158.619 74.9606 161.33 72.0199 164.666 69.9461C168.038 67.8538 171.938 66.7709 175.905 66.8253C178.952 66.7704 181.967 67.4511 184.695 68.8096ZM178.176 102.949C181.643 102.945 184.446 101.794 186.586 99.4961C188.726 97.1944 189.796 94.2148 189.796 90.5574C189.839 88.342 189.338 86.15 188.335 84.1744C187.41 82.3751 186.003 80.869 184.272 79.8248C182.421 78.7556 180.313 78.2158 178.176 78.2644C176.07 78.222 173.992 78.762 172.173 79.8248C170.442 80.8676 169.036 82.3742 168.115 84.1744C167.108 86.1486 166.604 88.3413 166.648 90.5574C166.598 92.8057 167.102 95.0318 168.115 97.0388C169.038 98.8378 170.443 100.344 172.173 101.388C173.992 102.451 176.07 102.991 178.176 102.949ZM242.495 67.9127C240.6 67.1627 238.577 66.7932 236.54 66.8253C231.437 66.8253 227.533 68.4471 224.828 71.6909L224.73 71.8199V67.7714H212.355V113.442H224.73V88.1922C224.73 84.7887 225.565 82.2515 227.235 80.5805C228.087 79.7433 229.1 79.0891 230.214 78.6581C231.327 78.2271 232.517 78.0283 233.71 78.0739C234.853 78.0545 235.99 78.2483 237.062 78.6453C238.018 79.0086 238.876 79.5915 239.567 80.347L247.313 71.4574C246.002 69.9193 244.353 68.706 242.495 67.9127ZM278.331 68.8096C279.992 69.6501 281.496 70.7726 282.775 72.1271L282.793 67.7714H295.07V113.442H282.793V109.019C281.505 110.368 280.004 111.495 278.349 112.354C275.632 113.743 272.615 114.441 269.565 114.388C265.596 114.442 261.694 113.359 258.319 111.267C254.985 109.192 252.274 106.251 250.475 102.758C248.609 98.9796 247.639 94.8214 247.639 90.6066C247.639 86.3917 248.609 82.2335 250.475 78.4548C252.267 74.9629 254.972 72.0225 258.301 69.9461C261.676 67.854 265.577 66.7711 269.546 66.8253C272.591 66.7712 275.604 67.4518 278.331 68.8096ZM271.812 102.949C275.278 102.945 278.081 101.794 280.221 99.4962C282.362 97.1944 283.432 94.2148 283.432 90.5574C283.475 88.3421 282.973 86.15 281.971 84.1744C281.048 82.3738 279.64 80.8672 277.907 79.8248C276.056 78.7556 273.948 78.2159 271.812 78.2644C269.707 78.2229 267.632 78.7628 265.815 79.8248C264.08 80.8654 262.672 82.3725 261.751 84.1744C260.744 86.1486 260.24 88.3413 260.284 90.5574C260.233 92.8057 260.737 95.0318 261.751 97.0388C262.674 98.8394 264.081 100.346 265.815 101.388C267.632 102.45 269.707 102.99 271.812 102.949ZM333.184 101.763C331.404 102.509 329.49 102.88 327.561 102.85C325.426 102.888 323.32 102.349 321.465 101.29C319.676 100.258 318.204 98.7532 317.211 96.9405C316.148 94.9838 315.611 92.7843 315.652 90.5574C315.596 88.3289 316.135 86.1257 317.211 84.1744C318.229 82.404 319.696 80.935 321.465 79.917C323.322 78.8632 325.427 78.3265 327.561 78.3627C329.453 78.3386 331.331 78.6915 333.085 79.4009C334.725 80.0755 336.193 81.1082 337.382 82.4235L345.313 74.3879C343.14 71.9514 340.466 70.0148 337.474 68.7113C334.341 67.3679 330.963 66.6922 327.554 66.727C323.175 66.6714 318.858 67.7643 315.032 69.897C311.323 71.9279 308.24 74.9358 306.117 78.595C303.994 82.2542 302.912 86.4251 302.988 90.6557C302.926 94.8581 304.01 98.9979 306.124 102.63C308.237 106.261 311.3 109.248 314.983 111.267C318.832 113.382 323.164 114.457 327.554 114.388C330.963 114.423 334.341 113.747 337.474 112.404C340.522 111.061 343.257 109.096 345.503 106.635L337.474 98.5931C336.303 99.9617 334.836 101.046 333.184 101.763ZM358.455 48.7574H370.837V67.7652H381.511V78.6391H370.837V113.442H358.455V78.6391H347.781V67.7652H358.455V48.7574ZM420.011 69.7065C416.465 67.6759 412.434 66.6462 408.348 66.727C404.077 66.6767 399.87 67.7712 396.164 69.897C392.589 71.9306 389.608 74.8637 387.515 78.4057C385.886 81.1391 384.824 84.1728 384.392 87.326C383.96 90.4791 384.166 93.687 385 96.7584C385.834 99.8297 387.277 102.702 389.243 105.203C391.21 107.704 393.659 109.783 396.446 111.316C400.366 113.414 404.758 114.471 409.202 114.388C412.747 114.42 416.263 113.745 419.545 112.404C422.665 111.121 425.434 109.111 427.623 106.543L420.349 99.2565C419.007 100.802 417.326 102.017 415.438 102.807C413.426 103.617 411.272 104.018 409.103 103.987C406.731 104.037 404.387 103.468 402.302 102.334C400.359 101.25 398.789 99.6029 397.797 97.6101C397.376 96.777 397.045 95.9018 396.808 94.9991L430.158 94.9131C430.387 93.9635 430.561 93.0015 430.68 92.0318C431.206 87.1351 430.251 82.193 427.936 77.8466C426.076 74.4679 423.338 71.6553 420.011 69.7065ZM396.821 85.7225C397.039 84.8959 397.339 84.0932 397.717 83.3266C398.634 81.4016 400.096 79.7888 401.922 78.6883C403.869 77.555 406.091 76.983 408.342 77.0357C410.409 76.9682 412.453 77.4765 414.247 78.504C415.872 79.5022 417.156 80.9693 417.93 82.7122C418.358 83.6557 418.683 84.6422 418.9 85.6549L396.821 85.7225ZM473.447 71.4574L465.694 80.347C465.005 79.5917 464.15 79.0088 463.195 78.6453C462.121 78.2475 460.982 78.0537 459.838 78.0739C458.645 78.0277 457.456 78.2262 456.344 78.6573C455.231 79.0883 454.218 79.7428 453.368 80.5804C451.698 82.2515 450.863 84.7887 450.863 88.1922V113.442H438.482V67.7713H450.863V71.8199L450.955 71.6909C453.669 68.4471 457.575 66.8253 462.674 66.8253C464.71 66.7944 466.733 67.1638 468.628 67.9126C470.485 68.7075 472.134 69.9206 473.447 71.4574ZM468.959 98.6913C467.922 98.6545 466.889 98.8374 465.927 99.2281C464.966 99.6187 464.097 100.208 463.379 100.958C461.982 102.481 461.207 104.472 461.207 106.54C461.207 108.607 461.982 110.599 463.379 112.121C464.097 112.871 464.966 113.46 465.927 113.851C466.889 114.242 467.922 114.425 468.959 114.388C469.98 114.416 470.995 114.229 471.939 113.839C472.882 113.448 473.733 112.863 474.435 112.121C475.832 110.599 476.607 108.607 476.607 106.54C476.607 104.472 475.832 102.481 474.435 100.958C473.733 100.216 472.882 99.631 471.939 99.2404C470.995 98.8498 469.98 98.6627 468.959 98.6913ZM514.899 68.8096C516.559 69.6502 518.061 70.7727 519.337 72.127L519.319 67.7713H531.596V113.46H519.319V109.037C518.033 110.386 516.534 111.513 514.881 112.373C512.161 113.761 509.143 114.459 506.091 114.406C502.121 114.46 498.22 113.377 494.845 111.285C491.512 109.21 488.803 106.27 487.006 102.777C485.141 98.998 484.17 94.8399 484.17 90.625C484.17 86.4101 485.141 82.252 487.006 78.4732C488.802 74.9792 491.511 72.0385 494.845 69.9646C498.223 67.8632 502.132 66.7738 506.109 66.8253C509.156 66.7711 512.171 67.4517 514.899 68.8096ZM508.374 102.949C511.836 102.945 514.639 101.794 516.784 99.4961H516.765C518.91 97.1944 519.988 94.2148 520 90.5574C520.042 88.3415 519.538 86.1495 518.533 84.1744C517.61 82.3738 516.203 80.8672 514.469 79.8248C512.619 78.7556 510.51 78.2158 508.374 78.2644C506.27 78.2229 504.195 78.7628 502.377 79.8248C500.644 80.8672 499.236 82.3738 498.313 84.1744C497.311 86.15 496.809 88.342 496.852 90.5574C496.803 92.8049 497.304 95.0302 498.313 97.0388C499.238 98.8382 500.645 100.344 502.377 101.388C504.195 102.45 506.27 102.99 508.374 102.949ZM555.038 67.7652H542.565V113.442H555.038V67.7652ZM551.548 59.9179C550.676 60.2684 549.74 60.4303 548.802 60.3931C547.872 60.421 546.947 60.2545 546.086 59.9044C545.224 59.5542 544.446 59.0281 543.799 58.3596C542.523 56.994 541.814 55.1944 541.814 53.325C541.814 51.4556 542.523 49.656 543.799 48.2905C545.134 46.9568 546.943 46.2077 548.829 46.2077C550.716 46.2077 552.525 46.9568 553.86 48.2905C555.108 49.6699 555.799 51.4642 555.799 53.325C555.799 55.1858 555.108 56.9802 553.86 58.3596C553.208 59.0364 552.42 59.5674 551.548 59.9179Z" fill="white"/>
</g>
<defs>
<clipPath id="clip0_3928_7507">
<rect width="521.19" height="69.48" fill="white" transform="translate(44.405 45)"/>
</clipPath>
</defs>
</svg>
