<svg width="612" height="188" viewBox="0 0 612 188" fill="none" xmlns="http://www.w3.org/2000/svg">
<path fill-rule="evenodd" clip-rule="evenodd" d="M271.135 0C252.547 0 234.376 5.49053 218.921 15.7773C203.465 26.064 191.419 40.685 184.306 57.7912C177.192 74.8974 175.331 93.7207 178.958 111.881C182.584 130.04 191.535 146.721 204.679 159.814C217.822 172.906 234.569 181.823 252.8 185.435C271.03 189.047 289.927 187.193 307.1 180.107C324.274 173.022 338.952 161.023 349.279 145.628C359.606 130.232 365.118 112.132 365.118 93.6168C365.118 68.7881 355.216 44.9763 337.591 27.4197C319.965 9.86318 296.061 0 271.135 0ZM271.135 160.486C257.857 160.486 244.878 156.564 233.839 149.216C222.799 141.869 214.195 131.425 209.114 119.207C204.033 106.988 202.704 93.5426 205.294 80.5713C207.884 67.5999 214.278 55.685 223.666 46.3332C233.055 36.9814 245.016 30.6127 258.038 28.0325C271.06 25.4524 284.558 26.7766 296.824 31.8378C309.091 36.8989 319.575 45.4697 326.952 56.4663C334.328 67.4629 338.265 80.3913 338.265 93.6168C338.265 111.352 331.193 128.36 318.603 140.9C306.014 153.441 288.939 160.486 271.135 160.486ZM75.0683 176.533C75.0683 177.952 75.6341 179.312 76.6413 180.316C77.6484 181.319 79.0144 181.883 80.4388 181.883H96.5501C97.9745 181.883 99.3405 181.319 100.348 180.316C101.355 179.312 101.921 177.952 101.921 176.533V92.5751C121.882 89.5212 140.198 79.7698 153.838 64.9345C167.478 50.0993 175.624 31.0696 176.928 10.9947C176.97 10.268 176.862 9.54041 176.611 8.8567C176.36 8.17298 175.972 7.54754 175.47 7.01875C174.967 6.48997 174.362 6.069 173.69 5.78169C173.019 5.49438 172.296 5.34679 171.565 5.34798H155.424C154.069 5.35354 152.766 5.86749 151.775 6.78737C150.784 7.70725 150.177 8.96547 150.076 10.3111C148.823 25.7232 141.793 40.1009 130.382 50.5842C118.971 61.0675 104.017 66.888 88.4944 66.888C72.9715 66.888 58.0174 61.0675 46.6068 50.5842C35.1963 40.1009 28.1656 25.7232 26.9132 10.3111C26.8119 8.96547 26.2051 7.70725 25.2139 6.78737C24.2227 5.86749 22.9199 5.35354 21.5651 5.34798H5.37173C4.64096 5.34679 3.91766 5.49438 3.24622 5.78169C2.57478 6.069 1.96938 6.48997 1.46716 7.01875C0.964947 7.54754 0.576519 8.17298 0.325724 8.8567C0.0749294 9.54041 -0.0329449 10.268 0.00872716 10.9947C1.30827 31.0824 9.45873 50.125 23.1097 64.9672C36.7606 79.8095 55.0926 89.5606 75.0683 92.6048V176.533ZM431.59 137.127C420.005 125.587 413.496 109.935 413.496 93.6152L413.519 10.6975C413.52 9.99534 413.382 9.29988 413.113 8.65088C412.844 8.00189 412.449 7.41211 411.951 6.91526C411.453 6.41841 410.861 6.02425 410.21 5.75532C409.559 5.48639 408.861 5.34797 408.156 5.34797H391.992C391.288 5.34797 390.59 5.48644 389.939 5.75546C389.289 6.02448 388.698 6.41876 388.2 6.9157C387.703 7.41265 387.308 8.00249 387.04 8.65144C386.772 9.30039 386.635 9.99569 386.637 10.6975V93.6152C386.637 117.031 395.975 139.488 412.597 156.045C429.22 172.603 451.764 181.905 475.272 181.905C498.779 181.905 521.324 172.603 537.946 156.045C554.568 139.488 563.907 117.031 563.907 93.6152V10.6975C563.908 9.99534 563.77 9.29988 563.5 8.65088C563.231 8.00189 562.837 7.41211 562.338 6.91526C561.84 6.41841 561.249 6.02425 560.598 5.75532C559.946 5.48639 559.249 5.34797 558.544 5.34797H542.41C541.705 5.34797 541.007 5.48639 540.356 5.75532C539.705 6.02425 539.113 6.41841 538.615 6.91526C538.117 7.41211 537.722 8.00189 537.453 8.65088C537.184 9.29988 537.046 9.99534 537.047 10.6975V93.6152C537.047 109.935 530.538 125.587 518.953 137.127C507.368 148.667 491.655 155.15 475.272 155.15C458.888 155.15 443.175 148.667 431.59 137.127Z" fill="url(#paint0_linear_1611_21092)"/>
<path d="M598.194 42.2273C595.66 42.228 593.182 42.9774 591.075 44.3806C588.968 45.7838 587.326 47.7779 586.357 50.1106C585.387 52.4433 585.134 55.01 585.629 57.4861C586.124 59.9622 587.345 62.2365 589.137 64.0214C590.93 65.8064 593.214 67.0218 595.699 67.5141C598.185 68.0064 600.762 67.7533 603.104 66.787C605.445 65.8206 607.446 64.1844 608.855 62.0851C610.263 59.9859 611.014 57.5179 611.014 54.9932C611.014 53.3164 610.682 51.6561 610.038 50.107C609.394 48.5579 608.45 47.1504 607.259 45.9649C606.069 44.7794 604.655 43.8392 603.1 43.1979C601.545 42.5565 599.878 42.2267 598.194 42.2273V42.2273ZM598.194 62.0854C596.786 62.0854 595.41 61.6694 594.239 60.8901C593.068 60.1108 592.155 59.0032 591.616 57.7072C591.077 56.4113 590.936 54.9853 591.211 53.6096C591.486 52.2338 592.164 50.9701 593.16 49.9782C594.155 48.9864 595.424 48.3109 596.805 48.0373C598.186 47.7636 599.618 47.9041 600.919 48.4409C602.22 48.9777 603.332 49.8867 604.114 51.053C604.897 52.2193 605.314 53.5905 605.314 54.9932C605.314 56.8741 604.564 58.6781 603.229 60.0081C601.894 61.3381 600.083 62.0854 598.194 62.0854V62.0854ZM607.454 91.8725C606.75 91.8725 606.062 92.0805 605.476 92.4701C604.891 92.8598 604.435 93.4136 604.165 94.0616C603.896 94.7096 603.825 95.4226 603.963 96.1104C604.1 96.7983 604.439 97.4302 604.937 97.9261C605.435 98.422 606.069 98.7597 606.76 98.8966C607.45 99.0334 608.166 98.9632 608.816 98.6948C609.467 98.4264 610.023 97.9719 610.414 97.3887C610.805 96.8056 611.014 96.12 611.014 95.4186C611.014 94.4795 610.64 93.5787 609.974 92.9139C609.308 92.2491 608.405 91.8746 607.462 91.8725H607.454ZM606.192 69.7292L604.155 71.7623C603.917 72.0036 603.772 72.3217 603.747 72.6596C603.723 72.9975 603.82 73.333 604.021 73.6062C604.773 74.6702 605.216 75.9198 605.303 77.2181C605.39 78.5165 605.116 79.8135 604.512 80.9673C603.908 82.1211 602.997 83.0872 601.879 83.7598C600.761 84.4324 599.478 84.7856 598.172 84.7807C596.866 84.7758 595.586 84.4131 594.473 83.7321C593.36 83.0512 592.456 82.0784 591.861 80.9201C591.266 79.7618 591.002 78.4628 591.098 77.1651C591.195 75.8675 591.647 74.6213 592.407 73.5629C592.599 73.2878 592.686 72.9542 592.654 72.621C592.622 72.2879 592.473 71.9768 592.233 71.7426L590.208 69.7213C590.066 69.5801 589.896 69.4703 589.709 69.399C589.522 69.3278 589.322 69.2967 589.121 69.3079C588.921 69.3191 588.726 69.3722 588.548 69.4638C588.37 69.5554 588.213 69.6834 588.088 69.8395C586.613 71.7254 585.699 73.986 585.451 76.3638C585.203 78.7416 585.63 81.1411 586.683 83.289C587.737 85.4369 589.375 87.247 591.411 88.5131C593.446 89.7793 595.798 90.4505 598.198 90.4505C600.598 90.4505 602.95 89.7793 604.986 88.5131C607.021 87.247 608.659 85.4369 609.713 83.289C610.767 81.1411 611.194 78.7416 610.945 76.3638C610.697 73.986 609.783 71.7254 608.309 69.8395C608.183 69.6853 608.027 69.5591 607.85 69.469C607.672 69.3789 607.478 69.327 607.279 69.3166C607.08 69.3062 606.881 69.3376 606.696 69.4086C606.51 69.4797 606.341 69.5889 606.2 69.7292H606.192ZM595.346 11.0216H609.586C609.964 11.0216 610.326 10.8722 610.593 10.6062C610.86 10.3402 611.01 9.9794 611.01 9.60321V6.76634C611.01 6.39014 610.86 6.02936 610.593 5.76335C610.326 5.49735 609.964 5.3479 609.586 5.3479H595.346C593.365 5.34612 591.429 5.9328 589.784 7.03295C588.14 8.1331 586.862 9.69675 586.114 11.524C585.366 13.3513 585.183 15.3592 585.586 17.291C585.99 19.2229 586.963 20.9909 588.381 22.3691C586.884 23.8223 585.884 25.7084 585.524 27.7595C585.164 29.8105 585.462 31.9225 586.375 33.7954C586.087 33.8852 585.835 34.0642 585.655 34.3066C585.476 34.5489 585.379 34.8419 585.378 35.1429V37.9798C585.378 38.356 585.528 38.7168 585.795 38.9828C586.063 39.2488 586.425 39.3983 586.802 39.3983H609.59C609.968 39.3983 610.33 39.2488 610.597 38.9828C610.864 38.7168 611.014 38.356 611.014 37.9798V35.1429C611.014 34.7668 610.864 34.406 610.597 34.14C610.33 33.874 609.968 33.7245 609.59 33.7245H595.35C594.217 33.7245 593.131 33.2762 592.33 32.4782C591.528 31.6801 591.078 30.5978 591.078 29.4692C591.078 28.3406 591.528 27.2583 592.33 26.4602C593.131 25.6622 594.217 25.2139 595.35 25.2139H609.59C609.968 25.2139 610.33 25.0645 610.597 24.7984C610.864 24.5324 611.014 24.1716 611.014 23.7955V20.9586C611.014 20.5824 610.864 20.2216 610.597 19.9556C610.33 19.6896 609.968 19.5401 609.59 19.5401H595.35C594.217 19.5401 593.131 19.0918 592.33 18.2938C591.528 17.4958 591.078 16.4134 591.078 15.2848C591.078 14.1563 591.528 13.0739 592.33 12.2759C593.131 11.4779 594.217 11.0295 595.35 11.0295L595.346 11.0216Z" fill="#B5B5B5"/>
<defs>
<linearGradient id="paint0_linear_1611_21092" x1="281.953" y1="0" x2="281.953" y2="187.234" gradientUnits="userSpaceOnUse">
<stop stop-color="#3A4BE8"/>
<stop offset="1" stop-color="#2436D7"/>
</linearGradient>
</defs>
</svg>
