<svg width="71" height="52" viewBox="0 0 71 52" fill="none" xmlns="http://www.w3.org/2000/svg">
<path d="M59.3918 19.4508C60.7392 19.3128 62.4 18.5334 62.6509 16.7937C62.762 16.0341 62.5667 15.3407 62.1026 14.8444C61.6475 14.3553 60.9846 14.1152 60.2357 14.1671C59.2324 14.2388 58.4082 14.6778 57.7847 15.4733C57.0483 16.4139 56.6775 17.7164 56.5717 19.0029C57.464 19.3719 58.4082 19.5529 59.3918 19.4508ZM64.1648 19.5439C63.1507 20.9862 61.687 21.848 59.9293 22.0361C58.9188 22.1454 57.8241 22.0272 56.7366 21.7154C57.473 25.1895 59.924 27.4828 62.4753 29.4429C62.8157 29.7027 62.9125 30.2008 62.7064 30.6272C62.5201 31.0142 62.1277 31.2095 61.7335 31.1109C57.5142 30.0754 54.8876 25.6069 54.2318 21.8964C54.1548 21.4539 54.0992 21.0006 54.0706 20.5473C53.4453 20.1692 52.8522 19.7285 52.3112 19.2304C48.4824 15.7098 46.0726 10.5802 45.3398 4.39361C45.3004 4.06394 45.4455 3.76115 45.6945 3.58915C45.8038 3.51211 45.9328 3.46194 46.0744 3.44403C46.5295 3.38848 46.9165 3.69486 46.9774 4.1589C47.4199 7.49677 48.8586 10.9475 51.1412 14.1367C51.9797 15.3084 53.0332 16.5662 54.2497 17.5659C54.7962 14.6993 56.4571 12.2214 59.3865 11.614C61.3895 11.1984 63.2314 11.9294 64.31 13.5669C65.4853 15.3479 65.4262 17.7505 64.1648 19.5439Z" fill="#FE5275"/>
<path d="M33.5219 26.3684C33.0274 25.7844 32.0044 24.8563 30.7144 25.1788C30.107 25.3311 29.6412 25.7181 29.4997 26.1911C29.3814 26.5834 29.5014 26.9902 29.8454 27.3664C30.2575 27.8125 30.7538 28.0401 31.3648 28.0616C32.2678 28.0902 33.2496 27.6638 34.0756 27.1209C33.9036 26.8504 33.7172 26.5978 33.5219 26.3684ZM39.4237 7.42157C40.6223 12.3289 41.5934 17.1163 40.3428 21.7244C39.7283 23.9909 38.4096 26.3864 36.5517 28.0204C36.9602 28.9735 37.254 29.9554 37.4188 30.8369C38.2806 35.454 36.8455 40.2234 33.676 43.28C33.3535 43.5917 32.8787 43.5935 32.5455 43.2872C32.2248 42.9897 32.094 42.4379 32.4308 42.033C34.889 39.0767 36.0554 35.3483 35.6307 31.8062C35.5143 30.844 35.3082 29.9357 35.0234 29.1115C34.0577 29.6508 32.988 29.9876 31.8342 30.036C30.1034 30.1059 28.1487 29.1402 27.7582 27.1568C27.4536 25.6016 28.4229 24.0912 30.0604 23.5645C31.2286 23.19 32.3538 23.3154 33.4037 23.9407C34.1795 24.4012 34.8657 25.1268 35.448 25.9797C36.9834 24.3815 37.761 22.3229 38.1444 20.8412C39.0134 17.4943 38.5476 13.9486 38.0979 10.5194C37.9796 9.62711 37.8596 8.7044 37.7646 7.80498C37.7306 7.47711 37.8954 7.15819 38.1624 6.97365C38.2699 6.90019 38.3953 6.84644 38.5297 6.82315C38.9525 6.74969 39.3198 6.99515 39.4237 7.42157Z" fill="#FFD032"/>
<path d="M18.4487 9.82774C18.5383 7.9017 17.9148 5.97924 16.1571 4.71791C15.0857 3.94928 13.4051 3.38311 11.9037 4.10336C11.0186 4.52799 10.4704 5.24286 10.3969 6.06524C10.3217 6.89657 10.7373 7.70461 11.5364 8.28153C13.4231 9.6432 16.0389 10.0302 18.4487 9.82774ZM31.3594 0.950029C29.9673 5.69436 26.4467 9.39057 21.9406 10.8364C21.3816 11.0156 20.7922 11.1661 20.1848 11.2808C19.1707 16.5142 14.3816 19.6891 9.78955 22.115C9.43301 22.3031 9.02809 22.1777 8.82743 21.8176C8.6393 21.4807 8.6823 20.9898 9.08722 20.7533C12.0399 19.0226 15.7164 16.8672 17.4883 13.3878C17.7822 12.8127 18.0223 12.1856 18.1889 11.5352C15.0409 11.7377 11.7711 11.0174 9.85584 8.96057C8.68947 7.7082 8.4458 6.19424 9.18576 4.80749C9.28072 4.6319 9.38822 4.46349 9.50647 4.30045C10.5743 2.84561 12.5792 1.99636 14.4156 2.2884C17.8359 2.83307 20.3102 5.96132 20.3514 9.53928C20.7026 9.46224 21.0412 9.37265 21.3637 9.27232C25.5114 7.99486 28.7436 4.71432 30.0103 0.496737C30.125 0.116903 30.4779 -0.0801792 30.8506 0.0309029C31.2018 0.134821 31.4884 0.507486 31.3594 0.950029Z" fill="#68CDDF"/>
<path d="M50.2865 25.7467C49.5233 25.1124 48.7206 24.2668 48.3999 23.31C48.2745 22.9356 48.7744 22.4966 49.036 22.9033C49.5645 23.7257 49.9569 24.4836 50.7022 25.1608C51.0157 25.4439 50.6431 26.0423 50.2865 25.7467Z" fill="#68CDDF"/>
<path d="M30.2826 11.4886C29.2883 13.1907 28.009 14.6455 26.4485 15.8531C26.0758 16.1398 25.7013 15.5431 26.0436 15.278C27.5593 14.1062 28.792 12.7016 29.7559 11.0478C29.996 10.6376 30.503 11.1106 30.2826 11.4886Z" fill="#FE5275"/>
<path d="M9.70886 11.3936C10.1048 12.9344 11.144 14.0883 12.6418 14.6455C13.0431 14.7942 12.7941 15.4804 12.3749 15.3245C10.7319 14.7154 9.52432 13.3824 9.08715 11.6874C8.97965 11.2664 9.59061 10.9332 9.70886 11.3936Z" fill="#FE5275"/>
<path d="M22.4763 31.2848C22.6394 33.5172 21.6719 35.712 19.6276 36.7763C17.5403 37.8638 15.0624 37.3084 13.3783 35.7568C13.0522 35.4576 13.4499 34.8269 13.8136 35.1459C16.8917 37.8244 21.9962 35.5633 21.8116 31.3977C21.7901 30.9498 22.4405 30.8064 22.4763 31.2848Z" fill="#43E1B0"/>
<path d="M34.0953 14.5507C33.8749 18.3221 28.7937 19.9848 25.6404 19.5673C25.1513 19.5028 25.2785 18.7539 25.7497 18.7611C27.2744 18.7808 28.8134 18.4637 30.1948 17.8187C31.5099 17.2041 33.2693 16.0413 33.4306 14.4647C33.4789 13.9952 34.1222 14.0884 34.0953 14.5507Z" fill="#43E1B0"/>
<path d="M66.064 26.3398C67.1748 27.4058 68.6745 27.8519 70.1884 27.5581C70.6274 27.4721 70.6955 28.1995 70.2744 28.2819C68.5974 28.608 66.881 28.1081 65.6483 26.9274C65.3437 26.6336 65.7343 26.0226 66.064 26.3398Z" fill="#43E1B0"/>
<path d="M5.57732 20.506L5.22616 21.1367C5.18136 21.2173 5.17778 21.3158 5.21899 21.4L5.54328 22.0468C5.6472 22.2547 5.46624 22.4929 5.23511 22.4482L4.52561 22.3102C4.43424 22.2923 4.33928 22.3209 4.27299 22.3854L3.7552 22.8925C3.58857 23.0555 3.30728 22.957 3.27861 22.7259L3.19082 22.0074C3.17828 21.916 3.12274 21.8354 3.04032 21.7924L2.39711 21.4592C2.19107 21.3499 2.19645 21.0524 2.40966 20.9539L3.06541 20.6475C3.14961 20.6099 3.20874 20.5311 3.22486 20.4397L3.34491 19.7266C3.38253 19.4973 3.6692 19.4113 3.82866 19.5815L4.32316 20.11C4.38586 20.1781 4.47903 20.2104 4.5722 20.196L5.28886 20.0903C5.51999 20.0563 5.6902 20.3017 5.57732 20.506Z" fill="#FE5275"/>
<path d="M26.7548 40.5978L26.4037 41.2302C26.3589 41.3109 26.3553 41.4094 26.3965 41.4918L26.7208 42.1386C26.8247 42.3482 26.6437 42.5847 26.4126 42.54L25.7031 42.402C25.6117 42.3859 25.5168 42.4127 25.4505 42.479L24.9345 42.9843C24.7661 43.1473 24.4848 43.0488 24.4561 42.8177L24.3683 42.101C24.3576 42.0078 24.3002 41.929 24.2178 41.886L23.5764 41.551C23.3686 41.4435 23.3739 41.1442 23.5872 41.0457L24.2429 40.7411C24.3271 40.7017 24.388 40.6247 24.4024 40.5315L24.5224 39.8202C24.5618 39.5891 24.8467 39.5031 25.0079 39.6751L25.5007 40.2018C25.5652 40.2699 25.6583 40.3022 25.7497 40.2896L26.4664 40.1821C26.6975 40.1481 26.8677 40.3935 26.7548 40.5978Z" fill="#68CDDF"/>
<path d="M55.7619 40.6266L55.4107 41.2573C55.3659 41.3397 55.3641 41.4364 55.4053 41.5206L55.7278 42.1674C55.8318 42.3753 55.6508 42.6136 55.4215 42.5688L54.712 42.4308C54.6188 42.4129 54.5256 42.4416 54.4593 42.5061L53.9433 43.0131C53.7749 43.1761 53.4936 43.0776 53.465 42.8465L53.3772 42.128C53.3646 42.0366 53.3091 41.956 53.2267 41.913L52.5835 41.5798C52.3756 41.4723 52.3828 41.1731 52.596 41.0745L53.2518 40.7699C53.336 40.7305 53.3951 40.6517 53.4112 40.5603L53.5313 39.8472C53.5689 39.6179 53.8556 39.5319 54.0168 39.7021L54.5095 40.2306C54.574 40.2987 54.6654 40.331 54.7568 40.3166L55.4752 40.2109C55.7063 40.1769 55.8766 40.4223 55.7619 40.6266Z" fill="#FFD032"/>
<path d="M19.7602 22.9177C20.0576 23.3459 19.9501 23.9318 19.5219 24.2292C19.0937 24.5249 18.5042 24.4192 18.2068 23.9909C17.9094 23.5627 18.0151 22.9769 18.4451 22.6794C18.8733 22.3838 19.4627 22.4895 19.7602 22.9177Z" fill="#68CDDF"/>
<path d="M46.0493 33.4599C46.3467 33.8881 46.2392 34.474 45.811 34.7714C45.381 35.0688 44.7933 34.9613 44.4959 34.5331C44.1967 34.1067 44.3042 33.519 44.7342 33.2216C45.1624 32.926 45.7519 33.0317 46.0493 33.4599Z" fill="#7870DE"/>
<path d="M4.19235 31.4496C4.48977 31.8778 4.38406 32.4654 3.95406 32.7611C3.52585 33.0585 2.93639 32.9528 2.63898 32.5246C2.34156 32.0964 2.44906 31.5087 2.87727 31.2131C3.30727 30.9157 3.89493 31.0214 4.19235 31.4496Z" fill="#FE5275"/>
<path d="M32.2929 49.5669C32.5903 49.9951 32.4828 50.5809 32.0546 50.8784C31.6246 51.1758 31.0369 51.0683 30.7395 50.6401C30.4421 50.2137 30.5478 49.626 30.9778 49.3286C31.406 49.0329 31.9955 49.1387 32.2929 49.5669Z" fill="#FE5275"/>
<path d="M45.9167 18.9795C46.2141 19.4059 46.1084 19.9935 45.6784 20.291C45.2502 20.5884 44.6607 20.4809 44.3633 20.0527C44.0659 19.6245 44.1734 19.0386 44.6016 18.7412C45.0316 18.4455 45.6192 18.5512 45.9167 18.9795Z" fill="#FE5275"/>
<path d="M1.72165 8.37291C2.01906 8.80112 1.91156 9.38878 1.48336 9.68441C1.05515 9.98183 0.465689 9.87433 0.168273 9.44791C-0.129144 9.0197 -0.0216443 8.43204 0.406564 8.13462C0.834772 7.83899 1.42423 7.9447 1.72165 8.37291Z" fill="#FFD032"/>
</svg>
