<svg width="71" height="52" viewBox="0 0 71 52" fill="none" xmlns="http://www.w3.org/2000/svg">
<path d="M59.3918 31.5959C60.7392 31.7338 62.4 32.5132 62.6509 34.2529C62.762 35.0126 62.5667 35.7059 62.1026 36.2022C61.6475 36.6914 60.9846 36.9314 60.2357 36.8795C59.2324 36.8078 58.4082 36.3689 57.7847 35.5734C57.0483 34.6327 56.6775 33.3302 56.5717 32.0438C57.464 31.6747 58.4082 31.4937 59.3918 31.5959ZM64.1648 31.5027C63.1507 30.0604 61.687 29.1986 59.9293 29.0105C58.9188 28.9012 57.8241 29.0194 56.7366 29.3312C57.473 25.8571 59.924 23.5638 62.4753 21.6037C62.8157 21.3439 62.9125 20.8459 62.7064 20.4194C62.5201 20.0324 62.1277 19.8371 61.7335 19.9357C57.5142 20.9713 54.8876 25.4397 54.2318 29.1502C54.1548 29.5928 54.0992 30.0461 54.0706 30.4994C53.4453 30.8774 52.8522 31.3181 52.3112 31.8162C48.4824 35.3369 46.0726 40.4664 45.3398 46.653C45.3004 46.9827 45.4455 47.2855 45.6945 47.4575C45.8038 47.5345 45.9328 47.5847 46.0744 47.6026C46.5295 47.6581 46.9165 47.3518 46.9774 46.8877C47.4199 43.5499 48.8586 40.0991 51.1412 36.9099C51.9797 35.7382 53.0332 34.4804 54.2497 33.4807C54.7962 36.3474 56.4571 38.8252 59.3865 39.4326C61.3895 39.8483 63.2314 39.1173 64.31 37.4797C65.4853 35.6988 65.4262 33.2961 64.1648 31.5027Z" fill="#FE5275"/>
<path d="M33.5219 24.6782C33.0274 25.2623 32.0044 26.1904 30.7144 25.8679C30.107 25.7156 29.6412 25.3286 29.4997 24.8556C29.3814 24.4632 29.5014 24.0565 29.8454 23.6802C30.2575 23.2341 30.7538 23.0066 31.3648 22.9851C32.2678 22.9564 33.2496 23.3828 34.0756 23.9257C33.9036 24.1962 33.7172 24.4489 33.5219 24.6782ZM39.4237 43.6251C40.6223 38.7177 41.5934 33.9304 40.3428 29.3222C39.7283 27.0557 38.4096 24.6603 36.5517 23.0263C36.9602 22.0731 37.254 21.0913 37.4188 20.2098C38.2806 15.5926 36.8455 10.8232 33.676 7.76664C33.3535 7.45489 32.8787 7.4531 32.5455 7.75948C32.2248 8.05689 32.094 8.60873 32.4308 9.01364C34.889 11.9699 36.0554 15.6984 35.6307 19.2405C35.5143 20.2026 35.3082 21.111 35.0234 21.9351C34.0577 21.3959 32.988 21.059 31.8342 21.0106C30.1034 20.9408 28.1487 21.9065 27.7582 23.8899C27.4536 25.445 28.4229 26.9554 30.0604 27.4821C31.2286 27.8566 32.3538 27.7312 33.4037 27.1059C34.1795 26.6454 34.8657 25.9198 35.448 25.067C36.9834 26.6651 37.761 28.7238 38.1444 30.2055C39.0134 33.5523 38.5476 37.098 38.0979 40.5273C37.9796 41.4195 37.8596 42.3422 37.7646 43.2416C37.7306 43.5695 37.8954 43.8884 38.1624 44.073C38.2699 44.1464 38.3953 44.2002 38.5297 44.2235C38.9525 44.2969 39.3198 44.0515 39.4237 43.6251Z" fill="#FFD032"/>
<path d="M18.4487 41.2189C18.5383 43.1449 17.9148 45.0674 16.1571 46.3287C15.0857 47.0974 13.4051 47.6635 11.9037 46.9433C11.0186 46.5186 10.4704 45.8038 10.3969 44.9814C10.3217 44.1501 10.7373 43.342 11.5364 42.7651C13.4231 41.4034 16.0389 41.0164 18.4487 41.2189ZM31.3594 50.0966C29.9673 45.3523 26.4467 41.6561 21.9406 40.2102C21.3816 40.031 20.7922 39.8805 20.1848 39.7659C19.1707 34.5324 14.3816 31.3576 9.78955 28.9316C9.43301 28.7435 9.02809 28.8689 8.82743 29.2291C8.6393 29.5659 8.6823 30.0568 9.08722 30.2933C12.0399 32.0241 15.7164 34.1794 17.4883 37.6589C17.7822 38.234 18.0223 38.8611 18.1889 39.5114C15.0409 39.309 11.7711 40.0292 9.85584 42.0861C8.68947 43.3384 8.4458 44.8524 9.18576 46.2391C9.28072 46.4147 9.38822 46.5831 9.50647 46.7462C10.5743 48.201 12.5792 49.0503 14.4156 48.7582C17.8359 48.2136 20.3102 45.0853 20.3514 41.5074C20.7026 41.5844 21.0412 41.674 21.3637 41.7743C25.5114 43.0518 28.7436 46.3323 30.0103 50.5499C30.125 50.9297 30.4779 51.1268 30.8506 51.0157C31.2018 50.9118 31.4884 50.5391 31.3594 50.0966Z" fill="#68CDDF"/>
<path d="M50.2865 25.2999C49.5233 25.9342 48.7206 26.7799 48.3999 27.7366C48.2745 28.1111 48.7744 28.55 49.036 28.1433C49.5645 27.3209 49.9569 26.5631 50.7022 25.8858C51.0157 25.6027 50.6431 25.0043 50.2865 25.2999Z" fill="#68CDDF"/>
<path d="M30.2826 39.558C29.2883 37.8559 28.009 36.4011 26.4485 35.1935C26.0758 34.9069 25.7013 35.5035 26.0436 35.7687C27.5593 36.9404 28.792 38.3451 29.7559 39.9988C29.996 40.4091 30.503 39.9361 30.2826 39.558Z" fill="#FE5275"/>
<path d="M9.70886 39.653C10.1048 38.1122 11.144 36.9584 12.6418 36.4011C13.0431 36.2524 12.7941 35.5662 12.3749 35.7221C10.7319 36.3313 9.52432 37.6643 9.08715 39.3592C8.97965 39.7802 9.59061 40.1135 9.70886 39.653Z" fill="#FE5275"/>
<path d="M22.4763 19.7618C22.6394 17.5294 21.6719 15.3346 19.6276 14.2704C17.5403 13.1828 15.0624 13.7382 13.3783 15.2898C13.0522 15.589 13.4499 16.2197 13.8136 15.9008C16.8917 13.2222 21.9962 15.4833 21.8116 19.6489C21.7901 20.0969 22.4405 20.2402 22.4763 19.7618Z" fill="#43E1B0"/>
<path d="M34.0953 36.496C33.8749 32.7245 28.7937 31.0619 25.6404 31.4793C25.1513 31.5438 25.2785 32.2927 25.7497 32.2856C27.2744 32.2659 28.8134 32.583 30.1948 33.228C31.5099 33.8425 33.2693 35.0053 33.4306 36.582C33.4789 37.0514 34.1222 36.9582 34.0953 36.496Z" fill="#43E1B0"/>
<path d="M66.064 24.7069C67.1748 23.6408 68.6745 23.1947 70.1884 23.4885C70.6274 23.5745 70.6955 22.8471 70.2744 22.7647C68.5974 22.4386 66.881 22.9385 65.6483 24.1192C65.3437 24.413 65.7343 25.024 66.064 24.7069Z" fill="#43E1B0"/>
<path d="M5.57732 30.5406L5.22616 29.91C5.18136 29.8294 5.17778 29.7308 5.21899 29.6466L5.54328 28.9998C5.6472 28.792 5.46624 28.5537 5.23511 28.5985L4.52561 28.7364C4.43424 28.7544 4.33928 28.7257 4.27299 28.6612L3.7552 28.1541C3.58857 27.9911 3.30728 28.0896 3.27861 28.3208L3.19082 29.0392C3.17828 29.1306 3.12274 29.2112 3.04032 29.2542L2.39711 29.5875C2.19107 29.6968 2.19645 29.9942 2.40966 30.0927L3.06541 30.3991C3.14961 30.4367 3.20874 30.5156 3.22486 30.6069L3.34491 31.32C3.38253 31.5494 3.6692 31.6354 3.82866 31.4651L4.32316 30.9366C4.38586 30.8685 4.47903 30.8363 4.5722 30.8506L5.28886 30.9563C5.51999 30.9904 5.6902 30.7449 5.57732 30.5406Z" fill="#FE5275"/>
<path d="M26.7548 10.4488L26.4037 9.81639C26.3589 9.73576 26.3553 9.63722 26.3965 9.5548L26.7208 8.90801C26.8247 8.69839 26.6437 8.46189 26.4126 8.50668L25.7031 8.64464C25.6117 8.66076 25.5168 8.63389 25.4505 8.5676L24.9345 8.06235C24.7661 7.8993 24.4848 7.99785 24.4561 8.22897L24.3683 8.94564C24.3576 9.0388 24.3002 9.11764 24.2178 9.16064L23.5764 9.49568C23.3686 9.60318 23.3739 9.90239 23.5872 10.0009L24.2429 10.3055C24.3271 10.3449 24.388 10.422 24.4024 10.5151L24.5224 11.2264C24.5618 11.4576 24.8467 11.5436 25.0079 11.3716L25.5007 10.8448C25.5652 10.7767 25.6583 10.7445 25.7497 10.757L26.4664 10.8645C26.6975 10.8986 26.8677 10.6531 26.7548 10.4488Z" fill="#68CDDF"/>
<path d="M55.7619 10.42L55.4107 9.78937C55.3659 9.70695 55.3641 9.6102 55.4053 9.52599L55.7278 8.8792C55.8318 8.67137 55.6508 8.43308 55.4215 8.47787L54.712 8.61583C54.6188 8.63375 54.5256 8.60508 54.4593 8.54058L53.9433 8.03354C53.7749 7.87049 53.4936 7.96904 53.465 8.20016L53.3772 8.91862C53.3646 9.00999 53.3091 9.09062 53.2267 9.13362L52.5835 9.46687C52.3756 9.57437 52.3828 9.87358 52.596 9.97212L53.2518 10.2767C53.336 10.3161 53.3951 10.395 53.4112 10.4863L53.5313 11.1994C53.5689 11.4287 53.8556 11.5147 54.0168 11.3445L54.5095 10.816C54.574 10.7479 54.6654 10.7157 54.7568 10.73L55.4752 10.8357C55.7063 10.8697 55.8766 10.6243 55.7619 10.42Z" fill="#FFD032"/>
<path d="M19.7602 28.1289C20.0576 27.7007 19.9501 27.1148 19.5219 26.8174C19.0937 26.5218 18.5042 26.6275 18.2068 27.0557C17.9094 27.4839 18.0151 28.0698 18.4451 28.3672C18.8733 28.6628 19.4627 28.5571 19.7602 28.1289Z" fill="#68CDDF"/>
<path d="M46.0493 17.5867C46.3467 17.1585 46.2392 16.5726 45.811 16.2752C45.381 15.9778 44.7933 16.0853 44.4959 16.5135C44.1967 16.9399 44.3042 17.5276 44.7342 17.825C45.1624 18.1206 45.7519 18.0149 46.0493 17.5867Z" fill="#7870DE"/>
<path d="M4.19235 19.5971C4.48977 19.1689 4.38406 18.5812 3.95406 18.2856C3.52585 17.9881 2.93639 18.0939 2.63898 18.5221C2.34156 18.9503 2.44906 19.5379 2.87727 19.8336C3.30727 20.131 3.89493 20.0253 4.19235 19.5971Z" fill="#FE5275"/>
<path d="M32.2929 1.47977C32.5903 1.05156 32.4828 0.465689 32.0546 0.168273C31.6246 -0.129144 31.0369 -0.0216443 30.7395 0.406564C30.4421 0.832981 30.5478 1.42065 30.9778 1.71806C31.406 2.01369 31.9955 1.90798 32.2929 1.47977Z" fill="#FE5275"/>
<path d="M45.9167 32.0672C46.2141 31.6408 46.1084 31.0531 45.6784 30.7557C45.2502 30.4583 44.6607 30.5658 44.3633 30.994C44.0659 31.4222 44.1734 32.008 44.6016 32.3055C45.0316 32.6011 45.6192 32.4954 45.9167 32.0672Z" fill="#FE5275"/>
<path d="M1.72165 42.6737C2.01906 42.2455 1.91156 41.6578 1.48336 41.3622C1.05515 41.0648 0.465689 41.1723 0.168273 41.5987C-0.129144 42.0269 -0.0216443 42.6146 0.406564 42.912C0.834772 43.2076 1.42423 43.1019 1.72165 42.6737Z" fill="#FFD032"/>
</svg>
