<svg width="227" height="143" viewBox="0 0 227 143" fill="none" xmlns="http://www.w3.org/2000/svg">
<path d="M120.508 120.04H146.248V142.567H120.978C116.982 140.804 113.691 138.297 111.302 135.359C112.242 130.5 115.729 124.154 120.508 120.04Z" fill="#6F4BBB"/>
<path d="M121.997 121.921C118.589 125.447 115.22 129.717 114.083 134.575C116.121 137.004 118.785 138.885 121.645 140.256H143.271V121.921H121.997Z" fill="#7D5DC2"/>
<path d="M116.043 129.601C115.377 130.541 114.124 134.341 114.045 134.576C116.082 137.005 118.746 138.886 121.606 140.257H133.125V130.423C127.444 130.384 121.763 130.11 116.043 129.601Z" fill="#9478CF"/>
<path d="M120.391 137.788C123.055 138.689 124.309 140.374 124.701 142.568H115.415C116.042 140.687 117.805 138.376 120.391 137.788Z" fill="#5F3EA7"/>
<path d="M120.353 138.807C118.904 139.198 117.689 140.335 116.905 141.627H120.392V138.807H120.353Z" fill="#6F4BBB"/>
<path d="M129.559 137.239C133.124 138.219 134.848 140.609 135.279 142.567H122.899C123.722 140.491 126.229 137.709 129.559 137.239Z" fill="#5F3EA7"/>
<path d="M129.48 138.219C127.521 138.571 125.601 139.943 124.465 141.627H129.558V138.219H129.48Z" fill="#6F4BBB"/>
<path d="M177.12 120.04H151.381V142.567H176.65C180.646 140.804 183.937 138.297 186.327 135.359C185.426 130.5 181.939 124.154 177.12 120.04Z" fill="#6F4BBB"/>
<path d="M175.671 121.921C179.08 125.447 182.449 129.717 183.585 134.575C181.548 137.004 178.884 138.885 176.024 140.256H154.398V121.921H175.671Z" fill="#7D5DC2"/>
<path d="M181.587 129.601C182.253 130.541 183.507 134.341 183.585 134.576C181.548 137.005 178.884 138.886 176.024 140.257H164.505V130.423C170.186 130.384 175.906 130.11 181.587 129.601Z" fill="#9478CF"/>
<path d="M177.277 137.788C174.613 138.689 173.36 140.374 172.968 142.568H182.253C181.626 140.687 179.863 138.376 177.277 137.788Z" fill="#5F3EA7"/>
<path d="M177.316 138.807C178.766 139.198 179.98 140.335 180.764 141.627H177.277V138.807H177.316Z" fill="#6F4BBB"/>
<path d="M168.111 137.239C164.545 138.219 162.822 140.609 162.391 142.567H174.771C173.948 140.491 171.441 137.709 168.111 137.239Z" fill="#5F3EA7"/>
<path d="M168.149 138.219C170.108 138.571 172.028 139.943 173.164 141.627H168.071V138.219H168.149Z" fill="#6F4BBB"/>
<path d="M79.9999 126.975C80.1566 131.088 81.0969 134.301 82.899 136.299C85.7198 136.064 88.1097 132.93 89.2066 130.226C87.5612 127.366 84.3486 126.074 79.9999 126.975Z" fill="#5F3EA7"/>
<path d="M81.4485 128.111C81.5268 130.501 82.1537 132.969 83.4465 134.772L84.5435 128.268C83.5641 128.033 82.5063 128.033 81.4485 128.111Z" fill="#6F4BBB"/>
<path d="M87.129 129.169C87.4033 132.851 87.8734 136.103 90.1849 139.394C94.3377 138.493 97.5895 136.181 98.9607 132.499C96.9235 127.837 92.0654 127.21 87.129 129.169Z" fill="#5F3EA7"/>
<path d="M90.7738 137.827L93.5554 129.638C91.9883 129.325 90.2253 129.56 88.5406 130.109C88.8149 132.89 89.285 135.358 90.7738 137.827Z" fill="#6F4BBB"/>
<path d="M100.764 132.185C101.469 136.377 105.426 138.453 107.424 138.336C108.325 136.808 109.226 134.81 109.226 132.42L107.502 130.971C104.877 130.461 102.096 130.657 100.764 132.185Z" fill="#5F3EA7"/>
<path d="M106.718 136.926C107.501 135.751 108.011 133.949 108.089 132.225L105.268 131.755L106.718 136.926Z" fill="#6F4BBB"/>
<path d="M109.266 76.0049V132.382C99.5104 133.596 88.1488 133.204 79.9999 126.936C80.1566 121.686 80.6659 116.554 81.6062 111.657C83.3692 102.802 86.6993 94.7318 92.4584 88.1108C97.5515 82.2733 102.645 79.4917 109.266 76.0049Z" fill="#6F4BBB"/>
<path d="M82.7415 125.643C87.8346 129.561 100.058 130.776 106.483 129.953V80.5498C89.911 89.3648 83.3292 105.624 82.7415 125.643Z" fill="#9478CF"/>
<path d="M82.7415 125.643C85.3272 127.641 89.7151 128.894 94.2989 129.6C94.965 117.024 94.8866 98.1007 92.0658 93.0859C85.9149 101.823 83.1333 112.988 82.7415 125.643Z" fill="#A58DD4"/>
<path d="M94.2985 117.259C96.4533 117.259 98.1771 118.983 98.1771 121.137C98.1771 123.292 96.4533 125.016 94.2985 125.016C92.1437 125.016 90.4199 123.292 90.4199 121.137C90.4199 118.983 92.1437 117.259 94.2985 117.259Z" fill="#9478CF"/>
<path d="M103.544 32.0474C102.408 24.7211 103.662 20.9209 105.151 14.2215C109.813 18.1001 112.79 20.8817 118.471 23.7417C119.607 16.6505 122.115 9.95113 125.758 3.6827L127.913 0C136.219 6.26843 143.31 11.2832 148.795 19.5888C154.279 11.2832 161.371 6.26843 169.676 0L171.831 3.6827C175.475 9.95113 177.982 16.6505 179.118 23.7417C184.799 20.8817 187.776 18.1001 192.439 14.2215C193.966 20.8817 195.181 24.6819 194.045 32.0474L204.309 34.8681C202.272 61.6657 200.196 84.5063 197.571 111.304C197.218 114.987 196.826 118.708 196.435 122.391C196.317 123.449 195.024 125.369 189.539 125.408C162.742 127.21 134.691 127.21 107.932 125.408C102.447 125.329 101.155 123.449 101.037 122.391C100.645 118.63 100.253 114.869 99.9009 111.108C99.7441 109.58 99.5874 108.052 99.4307 106.485C97.1976 82.5866 95.0036 58.7665 93.1623 34.829L103.427 32.0082H103.544V32.0474Z" fill="#6F4BBB"/>
<path d="M129.049 5.60254C124.622 13.1247 122.154 21.0777 121.684 29.305C117.139 27.5812 111.968 24.7604 107.501 21.1169C106.6 25.113 106.796 30.3237 108.011 34.8683C104.25 35.7302 100.763 36.6313 97.2759 37.6499C99.1564 62.2535 100.919 86.857 103.348 111.382C103.583 113.811 104.093 119.061 104.367 121.49C105.346 122.039 107.384 122.039 108.206 122.078C135.161 123.88 162.428 123.88 189.383 122.078C190.245 121.999 192.243 121.999 193.222 121.49C193.496 119.1 194.006 113.733 194.241 111.382C196.631 86.8179 198.433 62.2143 200.313 37.6499C196.826 36.6313 193.34 35.7302 189.579 34.8683C190.793 30.3237 190.989 25.113 190.088 21.1169C185.661 24.7996 180.45 27.5812 175.906 29.305C175.435 21.1169 172.967 13.1247 168.54 5.60254C159.529 12.4195 153.613 17.3558 148.795 27.2286C143.937 17.3558 138.06 12.4195 129.01 5.60254H129.049Z" fill="#9478CF"/>
<path d="M129.049 5.60254C129.715 16.5331 132.457 28.6782 137.629 33.7713C130.734 33.0269 127.051 32.2042 121.723 29.305C117.139 27.5812 111.968 24.7604 107.501 21.1169C109.891 28.3256 112.203 33.4579 116.943 38.4726C112.908 38.3943 110.596 37.0622 108.011 34.8683C104.25 35.7302 100.763 36.6313 97.2759 37.6499C99.1564 62.2535 100.919 86.8571 103.348 111.382C103.583 113.811 104.093 119.061 104.367 121.49C105.346 122.039 107.384 122.039 108.206 122.078C121.684 122.979 135.239 123.41 148.795 123.41V108.757C127.874 110.403 108.755 77.4152 130.734 55.75L126.346 58.179C125.797 54.6922 126.894 50.3435 128.344 46.8175C131.204 39.9614 138.804 34.8683 148.795 33.6538V27.1894C143.937 17.3167 138.099 12.3803 129.049 5.60254Z" fill="#A58DD4"/>
<path d="M180.646 38.4727C185.348 33.458 187.698 28.2865 190.088 21.0778C190.989 25.074 190.793 30.2846 189.579 34.8292C186.993 37.0623 184.682 38.3944 180.646 38.4727ZM172.693 36.4355C175.044 36.4355 176.924 38.3552 176.924 40.6667C176.924 43.0173 175.005 44.8979 172.693 44.8979C170.343 44.8979 168.462 42.9782 168.462 40.6667C168.462 38.3552 170.382 36.4355 172.693 36.4355ZM188.168 45.9948C189.775 45.9948 191.107 47.3269 191.107 48.9332C191.107 50.5395 189.775 51.8715 188.168 51.8715C186.562 51.8715 185.23 50.5395 185.23 48.9332C185.23 47.2877 186.523 45.9948 188.168 45.9948ZM160 33.7322C165.171 28.6783 167.914 16.5332 168.58 5.56348C173.007 13.0856 175.475 21.0387 175.945 29.266C170.578 32.1651 166.895 32.9879 160 33.7322Z" fill="#7D5DC2"/>
<path d="M110.401 42.5859C114.24 42.5859 117.374 45.7202 117.374 49.5596C117.374 53.399 114.24 56.5332 110.401 56.5332C106.561 56.5332 103.427 53.399 103.427 49.5596C103.427 45.7202 106.561 42.5859 110.401 42.5859ZM105.895 63.977C107.423 63.977 108.677 65.2306 108.677 66.7586C108.677 68.2865 107.423 69.5402 105.895 69.5402C104.367 69.5402 103.114 68.2865 103.114 66.7586C103.114 65.2306 104.367 63.977 105.895 63.977Z" fill="#9478CF"/>
<path d="M149.265 46.3867C165.837 46.3867 179.275 59.8247 179.275 76.3968C179.275 92.969 165.837 106.407 149.265 106.407C132.693 106.407 119.255 92.969 119.255 76.3968C119.255 59.8247 132.693 46.3867 149.265 46.3867Z" fill="#D3E8EF"/>
<path d="M175.436 69.5804C172.811 58.2973 163.8 49.4431 152.439 47.0533C140.059 46.113 130.029 54.7713 130.029 66.5637C130.029 78.4346 140.215 88.9734 152.713 90.0704C165.25 91.1673 175.397 82.4699 175.397 70.5599C175.436 70.2464 175.436 69.8938 175.436 69.5804Z" fill="white"/>
<path d="M136.964 64.8779C127.6 64.8779 120.039 72.4392 120.039 81.8027C120.039 91.1662 127.6 98.7275 136.964 98.7275C146.327 98.7275 153.888 91.1662 153.888 81.8027C153.888 72.4784 146.327 64.8779 136.964 64.8779Z" fill="#EA4E64"/>
<path d="M136.964 64.8779C134.496 64.8779 132.145 65.3872 130.03 66.3667V66.5626C130.03 78.12 139.668 88.4237 151.813 89.9908C153.145 87.5618 153.928 84.7802 153.928 81.8027C153.928 72.4392 146.367 64.8779 136.964 64.8779Z" fill="#EC6277"/>
<path d="M136.963 70.833C130.89 70.833 125.954 75.7302 125.954 81.8419C125.954 87.9145 130.851 92.8509 136.963 92.8509C143.035 92.8509 147.972 87.9537 147.972 81.8419C147.972 75.7694 143.074 70.833 136.963 70.833Z" fill="#232323"/>
<path d="M136.964 70.833C134.731 70.833 132.654 71.499 130.93 72.6352C133.046 79.648 138.609 85.603 145.74 88.4238C147.111 86.5824 147.934 84.271 147.934 81.8419C147.973 75.7694 143.076 70.833 136.964 70.833Z" fill="#323232"/>
<path d="M148.952 69.1494C145.113 69.1494 142.018 72.2445 142.018 76.0839C142.018 79.9233 145.113 83.0183 148.952 83.0183C152.792 83.0183 155.887 79.9233 155.887 76.0839C155.887 72.2445 152.792 69.1494 148.952 69.1494Z" fill="white"/>
<path d="M113.967 90.1481C122.508 85.4468 135.358 93.6741 134.418 106.995C126.269 104.487 117.454 96.8083 113.967 90.1481Z" fill="#6F4BBB"/>
<path d="M113.967 90.1475C121.724 90.3042 130.304 94.6921 134.418 106.994C124.662 105.897 115.573 98.4531 113.967 90.1475Z" fill="#A58DD4"/>
<path d="M118.002 101.274C119.138 100.882 124.466 101 124.897 101.588C125.406 102.293 123.996 105.897 122.507 108.248C120.548 106.681 118.942 104.526 118.002 101.274Z" fill="#7D5DC2"/>
<path d="M116.434 99.9812C117.571 99.5895 122.899 99.707 123.33 100.295C123.839 101 122.429 104.604 120.94 106.955C118.981 105.388 117.375 103.233 116.434 99.9812Z" fill="white"/>
<path d="M118.041 98.1396C118.394 105.701 128.266 112.988 137.63 110.285C138.139 112.479 136.65 113.772 135.122 114.085C126.621 114.829 118.433 109.462 115.73 102.606C114.946 100.725 115.808 98.3747 118.041 98.1396Z" fill="#6F4BBB"/>
<path d="M116.433 112.322C118.784 116.749 122.467 118.826 126.502 119.492C120.743 122.078 115.65 118.63 116.433 112.322Z" fill="#6F4BBB"/>
<path d="M120.314 113.38C124.937 115.966 129.325 116.788 134.418 116.318C130.696 118.786 123.409 119.061 120.314 113.38Z" fill="#9478CF"/>
<path d="M159.648 37.8843C150.363 21.8214 125.916 31.1849 128.384 49.2067C134.496 39.0988 146.288 35.8079 159.648 37.8843Z" fill="#5F3EA7"/>
<path d="M159.646 37.8857C154.397 28.8357 143.348 28.248 135.944 33.2236C135.905 35.3392 136.532 36.8671 137.668 38.0816C143.662 35.1825 151.497 34.0072 159.646 37.8857Z" fill="#6F4BBB"/>
<path d="M208.267 98.9639C218.022 98.9639 226.014 106.799 226.014 116.594C226.014 126.388 218.022 134.224 208.267 134.224C198.511 134.224 190.519 126.388 190.519 116.594C190.519 106.799 198.511 98.9639 208.267 98.9639Z" fill="#6F4BBB"/>
<path d="M208.266 101.549C216.65 101.549 223.428 108.287 223.428 116.554C223.428 124.86 216.65 131.559 208.266 131.559C199.882 131.559 193.104 124.82 193.104 116.554C193.104 108.287 199.921 101.549 208.266 101.549Z" fill="#9478CF"/>
<path d="M208.267 101.549C214.222 101.549 219.354 104.957 221.862 109.894C222.41 117.729 212.851 123.488 206.465 120.785C201.764 118.239 198.512 113.263 198.512 107.582C198.512 106.642 198.59 105.741 198.786 104.84C201.411 102.803 204.702 101.549 208.267 101.549Z" fill="#A58DD4"/>
<path d="M202.077 114.242C201.372 112.087 209.443 109.384 210.187 111.539L218.179 135.476C218.885 137.631 210.814 140.334 210.07 138.179L202.077 114.242Z" fill="#2B3039"/>
<path d="M213.673 111.813C210.5 113.772 207.875 115.692 205.995 119.257C208.698 122.548 212.263 124.35 216.181 123.88C219.354 119.884 217.709 115.3 213.673 111.813Z" fill="#5F3EA7"/>
<path d="M216.142 117.298C215.672 115.926 214.81 114.634 213.713 113.38C211.284 114.947 209.286 116.632 207.758 119.061C209.443 119.217 212.067 118.786 216.142 117.298Z" fill="#6F4BBB"/>
<path d="M216.729 121.411C213.555 123.37 210.931 125.29 209.05 128.855C211.753 132.146 215.318 133.948 219.236 133.478C222.41 129.482 220.764 124.898 216.729 121.411Z" fill="#5F3EA7"/>
<path d="M219.199 126.505C218.728 125.133 217.867 123.841 216.77 122.587C214.341 124.154 212.342 125.839 210.815 128.268C212.499 128.464 215.124 127.993 219.199 126.505Z" fill="#6F4BBB"/>
<path d="M200.196 122.352C203.213 121.608 205.877 121.138 209.129 122.078C209.521 125.604 208.541 128.816 205.995 130.854C201.763 130.501 199.961 126.818 200.196 122.352Z" fill="#5F3EA7"/>
<path d="M202.038 126.623C201.489 125.526 201.215 124.272 201.098 122.901C203.448 122.352 205.603 122.117 207.993 122.627C207.131 123.763 205.329 125.056 202.038 126.623Z" fill="#6F4BBB"/>
<path d="M194.163 57.5125C178.139 58.4136 165.877 72.1649 166.778 88.1886C167.679 104.212 181.43 116.475 197.454 115.574C213.478 114.673 225.74 100.921 224.839 84.8977C223.938 68.874 210.226 56.6114 194.163 57.5125Z" fill="#393F4C"/>
<path d="M194.399 61.1174C180.373 61.901 169.599 73.9677 170.383 88.0325C171.166 102.058 183.233 112.832 197.298 112.009C211.323 111.226 222.097 99.1589 221.314 85.0941C220.491 71.0685 208.463 60.2947 194.399 61.1174Z" fill="#D3E8EF"/>
<path d="M215.201 99.1593C217.787 95.1631 219.198 90.3443 218.923 85.212C218.336 75.065 211.323 66.7985 202.038 64.252C201.293 73.0278 200.51 81.6468 199.687 90.501C202.782 91.7547 210.774 95.7508 215.201 99.1593Z" fill="white"/>
<path d="M194.006 63.9378C181.783 64.643 172.419 75.1034 173.163 87.3269C173.281 89.0507 173.555 90.7353 174.025 92.3024C173.986 91.9498 173.947 91.5972 173.947 91.2055C173.163 77.0231 183.977 64.8781 198.159 64.0553H198.276C196.905 63.9378 195.456 63.8594 194.006 63.9378Z" fill="white"/>
<path d="M174.026 99.7462C174.496 100.53 175.005 101.274 175.554 101.979L183.076 91.558L200.392 98.7667L210.422 78.0417L220.491 79.9614C220.216 79.0212 219.942 78.0809 219.589 77.1798L209.011 75.1426L199.178 95.4758L182.253 88.4238L174.026 99.7462Z" fill="#999999"/>
<path d="M182.332 84.7413C185.231 84.5846 187.699 86.7785 187.856 89.6777C188.013 92.5768 185.819 95.045 182.92 95.2017C180.02 95.3585 177.552 93.1645 177.396 90.2654C177.2 87.4054 179.433 84.9372 182.332 84.7413Z" fill="#1EC185"/>
<path d="M209.403 71.3829C212.302 71.2262 214.771 73.4201 214.927 76.3193C215.084 79.2184 212.89 81.6866 209.991 81.8433C207.092 82.0001 204.624 79.8061 204.467 76.9069C204.271 74.0078 206.504 71.5396 209.403 71.3829Z" fill="#EA4E64"/>
<path d="M199.452 91.9112C202.351 91.7545 204.82 93.9485 204.976 96.8476C205.133 99.7468 202.939 102.215 200.04 102.372C197.141 102.528 194.673 100.334 194.516 97.4353C194.32 94.5361 196.553 92.0679 199.452 91.9112Z" fill="#FF893A"/>
<path d="M8.68652 88.9044L21.1286 88.9943L19.8779 81.2296L6.00109 81.0743L8.68652 88.9044ZM15.4049 108.504L24.2841 108.607L23.0565 100.97L12.7944 100.9L15.4049 108.504ZM60.5953 101.228L50.9626 101.163L49.5361 108.893L57.3417 108.99L60.5953 101.228ZM54.5718 81.6342L53.1658 89.2259L65.6024 89.3199L68.7538 81.7991L54.5718 81.6342ZM35.8951 89.1047L35.9864 81.4162L22.3957 81.2609L23.6465 89.0106L35.8951 89.1047ZM35.7561 101.059L25.573 100.991L26.8006 108.633L35.6662 108.738L35.7561 101.059ZM38.2426 101.073L38.1513 108.766L47.0115 108.866L48.4448 101.146L38.2426 101.073ZM50.6534 89.2096L52.0513 81.6043L38.4633 81.4448L38.3789 89.1183L50.6534 89.2096ZM50.1751 91.7969L38.3475 91.7056L38.2712 98.5984L48.8985 98.6719L50.1751 91.7969ZM64.5165 91.8991L52.6889 91.8105L51.4163 98.6896L61.639 98.7578L64.5165 91.8991ZM21.5455 91.5844L9.57349 91.4999L11.9496 98.4171L22.6559 98.488L21.5455 91.5844ZM25.1711 98.5084L35.7902 98.582L35.861 91.6893L24.0661 91.6007L25.1711 98.5084ZM0.593445 77.168C1.19975 76.3247 2.17118 75.8519 3.2489 75.8601L70.9201 76.6421L75.1806 66.519C75.7732 65.1061 77.2583 64.1306 78.787 64.1442L87 64.2436L86.9401 69.4183L79.6113 69.3297L55.734 126.183C55.1413 127.599 53.6535 128.575 52.1166 128.558L17.9513 128.161L18.0017 122.984L51.2978 123.372L55.1727 114.139L14.3762 113.669C12.8107 113.652 11.3079 112.568 10.8092 111.087L0.187424 80.0946C-0.164093 79.0755 -0.0169449 78.0087 0.593445 77.168Z" fill="#F35C7A"/>
<path d="M26.6084 130.202C29.8293 130.239 32.4085 132.881 32.3717 136.099C32.3349 139.314 29.6985 141.889 26.4667 141.855C23.2458 141.813 20.6667 139.178 20.7035 135.963C20.7457 132.744 23.3821 130.165 26.6084 130.202Z" fill="#F35C7A"/>
<path d="M46.243 130.431C49.4625 130.465 52.043 133.104 52.0089 136.322C51.9722 139.541 49.3358 142.122 46.1094 142.078C42.8858 142.043 40.3121 139.404 40.3462 136.189C40.3857 132.973 43.0221 130.392 46.243 130.431Z" fill="#F35C7A"/>
<path d="M20.1926 41.3823C21.6273 39.1546 23.9408 37.814 26.8919 37.5074C27.1957 37.4734 27.4955 37.457 27.8129 37.4625C31.076 37.5129 34.4972 39.498 36.045 42.8102C37.7045 39.5429 41.191 37.6805 44.4596 37.7336C44.7798 37.7377 45.0836 37.7649 45.3915 37.8044C48.3208 38.2159 50.588 39.6301 51.9518 41.9014C53.565 44.5814 53.7121 48.256 52.3551 51.9837C49.4231 59.9827 36.6744 67.8769 36.1308 68.2121C36.1254 68.2175 36.1077 68.208 36.1022 68.2175C36.0968 68.2311 36.0886 68.2339 36.079 68.2393C35.9523 68.302 35.8243 68.3252 35.7003 68.3252C35.6689 68.3306 35.6485 68.3415 35.6376 68.3415C35.4809 68.3415 35.3256 68.302 35.1893 68.2284C35.1893 68.2284 35.1784 68.208 35.1635 68.2025C35.158 68.1944 35.1444 68.1944 35.1417 68.1944C34.6117 67.8428 22.1328 59.5576 19.4623 51.4428C18.217 47.6728 18.4868 44.0119 20.1926 41.3823Z" fill="#BC2967"/>
<path d="M26.9859 38.4165C30.9139 38.0091 36.0545 41.1646 35.9891 46.8093L35.6485 67.4194C35.6117 67.399 22.9339 59.0266 20.3411 51.157C18.2225 44.7343 20.7594 39.0759 26.9859 38.4165Z" fill="#DB3D8C"/>
<path d="M35.9863 46.835C36.0735 41.1685 41.3327 38.1765 45.2539 38.7229C51.4504 39.5771 53.8116 45.3145 51.4926 51.6663C48.6233 59.4542 35.6485 67.4247 35.6485 67.4247V67.4192L35.9891 46.8091C35.9891 46.8146 35.9863 46.8227 35.9863 46.835Z" fill="#BC2967"/>
</svg>
