<svg width="154" height="41" viewBox="0 0 154 41" fill="none" xmlns="http://www.w3.org/2000/svg">
<path d="M9.26814 24.5942H21.0756C22.5464 26.8221 25.0713 28.3073 27.9365 28.3073H9.26814C8.24293 28.3073 7.41162 27.476 7.41162 26.4508C7.41162 25.4255 8.24293 24.5942 9.26814 24.5942Z" fill="#E63060"/>
<path d="M5.56953 21.9665C4.54432 21.9665 3.71301 21.1351 3.71301 20.1099C3.71301 19.0847 4.54432 18.2534 5.56953 18.2534H19.9617C19.8276 18.8475 19.7533 19.4705 19.7533 20.1099C19.7533 20.7494 19.8276 21.3724 19.9617 21.9665H5.56953Z" fill="#A735DF"/>
<path d="M1.85652 15.6232C0.831309 15.6232 0 14.7919 0 13.7667C0 12.7415 0.831309 11.9102 1.85652 11.9102H27.9365C27.8767 11.9102 27.8024 11.9102 27.7426 11.9102H27.6972C27.6374 11.9102 27.5776 11.9102 27.5033 11.9102H27.4889C27.4291 11.9102 27.3692 11.9102 27.3115 11.9246H27.2826C27.2228 11.9246 27.163 11.939 27.0887 11.939H27.0598C27 11.939 26.9567 11.9535 26.8969 11.9535H26.868C26.8082 11.9679 26.7483 11.9679 26.6906 11.9824H26.6452C26.5255 11.9968 26.408 12.0277 26.2883 12.0422L26.2429 12.0566C26.1831 12.0711 26.1398 12.0855 26.08 12.0855L26.0346 12.0999L25.9005 12.1288L25.8551 12.1433C25.7953 12.1577 25.752 12.1721 25.6922 12.1886L25.6633 12.2031C25.6179 12.2175 25.5746 12.232 25.5292 12.2485L25.4694 12.2629L25.3353 12.3083L25.2755 12.3227C25.2157 12.3372 25.1724 12.3516 25.1125 12.3825L25.0837 12.397L24.964 12.4424L24.9042 12.4712C24.8588 12.4857 24.8155 12.5166 24.7701 12.5311L24.7103 12.5599L24.6071 12.6053L24.5473 12.6342C24.5019 12.6486 24.4586 12.6796 24.4132 12.694L24.3534 12.7229L24.2647 12.7683L24.1616 12.8281L24.0729 12.8735L23.9986 12.9189L23.9244 12.9642L23.8212 13.0241L23.7614 13.0694L23.6871 13.1148L23.584 13.1747L23.5097 13.22L23.4644 13.2489C23.3757 13.3087 23.2705 13.383 23.1817 13.4428L23.1673 13.4573C23.1075 13.5026 23.0477 13.546 22.9878 13.5913L22.9734 13.6058C22.8847 13.68 22.7795 13.7543 22.6908 13.8286L22.6764 13.843C22.0823 14.3484 21.548 14.9425 21.1169 15.6108H1.9019L1.85652 15.6232Z" fill="#6433F9"/>
<path d="M36.5961 20.1098C36.5961 15.3283 32.7201 11.4502 27.9365 11.4502C23.1529 11.4502 19.2769 15.3262 19.2769 20.1098C19.2769 24.8935 23.1529 28.7695 27.9365 28.7695C32.7201 28.7695 36.5961 24.8914 36.5961 20.1098ZM20.5847 20.1098C20.5847 16.0399 23.881 12.758 27.9365 12.758C32.0064 12.758 35.2883 16.0544 35.2883 20.1098C35.2883 24.1797 31.992 27.4617 27.9365 27.4617C23.8666 27.4617 20.5847 24.1632 20.5847 20.1098Z" fill="#210F59"/>
<path d="M44.0512 8.73338L29.7044 0.490431C28.576 -0.163477 27.2826 -0.163477 26.1399 0.490431L11.7931 8.73338C11.659 8.80764 11.5249 8.89634 11.4073 8.98504H18.2538L27.8623 3.4753C27.8767 3.4753 27.9221 3.44642 27.9366 3.44642C27.951 3.44642 27.9964 3.46086 28.0108 3.4753L42.3576 11.7183C42.372 11.7183 42.403 11.7471 42.4174 11.7636C42.4319 11.7925 42.4319 11.8379 42.4319 11.8523V28.3836C42.4319 28.4125 42.4319 28.4579 42.4174 28.4723C42.4174 28.4868 42.372 28.5012 42.3576 28.5177L28.0108 36.7607C27.9964 36.7607 27.951 36.7895 27.9366 36.7895C27.9221 36.7895 27.8767 36.7751 27.8623 36.7607L18.2538 31.2509H11.4053C11.5249 31.3396 26.1378 39.7455 26.1378 39.7455C27.2661 40.3994 28.5595 40.3994 29.7023 39.7455L44.0491 31.5026C45.1919 30.8342 45.8458 29.7059 45.8458 28.3836V11.8523C45.8478 10.5301 45.196 9.38523 44.0512 8.73338Z" fill="#210F59"/>
<path d="M27.9365 23.5401C29.8311 23.5401 31.367 22.0042 31.367 20.1096C31.367 18.2151 29.8311 16.6792 27.9365 16.6792C26.042 16.6792 24.5061 18.2151 24.5061 20.1096C24.5061 22.0042 26.042 23.5401 27.9365 23.5401Z" fill="#210F59"/>
<path d="M58.5655 23.6948V21.4082H62.8955V18.9663H58.5655V16.5079H63.5005V14.1354H55.8457V26.0673H63.6559V23.6948H58.5655Z" fill="#210F59"/>
<path d="M73.3579 26.0673L70.1885 21.7025L72.8552 17.9957H69.8759L68.803 19.6407L67.6771 17.9957H64.6813L67.3481 21.7025L64.1622 26.0673H67.158L68.7683 23.7112L70.3786 26.0673H73.3579Z" fill="#210F59"/>
<path d="M79.6583 17.9975V18.8804C79.0698 18.1182 77.9786 17.8074 77.1469 17.8074C75.1382 17.8074 73.2336 19.4013 73.2336 22.015C73.2336 24.6306 75.1382 26.2226 77.1469 26.2226C77.9786 26.2226 79.0698 25.9101 79.6583 25.1497V26.0673H82.2045V17.9975H79.6583ZM77.7008 23.8337C76.6955 23.8337 75.8309 23.0368 75.8309 22.015C75.8309 20.9933 76.6973 20.1964 77.7008 20.1964C78.6713 20.1964 79.5542 20.975 79.5542 22.015C79.5542 23.0532 78.6878 23.8337 77.7008 23.8337Z" fill="#210F59"/>
<path d="M87.9913 26.2226C89.5504 26.2226 90.744 25.4604 91.5244 24.3181L89.5504 23.0715C89.2214 23.5559 88.5634 23.8502 88.0096 23.8502C86.8325 23.8502 86.1397 23.0185 86.1397 21.9968C86.1397 20.9915 86.8325 20.1616 88.0096 20.1616C88.5634 20.1616 89.2214 20.4559 89.5504 20.9403L91.5244 19.6937C90.7458 18.5513 89.5504 17.7892 87.9913 17.7892C85.6353 17.7892 83.5406 19.4342 83.5406 21.9968C83.5406 24.5593 85.6371 26.2226 87.9913 26.2226Z" fill="#210F59"/>
<path d="M96.1049 17.9975V15.0877H93.5423V17.9975H92.071V19.9204H93.5423V26.0691H96.1049V19.9185H97.8029V17.9975H96.1049Z" fill="#210F59"/>
<path d="M113.041 26.0673L111.57 14.1354H110.15L105.907 22.9856L101.647 14.1354H100.227L98.7717 26.0673H100.313L101.404 16.9758L105.231 24.7695H106.6L110.393 16.9758L111.501 26.0673H113.041Z" fill="#210F59"/>
<path d="M122.593 21.9968C122.593 19.4342 120.879 17.8056 118.576 17.8056C116.273 17.8056 114.42 19.4342 114.42 21.9968C114.42 24.5593 116.273 26.2391 118.576 26.2391C120.135 26.2391 121.59 25.5116 122.299 24.1097L120.983 23.5906C120.534 24.404 119.616 24.8207 118.627 24.8207C117.242 24.8207 116.203 24.1115 115.977 22.673H122.557C122.575 22.4482 122.593 22.2234 122.593 21.9968ZM115.995 21.3735C116.238 19.9185 117.207 19.2258 118.576 19.2258C119.91 19.2258 120.897 19.988 121.087 21.3735H115.995Z" fill="#210F59"/>
<path d="M128.044 17.9792H126.295V14.914H124.789V17.9792H123.334V19.2788H124.789V26.0673H126.295V19.2788H128.044V17.9792Z" fill="#210F59"/>
<path d="M133.175 17.8056C132.1 17.8056 131.321 18.3942 130.906 19.8144V17.9792H129.382V26.0673H130.906V23.1062C130.906 20.9768 131.548 19.2624 133.158 19.2624C133.471 19.2624 133.902 19.3318 134.335 19.5402L134.578 18.12C134.335 17.9628 133.747 17.8056 133.175 17.8056Z" fill="#210F59"/>
<path d="M136.477 16.0052C137.066 16.0052 137.552 15.572 137.552 14.9999C137.552 14.4278 137.068 13.9946 136.477 13.9946C135.905 13.9946 135.421 14.4278 135.421 14.9999C135.421 15.572 135.907 16.0052 136.477 16.0052ZM135.734 26.0673H137.24V17.9792H135.734V26.0673Z" fill="#210F59"/>
<path d="M143.306 26.2226C144.571 26.2226 145.679 25.7383 146.388 24.9413L145.436 23.9543C144.933 24.4734 144.205 24.8024 143.357 24.8024C141.765 24.8024 140.482 23.6765 140.482 22.015C140.482 20.3517 141.763 19.2276 143.357 19.2276C144.205 19.2276 144.933 19.5566 145.436 20.0757L146.388 19.0887C145.679 18.3101 144.569 17.8074 143.306 17.8074C140.987 17.8074 138.96 19.4525 138.96 22.015C138.96 24.5776 140.987 26.2226 143.306 26.2226Z" fill="#210F59"/>
<path d="M150.318 26.2409C151.997 26.2409 153.452 25.3234 153.452 23.8173C153.452 22.8997 153.019 21.8944 151.339 21.4795L150.144 21.1852C149.625 21.0646 149.106 20.7703 149.106 20.2146C149.106 19.5914 149.625 19.1234 150.405 19.1234C151.045 19.1234 151.687 19.5384 151.705 20.1616H153.16C153.16 18.5331 151.74 17.8056 150.372 17.8056C148.744 17.8056 147.601 18.8273 147.601 20.1616C147.601 21.4612 148.38 22.1192 149.731 22.483L150.839 22.7425C151.478 22.8814 151.946 23.1921 151.946 23.799C151.946 24.457 151.339 24.9249 150.318 24.9249C149.331 24.9249 148.726 24.3528 148.707 23.6601H147.304C147.373 25.3234 148.863 26.2409 150.318 26.2409Z" fill="#210F59"/>
</svg>
