<svg width="186" height="144" viewBox="0 0 186 144" fill="none" xmlns="http://www.w3.org/2000/svg">
<path d="M105.506 120.04H79.7662V142.567H105.036C109.032 140.804 112.323 138.297 114.713 135.359C113.772 130.5 110.286 124.154 105.506 120.04Z" fill="#6F4BBB"/>
<path d="M104.017 121.921C107.425 125.447 110.795 129.717 111.931 134.575C109.894 137.004 107.229 138.885 104.369 140.256H82.7434V121.921H104.017Z" fill="#7D5DC2"/>
<path d="M109.971 129.601C110.637 130.541 111.891 134.341 111.969 134.576C109.932 137.005 107.268 138.886 104.408 140.257H92.8896V130.423C98.5703 130.384 104.251 130.11 109.971 129.601Z" fill="#9478CF"/>
<path d="M105.623 137.788C102.959 138.689 101.705 140.374 101.314 142.568H110.599C109.972 140.687 108.209 138.376 105.623 137.788Z" fill="#5F3EA7"/>
<path d="M105.661 138.807C107.111 139.198 108.325 140.335 109.109 141.627H105.622V138.807H105.661Z" fill="#6F4BBB"/>
<path d="M96.455 137.239C92.8898 138.219 91.166 140.609 90.735 142.567H103.115C102.292 140.491 99.7851 137.709 96.455 137.239Z" fill="#5F3EA7"/>
<path d="M96.5346 138.219C98.4935 138.571 100.413 139.943 101.549 141.627H96.4562V138.219H96.5346Z" fill="#6F4BBB"/>
<path d="M48.8938 120.04H74.6336V142.567H49.364C45.3678 140.804 42.0769 138.297 39.6871 135.359C40.5882 130.5 44.075 124.154 48.8938 120.04Z" fill="#6F4BBB"/>
<path d="M50.343 121.921C46.9346 125.447 43.5653 129.717 42.4291 134.575C44.4664 137.004 47.1304 138.885 49.9904 140.256H71.6165V121.921H50.343Z" fill="#7D5DC2"/>
<path d="M44.4272 129.601C43.7612 130.541 42.5076 134.341 42.4292 134.576C44.4664 137.005 47.1305 138.886 49.9905 140.257H61.5087V130.423C55.828 130.384 50.108 130.11 44.4272 129.601Z" fill="#9478CF"/>
<path d="M48.7368 137.788C51.4009 138.689 52.6546 140.374 53.0464 142.568H43.7613C44.3881 140.687 46.1511 138.376 48.7368 137.788Z" fill="#5F3EA7"/>
<path d="M48.6982 138.807C47.2486 139.198 46.0341 140.335 45.2505 141.627H48.7373V138.807H48.6982Z" fill="#6F4BBB"/>
<path d="M57.9037 137.239C61.4688 138.219 63.1926 140.609 63.6236 142.567H51.2435C52.0662 140.491 54.5736 137.709 57.9037 137.239Z" fill="#5F3EA7"/>
<path d="M57.8649 138.219C55.9061 138.571 53.9863 139.943 52.8502 141.627H57.9433V138.219H57.8649Z" fill="#6F4BBB"/>
<path d="M146.014 126.975C145.858 131.088 144.917 134.301 143.115 136.299C140.294 136.064 137.905 132.93 136.808 130.226C138.453 127.366 141.666 126.074 146.014 126.975Z" fill="#5F3EA7"/>
<path d="M144.566 128.111C144.487 130.501 143.861 132.969 142.568 134.772L141.471 128.268C142.45 128.033 143.508 128.033 144.566 128.111Z" fill="#6F4BBB"/>
<path d="M138.885 129.169C138.611 132.851 138.141 136.103 135.829 139.394C131.677 138.493 128.425 136.181 127.054 132.499C129.091 127.837 133.949 127.21 138.885 129.169Z" fill="#5F3EA7"/>
<path d="M135.24 137.827L132.459 129.638C134.026 129.325 135.789 129.56 137.474 130.109C137.199 132.89 136.729 135.358 135.24 137.827Z" fill="#6F4BBB"/>
<path d="M125.251 132.185C124.545 136.377 120.589 138.453 118.59 138.336C117.689 136.808 116.788 134.81 116.788 132.42L118.512 130.971C121.137 130.461 123.919 130.657 125.251 132.185Z" fill="#5F3EA7"/>
<path d="M119.296 136.926C118.513 135.751 118.003 133.949 117.925 132.225L120.746 131.755L119.296 136.926Z" fill="#6F4BBB"/>
<path d="M116.749 76.0049V132.382C126.504 133.596 137.865 133.204 146.014 126.936C145.858 121.686 145.348 116.554 144.408 111.657C142.645 102.802 139.315 94.7318 133.556 88.1108C128.463 82.2733 123.37 79.4917 116.749 76.0049Z" fill="#6F4BBB"/>
<path d="M143.273 125.643C138.18 129.561 125.956 130.776 119.531 129.953V80.5498C136.103 89.3648 142.685 105.624 143.273 125.643Z" fill="#9478CF"/>
<path d="M143.273 125.643C140.687 127.641 136.299 128.894 131.715 129.6C131.049 117.024 131.128 98.1007 133.948 93.0859C140.099 101.823 142.881 112.988 143.273 125.643Z" fill="#A58DD4"/>
<path d="M131.716 117.259C129.561 117.259 127.837 118.983 127.837 121.137C127.837 123.292 129.561 125.016 131.716 125.016C133.871 125.016 135.594 123.292 135.594 121.137C135.594 118.983 133.871 117.259 131.716 117.259Z" fill="#9478CF"/>
<path d="M122.47 32.0474C123.606 24.7211 122.352 20.9209 120.864 14.2215C116.201 18.1001 113.224 20.8817 107.543 23.7417C106.407 16.6505 103.9 9.95113 100.256 3.6827L98.1013 0C89.7957 6.26843 82.7045 11.2832 77.2196 19.5888C71.7348 11.2832 64.6436 6.26843 56.3379 0L54.1832 3.6827C50.5396 9.95113 48.0323 16.6505 46.8961 23.7417C41.2153 20.8817 38.2378 18.1001 33.5757 14.2215C32.0478 20.8817 30.8333 24.6819 31.9694 32.0474L21.7048 34.8681C23.7421 61.6657 25.8185 84.5063 28.4434 111.304C28.796 114.987 29.1878 118.708 29.5796 122.391C29.6971 123.449 30.99 125.369 36.4748 125.408C63.2724 127.21 91.3236 127.21 118.082 125.408C123.567 125.329 124.86 123.449 124.977 122.391C125.369 118.63 125.761 114.869 126.113 111.108C126.27 109.58 126.427 108.052 126.584 106.485C128.817 82.5866 131.011 58.7665 132.852 34.829L122.587 32.0082H122.47V32.0474Z" fill="#6F4BBB"/>
<path d="M96.9653 5.60254C101.392 13.1247 103.861 21.0777 104.331 29.305C108.875 27.5812 114.047 24.7604 118.513 21.1169C119.414 25.113 119.218 30.3237 118.004 34.8683C121.765 35.7302 125.252 36.6313 128.738 37.6499C126.858 62.2535 125.095 86.857 122.666 111.382C122.431 113.811 121.921 119.061 121.647 121.49C120.668 122.039 118.631 122.039 117.808 122.078C90.8535 123.88 63.5859 123.88 36.6316 122.078C35.7697 121.999 33.7717 121.999 32.7922 121.49C32.518 119.1 32.0087 113.733 31.7736 111.382C29.3838 86.8179 27.5816 62.2143 25.701 37.6499C29.1879 36.6313 32.6747 35.7302 36.4357 34.8683C35.2212 30.3237 35.0253 25.113 35.9264 21.1169C40.3535 24.7996 45.5641 27.5812 50.1087 29.305C50.5789 21.1169 53.0471 13.1247 57.4742 5.60254C66.485 12.4195 72.4009 17.3558 77.2197 27.2286C82.0777 17.3558 87.9544 12.4195 97.0044 5.60254H96.9653Z" fill="#9478CF"/>
<path d="M96.9653 5.60254C96.2992 16.5331 93.5568 28.6782 88.3854 33.7713C95.2806 33.0269 98.9633 32.2042 104.291 29.305C108.875 27.5812 114.047 24.7604 118.513 21.1169C116.123 28.3256 113.812 33.4579 109.071 38.4726C113.106 38.3943 115.418 37.0622 118.004 34.8683C121.765 35.7302 125.252 36.6313 128.738 37.6499C126.858 62.2535 125.095 86.8571 122.666 111.382C122.431 113.811 121.921 119.061 121.647 121.49C120.668 122.039 118.631 122.039 117.808 122.078C104.331 122.979 90.7752 123.41 77.2197 123.41V108.757C98.1406 110.403 117.259 77.4152 95.2806 55.75L99.6685 58.179C100.217 54.6922 99.12 50.3435 97.6705 46.8175C94.8105 39.9614 87.21 34.8683 77.2197 33.6538V27.1894C82.0777 17.3167 87.9152 12.3803 96.9653 5.60254Z" fill="#A58DD4"/>
<path d="M45.3679 38.4727C40.6666 33.458 38.3159 28.2865 35.9261 21.0778C35.025 25.074 35.2209 30.2846 36.4354 34.8292C39.0211 37.0623 41.3326 38.3944 45.3679 38.4727ZM53.321 36.4355C50.9703 36.4355 49.0898 38.3552 49.0898 40.6667C49.0898 43.0173 51.0095 44.8979 53.321 44.8979C55.6716 44.8979 57.5522 42.9782 57.5522 40.6667C57.5522 38.3552 55.6325 36.4355 53.321 36.4355ZM37.8458 45.9948C36.2395 45.9948 34.9075 47.3269 34.9075 48.9332C34.9075 50.5395 36.2395 51.8715 37.8458 51.8715C39.4521 51.8715 40.7841 50.5395 40.7841 48.9332C40.7841 47.2877 39.4913 45.9948 37.8458 45.9948ZM66.0146 33.7322C60.8431 28.6783 58.1007 16.5332 57.4346 5.56348C53.0076 13.0856 50.5394 21.0387 50.0692 29.266C55.4366 32.1651 59.1193 32.9879 66.0146 33.7322Z" fill="#7D5DC2"/>
<path d="M115.614 42.5859C111.774 42.5859 108.64 45.7202 108.64 49.5596C108.64 53.399 111.774 56.5332 115.614 56.5332C119.453 56.5332 122.587 53.399 122.587 49.5596C122.587 45.7202 119.453 42.5859 115.614 42.5859ZM120.119 63.977C118.591 63.977 117.337 65.2306 117.337 66.7586C117.337 68.2865 118.591 69.5402 120.119 69.5402C121.647 69.5402 122.901 68.2865 122.901 66.7586C122.901 65.2306 121.647 63.977 120.119 63.977Z" fill="#9478CF"/>
<path d="M76.7493 46.3867C60.1771 46.3867 46.7391 59.8247 46.7391 76.3968C46.7391 92.969 60.1771 106.407 76.7493 106.407C93.3214 106.407 106.759 92.969 106.759 76.3968C106.759 59.8247 93.3214 46.3867 76.7493 46.3867Z" fill="#D3E8EF"/>
<path d="M105.975 69.5804C103.35 58.2973 94.3396 49.4431 82.9781 47.0533C70.5979 46.113 60.5684 54.7713 60.5684 66.5637C60.5684 78.4346 70.7546 88.9734 83.2523 90.0704C95.7892 91.1673 105.936 82.4699 105.936 70.5599C105.975 70.2464 105.975 69.8938 105.975 69.5804Z" fill="white"/>
<path d="M67.5029 64.8779C58.1395 64.8779 50.5782 72.4392 50.5782 81.8027C50.5782 91.1662 58.1395 98.7275 67.5029 98.7275C76.8664 98.7275 84.4277 91.1662 84.4277 81.8027C84.4277 72.4784 76.8664 64.8779 67.5029 64.8779Z" fill="#EA4E64"/>
<path d="M67.5037 64.8779C65.0355 64.8779 62.6849 65.3872 60.5693 66.3667V66.5626C60.5693 78.12 70.207 88.4237 82.3521 89.9908C83.6841 87.5618 84.4677 84.7802 84.4677 81.8027C84.4677 72.4392 76.9064 64.8779 67.5037 64.8779Z" fill="#EC6277"/>
<path d="M67.5021 70.833C61.4296 70.833 56.4932 75.7302 56.4932 81.8419C56.4932 87.9145 61.3904 92.8509 67.5021 92.8509C73.5746 92.8509 78.511 87.9537 78.511 81.8419C78.511 75.7694 73.6138 70.833 67.5021 70.833Z" fill="#232323"/>
<path d="M67.5031 70.833C65.27 70.833 63.1935 71.499 61.4697 72.6352C63.5853 79.648 69.1486 85.603 76.2789 88.4238C77.6501 86.5824 78.4729 84.271 78.4729 81.8419C78.512 75.7694 73.6148 70.833 67.5031 70.833Z" fill="#323232"/>
<path d="M79.4917 69.1494C75.6523 69.1494 72.5573 72.2445 72.5573 76.0839C72.5573 79.9233 75.6523 83.0183 79.4917 83.0183C83.3311 83.0183 86.4262 79.9233 86.4262 76.0839C86.4262 72.2445 83.3311 69.1494 79.4917 69.1494Z" fill="white"/>
<path d="M112.047 90.1481C103.507 85.4468 90.6563 93.6741 91.5966 106.995C99.7455 104.487 108.561 96.8083 112.047 90.1481Z" fill="#6F4BBB"/>
<path d="M112.047 90.1475C104.29 90.3042 95.7102 94.6921 91.5966 106.994C101.352 105.897 110.441 98.4531 112.047 90.1475Z" fill="#A58DD4"/>
<path d="M108.012 101.274C106.876 100.882 101.548 101 101.117 101.588C100.608 102.293 102.018 105.897 103.507 108.248C105.466 106.681 107.072 104.526 108.012 101.274Z" fill="#7D5DC2"/>
<path d="M109.58 99.9812C108.444 99.5895 103.115 99.707 102.685 100.295C102.175 101 103.586 104.604 105.074 106.955C107.033 105.388 108.64 103.233 109.58 99.9812Z" fill="white"/>
<path d="M107.973 98.1396C107.621 105.701 97.7479 112.988 88.3844 110.285C87.8751 112.479 89.3638 113.772 90.8918 114.085C99.3933 114.829 107.581 109.462 110.285 102.606C111.068 100.725 110.206 98.3747 107.973 98.1396Z" fill="#6F4BBB"/>
<path d="M109.581 112.322C107.23 116.749 103.548 118.826 99.5124 119.492C105.272 122.078 110.365 118.63 109.581 112.322Z" fill="#6F4BBB"/>
<path d="M105.7 113.38C101.077 115.966 96.6896 116.788 91.5965 116.318C95.3183 118.786 102.605 119.061 105.7 113.38Z" fill="#9478CF"/>
<path d="M66.3663 37.8843C75.6514 21.8214 100.098 31.1849 97.6301 49.2067C91.5184 39.0988 79.7259 35.8079 66.3663 37.8843Z" fill="#5F3EA7"/>
<path d="M66.3679 37.8857C71.6177 28.8357 82.6658 28.248 90.0704 33.2236C90.1096 35.3392 89.4827 36.8671 88.3466 38.0816C82.3524 35.1825 74.5168 34.0072 66.3679 37.8857Z" fill="#6F4BBB"/>
<path d="M17.7476 98.9639C7.99232 98.9639 6.86646e-05 106.799 6.86646e-05 116.594C6.86646e-05 126.388 7.99232 134.224 17.7476 134.224C27.5028 134.224 35.4951 126.388 35.4951 116.594C35.4951 106.799 27.5028 98.9639 17.7476 98.9639Z" fill="#6F4BBB"/>
<path d="M17.7482 101.549C9.36416 101.549 2.58641 108.287 2.58641 116.554C2.58641 124.86 9.36416 131.559 17.7482 131.559C26.1322 131.559 32.9099 124.82 32.9099 116.554C32.9099 108.287 26.093 101.549 17.7482 101.549Z" fill="#9478CF"/>
<path d="M17.747 101.549C11.792 101.549 6.65975 104.957 4.15238 109.894C3.60389 117.729 13.1632 123.488 19.5492 120.785C24.2505 118.239 27.5023 113.263 27.5023 107.582C27.5023 106.642 27.4239 105.741 27.228 104.84C24.6031 102.803 21.3122 101.549 17.747 101.549Z" fill="#A58DD4"/>
<path d="M23.9368 114.242C24.642 112.087 16.5714 109.384 15.827 111.539L7.83477 135.476C7.12957 137.631 15.2002 140.334 15.9446 138.179L23.9368 114.242Z" fill="#2B3039"/>
<path d="M12.3409 111.813C15.5143 113.772 18.1392 115.692 20.0197 119.257C17.3164 122.548 13.7513 124.35 9.8335 123.88C6.66011 119.884 8.30557 115.3 12.3409 111.813Z" fill="#5F3EA7"/>
<path d="M9.87235 117.298C10.3425 115.926 11.2044 114.634 12.3014 113.38C14.7304 114.947 16.7284 116.632 18.2564 119.061C16.5717 119.217 13.9468 118.786 9.87235 117.298Z" fill="#6F4BBB"/>
<path d="M9.28537 121.411C12.4588 123.37 15.0837 125.29 16.9642 128.855C14.2609 132.146 10.6958 133.948 6.77801 133.478C3.60461 129.482 5.25007 124.898 9.28537 121.411Z" fill="#5F3EA7"/>
<path d="M6.81572 126.505C7.28585 125.133 8.14776 123.841 9.24474 122.587C11.6738 124.154 13.6718 125.839 15.1998 128.268C13.5151 128.464 10.8902 127.993 6.81572 126.505Z" fill="#6F4BBB"/>
<path d="M25.818 122.352C22.8013 121.608 20.1373 121.138 16.8855 122.078C16.4937 125.604 17.4732 128.816 20.0197 130.854C24.2509 130.501 26.0531 126.818 25.818 122.352Z" fill="#5F3EA7"/>
<path d="M23.9764 126.623C24.5249 125.526 24.7991 124.272 24.9167 122.901C22.566 122.352 20.4112 122.117 18.0214 122.627C18.8833 123.763 20.6855 125.056 23.9764 126.623Z" fill="#6F4BBB"/>
<path d="M31.8512 57.5125C47.8749 58.4136 60.1375 72.1649 59.2364 88.1886C58.3353 104.212 44.5839 116.475 28.5603 115.574C12.5366 114.673 0.273972 100.921 1.17506 84.8977C2.07615 68.874 15.7883 56.6114 31.8512 57.5125Z" fill="#393F4C"/>
<path d="M31.6156 61.1174C45.6412 61.901 56.415 73.9677 55.6315 88.0325C54.8479 102.058 42.7812 112.832 28.7164 112.009C14.6908 111.226 3.91694 99.1589 4.70049 85.0941C5.52322 71.0685 17.5508 60.2947 31.6156 61.1174Z" fill="#D3E8EF"/>
<path d="M10.8128 99.1593C8.22703 95.1631 6.81663 90.3443 7.09087 85.212C7.67854 75.065 14.6913 66.7985 23.9765 64.252C24.7208 73.0278 25.5044 81.6468 26.3271 90.501C23.2321 91.7547 15.2398 95.7508 10.8128 99.1593Z" fill="white"/>
<path d="M32.0082 63.9378C44.2317 64.643 53.5951 75.1034 52.8508 87.3269C52.7332 89.0507 52.459 90.7353 51.9889 92.3024C52.028 91.9498 52.0672 91.5972 52.0672 91.2055C52.8508 77.0231 42.0377 64.8781 27.8554 64.0553H27.7379C29.1091 63.9378 30.5587 63.8594 32.0082 63.9378Z" fill="white"/>
<path d="M51.9885 99.7462C51.5184 100.53 51.0091 101.274 50.4606 101.979L42.9385 91.558L25.6219 98.7667L15.5925 78.0417L5.52378 79.9614C5.79802 79.0212 6.07226 78.0809 6.42486 77.1798L17.0028 75.1426L26.8364 95.4758L43.7612 88.4238L51.9885 99.7462Z" fill="#999999"/>
<path d="M43.6823 84.7413C40.7832 84.5846 38.315 86.7785 38.1583 89.6777C38.0016 92.5768 40.1955 95.045 43.0947 95.2017C45.9938 95.3585 48.462 93.1645 48.6187 90.2654C48.8146 87.4054 46.5815 84.9372 43.6823 84.7413Z" fill="#1EC185"/>
<path d="M16.6111 71.3829C13.7119 71.2262 11.2437 73.4201 11.087 76.3193C10.9303 79.2184 13.1242 81.6866 16.0234 81.8433C18.9225 82.0001 21.3907 79.8061 21.5475 76.9069C21.7433 74.0078 19.5102 71.5396 16.6111 71.3829Z" fill="#EA4E64"/>
<path d="M26.562 91.9112C23.6629 91.7545 21.1947 93.9485 21.0379 96.8476C20.8812 99.7468 23.0752 102.215 25.9743 102.372C28.8735 102.528 31.3417 100.334 31.4984 97.4353C31.6943 94.5361 29.4611 92.0679 26.562 91.9112Z" fill="#FF893A"/>
<path d="M112.637 48.1689H175.571V137.578C175.571 140.786 172.979 143.5 169.648 143.5H112.637C109.44 143.5 106.713 140.786 106.713 137.443V54.0908L106.721 53.792C106.884 50.7221 109.533 48.169 112.637 48.1689Z" fill="white" stroke="#8491AC"/>
<path d="M123.862 89.5166C124.06 89.5166 124.256 89.536 124.449 89.5742V89.5732C124.646 89.6132 124.833 89.6706 125.013 89.7451H125.014C125.195 89.8201 125.368 89.9115 125.533 90.0215V90.0225C125.697 90.1323 125.849 90.2581 125.989 90.3984L125.991 90.3994C126.13 90.5375 126.255 90.6891 126.364 90.8535C126.474 91.0177 126.566 91.1908 126.642 91.373C126.718 91.5586 126.775 91.7459 126.813 91.9385L126.814 91.9424C126.852 92.134 126.871 92.3284 126.871 92.5264C126.871 92.7242 126.853 92.9189 126.814 93.1123L126.813 93.1152C126.775 93.3077 126.717 93.4957 126.642 93.6787C126.566 93.8612 126.474 94.0348 126.364 94.1992C126.255 94.3629 126.131 94.5144 125.991 94.6543C125.85 94.7946 125.697 94.9204 125.533 95.0303C125.368 95.1404 125.195 95.2326 125.014 95.3076H125.013C124.83 95.3834 124.642 95.4405 124.449 95.4785C124.256 95.5168 124.06 95.5361 123.862 95.5361C123.763 95.5361 123.664 95.532 123.566 95.5225L123.274 95.4785C123.081 95.4403 122.892 95.3831 122.71 95.3076C122.527 95.2317 122.353 95.1394 122.191 95.0303C122.025 94.9195 121.872 94.7942 121.734 94.6562C121.594 94.5159 121.469 94.3636 121.359 94.1992L121.358 94.1963L121.207 93.9453C121.161 93.859 121.119 93.77 121.081 93.6787C121.043 93.5872 121.01 93.4944 120.982 93.4004L120.91 93.1152C120.871 92.9175 120.852 92.7219 120.852 92.5264C120.852 92.4284 120.856 92.3304 120.866 92.2324L120.91 91.9385C120.948 91.746 121.004 91.5585 121.08 91.373L121.081 91.374C121.157 91.1917 121.249 91.0194 121.358 90.8564L121.359 90.8535C121.469 90.6891 121.594 90.5375 121.732 90.3994L121.736 90.3965C121.873 90.2585 122.025 90.1332 122.191 90.0225C122.353 89.9133 122.527 89.821 122.71 89.7451C122.889 89.6709 123.078 89.6143 123.274 89.5742C123.468 89.5358 123.664 89.5166 123.862 89.5166Z" fill="#6F4BBB" stroke="#8491AC" stroke-width="1.33333"/>
<path d="M123.862 101.283C123.961 101.283 124.059 101.287 124.157 101.297L124.449 101.341C124.642 101.379 124.83 101.436 125.013 101.512H125.014C125.195 101.587 125.368 101.678 125.533 101.788V101.789C125.697 101.899 125.85 102.025 125.991 102.165C126.131 102.305 126.255 102.456 126.364 102.62C126.474 102.785 126.566 102.958 126.642 103.141C126.68 103.232 126.713 103.325 126.741 103.419L126.814 103.708C126.852 103.899 126.871 104.095 126.871 104.293C126.871 104.491 126.852 104.685 126.814 104.877L126.741 105.166C126.713 105.26 126.68 105.353 126.642 105.444V105.445C126.566 105.628 126.474 105.802 126.364 105.966C126.255 106.13 126.13 106.282 125.991 106.42L125.989 106.421C125.85 106.56 125.7 106.685 125.537 106.794C125.37 106.904 125.196 106.997 125.014 107.072L125.01 107.074C124.831 107.149 124.644 107.206 124.449 107.244L124.445 107.245C124.255 107.284 124.06 107.303 123.862 107.303C123.664 107.303 123.469 107.284 123.276 107.245L123.273 107.244C123.079 107.206 122.891 107.149 122.713 107.074L122.71 107.073L122.442 106.946L122.188 106.795C122.023 106.685 121.872 106.56 121.736 106.423L121.732 106.42L121.535 106.202C121.473 106.127 121.414 106.048 121.359 105.966L121.358 105.963L121.207 105.712C121.161 105.626 121.119 105.537 121.081 105.445V105.444L120.982 105.166L120.91 104.881L120.866 104.587C120.856 104.489 120.852 104.391 120.852 104.293C120.852 104.097 120.872 103.9 120.91 103.704C120.948 103.512 121.005 103.324 121.081 103.141C121.157 102.958 121.249 102.786 121.358 102.623L121.359 102.62C121.469 102.456 121.594 102.303 121.734 102.163C121.872 102.025 122.025 101.9 122.19 101.789C122.353 101.68 122.527 101.588 122.71 101.512C122.801 101.474 122.894 101.441 122.988 101.412L123.273 101.341C123.468 101.302 123.664 101.283 123.862 101.283Z" fill="#6F4BBB" stroke="#8491AC" stroke-width="1.33333"/>
<path d="M123.862 113.048C124.06 113.048 124.255 113.067 124.445 113.105L124.449 113.106C124.644 113.145 124.832 113.201 125.013 113.276H125.014C125.195 113.351 125.368 113.443 125.533 113.553V113.554C125.697 113.664 125.849 113.789 125.989 113.93L125.991 113.931C126.13 114.069 126.255 114.22 126.364 114.385C126.474 114.549 126.566 114.722 126.642 114.904C126.718 115.09 126.775 115.277 126.813 115.47L126.814 115.474C126.852 115.665 126.871 115.86 126.871 116.058C126.871 116.255 126.853 116.45 126.814 116.644L126.813 116.646C126.775 116.839 126.717 117.027 126.642 117.21C126.566 117.392 126.474 117.566 126.364 117.73C126.255 117.894 126.131 118.046 125.991 118.186C125.85 118.326 125.697 118.452 125.533 118.562C125.368 118.672 125.195 118.764 125.014 118.839H125.013C124.83 118.915 124.642 118.972 124.449 119.01C124.256 119.048 124.06 119.067 123.862 119.067C123.763 119.067 123.664 119.063 123.566 119.054L123.274 119.01C123.081 118.972 122.892 118.914 122.71 118.839C122.527 118.763 122.353 118.671 122.191 118.562C122.025 118.451 121.872 118.325 121.734 118.188C121.594 118.047 121.469 117.895 121.359 117.73L121.358 117.728L121.207 117.477C121.161 117.39 121.119 117.301 121.081 117.21C121.043 117.118 121.01 117.026 120.982 116.932L120.91 116.646C120.871 116.449 120.852 116.253 120.852 116.058C120.852 115.96 120.856 115.862 120.866 115.764L120.91 115.47C120.948 115.277 121.004 115.09 121.08 114.904L121.081 114.905C121.157 114.723 121.249 114.551 121.358 114.388L121.359 114.385C121.469 114.22 121.594 114.069 121.732 113.931L121.736 113.928C121.873 113.79 122.025 113.664 122.191 113.554C122.353 113.445 122.527 113.352 122.71 113.276C122.89 113.202 123.079 113.145 123.274 113.106L123.276 113.105C123.469 113.066 123.664 113.048 123.862 113.048Z" fill="#6F4BBB" stroke="#8491AC" stroke-width="1.33333"/>
<path d="M159.227 90.252V94.0654H134.088V90.252H159.227Z" fill="#6F4BBB" stroke="#8491AC" stroke-width="1.33333"/>
<path d="M159.227 102.753V106.566H134.088V102.753H159.227Z" fill="#6F4BBB" stroke="#8491AC" stroke-width="1.33333"/>
<path d="M159.227 114.519V118.332H134.088V114.519H159.227Z" fill="#6F4BBB" stroke="#8491AC" stroke-width="1.33333"/>
<path d="M141.972 46.4657C143.097 51.5752 145.084 55.3688 147.968 57.4357C151.736 56.4636 154.276 51.9677 155.161 48.3217C152.298 45.1387 147.66 44.2931 141.972 46.4657Z" fill="#5F3EA7"/>
<path d="M166.152 47.2294C167.278 52.3388 169.264 56.1325 172.148 58.1994C175.916 57.2273 178.457 52.7313 179.342 49.0853C176.478 45.9023 171.841 45.0568 166.152 47.2294Z" fill="#5F3EA7"/>
<path d="M144.187 47.5401C144.824 50.5114 146.221 53.449 148.372 55.3931L148.413 46.9923C147.035 46.9336 145.602 47.1878 144.187 47.5401Z" fill="#6F4BBB"/>
<path d="M168.368 48.3038C169.005 51.2751 170.402 54.2126 172.553 56.1568L172.594 47.756C171.216 47.6973 169.783 47.9515 168.368 48.3038Z" fill="#6F4BBB"/>
<path d="M152.114 47.4984C153.304 52.0404 154.662 55.996 158.523 59.5581C163.947 57.4326 167.837 53.7589 168.876 48.8215C165.082 43.4778 158.364 43.8611 152.114 47.4984Z" fill="#5F3EA7"/>
<path d="M158.971 57.4563L160.92 46.5427C158.728 46.5272 156.393 47.245 154.233 48.3362C155.222 51.7506 156.407 54.7258 158.971 57.4563Z" fill="#6F4BBB"/>
</svg>
