<svg width="247" height="158" viewBox="0 0 247 158" fill="none" xmlns="http://www.w3.org/2000/svg">
<g clip-path="url(#clip0_3415_1068)">
<path d="M105.506 120.04H79.7662V142.567H105.036C109.032 140.804 112.323 138.297 114.713 135.359C113.772 130.5 110.286 124.154 105.506 120.04Z" fill="#6F4BBB"/>
<path d="M104.017 121.921C107.425 125.447 110.795 129.717 111.931 134.575C109.894 137.004 107.229 138.885 104.369 140.256H82.7434V121.921H104.017Z" fill="#7D5DC2"/>
<path d="M109.971 129.601C110.637 130.541 111.891 134.341 111.969 134.576C109.932 137.005 107.268 138.886 104.408 140.257H92.8896V130.423C98.5703 130.384 104.251 130.11 109.971 129.601Z" fill="#9478CF"/>
<path d="M105.623 137.788C102.959 138.689 101.705 140.374 101.314 142.568H110.599C109.972 140.687 108.209 138.376 105.623 137.788Z" fill="#5F3EA7"/>
<path d="M105.661 138.807C107.111 139.198 108.325 140.335 109.109 141.627H105.622V138.807H105.661Z" fill="#6F4BBB"/>
<path d="M96.455 137.239C92.8898 138.219 91.166 140.609 90.735 142.567H103.115C102.292 140.491 99.7851 137.709 96.455 137.239Z" fill="#5F3EA7"/>
<path d="M96.5346 138.219C98.4935 138.571 100.413 139.943 101.549 141.627H96.4562V138.219H96.5346Z" fill="#6F4BBB"/>
<path d="M48.8938 120.04H74.6336V142.567H49.364C45.3678 140.804 42.0769 138.297 39.6871 135.359C40.5882 130.5 44.075 124.154 48.8938 120.04Z" fill="#6F4BBB"/>
<path d="M50.343 121.921C46.9346 125.447 43.5653 129.717 42.4291 134.575C44.4664 137.004 47.1304 138.885 49.9904 140.256H71.6165V121.921H50.343Z" fill="#7D5DC2"/>
<path d="M44.4272 129.601C43.7612 130.541 42.5076 134.341 42.4292 134.576C44.4664 137.005 47.1305 138.886 49.9905 140.257H61.5087V130.423C55.828 130.384 50.108 130.11 44.4272 129.601Z" fill="#9478CF"/>
<path d="M48.7368 137.788C51.4009 138.689 52.6546 140.374 53.0464 142.568H43.7613C44.3881 140.687 46.1511 138.376 48.7368 137.788Z" fill="#5F3EA7"/>
<path d="M48.6982 138.807C47.2486 139.198 46.0341 140.335 45.2505 141.627H48.7373V138.807H48.6982Z" fill="#6F4BBB"/>
<path d="M57.9037 137.239C61.4688 138.219 63.1926 140.609 63.6236 142.567H51.2435C52.0662 140.491 54.5736 137.709 57.9037 137.239Z" fill="#5F3EA7"/>
<path d="M57.8649 138.219C55.9061 138.571 53.9863 139.943 52.8502 141.627H57.9433V138.219H57.8649Z" fill="#6F4BBB"/>
<path d="M146.014 126.975C145.858 131.088 144.917 134.301 143.115 136.299C140.294 136.064 137.905 132.93 136.808 130.226C138.453 127.366 141.666 126.074 146.014 126.975Z" fill="#5F3EA7"/>
<path d="M144.566 128.111C144.487 130.501 143.861 132.969 142.568 134.772L141.471 128.268C142.45 128.033 143.508 128.033 144.566 128.111Z" fill="#6F4BBB"/>
<path d="M138.885 129.169C138.611 132.851 138.141 136.103 135.829 139.394C131.677 138.493 128.425 136.181 127.054 132.499C129.091 127.837 133.949 127.21 138.885 129.169Z" fill="#5F3EA7"/>
<path d="M135.24 137.827L132.459 129.638C134.026 129.325 135.789 129.56 137.474 130.109C137.199 132.89 136.729 135.358 135.24 137.827Z" fill="#6F4BBB"/>
<path d="M125.251 132.185C124.545 136.377 120.589 138.453 118.59 138.336C117.689 136.808 116.788 134.81 116.788 132.42L118.512 130.971C121.137 130.461 123.919 130.657 125.251 132.185Z" fill="#5F3EA7"/>
<path d="M119.296 136.926C118.513 135.751 118.003 133.949 117.925 132.225L120.746 131.755L119.296 136.926Z" fill="#6F4BBB"/>
<path d="M116.749 76.0049V132.382C126.504 133.596 137.865 133.204 146.014 126.936C145.858 121.686 145.348 116.554 144.408 111.657C142.645 102.802 139.315 94.7318 133.556 88.1108C128.463 82.2733 123.37 79.4917 116.749 76.0049Z" fill="#6F4BBB"/>
<path d="M143.273 125.643C138.18 129.561 125.956 130.776 119.531 129.953V80.5498C136.103 89.3648 142.685 105.624 143.273 125.643Z" fill="#9478CF"/>
<path d="M143.273 125.643C140.687 127.641 136.299 128.894 131.715 129.6C131.049 117.024 131.128 98.1007 133.948 93.0859C140.099 101.823 142.881 112.988 143.273 125.643Z" fill="#A58DD4"/>
<path d="M131.716 117.259C129.561 117.259 127.837 118.983 127.837 121.137C127.837 123.292 129.561 125.016 131.716 125.016C133.871 125.016 135.594 123.292 135.594 121.137C135.594 118.983 133.871 117.259 131.716 117.259Z" fill="#9478CF"/>
<path d="M122.47 32.0474C123.606 24.7211 122.352 20.9209 120.864 14.2215C116.201 18.1001 113.224 20.8817 107.543 23.7417C106.407 16.6505 103.9 9.95113 100.256 3.6827L98.1013 0C89.7957 6.26843 82.7045 11.2832 77.2196 19.5888C71.7348 11.2832 64.6436 6.26843 56.3379 0L54.1832 3.6827C50.5396 9.95113 48.0323 16.6505 46.8961 23.7417C41.2153 20.8817 38.2378 18.1001 33.5757 14.2215C32.0478 20.8817 30.8333 24.6819 31.9694 32.0474L21.7048 34.8681C23.7421 61.6657 25.8185 84.5063 28.4434 111.304C28.796 114.987 29.1878 118.708 29.5796 122.391C29.6971 123.449 30.99 125.369 36.4748 125.408C63.2724 127.21 91.3236 127.21 118.082 125.408C123.567 125.329 124.86 123.449 124.977 122.391C125.369 118.63 125.761 114.869 126.113 111.108C126.27 109.58 126.427 108.052 126.584 106.485C128.817 82.5866 131.011 58.7665 132.852 34.829L122.587 32.0082H122.47V32.0474Z" fill="#6F4BBB"/>
<path d="M96.9653 5.60254C101.392 13.1247 103.861 21.0777 104.331 29.305C108.875 27.5812 114.047 24.7604 118.513 21.1169C119.414 25.113 119.218 30.3237 118.004 34.8683C121.765 35.7302 125.252 36.6313 128.738 37.6499C126.858 62.2535 125.095 86.857 122.666 111.382C122.431 113.811 121.921 119.061 121.647 121.49C120.668 122.039 118.631 122.039 117.808 122.078C90.8535 123.88 63.5859 123.88 36.6316 122.078C35.7697 121.999 33.7717 121.999 32.7922 121.49C32.518 119.1 32.0087 113.733 31.7736 111.382C29.3838 86.8179 27.5816 62.2143 25.701 37.6499C29.1879 36.6313 32.6747 35.7302 36.4357 34.8683C35.2212 30.3237 35.0253 25.113 35.9264 21.1169C40.3535 24.7996 45.5641 27.5812 50.1087 29.305C50.5789 21.1169 53.0471 13.1247 57.4742 5.60254C66.485 12.4195 72.4009 17.3558 77.2197 27.2286C82.0777 17.3558 87.9544 12.4195 97.0044 5.60254H96.9653Z" fill="#9478CF"/>
<path d="M96.9653 5.60254C96.2992 16.5331 93.5568 28.6782 88.3854 33.7713C95.2806 33.0269 98.9633 32.2042 104.291 29.305C108.875 27.5812 114.047 24.7604 118.513 21.1169C116.123 28.3256 113.812 33.4579 109.071 38.4726C113.106 38.3943 115.418 37.0622 118.004 34.8683C121.765 35.7302 125.252 36.6313 128.738 37.6499C126.858 62.2535 125.095 86.8571 122.666 111.382C122.431 113.811 121.921 119.061 121.647 121.49C120.668 122.039 118.631 122.039 117.808 122.078C104.331 122.979 90.7752 123.41 77.2197 123.41V108.757C98.1406 110.403 117.259 77.4152 95.2806 55.75L99.6685 58.179C100.217 54.6922 99.12 50.3435 97.6705 46.8175C94.8105 39.9614 87.21 34.8683 77.2197 33.6538V27.1894C82.0777 17.3167 87.9152 12.3803 96.9653 5.60254Z" fill="#A58DD4"/>
<path d="M45.3679 38.4727C40.6666 33.458 38.3159 28.2865 35.9261 21.0778C35.025 25.074 35.2209 30.2846 36.4354 34.8292C39.0211 37.0623 41.3326 38.3944 45.3679 38.4727ZM53.321 36.4355C50.9703 36.4355 49.0898 38.3552 49.0898 40.6667C49.0898 43.0173 51.0095 44.8979 53.321 44.8979C55.6716 44.8979 57.5522 42.9782 57.5522 40.6667C57.5522 38.3552 55.6325 36.4355 53.321 36.4355ZM37.8458 45.9948C36.2395 45.9948 34.9075 47.3269 34.9075 48.9332C34.9075 50.5395 36.2395 51.8715 37.8458 51.8715C39.4521 51.8715 40.7841 50.5395 40.7841 48.9332C40.7841 47.2877 39.4913 45.9948 37.8458 45.9948ZM66.0146 33.7322C60.8431 28.6783 58.1007 16.5332 57.4346 5.56348C53.0076 13.0856 50.5394 21.0387 50.0692 29.266C55.4366 32.1651 59.1193 32.9879 66.0146 33.7322Z" fill="#7D5DC2"/>
<path d="M115.614 42.5859C111.774 42.5859 108.64 45.7202 108.64 49.5596C108.64 53.399 111.774 56.5332 115.614 56.5332C119.453 56.5332 122.587 53.399 122.587 49.5596C122.587 45.7202 119.453 42.5859 115.614 42.5859ZM120.119 63.977C118.591 63.977 117.337 65.2306 117.337 66.7586C117.337 68.2865 118.591 69.5402 120.119 69.5402C121.647 69.5402 122.901 68.2865 122.901 66.7586C122.901 65.2306 121.647 63.977 120.119 63.977Z" fill="#9478CF"/>
<path d="M76.7493 46.3867C60.1771 46.3867 46.7391 59.8247 46.7391 76.3968C46.7391 92.969 60.1771 106.407 76.7493 106.407C93.3214 106.407 106.759 92.969 106.759 76.3968C106.759 59.8247 93.3214 46.3867 76.7493 46.3867Z" fill="#D3E8EF"/>
<path d="M50.5782 69.5804C53.2031 58.2973 62.214 49.4431 73.5755 47.0533C85.9557 46.113 95.9852 54.7713 95.9852 66.5637C95.9852 78.4346 85.799 88.9734 73.3013 90.0704C60.7644 91.1673 50.6174 82.4699 50.6174 70.5599C50.5782 70.2464 50.5782 69.8938 50.5782 69.5804Z" fill="white"/>
<path d="M89.0506 64.8779C98.4141 64.8779 105.975 72.4392 105.975 81.8027C105.975 91.1662 98.4141 98.7275 89.0506 98.7275C79.6871 98.7275 72.1258 91.1662 72.1258 81.8027C72.1258 72.4784 79.6871 64.8779 89.0506 64.8779Z" fill="#EA4E64"/>
<path d="M89.0498 64.8779C91.518 64.8779 93.8686 65.3872 95.9842 66.3667V66.5626C95.9842 78.12 86.3465 88.4237 74.2014 89.9908C72.8694 87.5618 72.0858 84.7802 72.0858 81.8027C72.0858 72.4392 79.6471 64.8779 89.0498 64.8779Z" fill="#EC6277"/>
<path d="M89.0515 70.833C95.124 70.833 100.06 75.7302 100.06 81.8419C100.06 87.9145 95.1632 92.8509 89.0515 92.8509C82.9789 92.8509 78.0425 87.9537 78.0425 81.8419C78.0425 75.7694 82.9397 70.833 89.0515 70.833Z" fill="#232323"/>
<path d="M89.0504 70.833C91.2835 70.833 93.3599 71.499 95.0838 72.6352C92.9682 79.648 87.4049 85.603 80.2746 88.4238C78.9034 86.5824 78.0806 84.271 78.0806 81.8419C78.0415 75.7694 82.9387 70.833 89.0504 70.833Z" fill="#323232"/>
<path d="M77.0618 69.1494C80.9012 69.1494 83.9962 72.2445 83.9962 76.0839C83.9962 79.9233 80.9012 83.0183 77.0618 83.0183C73.2224 83.0183 70.1273 79.9233 70.1273 76.0839C70.1273 72.2445 73.2224 69.1494 77.0618 69.1494Z" fill="white"/>
<path d="M112.047 90.1481C103.507 85.4468 90.6563 93.6741 91.5966 106.995C99.7455 104.487 108.561 96.8083 112.047 90.1481Z" fill="#6F4BBB"/>
<path d="M112.047 90.1475C104.29 90.3042 95.7102 94.6921 91.5966 106.994C101.352 105.897 110.441 98.4531 112.047 90.1475Z" fill="#A58DD4"/>
<path d="M108.012 101.274C106.876 100.882 101.548 101 101.117 101.588C100.608 102.293 102.018 105.897 103.507 108.248C105.466 106.681 107.072 104.526 108.012 101.274Z" fill="#7D5DC2"/>
<path d="M109.58 99.9812C108.444 99.5895 103.115 99.707 102.685 100.295C102.175 101 103.586 104.604 105.074 106.955C107.033 105.388 108.64 103.233 109.58 99.9812Z" fill="white"/>
<path d="M107.973 98.1396C107.621 105.701 97.7479 112.988 88.3844 110.285C87.8751 112.479 89.3638 113.772 90.8918 114.085C99.3933 114.829 107.581 109.462 110.285 102.606C111.068 100.725 110.206 98.3747 107.973 98.1396Z" fill="#6F4BBB"/>
<path d="M109.581 112.322C107.23 116.749 103.548 118.826 99.5124 119.492C105.272 122.078 110.365 118.63 109.581 112.322Z" fill="#6F4BBB"/>
<path d="M105.7 113.38C101.077 115.966 96.6896 116.788 91.5965 116.318C95.3183 118.786 102.605 119.061 105.7 113.38Z" fill="#9478CF"/>
<path d="M66.3663 37.8843C75.6514 21.8214 100.098 31.1849 97.6301 49.2067C91.5184 39.0988 79.7259 35.8079 66.3663 37.8843Z" fill="#5F3EA7"/>
<path d="M66.3679 37.8857C71.6177 28.8357 82.6658 28.248 90.0704 33.2236C90.1096 35.3392 89.4827 36.8671 88.3466 38.0816C82.3524 35.1825 74.5168 34.0072 66.3679 37.8857Z" fill="#6F4BBB"/>
<path d="M17.7476 98.9639C7.99232 98.9639 6.86646e-05 106.799 6.86646e-05 116.594C6.86646e-05 126.388 7.99232 134.224 17.7476 134.224C27.5028 134.224 35.4951 126.388 35.4951 116.594C35.4951 106.799 27.5028 98.9639 17.7476 98.9639Z" fill="#6F4BBB"/>
<path d="M17.7482 101.549C9.36416 101.549 2.58641 108.287 2.58641 116.554C2.58641 124.86 9.36416 131.559 17.7482 131.559C26.1322 131.559 32.9099 124.82 32.9099 116.554C32.9099 108.287 26.093 101.549 17.7482 101.549Z" fill="#9478CF"/>
<path d="M17.747 101.549C11.792 101.549 6.65975 104.957 4.15238 109.894C3.60389 117.729 13.1632 123.488 19.5492 120.785C24.2505 118.239 27.5023 113.263 27.5023 107.582C27.5023 106.642 27.4239 105.741 27.228 104.84C24.6031 102.803 21.3122 101.549 17.747 101.549Z" fill="#A58DD4"/>
<path d="M23.9368 114.242C24.642 112.087 16.5714 109.384 15.827 111.539L7.83477 135.476C7.12957 137.631 15.2002 140.334 15.9446 138.179L23.9368 114.242Z" fill="#2B3039"/>
<path d="M12.3409 111.813C15.5143 113.772 18.1392 115.692 20.0197 119.257C17.3164 122.548 13.7513 124.35 9.8335 123.88C6.66011 119.884 8.30557 115.3 12.3409 111.813Z" fill="#5F3EA7"/>
<path d="M9.87235 117.298C10.3425 115.926 11.2044 114.634 12.3014 113.38C14.7304 114.947 16.7284 116.632 18.2564 119.061C16.5717 119.217 13.9468 118.786 9.87235 117.298Z" fill="#6F4BBB"/>
<path d="M9.28537 121.411C12.4588 123.37 15.0837 125.29 16.9642 128.855C14.2609 132.146 10.6958 133.948 6.77801 133.478C3.60461 129.482 5.25007 124.898 9.28537 121.411Z" fill="#5F3EA7"/>
<path d="M6.81572 126.505C7.28585 125.133 8.14776 123.841 9.24474 122.587C11.6738 124.154 13.6718 125.839 15.1998 128.268C13.5151 128.464 10.8902 127.993 6.81572 126.505Z" fill="#6F4BBB"/>
<path d="M25.818 122.352C22.8013 121.608 20.1373 121.138 16.8855 122.078C16.4937 125.604 17.4732 128.816 20.0197 130.854C24.2509 130.501 26.0531 126.818 25.818 122.352Z" fill="#5F3EA7"/>
<path d="M23.9764 126.623C24.5249 125.526 24.7991 124.272 24.9167 122.901C22.566 122.352 20.4112 122.117 18.0214 122.627C18.8833 123.763 20.6855 125.056 23.9764 126.623Z" fill="#6F4BBB"/>
<path d="M31.8512 57.5125C47.8749 58.4136 60.1375 72.1649 59.2364 88.1886C58.3353 104.212 44.5839 116.475 28.5603 115.574C12.5366 114.673 0.273972 100.921 1.17506 84.8977C2.07615 68.874 15.7883 56.6114 31.8512 57.5125Z" fill="#393F4C"/>
<path d="M31.6156 61.1174C45.6412 61.901 56.415 73.9677 55.6315 88.0325C54.8479 102.058 42.7812 112.832 28.7164 112.009C14.6908 111.226 3.91694 99.1589 4.70049 85.0941C5.52322 71.0685 17.5508 60.2947 31.6156 61.1174Z" fill="#D3E8EF"/>
<path d="M10.8128 99.1593C8.22703 95.1631 6.81663 90.3443 7.09087 85.212C7.67854 75.065 14.6913 66.7985 23.9765 64.252C24.7208 73.0278 25.5044 81.6468 26.3271 90.501C23.2321 91.7547 15.2398 95.7508 10.8128 99.1593Z" fill="white"/>
<path d="M32.0082 63.9378C44.2317 64.643 53.5951 75.1034 52.8508 87.3269C52.7332 89.0507 52.459 90.7353 51.9889 92.3024C52.028 91.9498 52.0672 91.5972 52.0672 91.2055C52.8508 77.0231 42.0377 64.8781 27.8554 64.0553H27.7379C29.1091 63.9378 30.5587 63.8594 32.0082 63.9378Z" fill="white"/>
<path d="M51.9885 99.7462C51.5184 100.53 51.0091 101.274 50.4606 101.979L42.9385 91.558L25.6219 98.7667L15.5925 78.0417L5.52378 79.9614C5.79802 79.0212 6.07226 78.0809 6.42486 77.1798L17.0028 75.1426L26.8364 95.4758L43.7612 88.4238L51.9885 99.7462Z" fill="#999999"/>
<path d="M43.6823 84.7413C40.7832 84.5846 38.315 86.7785 38.1583 89.6777C38.0016 92.5768 40.1955 95.045 43.0947 95.2017C45.9938 95.3585 48.462 93.1645 48.6187 90.2654C48.8146 87.4054 46.5815 84.9372 43.6823 84.7413Z" fill="#1EC185"/>
<path d="M16.6111 71.3829C13.7119 71.2262 11.2437 73.4201 11.087 76.3193C10.9303 79.2184 13.1242 81.6866 16.0234 81.8433C18.9225 82.0001 21.3907 79.8061 21.5475 76.9069C21.7433 74.0078 19.5102 71.5396 16.6111 71.3829Z" fill="#EA4E64"/>
<path d="M26.562 91.9112C23.6629 91.7545 21.1947 93.9485 21.0379 96.8476C20.8812 99.7468 23.0752 102.215 25.9743 102.372C28.8735 102.528 31.3417 100.334 31.4984 97.4353C31.6943 94.5361 29.4611 92.0679 26.562 91.9112Z" fill="#FF893A"/>
<g clip-path="url(#clip1_3415_1068)">
<path d="M115 80.5H239C243.142 80.5 246.5 83.8579 246.5 88V144C246.5 148.142 243.142 151.5 239 151.5H115C110.858 151.5 107.5 148.142 107.5 144V88C107.5 83.8579 110.858 80.5 115 80.5Z" fill="white" stroke="#84868A"/>
<mask id="mask0_3415_1068" style="mask-type:luminance" maskUnits="userSpaceOnUse" x="118" y="121" width="97" height="17">
<path d="M118.861 121.658H214.139V137.951H118.861V121.658Z" fill="white"/>
</mask>
<g mask="url(#mask0_3415_1068)">
<path d="M213.847 137.743H118.898V121.688H213.847V137.743Z" fill="white"/>
</g>
<mask id="mask1_3415_1068" style="mask-type:luminance" maskUnits="userSpaceOnUse" x="118" y="121" width="97" height="17">
<path d="M118.667 121.269H214.139V137.951H118.667V121.269Z" fill="white"/>
</mask>
<g mask="url(#mask1_3415_1068)">
<path d="M213.636 137.537H119.109V121.899H213.636V137.537ZM118.685 121.482V137.952H214.06V121.482H118.685Z" fill="#009FE3"/>
</g>
<mask id="mask2_3415_1068" style="mask-type:luminance" maskUnits="userSpaceOnUse" x="213" y="121" width="23" height="17">
<path d="M213.938 121.279H235.326V137.952H213.938V121.279Z" fill="white"/>
</mask>
<g mask="url(#mask2_3415_1068)">
<path d="M235.326 137.952H214.017V121.482H235.326V137.952Z" fill="#0083F4"/>
</g>
<path d="M224.118 131.191C223.864 131.267 223.603 131.316 223.337 131.336C223.067 131.345 222.796 131.323 222.53 131.275C222.274 131.214 222.023 131.127 221.784 131.011C221.557 130.89 221.342 130.744 221.146 130.578C220.96 130.406 220.791 130.212 220.645 130.005C220.508 129.79 220.395 129.561 220.308 129.322C220.229 129.073 220.179 128.819 220.161 128.56C220.15 128.294 220.171 128.031 220.224 127.772C220.284 127.518 220.375 127.273 220.492 127.041C220.616 126.819 220.765 126.61 220.935 126.418C221.112 126.235 221.309 126.07 221.522 125.929C221.74 125.794 221.976 125.683 222.22 125.598C222.474 125.522 222.737 125.474 223 125.453C223.135 125.448 223.27 125.451 223.405 125.462C223.541 125.473 223.674 125.489 223.806 125.515C224.066 125.575 224.315 125.663 224.554 125.778C224.783 125.9 224.996 126.044 225.192 126.211C225.38 126.384 225.547 126.576 225.693 126.785C225.831 127 225.944 127.229 226.03 127.468C226.109 127.715 226.158 127.971 226.179 128.229C226.188 128.494 226.166 128.758 226.115 129.018C226.053 129.27 225.964 129.515 225.847 129.749C225.722 129.971 225.573 130.18 225.403 130.371C225.227 130.555 225.029 130.718 224.817 130.86C224.596 130.996 224.362 131.105 224.118 131.191ZM230.955 134.136L226.626 130.415C226.641 130.389 226.658 130.363 226.673 130.337C226.779 130.147 226.878 129.951 226.954 129.746C227.031 129.538 227.085 129.325 227.127 129.108C227.209 128.706 227.214 128.29 227.164 127.883C227.068 127.11 226.711 126.358 226.179 125.778C225.646 125.195 224.929 124.756 224.147 124.576C223.928 124.528 223.709 124.486 223.486 124.47C222.676 124.409 221.835 124.587 221.136 124.997C220.952 125.105 220.771 125.224 220.604 125.358C220.434 125.496 220.284 125.648 220.138 125.808C219.869 126.099 219.658 126.433 219.491 126.79C219.321 127.154 219.216 127.55 219.167 127.947C219.118 128.351 219.137 128.772 219.219 129.171C219.375 129.93 219.769 130.656 220.338 131.194C220.496 131.342 220.662 131.485 220.84 131.608C221.02 131.732 221.21 131.836 221.405 131.932C221.772 132.114 222.172 132.226 222.577 132.288C223.383 132.412 224.239 132.276 224.967 131.919C225.224 131.793 225.467 131.639 225.693 131.464L230.016 135.179C230.202 135.34 230.507 135.297 230.697 135.086L230.948 134.808C231.138 134.598 231.142 134.296 230.955 134.136Z" fill="white"/>
<path d="M142.716 106.623C143.121 108.373 144.382 109.209 146.486 109.209C148.648 109.209 149.544 108.309 149.544 106.994C149.544 105.558 148.733 104.864 145.704 104.165C141.362 103.158 140.153 101.643 140.153 99.4069C140.153 96.7026 142.214 94.7529 146.095 94.7529C150.378 94.7529 152.102 97.0563 152.336 99.3642H149.169C148.951 98.2041 148.259 97.0776 146.006 97.0776C144.344 97.0776 143.37 97.7743 143.37 99.07C143.37 100.343 144.16 100.854 146.94 101.492C151.771 102.617 152.76 104.401 152.76 106.636C152.76 109.5 150.557 111.552 146.249 111.552C142.02 111.552 139.929 109.44 139.548 106.623H142.716Z" fill="#0183F4"/>
<path d="M163.191 103.996C163.167 102.385 162.438 101.055 160.612 101.055C158.783 101.055 158.019 102.295 157.855 103.996H163.191ZM157.782 105.863C157.789 107.703 158.734 109.278 160.58 109.278C162.192 109.278 162.676 108.572 163.027 107.786H166.04C165.582 109.295 164.233 111.615 160.498 111.615C156.466 111.615 154.753 108.584 154.753 105.418C154.753 101.676 156.706 98.9014 160.626 98.9014C164.806 98.9014 166.211 101.962 166.211 104.845C166.211 105.241 166.211 105.523 166.17 105.863H157.782Z" fill="#FF493C"/>
<path d="M175.707 105.67C175.385 105.67 174.627 105.67 174.102 105.67C171.891 105.67 170.936 106.305 170.936 107.658C170.936 108.667 171.6 109.467 172.936 109.467C175.394 109.467 175.707 107.819 175.707 106.013V105.67ZM178.638 108.357C178.638 109.498 178.735 111.019 178.808 111.331H175.935C175.839 111.08 175.767 110.461 175.751 110.008C175.306 110.734 174.411 111.615 172.143 111.615C169.169 111.615 167.91 109.709 167.91 107.839C167.91 105.091 170.15 103.825 173.811 103.825C174.504 103.825 175.268 103.825 175.7 103.825V102.985C175.7 102.052 175.373 101.049 173.53 101.049C171.868 101.049 171.54 101.787 171.358 102.69H168.489C168.669 100.694 169.93 98.8847 173.64 98.9015C176.871 98.9183 178.638 100.168 178.638 103.016V108.357Z" fill="#FFC903"/>
<path d="M181.957 102.482C181.957 101.11 181.951 100.077 181.934 99.1849H184.881C184.922 99.4806 184.963 100.601 184.963 101.435C185.545 99.9608 186.923 98.9303 189.018 98.9014V101.735C186.502 101.717 184.963 102.592 184.963 105.833V111.331H181.957V102.482Z" fill="#0A79DC"/>
<path d="M201.366 107.476C200.905 109.523 199.452 111.615 195.929 111.615C192.214 111.615 190.18 109.069 190.18 105.339C190.18 101.804 192.335 98.9014 196.092 98.9014C200.078 98.9014 201.268 101.691 201.366 103.13H198.422C198.178 102.057 197.531 101.238 196.036 101.238C194.251 101.238 193.241 102.752 193.241 105.241C193.241 107.888 194.274 109.295 195.998 109.295C197.306 109.295 198.03 108.569 198.406 107.476H201.366Z" fill="#30A66E"/>
<mask id="mask3_3415_1068" style="mask-type:luminance" maskUnits="userSpaceOnUse" x="203" y="94" width="12" height="18">
<path d="M203.25 94.0488H214.528V111.512H203.25V94.0488Z" fill="white"/>
</mask>
<g mask="url(#mask3_3415_1068)">
<path d="M206.625 94.0488V100.739C207.201 99.8583 208.249 98.901 210.293 98.901C212.501 98.901 214.462 100.149 214.462 103.552V111.331H211.474V104.003C211.474 102.259 210.792 101.317 209.228 101.317C207.206 101.317 206.625 102.727 206.625 104.82V111.331H203.619V94.0488H206.625Z" fill="#FF453C"/>
</g>
</g>
<path d="M156.971 156.266C158.097 151.156 160.084 147.363 162.968 145.296C166.736 146.268 169.276 150.764 170.161 154.41C167.298 157.593 162.66 158.438 156.971 156.266Z" fill="#5F3EA7"/>
<path d="M181.152 155.502C182.278 150.393 184.264 146.599 187.148 144.532C190.916 145.504 193.457 150 194.342 153.646C191.478 156.829 186.841 157.675 181.152 155.502Z" fill="#5F3EA7"/>
<path d="M159.187 155.191C159.824 152.22 161.221 149.282 163.372 147.338L163.413 155.739C162.035 155.798 160.602 155.544 159.187 155.191Z" fill="#6F4BBB"/>
<path d="M183.368 154.428C184.005 151.456 185.402 148.519 187.553 146.575L187.594 154.975C186.216 155.034 184.783 154.78 183.368 154.428Z" fill="#6F4BBB"/>
<path d="M167.114 155.233C168.304 150.691 169.662 146.735 173.523 143.173C178.947 145.299 182.837 148.973 183.876 153.91C180.082 159.254 173.364 158.87 167.114 155.233Z" fill="#5F3EA7"/>
<path d="M173.971 145.275L175.92 156.189C173.728 156.204 171.393 155.486 169.233 154.395C170.222 150.981 171.407 148.006 173.971 145.275Z" fill="#6F4BBB"/>
</g>
<defs>
<clipPath id="clip0_3415_1068">
<rect width="247" height="158" fill="white"/>
</clipPath>
<clipPath id="clip1_3415_1068">
<rect width="140" height="72" fill="white" transform="translate(107 80)"/>
</clipPath>
</defs>
</svg>
