<svg width="12" height="12" viewBox="0 0 12 12" fill="none" xmlns="http://www.w3.org/2000/svg">
<g clip-path="url(#clip0_2674_115)">
<path d="M5.40329 7.60831C5.56004 7.76542 5.77756 7.85551 5.99986 7.85551C6.22179 7.85551 6.43932 7.76542 6.59642 7.60831L9.33788 4.86704C9.66746 4.53765 9.66746 4.00334 9.33788 3.67393C9.0083 3.34435 8.474 3.34435 8.14477 3.67393V3.67377L6.84361 4.9749V0.895508C6.84361 0.4295 6.46568 0.0517578 5.99986 0.0517578C5.53369 0.0517578 5.15611 0.4295 5.15611 0.895508V4.97471L3.85533 3.67393C3.52575 3.34435 2.99145 3.34435 2.66222 3.67377C2.33264 4.00334 2.33264 4.53765 2.66222 4.86706L5.40329 7.60831Z" fill="#0E54DA"/>
<path d="M11.0966 8.98047H7.8142C7.50108 9.67115 6.80747 10.1523 6 10.1523C5.19248 10.1523 4.4989 9.67115 4.18617 8.98047H0.903797C0.404672 8.98047 0 9.38495 0 9.88394V11.0455C0 11.5447 0.404672 11.9492 0.903797 11.9492H11.0965C11.5957 11.9492 12 11.5447 12 11.0455V9.88394C12 9.38495 11.5957 8.98047 11.0966 8.98047Z" fill="#0E54DA"/>
</g>
<defs>
<clipPath id="clip0_2674_115">
<rect width="12" height="12" fill="white"/>
</clipPath>
</defs>
</svg>
