<svg width="248" height="55" viewBox="0 0 248 55" fill="none" xmlns="http://www.w3.org/2000/svg">
<path d="M16.5086 42.485L24.8392 42.4862L24.8443 49.5621L16.6659 49.561C15.3721 49.007 14.3064 48.2193 13.5323 47.2962C13.8355 45.7704 14.9626 43.777 16.5086 42.485Z" fill="#6F4BBB"/>
<path d="M16.9906 43.0758C15.8883 44.1832 14.7988 45.5244 14.4322 47.0502C15.0921 47.8133 15.9548 48.4041 16.8807 48.8349L23.8799 48.8359L23.8757 43.0768L16.9906 43.0758Z" fill="#7D5DC2"/>
<path d="M15.0658 45.4887C14.8505 45.784 14.4456 46.9776 14.4203 47.0514C15.0802 47.8144 15.9428 48.4052 16.8687 48.836L20.5965 48.8365L20.5943 45.7479C18.7558 45.7353 16.9172 45.6489 15.0658 45.4887Z" fill="#9478CF"/>
<path d="M16.4744 48.0618C17.3368 48.3449 17.7429 48.8741 17.8702 49.5632L14.8652 49.5628C15.0677 48.9722 15.6377 48.2463 16.4744 48.0618Z" fill="#5F3EA7"/>
<path d="M16.4617 48.3819C15.9926 48.5049 15.5998 48.8617 15.3465 49.2678L16.475 49.268L16.4744 48.3819L16.4617 48.3819Z" fill="#6F4BBB"/>
<path d="M19.4413 47.8894C20.5953 48.1971 21.1537 48.9477 21.2936 49.5629L17.2871 49.5624C17.5529 48.9104 18.3637 48.0369 19.4413 47.8894Z" fill="#5F3EA7"/>
<path d="M19.4154 48.197C18.7815 48.3077 18.1605 48.7383 17.7931 49.2674L19.4415 49.2677L19.4407 48.197L19.4154 48.197Z" fill="#6F4BBB"/>
<path d="M34.8277 42.4842L26.4971 42.4831L26.5022 49.559L34.6807 49.5601C35.9736 49.0065 37.0381 48.2191 37.8109 47.2963C37.5182 45.7703 36.3882 43.7766 34.8277 42.4842Z" fill="#6F4BBB"/>
<path d="M34.3591 43.0748C35.463 44.1825 36.5544 45.5239 36.9233 47.0499C36.2645 47.8128 35.4027 48.4033 34.4774 48.8339L27.4782 48.833L27.474 43.0739L34.3591 43.0748Z" fill="#7D5DC2"/>
<path d="M36.2746 45.4874C36.4903 45.7827 36.8969 46.9764 36.9224 47.0502C36.2636 47.813 35.4018 48.4036 34.4765 48.8341L30.7488 48.8336L30.7465 45.745C32.585 45.733 34.4362 45.6471 36.2746 45.4874Z" fill="#9478CF"/>
<path d="M34.8803 48.0596C34.0183 48.3425 33.613 48.8716 33.4867 49.5606L36.4917 49.561C36.2884 48.9703 35.7173 48.2443 34.8803 48.0596Z" fill="#5F3EA7"/>
<path d="M34.8944 48.3794C35.3637 48.5025 35.757 48.8595 36.0109 49.2656L34.8824 49.2655L34.8817 48.3793L34.8944 48.3794Z" fill="#6F4BBB"/>
<path d="M31.9147 47.8878C30.7612 48.1952 30.2038 48.9457 30.0648 49.5609L34.0713 49.5614C33.8046 48.9092 32.9925 48.0355 31.9147 47.8878Z" fill="#5F3EA7"/>
<path d="M31.927 48.1951C32.561 48.3059 33.1827 48.7367 33.5508 49.2659L31.9024 49.2657L31.9016 48.1951L31.927 48.1951Z" fill="#6F4BBB"/>
<path d="M3.40278 44.665C3.45445 45.9574 3.75954 46.9667 4.34333 47.5945C5.25632 47.5207 6.02915 46.5362 6.3836 45.687C5.85033 44.7885 4.81018 44.3822 3.40278 44.665Z" fill="#5F3EA7"/>
<path d="M3.87233 45.022C3.89823 45.7729 4.10174 46.5485 4.52074 47.1148L4.87445 45.0714C4.55728 44.9975 4.21479 44.9974 3.87233 45.022Z" fill="#6F4BBB"/>
<path d="M5.70984 45.3542C5.79945 46.5111 5.95237 47.5327 6.7013 48.5666C8.04527 48.2837 9.09725 47.5577 9.54024 46.4009C8.87976 44.9362 7.30718 44.7391 5.70984 45.3542Z" fill="#5F3EA7"/>
<path d="M6.89147 48.0747L7.79009 45.5022C7.2827 45.4037 6.71201 45.4775 6.16677 45.6497C6.25618 46.5237 6.40894 47.2992 6.89147 48.0747Z" fill="#6F4BBB"/>
<path d="M10.1222 46.3016C10.3514 47.6185 11.6326 48.2709 12.2793 48.2341C12.5706 47.7542 12.8618 47.1265 12.8613 46.3758L12.303 45.9203C11.4532 45.7602 10.553 45.8216 10.1222 46.3016Z" fill="#5F3EA7"/>
<path d="M12.0504 47.791C12.3038 47.4217 12.4683 46.8555 12.4933 46.3139L11.58 46.166L12.0504 47.791Z" fill="#6F4BBB"/>
<path d="M12.8661 28.6487L12.8788 46.3622C9.7208 46.7433 6.04235 46.6198 3.40266 44.6499C3.45221 43.0004 3.61594 41.3879 3.91924 39.8492C4.48801 37.0674 5.56432 34.5317 7.42737 32.4517C9.07496 30.6178 10.7232 29.744 12.8661 28.6487Z" fill="#6F4BBB"/>
<path d="M4.29022 44.2439C5.94007 45.4751 9.89787 45.8572 11.9779 45.5989L11.9668 30.0764C6.60326 32.8454 4.47596 37.9536 4.29022 44.2439Z" fill="#9478CF"/>
<path d="M4.2906 44.2451C5.12836 44.873 6.54954 45.2671 8.03404 45.4888C8.24695 41.5372 8.21742 35.5913 7.30288 34.0155C5.31299 36.7605 4.41468 40.2688 4.2906 44.2451Z" fill="#A58DD4"/>
<path d="M8.02813 41.6113C8.72559 41.6114 9.28395 42.153 9.28445 42.83C9.28494 43.5069 8.72738 44.0483 8.02992 44.0482C7.33246 44.0481 6.7741 43.5065 6.7736 42.8296C6.7731 42.1527 7.33067 41.6112 8.02813 41.6113Z" fill="#9478CF"/>
<path d="M11.0002 14.8307C10.6307 12.529 11.0357 11.3352 11.516 9.23056C13.026 10.4493 13.9905 11.3233 15.83 12.2221C16.1961 9.99434 17.0062 7.88977 18.1841 5.92064L18.8808 4.76377C21.5707 6.73346 23.8672 8.30924 25.6445 10.9188C27.4181 8.30975 29.7123 6.73464 32.3993 4.76573L33.0976 5.92279C34.2785 7.89227 35.0916 9.99708 35.461 12.2249C37.2992 11.3267 38.2624 10.4529 39.7706 9.23465C40.2667 11.3271 40.6607 12.5211 40.2946 14.8349L43.6179 15.7216C42.9646 24.1403 42.2977 31.3158 41.4542 39.7345C41.341 40.8914 41.215 42.0607 41.089 43.2176C41.0512 43.5499 40.6332 44.153 38.8578 44.165C30.184 44.7299 21.104 44.7286 12.4421 44.1612C10.6666 44.1363 10.2477 43.5455 10.2094 43.2132C10.0817 42.0316 9.95404 40.85 9.83904 39.6684C9.78796 39.1883 9.73688 38.7083 9.68579 38.216C8.95743 30.7079 8.24178 23.2244 7.64023 15.7041L10.9621 14.8184L11.0002 14.8184L11.0002 14.8307Z" fill="#6F4BBB"/>
<path d="M19.2492 6.52404C17.818 8.887 17.0208 11.3854 16.8706 13.9701C15.3991 13.4284 13.7245 12.5419 12.2779 11.3971C11.9872 12.6524 12.0518 14.2894 12.446 15.7172C11.2287 15.9878 10.1003 16.2708 8.97186 16.5906C9.58625 24.3202 10.1626 32.0498 10.9545 39.7548C11.0311 40.518 11.1972 42.1673 11.2865 42.9304C11.6037 43.1028 12.2632 43.1028 12.5295 43.1152C21.2548 43.6826 30.0812 43.6839 38.8057 43.119C39.0847 43.0944 39.7314 43.0945 40.0484 42.9346C40.1366 42.1838 40.3002 40.4976 40.3758 39.7591C41.1437 32.042 41.7214 24.3126 42.3244 16.5954C41.1955 16.2753 40.0666 15.992 38.849 15.7211C39.2411 14.2934 39.3033 12.6564 39.0107 11.4009C37.5785 12.5577 35.8925 13.4313 34.4219 13.9727C34.2678 11.4002 33.467 8.88926 32.0323 6.52589C29.1171 8.66709 27.2033 10.2176 25.6457 13.3191C24.0709 10.2172 22.1676 8.66608 19.2366 6.52404L19.2492 6.52404V6.52404Z" fill="#9478CF"/>
<path d="M19.2532 6.52363C19.4713 9.95812 20.362 13.7743 22.0376 15.3748C19.8049 15.1406 18.6123 14.882 16.8865 13.9708C15.402 13.429 13.7269 12.5425 12.2801 11.3975C13.0555 13.6626 13.805 15.2753 15.341 16.8511C14.0344 16.8263 13.2857 16.4077 12.448 15.7183C11.2305 15.9889 10.1017 16.2719 8.97302 16.5918C9.58742 24.3225 10.1638 32.0532 10.9557 39.7592C11.0324 40.5225 11.1985 42.172 11.2878 42.9352C11.6051 43.1076 12.2647 43.1077 12.5311 43.12C16.8949 43.4037 21.2839 43.5397 25.6729 43.5402L25.6696 38.9363C18.8962 39.4525 12.6986 29.0868 19.81 22.2803L18.3898 23.0434C18.2114 21.9478 18.5656 20.5814 19.0342 19.4736C19.9586 17.3195 22.4183 15.7195 25.6527 15.3383L25.6513 13.3072C24.0761 10.2049 22.185 8.65361 19.2532 6.52363Z" fill="#A58DD4"/>
<path d="M35.9579 16.847C37.4787 15.2717 38.2385 13.647 39.0104 11.3823C39.3031 12.6379 39.2408 14.2749 38.8487 15.7027C38.0122 16.4042 37.2642 16.8226 35.9579 16.847ZM33.3829 16.2066C34.1438 16.2067 34.753 16.8099 34.7536 17.5362C34.7541 18.2747 34.1331 18.8654 33.3848 18.8653C32.6238 18.8652 32.0146 18.262 32.0141 17.5358C32.0136 16.8096 32.6346 16.2065 33.3829 16.2066ZM38.3947 19.2107C38.9147 19.2108 39.3462 19.6293 39.3466 20.134C39.3469 20.6387 38.916 21.0571 38.3961 21.057C37.8761 21.057 37.4445 20.6384 37.4442 20.1337C37.4438 19.6168 37.862 19.2106 38.3947 19.2107ZM29.2731 15.3567C30.946 13.7691 31.831 9.95347 32.0441 6.507C33.479 8.87051 34.2798 11.3693 34.4339 13.9542C32.697 14.8648 31.505 15.1232 29.2731 15.3567Z" fill="#7D5DC2"/>
<path d="M13.2269 18.1439C14.4699 18.1441 15.4853 19.129 15.4862 20.3353C15.487 21.5416 14.473 22.5262 13.23 22.5261C11.987 22.5259 10.9716 21.541 10.9707 20.3347C10.9699 19.1284 11.9838 18.1437 13.2269 18.1439ZM11.7731 24.8647C12.2678 24.8647 12.6739 25.2587 12.6743 25.7388C12.6746 26.2188 12.269 26.6127 11.7743 26.6126C11.2797 26.6126 10.8735 26.2186 10.8732 25.7385C10.8728 25.2585 11.2784 24.8646 11.7731 24.8647Z" fill="#9478CF"/>
<path d="M25.8018 19.3394C31.1659 19.3402 35.5187 23.5624 35.5225 28.7685C35.5263 33.9747 31.1798 38.1956 25.8157 38.1948C20.4516 38.194 16.0989 33.9718 16.0951 28.7657C16.0912 23.5595 20.4377 19.3386 25.8018 19.3394Z" fill="#D3E8EF"/>
<path d="M16.348 26.6237C17.195 23.0793 20.1096 20.2982 23.7865 19.548C27.7934 19.2532 31.0418 21.9736 31.0445 25.6782C31.0472 29.4073 27.7526 32.7176 23.7076 33.0616C19.65 33.4056 16.3636 30.6729 16.3609 26.9314C16.3481 26.8329 16.3481 26.7222 16.348 26.6237Z" fill="white"/>
<path d="M28.7971 25.1489C31.8279 25.1493 34.2771 27.5251 34.2792 30.4666C34.2814 33.4081 31.8357 35.7832 28.8049 35.7827C25.7741 35.7823 23.3249 33.4065 23.3228 30.465C23.3206 27.5358 25.7663 25.1484 28.7971 25.1489Z" fill="#EA4E64"/>
<path d="M28.7974 25.1487C29.5963 25.1489 30.3573 25.309 31.0423 25.6168L31.0424 25.6783C31.045 29.3091 27.9278 32.5456 23.997 33.0374C23.5652 32.2742 23.311 31.4003 23.3103 30.4649C23.3081 27.5234 25.7539 25.1483 28.7974 25.1487Z" fill="#EC6277"/>
<path d="M28.7987 27.0194C30.7643 27.0197 32.3632 28.5584 32.3647 30.4784C32.3661 32.3861 30.7821 33.9366 28.8038 33.9363C26.8382 33.936 25.2393 32.3973 25.2379 30.4773C25.2365 28.5697 26.8205 27.0191 28.7987 27.0194Z" fill="#232323"/>
<path d="M28.798 27.0194C29.5208 27.0195 30.1931 27.2289 30.7513 27.5859C30.0681 29.7889 28.2688 31.6594 25.9615 32.5452C25.5172 31.9667 25.2504 31.2405 25.2498 30.4774C25.2357 28.5697 26.8197 27.0191 28.798 27.0194Z" fill="#323232"/>
<path d="M24.9192 26.4901C26.162 26.4903 27.1645 27.4627 27.1654 28.6689C27.1663 29.875 26.1652 30.8472 24.9224 30.847C23.6797 30.8468 22.6772 29.8744 22.6763 28.6682C22.6754 27.4621 23.6765 26.4899 24.9192 26.4901Z" fill="white"/>
<path d="M14.3871 33.0901C17.1505 31.6136 21.3116 34.1987 21.0104 38.3831C18.3722 37.5951 15.5173 35.1825 14.3871 33.0901Z" fill="#6F4BBB"/>
<path d="M14.3871 33.0902C16.8979 33.1398 19.6759 34.5186 21.0102 38.3832C17.8525 38.0381 14.9089 35.6994 14.3871 33.0902Z" fill="#A58DD4"/>
<path d="M15.6951 36.5866C16.0628 36.4636 17.7874 36.5008 17.9271 36.6854C18.0921 36.907 17.6364 38.0392 17.1551 38.7776C16.5206 38.2852 16.0002 37.6082 15.6951 36.5866Z" fill="#7D5DC2"/>
<path d="M15.1879 36.1804C15.5556 36.0574 17.2803 36.0946 17.4199 36.2792C17.5849 36.5008 17.1292 37.633 16.6479 38.3714C16.0134 37.879 15.493 37.202 15.1879 36.1804Z" fill="white"/>
<path d="M15.7069 35.602C15.8227 37.9771 19.0198 40.2665 22.0497 39.4178C22.215 40.107 21.7335 40.5131 21.239 40.6114C18.4876 40.8449 15.8363 39.1585 14.9598 37.0048C14.7057 36.414 14.9842 35.6757 15.7069 35.602Z" fill="#6F4BBB"/>
<path d="M15.1898 40.0588C15.9517 41.4496 17.1441 42.102 18.4503 42.3114C16.5869 43.1234 14.9377 42.0402 15.1898 40.0588Z" fill="#6F4BBB"/>
<path d="M16.4447 40.391C17.9413 41.2031 19.3615 41.4616 21.0096 41.3141C19.8057 42.089 17.4475 42.1749 16.4447 40.391Z" fill="#9478CF"/>
<path d="M29.1632 16.6651C26.1544 11.6194 18.2444 14.5594 19.0474 20.2201C21.0231 17.0455 24.8389 16.0123 29.1632 16.6651Z" fill="#5F3EA7"/>
<path d="M29.1623 16.6635C27.4614 13.8215 23.8859 13.6366 21.4907 15.1987C21.4785 15.8631 21.6817 16.3429 22.0497 16.7243C23.9888 15.8141 26.5243 15.4453 29.1623 16.6635Z" fill="#6F4BBB"/>
<path d="M44.9008 35.8587C48.0584 35.8591 50.6471 38.321 50.6494 41.398C50.6516 44.4749 48.0665 46.936 44.9089 46.9356C41.7513 46.9351 39.1626 44.4732 39.1603 41.3963C39.1581 38.3194 41.7432 35.8582 44.9008 35.8587Z" fill="#6F4BBB"/>
<path d="M44.9015 36.671C47.6152 36.6714 49.8106 38.7886 49.8125 41.3855C49.8144 43.9947 47.6221 46.099 44.9084 46.0986C42.1946 46.0982 39.9993 43.981 39.9974 41.3841C39.9954 38.7872 42.2004 36.6706 44.9015 36.671Z" fill="#9478CF"/>
<path d="M44.9016 36.6703C46.829 36.6706 48.491 37.7416 49.3037 39.2924C49.483 41.7538 46.3903 43.5625 44.3227 42.713C42.8005 41.9128 41.7468 40.3497 41.7455 38.5652C41.7453 38.2698 41.7705 37.9867 41.8337 37.7037C42.6828 37.0638 43.7477 36.6702 44.9016 36.6703Z" fill="#A58DD4"/>
<path d="M42.8998 40.6587C42.671 39.9817 45.2832 39.1327 45.5246 39.8097L48.1175 47.331C48.3463 48.0081 45.7341 48.8571 45.4927 48.18L42.8998 40.6587Z" fill="#2B3039"/>
<path d="M46.6533 39.8956C45.6266 40.5109 44.7774 41.1138 44.1696 42.2338C45.0453 43.2677 46.1997 43.8341 47.4677 43.6866C48.494 42.4313 47.9603 40.9912 46.6533 39.8956Z" fill="#5F3EA7"/>
<path d="M47.4538 41.6185C47.3013 41.1878 47.022 40.7817 46.6667 40.3878C45.8809 40.8799 45.2346 41.409 44.7407 42.1719C45.2859 42.2212 46.1354 42.086 47.4538 41.6185Z" fill="#6F4BBB"/>
<path d="M47.6437 42.912C46.617 43.5272 45.7678 44.1301 45.1599 45.2501C46.0357 46.284 47.1901 46.8504 48.4581 46.7029C49.4843 45.4476 48.9506 44.0075 47.6437 42.912Z" fill="#5F3EA7"/>
<path d="M48.4442 44.5118C48.2917 44.0811 48.0124 43.675 47.6571 43.2811C46.8713 43.7732 46.225 44.3023 45.731 45.0652C46.2763 45.1268 47.1258 44.9793 48.4442 44.5118Z" fill="#6F4BBB"/>
<path d="M42.2932 43.2075C43.2695 42.9738 44.1317 42.8262 45.1845 43.1217C45.3121 44.2295 44.9958 45.2386 44.172 45.8785C42.8024 45.7676 42.2182 44.6105 42.2932 43.2075Z" fill="#5F3EA7"/>
<path d="M42.892 44.5487C42.7142 44.2041 42.6251 43.8103 42.5868 43.3796C43.3475 43.2075 44.0448 43.1337 44.8184 43.2938C44.5397 43.6506 43.9567 44.0566 42.892 44.5487Z" fill="#6F4BBB"/>
<path d="M40.3302 22.834C35.1439 23.1163 31.1779 27.4357 31.4732 32.4696C31.7686 37.5035 36.2225 41.3565 41.4088 41.0741C46.5952 40.7918 50.5612 36.4724 50.2658 31.4385C49.9705 26.4046 45.5293 22.5517 40.3302 22.834Z" fill="#393F4C"/>
<path d="M40.4071 23.9663C35.8675 24.2118 32.383 28.0021 32.6398 32.4206C32.8967 36.8268 36.8049 40.212 41.3573 39.9542C45.8969 39.7087 49.3814 35.9184 49.1246 31.4999C48.855 27.0937 44.9595 23.7085 40.4071 23.9663Z" fill="#D3E8EF"/>
<path d="M47.1481 35.9169C47.9843 34.6615 48.4398 33.1475 48.3498 31.5349C48.1573 28.3468 45.885 25.7492 42.8784 24.9487C42.6395 27.7059 42.3877 30.414 42.1234 33.1959C43.1257 33.5899 45.7141 34.8458 47.1481 35.9169Z" fill="white"/>
<path d="M40.2828 24.8521C36.3264 25.0731 33.2979 28.359 33.5417 32.1991C33.5801 32.7407 33.6693 33.2699 33.8218 33.7623C33.809 33.6515 33.7963 33.5407 33.7962 33.4177C33.5393 28.9621 37.0366 25.1471 41.6271 24.8893L41.6652 24.8893C41.2213 24.8523 40.752 24.8276 40.2828 24.8521Z" fill="white"/>
<path d="M33.8231 36.1002C33.9754 36.3464 34.1404 36.5802 34.3181 36.8017L36.7502 33.5288L42.3562 35.7938L45.5974 29.2846L48.8565 29.888C48.7675 29.5927 48.6786 29.2974 48.5642 29.0143L45.1403 28.374L41.9624 34.7601L36.4832 32.5443L33.8231 36.1002Z" fill="#999999"/>
<path d="M36.5084 31.3888C37.4468 31.3397 38.2462 32.029 38.2976 32.9398C38.349 33.8506 37.6394 34.6259 36.7011 34.675C35.7627 34.7241 34.9633 34.0347 34.9119 33.1239C34.8478 32.2255 35.5701 31.4502 36.5084 31.3888Z" fill="#1EC185"/>
<path d="M45.2661 27.1892C46.2045 27.1401 47.0039 27.8295 47.0553 28.7402C47.1067 29.651 46.3971 30.4263 45.4588 30.4754C44.5204 30.5245 43.721 29.8351 43.6696 28.9244C43.6055 28.0136 44.3278 27.2383 45.2661 27.1892Z" fill="#EA4E64"/>
<path d="M42.049 33.6413C42.9873 33.5922 43.7867 34.2816 43.8381 35.1923C43.8895 36.1031 43.1799 36.8784 42.2416 36.9275C41.3032 36.9766 40.5038 36.2872 40.4524 35.3765C40.3883 34.4657 41.1106 33.6904 42.049 33.6413Z" fill="#338EEF"/>
<path d="M236.41 23.008C236.25 22.784 236.178 22.496 236.194 22.144C236.21 21.792 236.418 21.488 236.818 21.232C237.074 21.072 237.346 21.008 237.634 21.04C237.922 21.056 238.202 21.2 238.474 21.472C238.938 21.936 239.426 22.296 239.938 22.552C240.45 22.808 241.09 22.936 241.858 22.936C242.098 22.92 242.362 22.888 242.65 22.84C242.938 22.776 243.186 22.648 243.394 22.456C243.618 22.248 243.73 21.936 243.73 21.52C243.73 21.168 243.61 20.888 243.37 20.68C243.13 20.472 242.81 20.296 242.41 20.152C242.026 20.008 241.594 19.872 241.114 19.744C240.618 19.6 240.106 19.44 239.578 19.264C239.066 19.088 238.594 18.864 238.162 18.592C237.73 18.304 237.378 17.928 237.106 17.464C236.834 17 236.698 16.416 236.698 15.712C236.698 14.912 236.922 14.232 237.37 13.672C237.818 13.112 238.394 12.68 239.098 12.376C239.818 12.072 240.57 11.92 241.354 11.92C241.85 11.92 242.37 11.984 242.914 12.112C243.458 12.224 243.978 12.416 244.474 12.688C244.97 12.944 245.386 13.288 245.722 13.72C245.898 13.96 246.002 14.248 246.034 14.584C246.066 14.92 245.914 15.224 245.578 15.496C245.338 15.688 245.058 15.776 244.738 15.76C244.418 15.728 244.154 15.616 243.946 15.424C243.674 15.072 243.306 14.792 242.842 14.584C242.394 14.376 241.874 14.272 241.282 14.272C241.042 14.272 240.778 14.304 240.49 14.368C240.218 14.416 239.978 14.536 239.77 14.728C239.562 14.904 239.458 15.192 239.458 15.592C239.458 15.96 239.578 16.256 239.818 16.48C240.058 16.688 240.378 16.864 240.778 17.008C241.194 17.136 241.634 17.264 242.098 17.392C242.578 17.52 243.066 17.672 243.562 17.848C244.058 18.024 244.514 18.256 244.93 18.544C245.346 18.832 245.682 19.208 245.938 19.672C246.194 20.12 246.322 20.696 246.322 21.4C246.322 22.216 246.082 22.912 245.602 23.488C245.122 24.064 244.522 24.504 243.802 24.808C243.082 25.096 242.346 25.24 241.594 25.24C240.65 25.24 239.706 25.08 238.762 24.76C237.818 24.424 237.034 23.84 236.41 23.008Z" fill="#338EEF"/>
<path d="M227.009 12.4H232.697C233.081 12.4 233.401 12.528 233.657 12.784C233.913 13.04 234.041 13.36 234.041 13.744C234.041 14.112 233.913 14.424 233.657 14.68C233.401 14.92 233.081 15.04 232.697 15.04H227.009C226.625 15.04 226.305 14.912 226.049 14.656C225.793 14.4 225.665 14.08 225.665 13.696C225.665 13.328 225.793 13.024 226.049 12.784C226.305 12.528 226.625 12.4 227.009 12.4ZM229.577 9.39999C229.993 9.39999 230.329 9.54399 230.585 9.83199C230.857 10.104 230.993 10.448 230.993 10.864V21.544C230.993 21.768 231.033 21.952 231.113 22.096C231.209 22.24 231.329 22.344 231.473 22.408C231.633 22.472 231.801 22.504 231.977 22.504C232.169 22.504 232.345 22.472 232.505 22.408C232.665 22.328 232.849 22.288 233.057 22.288C233.281 22.288 233.481 22.392 233.657 22.6C233.849 22.808 233.945 23.096 233.945 23.464C233.945 23.912 233.697 24.28 233.201 24.568C232.721 24.856 232.201 25 231.641 25C231.305 25 230.929 24.976 230.513 24.928C230.113 24.864 229.729 24.728 229.361 24.52C229.009 24.296 228.713 23.96 228.473 23.512C228.233 23.064 228.113 22.448 228.113 21.664V10.864C228.113 10.448 228.249 10.104 228.521 9.83199C228.809 9.54399 229.161 9.39999 229.577 9.39999Z" fill="#338EEF"/>
<path d="M219.546 11.92C220.698 11.92 221.57 12.168 222.162 12.664C222.77 13.16 223.186 13.824 223.41 14.656C223.634 15.472 223.746 16.384 223.746 17.392V23.536C223.746 23.952 223.61 24.304 223.338 24.592C223.066 24.864 222.722 25 222.306 25C221.89 25 221.546 24.864 221.274 24.592C221.002 24.304 220.866 23.952 220.866 23.536V17.392C220.866 16.864 220.802 16.392 220.674 15.976C220.546 15.544 220.314 15.2 219.978 14.944C219.642 14.688 219.162 14.56 218.538 14.56C217.93 14.56 217.41 14.688 216.978 14.944C216.546 15.2 216.218 15.544 215.994 15.976C215.786 16.392 215.682 16.864 215.682 17.392V23.536C215.682 23.952 215.546 24.304 215.274 24.592C215.002 24.864 214.658 25 214.242 25C213.826 25 213.482 24.864 213.21 24.592C212.938 24.304 212.802 23.952 212.802 23.536V8.70401C212.802 8.288 212.938 7.944 213.21 7.672C213.482 7.38401 213.826 7.24001 214.242 7.24001C214.658 7.24001 215.002 7.38401 215.274 7.672C215.546 7.944 215.682 8.288 215.682 8.70401V14.656L215.322 14.584C215.466 14.312 215.666 14.024 215.922 13.72C216.178 13.4 216.49 13.104 216.858 12.832C217.226 12.56 217.634 12.344 218.082 12.184C218.53 12.008 219.018 11.92 219.546 11.92Z" fill="#338EEF"/>
<path d="M202.825 11.92C203.497 11.92 204.113 12.024 204.673 12.232C205.233 12.44 205.713 12.704 206.113 13.024C206.529 13.344 206.849 13.672 207.073 14.008C207.313 14.328 207.433 14.6 207.433 14.824L206.809 15.136V13.384C206.809 12.968 206.945 12.624 207.217 12.352C207.489 12.064 207.833 11.92 208.249 11.92C208.665 11.92 209.009 12.056 209.281 12.328C209.553 12.6 209.689 12.952 209.689 13.384V24.064C209.689 25.456 209.385 26.568 208.777 27.4C208.185 28.248 207.401 28.856 206.425 29.224C205.449 29.608 204.401 29.8 203.281 29.8C202.961 29.8 202.545 29.76 202.033 29.68C201.521 29.6 201.033 29.504 200.569 29.392C200.105 29.28 199.753 29.176 199.513 29.08C199.033 28.872 198.697 28.608 198.505 28.288C198.329 27.984 198.297 27.656 198.409 27.304C198.553 26.84 198.785 26.52 199.105 26.344C199.425 26.184 199.761 26.168 200.113 26.296C200.273 26.344 200.537 26.44 200.905 26.584C201.273 26.728 201.673 26.856 202.105 26.968C202.553 27.096 202.945 27.16 203.281 27.16C204.481 27.16 205.369 26.92 205.945 26.44C206.521 25.96 206.809 25.296 206.809 24.448V22.36L207.097 22.576C207.097 22.784 206.985 23.04 206.761 23.344C206.553 23.632 206.257 23.92 205.873 24.208C205.505 24.496 205.065 24.744 204.553 24.952C204.041 25.144 203.497 25.24 202.921 25.24C201.785 25.24 200.761 24.96 199.849 24.4C198.937 23.824 198.217 23.04 197.689 22.048C197.161 21.04 196.897 19.888 196.897 18.592C196.897 17.28 197.161 16.128 197.689 15.136C198.217 14.128 198.929 13.344 199.825 12.784C200.721 12.208 201.721 11.92 202.825 11.92ZM203.281 14.56C202.561 14.56 201.929 14.736 201.385 15.088C200.841 15.44 200.417 15.92 200.113 16.528C199.809 17.136 199.657 17.824 199.657 18.592C199.657 19.344 199.809 20.024 200.113 20.632C200.417 21.24 200.841 21.72 201.385 22.072C201.929 22.424 202.561 22.6 203.281 22.6C204.017 22.6 204.657 22.424 205.201 22.072C205.745 21.72 206.169 21.24 206.473 20.632C206.777 20.024 206.929 19.344 206.929 18.592C206.929 17.824 206.777 17.136 206.473 16.528C206.169 15.92 205.745 15.44 205.201 15.088C204.657 14.736 204.017 14.56 203.281 14.56Z" fill="#338EEF"/>
<path d="M194.538 23.536C194.538 23.952 194.402 24.304 194.13 24.592C193.858 24.864 193.514 25 193.098 25C192.682 25 192.338 24.864 192.066 24.592C191.794 24.304 191.658 23.952 191.658 23.536V13.624C191.658 13.208 191.794 12.864 192.066 12.592C192.338 12.304 192.682 12.16 193.098 12.16C193.514 12.16 193.858 12.304 194.13 12.592C194.402 12.864 194.538 13.208 194.538 13.624V23.536ZM193.074 10.6C192.53 10.6 192.146 10.512 191.922 10.336C191.698 10.16 191.586 9.848 191.586 9.4V8.944C191.586 8.48 191.706 8.168 191.946 8.008C192.202 7.832 192.586 7.744 193.098 7.744C193.658 7.744 194.05 7.832 194.274 8.008C194.498 8.184 194.61 8.496 194.61 8.944V9.4C194.61 9.864 194.49 10.184 194.25 10.36C194.01 10.52 193.618 10.6 193.074 10.6Z" fill="#338EEF"/>
<path d="M179.503 23.008C179.343 22.784 179.271 22.496 179.287 22.144C179.303 21.792 179.511 21.488 179.911 21.232C180.167 21.072 180.439 21.008 180.727 21.04C181.015 21.056 181.295 21.2 181.567 21.472C182.031 21.936 182.519 22.296 183.031 22.552C183.543 22.808 184.183 22.936 184.951 22.936C185.191 22.92 185.455 22.888 185.743 22.84C186.031 22.776 186.279 22.648 186.487 22.456C186.711 22.248 186.823 21.936 186.823 21.52C186.823 21.168 186.703 20.888 186.463 20.68C186.223 20.472 185.903 20.296 185.503 20.152C185.119 20.008 184.687 19.872 184.207 19.744C183.711 19.6 183.199 19.44 182.671 19.264C182.159 19.088 181.687 18.864 181.255 18.592C180.823 18.304 180.471 17.928 180.199 17.464C179.927 17 179.791 16.416 179.791 15.712C179.791 14.912 180.015 14.232 180.463 13.672C180.911 13.112 181.487 12.68 182.191 12.376C182.911 12.072 183.663 11.92 184.447 11.92C184.943 11.92 185.463 11.984 186.007 12.112C186.551 12.224 187.071 12.416 187.567 12.688C188.063 12.944 188.479 13.288 188.815 13.72C188.991 13.96 189.095 14.248 189.127 14.584C189.159 14.92 189.007 15.224 188.671 15.496C188.431 15.688 188.151 15.776 187.831 15.76C187.511 15.728 187.247 15.616 187.039 15.424C186.767 15.072 186.399 14.792 185.935 14.584C185.487 14.376 184.967 14.272 184.375 14.272C184.135 14.272 183.871 14.304 183.583 14.368C183.311 14.416 183.071 14.536 182.863 14.728C182.655 14.904 182.551 15.192 182.551 15.592C182.551 15.96 182.671 16.256 182.911 16.48C183.151 16.688 183.471 16.864 183.871 17.008C184.287 17.136 184.727 17.264 185.191 17.392C185.671 17.52 186.159 17.672 186.655 17.848C187.151 18.024 187.607 18.256 188.023 18.544C188.439 18.832 188.775 19.208 189.031 19.672C189.287 20.12 189.415 20.696 189.415 21.4C189.415 22.216 189.175 22.912 188.695 23.488C188.215 24.064 187.615 24.504 186.895 24.808C186.175 25.096 185.439 25.24 184.687 25.24C183.743 25.24 182.799 25.08 181.855 24.76C180.911 24.424 180.127 23.84 179.503 23.008Z" fill="#338EEF"/>
<path d="M172.815 11.92C173.999 11.92 174.895 12.168 175.503 12.664C176.127 13.16 176.551 13.824 176.775 14.656C177.015 15.472 177.135 16.384 177.135 17.392V23.536C177.135 23.952 176.999 24.304 176.727 24.592C176.455 24.864 176.111 25 175.695 25C175.279 25 174.935 24.864 174.663 24.592C174.391 24.304 174.255 23.952 174.255 23.536V17.392C174.255 16.864 174.183 16.392 174.039 15.976C173.911 15.544 173.671 15.2 173.319 14.944C172.967 14.688 172.463 14.56 171.807 14.56C171.167 14.56 170.623 14.688 170.175 14.944C169.743 15.2 169.407 15.544 169.167 15.976C168.943 16.392 168.831 16.864 168.831 17.392V23.536C168.831 23.952 168.695 24.304 168.423 24.592C168.151 24.864 167.807 25 167.391 25C166.975 25 166.631 24.864 166.359 24.592C166.087 24.304 165.951 23.952 165.951 23.536V13.624C165.951 13.208 166.087 12.864 166.359 12.592C166.631 12.304 166.975 12.16 167.391 12.16C167.807 12.16 168.151 12.304 168.423 12.592C168.695 12.864 168.831 13.208 168.831 13.624V14.656L168.471 14.584C168.615 14.312 168.823 14.024 169.095 13.72C169.367 13.4 169.687 13.104 170.055 12.832C170.423 12.56 170.839 12.344 171.303 12.184C171.767 12.008 172.271 11.92 172.815 11.92Z" fill="#338EEF"/>
<path d="M162.581 23.536C162.581 23.952 162.429 24.304 162.125 24.592C161.821 24.864 161.469 25 161.069 25C160.621 25 160.261 24.864 159.989 24.592C159.717 24.304 159.581 23.952 159.581 23.536V9.664C159.581 9.248 159.725 8.904 160.013 8.632C160.301 8.344 160.669 8.2 161.117 8.2C161.501 8.2 161.837 8.344 162.125 8.632C162.429 8.904 162.581 9.248 162.581 9.664V23.536Z" fill="#338EEF"/>
<path d="M150.375 25C149.959 25 149.615 24.864 149.343 24.592C149.071 24.304 148.935 23.952 148.935 23.536V13.624C148.935 13.208 149.071 12.864 149.343 12.592C149.615 12.304 149.959 12.16 150.375 12.16C150.791 12.16 151.135 12.304 151.407 12.592C151.679 12.864 151.815 13.208 151.815 13.624V15.88L151.647 14.272C151.823 13.888 152.047 13.552 152.319 13.264C152.607 12.96 152.927 12.712 153.279 12.52C153.631 12.312 154.007 12.16 154.407 12.064C154.807 11.968 155.207 11.92 155.607 11.92C156.087 11.92 156.487 12.056 156.807 12.328C157.143 12.6 157.311 12.92 157.311 13.288C157.311 13.816 157.175 14.2 156.903 14.44C156.631 14.664 156.335 14.776 156.015 14.776C155.711 14.776 155.431 14.72 155.175 14.608C154.935 14.496 154.655 14.44 154.335 14.44C154.047 14.44 153.751 14.512 153.447 14.656C153.159 14.784 152.887 14.992 152.631 15.28C152.391 15.568 152.191 15.928 152.031 16.36C151.887 16.776 151.815 17.272 151.815 17.848V23.536C151.815 23.952 151.679 24.304 151.407 24.592C151.135 24.864 150.791 25 150.375 25Z" fill="#23262E"/>
<path d="M140.827 25.24C139.467 25.24 138.283 24.96 137.275 24.4C136.283 23.824 135.515 23.048 134.971 22.072C134.443 21.096 134.179 19.992 134.179 18.76C134.179 17.32 134.467 16.096 135.043 15.088C135.635 14.064 136.403 13.28 137.347 12.736C138.291 12.192 139.291 11.92 140.347 11.92C141.163 11.92 141.931 12.088 142.651 12.424C143.387 12.76 144.035 13.224 144.595 13.816C145.155 14.392 145.595 15.064 145.915 15.832C146.251 16.6 146.419 17.416 146.419 18.28C146.403 18.664 146.251 18.976 145.963 19.216C145.675 19.456 145.339 19.576 144.955 19.576H135.787L135.067 17.176H143.875L143.347 17.656V17.008C143.315 16.544 143.147 16.128 142.843 15.76C142.555 15.392 142.187 15.104 141.739 14.896C141.307 14.672 140.843 14.56 140.347 14.56C139.867 14.56 139.419 14.624 139.003 14.752C138.587 14.88 138.227 15.096 137.923 15.4C137.619 15.704 137.379 16.112 137.203 16.624C137.027 17.136 136.939 17.784 136.939 18.568C136.939 19.432 137.115 20.168 137.467 20.776C137.835 21.368 138.299 21.824 138.859 22.144C139.435 22.448 140.043 22.6 140.683 22.6C141.275 22.6 141.747 22.552 142.099 22.456C142.451 22.36 142.731 22.248 142.939 22.12C143.163 21.976 143.363 21.856 143.539 21.76C143.827 21.616 144.099 21.544 144.355 21.544C144.707 21.544 144.995 21.664 145.219 21.904C145.459 22.144 145.579 22.424 145.579 22.744C145.579 23.176 145.355 23.568 144.907 23.92C144.491 24.272 143.907 24.584 143.155 24.856C142.403 25.112 141.627 25.24 140.827 25.24Z" fill="#23262E"/>
<path d="M125.22 12.4H130.908C131.292 12.4 131.612 12.528 131.868 12.784C132.124 13.04 132.252 13.36 132.252 13.744C132.252 14.112 132.124 14.424 131.868 14.68C131.612 14.92 131.292 15.04 130.908 15.04H125.22C124.836 15.04 124.516 14.912 124.26 14.656C124.004 14.4 123.876 14.08 123.876 13.696C123.876 13.328 124.004 13.024 124.26 12.784C124.516 12.528 124.836 12.4 125.22 12.4ZM127.788 9.39999C128.204 9.39999 128.54 9.54399 128.796 9.83199C129.068 10.104 129.204 10.448 129.204 10.864V21.544C129.204 21.768 129.244 21.952 129.324 22.096C129.42 22.24 129.54 22.344 129.684 22.408C129.844 22.472 130.012 22.504 130.188 22.504C130.38 22.504 130.556 22.472 130.716 22.408C130.876 22.328 131.06 22.288 131.268 22.288C131.492 22.288 131.692 22.392 131.868 22.6C132.06 22.808 132.156 23.096 132.156 23.464C132.156 23.912 131.908 24.28 131.412 24.568C130.932 24.856 130.412 25 129.852 25C129.516 25 129.14 24.976 128.724 24.928C128.324 24.864 127.94 24.728 127.572 24.52C127.22 24.296 126.924 23.96 126.684 23.512C126.444 23.064 126.324 22.448 126.324 21.664V10.864C126.324 10.448 126.46 10.104 126.732 9.83199C127.02 9.54399 127.372 9.39999 127.788 9.39999Z" fill="#23262E"/>
<path d="M112.753 23.008C112.593 22.784 112.521 22.496 112.537 22.144C112.553 21.792 112.761 21.488 113.161 21.232C113.417 21.072 113.689 21.008 113.977 21.04C114.265 21.056 114.545 21.2 114.817 21.472C115.281 21.936 115.769 22.296 116.281 22.552C116.793 22.808 117.433 22.936 118.201 22.936C118.441 22.92 118.705 22.888 118.993 22.84C119.281 22.776 119.529 22.648 119.737 22.456C119.961 22.248 120.073 21.936 120.073 21.52C120.073 21.168 119.953 20.888 119.713 20.68C119.473 20.472 119.153 20.296 118.753 20.152C118.369 20.008 117.937 19.872 117.457 19.744C116.961 19.6 116.449 19.44 115.921 19.264C115.409 19.088 114.937 18.864 114.505 18.592C114.073 18.304 113.721 17.928 113.449 17.464C113.177 17 113.041 16.416 113.041 15.712C113.041 14.912 113.265 14.232 113.713 13.672C114.161 13.112 114.737 12.68 115.441 12.376C116.161 12.072 116.913 11.92 117.697 11.92C118.193 11.92 118.713 11.984 119.257 12.112C119.801 12.224 120.321 12.416 120.817 12.688C121.313 12.944 121.729 13.288 122.065 13.72C122.241 13.96 122.345 14.248 122.377 14.584C122.409 14.92 122.257 15.224 121.921 15.496C121.681 15.688 121.401 15.776 121.081 15.76C120.761 15.728 120.497 15.616 120.289 15.424C120.017 15.072 119.649 14.792 119.185 14.584C118.737 14.376 118.217 14.272 117.625 14.272C117.385 14.272 117.121 14.304 116.833 14.368C116.561 14.416 116.321 14.536 116.113 14.728C115.905 14.904 115.801 15.192 115.801 15.592C115.801 15.96 115.921 16.256 116.161 16.48C116.401 16.688 116.721 16.864 117.121 17.008C117.537 17.136 117.977 17.264 118.441 17.392C118.921 17.52 119.409 17.672 119.905 17.848C120.401 18.024 120.857 18.256 121.273 18.544C121.689 18.832 122.025 19.208 122.281 19.672C122.537 20.12 122.665 20.696 122.665 21.4C122.665 22.216 122.425 22.912 121.945 23.488C121.465 24.064 120.865 24.504 120.145 24.808C119.425 25.096 118.689 25.24 117.937 25.24C116.993 25.24 116.049 25.08 115.105 24.76C114.161 24.424 113.377 23.84 112.753 23.008Z" fill="#23262E"/>
<path d="M106.065 11.92C107.249 11.92 108.145 12.168 108.753 12.664C109.377 13.16 109.801 13.824 110.025 14.656C110.265 15.472 110.385 16.384 110.385 17.392V23.536C110.385 23.952 110.249 24.304 109.977 24.592C109.705 24.864 109.361 25 108.945 25C108.529 25 108.185 24.864 107.913 24.592C107.641 24.304 107.505 23.952 107.505 23.536V17.392C107.505 16.864 107.433 16.392 107.289 15.976C107.161 15.544 106.921 15.2 106.569 14.944C106.217 14.688 105.713 14.56 105.057 14.56C104.417 14.56 103.873 14.688 103.425 14.944C102.993 15.2 102.657 15.544 102.417 15.976C102.193 16.392 102.081 16.864 102.081 17.392V23.536C102.081 23.952 101.945 24.304 101.673 24.592C101.401 24.864 101.057 25 100.641 25C100.225 25 99.8807 24.864 99.6087 24.592C99.3367 24.304 99.2007 23.952 99.2007 23.536V13.624C99.2007 13.208 99.3367 12.864 99.6087 12.592C99.8807 12.304 100.225 12.16 100.641 12.16C101.057 12.16 101.401 12.304 101.673 12.592C101.945 12.864 102.081 13.208 102.081 13.624V14.656L101.721 14.584C101.865 14.312 102.073 14.024 102.345 13.72C102.617 13.4 102.937 13.104 103.305 12.832C103.673 12.56 104.089 12.344 104.553 12.184C105.017 12.008 105.521 11.92 106.065 11.92Z" fill="#23262E"/>
<path d="M96.68 18.592C96.68 19.904 96.384 21.064 95.792 22.072C95.216 23.064 94.432 23.84 93.44 24.4C92.464 24.96 91.368 25.24 90.152 25.24C88.936 25.24 87.832 24.96 86.84 24.4C85.864 23.84 85.08 23.064 84.488 22.072C83.912 21.064 83.624 19.904 83.624 18.592C83.624 17.28 83.912 16.128 84.488 15.136C85.08 14.128 85.864 13.344 86.84 12.784C87.832 12.208 88.936 11.92 90.152 11.92C91.368 11.92 92.464 12.208 93.44 12.784C94.432 13.344 95.216 14.128 95.792 15.136C96.384 16.128 96.68 17.28 96.68 18.592ZM93.8 18.592C93.8 17.776 93.632 17.072 93.296 16.48C92.976 15.872 92.536 15.4 91.976 15.064C91.432 14.728 90.824 14.56 90.152 14.56C89.48 14.56 88.864 14.728 88.304 15.064C87.76 15.4 87.32 15.872 86.984 16.48C86.664 17.072 86.504 17.776 86.504 18.592C86.504 19.392 86.664 20.096 86.984 20.704C87.32 21.296 87.76 21.76 88.304 22.096C88.864 22.432 89.48 22.6 90.152 22.6C90.824 22.6 91.432 22.432 91.976 22.096C92.536 21.76 92.976 21.296 93.296 20.704C93.632 20.096 93.8 19.392 93.8 18.592Z" fill="#23262E"/>
<path d="M66.312 8.17599C66.536 8.17599 66.768 8.24 67.008 8.368C67.264 8.47999 67.456 8.63199 67.584 8.824L73.416 17.8L72.216 17.752L78.192 8.824C78.496 8.39199 78.888 8.17599 79.368 8.17599C79.752 8.17599 80.0961 8.312 80.4001 8.584C80.7041 8.85599 80.8561 9.20799 80.8561 9.63999V23.536C80.8561 23.952 80.72 24.304 80.4481 24.592C80.1761 24.864 79.816 25 79.368 25C78.92 25 78.552 24.864 78.264 24.592C77.992 24.304 77.856 23.952 77.856 23.536V12.232L78.7921 12.448L73.896 19.912C73.752 20.088 73.568 20.24 73.344 20.368C73.136 20.496 72.92 20.552 72.696 20.536C72.488 20.552 72.272 20.496 72.048 20.368C71.84 20.24 71.664 20.088 71.52 19.912L66.936 12.664L67.56 11.392V23.536C67.56 23.952 67.432 24.304 67.176 24.592C66.92 24.864 66.584 25 66.168 25C65.768 25 65.44 24.864 65.184 24.592C64.928 24.304 64.8 23.952 64.8 23.536V9.63999C64.8 9.24 64.944 8.896 65.232 8.608C65.536 8.31999 65.896 8.17599 66.312 8.17599Z" fill="#23262E"/>
<rect x="63" y="34" width="32" height="16" rx="8" fill="#1EC185"/>
<path d="M72.4692 42.9619H70.6382V41.9072H72.4692C72.7687 41.9072 73.0112 41.8584 73.1968 41.7607C73.3856 41.6598 73.5239 41.5231 73.6118 41.3506C73.6997 41.1748 73.7437 40.9746 73.7437 40.75C73.7437 40.5319 73.6997 40.3285 73.6118 40.1396C73.5239 39.9508 73.3856 39.7979 73.1968 39.6807C73.0112 39.5635 72.7687 39.5049 72.4692 39.5049H71.0776V45.5547H69.7349V38.4453H72.4692C73.0226 38.4453 73.4946 38.5446 73.8853 38.7432C74.2791 38.9385 74.5786 39.2103 74.7837 39.5586C74.992 39.9036 75.0962 40.2975 75.0962 40.7402C75.0962 41.1992 74.992 41.5947 74.7837 41.9268C74.5786 42.2588 74.2791 42.5143 73.8853 42.6934C73.4946 42.8724 73.0226 42.9619 72.4692 42.9619Z" fill="white"/>
<path d="M76.1509 38.4453H78.7339C79.2743 38.4453 79.7381 38.5267 80.1255 38.6895C80.5129 38.8522 80.8107 39.0931 81.019 39.4121C81.2274 39.7311 81.3315 40.1234 81.3315 40.5889C81.3315 40.9567 81.2664 41.2757 81.1362 41.5459C81.006 41.8161 80.8221 42.0423 80.5845 42.2246C80.3501 42.4069 80.0734 42.5501 79.7544 42.6543L79.3345 42.8691H77.0542L77.0444 41.8096H78.7485C79.0252 41.8096 79.2547 41.7607 79.437 41.6631C79.6193 41.5654 79.756 41.4303 79.8472 41.2578C79.9416 41.0853 79.9888 40.8883 79.9888 40.667C79.9888 40.4294 79.9432 40.2243 79.8521 40.0518C79.7609 39.876 79.6226 39.7409 79.437 39.6465C79.2515 39.5521 79.0171 39.5049 78.7339 39.5049H77.4937V45.5547H76.1509V38.4453ZM80.1646 45.5547L78.519 42.3711L79.9399 42.3662L81.605 45.4863V45.5547H80.1646Z" fill="white"/>
<path d="M88.2651 41.8193V42.1855C88.2651 42.7227 88.1935 43.2061 88.0503 43.6357C87.9071 44.0622 87.7036 44.4251 87.4399 44.7246C87.1763 45.0241 86.8621 45.2536 86.4976 45.4131C86.133 45.5726 85.7277 45.6523 85.2817 45.6523C84.8423 45.6523 84.4386 45.5726 84.0708 45.4131C83.7062 45.2536 83.3905 45.0241 83.1235 44.7246C82.8566 44.4251 82.6499 44.0622 82.5034 43.6357C82.3569 43.2061 82.2837 42.7227 82.2837 42.1855V41.8193C82.2837 41.279 82.3569 40.7956 82.5034 40.3691C82.6499 39.9427 82.855 39.5798 83.1187 39.2803C83.3823 38.9775 83.6965 38.7464 84.061 38.5869C84.4289 38.4274 84.8325 38.3477 85.272 38.3477C85.7179 38.3477 86.1232 38.4274 86.4878 38.5869C86.8524 38.7464 87.1665 38.9775 87.4302 39.2803C87.6971 39.5798 87.9022 39.9427 88.0454 40.3691C88.1919 40.7956 88.2651 41.279 88.2651 41.8193ZM86.9077 42.1855V41.8096C86.9077 41.4222 86.8719 41.082 86.8003 40.7891C86.7287 40.4928 86.6229 40.2438 86.4829 40.042C86.3429 39.8402 86.1704 39.6888 85.9653 39.5879C85.7603 39.4837 85.5291 39.4316 85.272 39.4316C85.0116 39.4316 84.7804 39.4837 84.5786 39.5879C84.38 39.6888 84.2108 39.8402 84.0708 40.042C83.9308 40.2438 83.8234 40.4928 83.7485 40.7891C83.6769 41.082 83.6411 41.4222 83.6411 41.8096V42.1855C83.6411 42.5697 83.6769 42.9098 83.7485 43.2061C83.8234 43.5023 83.9308 43.7529 84.0708 43.958C84.214 44.1598 84.3866 44.3128 84.5884 44.417C84.7902 44.5212 85.0213 44.5732 85.2817 44.5732C85.5422 44.5732 85.7733 44.5212 85.9751 44.417C86.1769 44.3128 86.3462 44.1598 86.4829 43.958C86.6229 43.7529 86.7287 43.5023 86.8003 43.2061C86.8719 42.9098 86.9077 42.5697 86.9077 42.1855Z" fill="white"/>
</svg>
