<svg width="294" height="46" viewBox="0 0 294 46" fill="none" xmlns="http://www.w3.org/2000/svg">
<path d="M64.7987 9.30026C65.0816 9.30026 65.3746 9.38108 65.6777 9.54273C66.0009 9.68416 66.2434 9.87611 66.405 10.1186L73.7699 21.4538L72.2545 21.3932L79.8012 10.1186C80.1851 9.57303 80.6801 9.30026 81.2863 9.30026C81.7712 9.30026 82.2056 9.47201 82.5895 9.8155C82.9734 10.159 83.1654 10.6035 83.1654 11.1491V28.6974C83.1654 29.2228 82.9937 29.6673 82.6502 30.031C82.3067 30.3745 81.8521 30.5462 81.2863 30.5462C80.7206 30.5462 80.2558 30.3745 79.8921 30.031C79.5486 29.6673 79.3769 29.2228 79.3769 28.6974V14.4223L80.5589 14.6951L74.3761 24.1209C74.1942 24.3432 73.9619 24.5351 73.679 24.6968C73.4163 24.8584 73.1435 24.9291 72.8607 24.9089C72.598 24.9291 72.3252 24.8584 72.0423 24.6968C71.7797 24.5351 71.5574 24.3432 71.3756 24.1209L65.5867 14.9679L66.3747 13.3615V28.6974C66.3747 29.2228 66.2131 29.6673 65.8898 30.031C65.5665 30.3745 65.1422 30.5462 64.6169 30.5462C64.1117 30.5462 63.6975 30.3745 63.3742 30.031C63.051 29.6673 62.8893 29.2228 62.8893 28.6974V11.1491C62.8893 10.6439 63.0712 10.2095 63.4349 9.84581C63.8188 9.48211 64.2734 9.30026 64.7987 9.30026ZM103.149 22.454C103.149 24.1108 102.775 25.5757 102.027 26.8486C101.3 28.1014 100.31 29.0813 99.057 29.7885C97.8245 30.4957 96.4404 30.8493 94.9048 30.8493C93.3692 30.8493 91.975 30.4957 90.7223 29.7885C89.4898 29.0813 88.4997 28.1014 87.7521 26.8486C87.0247 25.5757 86.661 24.1108 86.661 22.454C86.661 20.7971 87.0247 19.3423 87.7521 18.0896C88.4997 16.8167 89.4898 15.8266 90.7223 15.1194C91.975 14.392 93.3692 14.0283 94.9048 14.0283C96.4404 14.0283 97.8245 14.392 99.057 15.1194C100.31 15.8266 101.3 16.8167 102.027 18.0896C102.775 19.3423 103.149 20.7971 103.149 22.454ZM99.5116 22.454C99.5116 21.4235 99.2995 20.5344 98.8752 19.7868C98.471 19.019 97.9154 18.423 97.2082 17.9987C96.5212 17.5744 95.7534 17.3622 94.9048 17.3622C94.0562 17.3622 93.2783 17.5744 92.5711 17.9987C91.8841 18.423 91.3284 19.019 90.9041 19.7868C90.5 20.5344 90.298 21.4235 90.298 22.454C90.298 23.4642 90.5 24.3533 90.9041 25.1211C91.3284 25.8687 91.8841 26.4546 92.5711 26.8789C93.2783 27.3032 94.0562 27.5154 94.9048 27.5154C95.7534 27.5154 96.5212 27.3032 97.2082 26.8789C97.9154 26.4546 98.471 25.8687 98.8752 25.1211C99.2995 24.3533 99.5116 23.4642 99.5116 22.454ZM115 14.0283C116.495 14.0283 117.626 14.3415 118.394 14.9679C119.182 15.5942 119.718 16.4328 120.001 17.4834C120.304 18.5139 120.455 19.6656 120.455 20.9386V28.6974C120.455 29.2228 120.283 29.6673 119.94 30.031C119.596 30.3745 119.162 30.5462 118.637 30.5462C118.111 30.5462 117.677 30.3745 117.333 30.031C116.99 29.6673 116.818 29.2228 116.818 28.6974V20.9386C116.818 20.2718 116.727 19.6757 116.545 19.1504C116.384 18.6048 116.081 18.1704 115.636 17.8471C115.192 17.5238 114.555 17.3622 113.727 17.3622C112.919 17.3622 112.232 17.5238 111.666 17.8471C111.12 18.1704 110.696 18.6048 110.393 19.1504C110.11 19.6757 109.969 20.2718 109.969 20.9386V28.6974C109.969 29.2228 109.797 29.6673 109.453 30.031C109.11 30.3745 108.675 30.5462 108.15 30.5462C107.625 30.5462 107.19 30.3745 106.847 30.031C106.503 29.6673 106.332 29.2228 106.332 28.6974V16.1802C106.332 15.6548 106.503 15.2204 106.847 14.8769C107.19 14.5132 107.625 14.3314 108.15 14.3314C108.675 14.3314 109.11 14.5132 109.453 14.8769C109.797 15.2204 109.969 15.6548 109.969 16.1802V17.4834L109.514 17.3925C109.696 17.049 109.959 16.6853 110.302 16.3014C110.645 15.8973 111.05 15.5235 111.514 15.18C111.979 14.8365 112.504 14.5638 113.09 14.3617C113.676 14.1394 114.313 14.0283 115 14.0283ZM123.447 28.0306C123.245 27.7478 123.154 27.3841 123.174 26.9395C123.194 26.495 123.457 26.1111 123.962 25.7878C124.285 25.5858 124.629 25.505 124.992 25.5454C125.356 25.5656 125.71 25.7474 126.053 26.0909C126.639 26.6769 127.255 27.1315 127.902 27.4548C128.549 27.7781 129.357 27.9397 130.327 27.9397C130.63 27.9195 130.963 27.8791 131.327 27.8185C131.69 27.7377 132.004 27.576 132.266 27.3336C132.549 27.0709 132.691 26.6769 132.691 26.1515C132.691 25.707 132.539 25.3534 132.236 25.0908C131.933 24.8281 131.529 24.6058 131.024 24.424C130.539 24.2421 129.993 24.0704 129.387 23.9087C128.761 23.7269 128.114 23.5248 127.447 23.3026C126.801 23.0803 126.205 22.7974 125.659 22.454C125.114 22.0903 124.669 21.6154 124.326 21.0295C123.982 20.4435 123.81 19.706 123.81 18.817C123.81 17.8067 124.093 16.948 124.659 16.2408C125.225 15.5336 125.952 14.9881 126.841 14.6042C127.75 14.2203 128.7 14.0283 129.69 14.0283C130.317 14.0283 130.973 14.1091 131.66 14.2708C132.347 14.4122 133.004 14.6547 133.63 14.9982C134.257 15.3215 134.782 15.7559 135.206 16.3014C135.428 16.6045 135.56 16.9682 135.6 17.3925C135.641 17.8168 135.449 18.2007 135.024 18.5442C134.721 18.7867 134.368 18.8978 133.964 18.8776C133.559 18.8372 133.226 18.6958 132.963 18.4533C132.62 18.0088 132.155 17.6552 131.569 17.3925C131.003 17.1298 130.347 16.9985 129.599 16.9985C129.296 16.9985 128.963 17.0389 128.599 17.1197C128.256 17.1804 127.952 17.3319 127.69 17.5744C127.427 17.7966 127.296 18.1603 127.296 18.6654C127.296 19.1302 127.447 19.504 127.75 19.7868C128.054 20.0495 128.458 20.2718 128.963 20.4536C129.488 20.6153 130.044 20.7769 130.63 20.9386C131.236 21.1002 131.852 21.2921 132.478 21.5144C133.105 21.7367 133.681 22.0296 134.206 22.3933C134.731 22.757 135.156 23.2319 135.479 23.8178C135.802 24.3836 135.964 25.111 135.964 26C135.964 27.0305 135.661 27.9094 135.055 28.6368C134.449 29.3642 133.691 29.9198 132.782 30.3037C131.872 30.6674 130.943 30.8493 129.993 30.8493C128.801 30.8493 127.609 30.6472 126.417 30.2431C125.225 29.8188 124.235 29.0813 123.447 28.0306ZM139.189 14.6345H146.372C146.857 14.6345 147.261 14.7961 147.585 15.1194C147.908 15.4427 148.07 15.8468 148.07 16.3317C148.07 16.7965 147.908 17.1905 147.585 17.5137C147.261 17.8168 146.857 17.9684 146.372 17.9684H139.189C138.704 17.9684 138.3 17.8067 137.977 17.4834C137.654 17.1601 137.492 16.756 137.492 16.2711C137.492 15.8064 137.654 15.4225 137.977 15.1194C138.3 14.7961 138.704 14.6345 139.189 14.6345ZM142.432 10.846C142.958 10.846 143.382 11.0278 143.705 11.3915C144.049 11.735 144.22 12.1694 144.22 12.6948V26.1818C144.22 26.4647 144.271 26.6971 144.372 26.8789C144.493 27.0608 144.645 27.1921 144.827 27.2729C145.029 27.3538 145.241 27.3942 145.463 27.3942C145.706 27.3942 145.928 27.3538 146.13 27.2729C146.332 27.1719 146.564 27.1214 146.827 27.1214C147.11 27.1214 147.362 27.2527 147.585 27.5154C147.827 27.7781 147.948 28.1418 147.948 28.6065C147.948 29.1722 147.635 29.637 147.009 30.0007C146.403 30.3644 145.746 30.5462 145.039 30.5462C144.614 30.5462 144.14 30.5159 143.614 30.4553C143.109 30.3745 142.624 30.2027 142.16 29.94C141.715 29.6572 141.341 29.2329 141.038 28.6671C140.735 28.1014 140.584 27.3234 140.584 26.3334V12.6948C140.584 12.1694 140.755 11.735 141.099 11.3915C141.462 11.0278 141.907 10.846 142.432 10.846ZM158.899 30.8493C157.181 30.8493 155.686 30.4957 154.413 29.7885C153.16 29.0611 152.19 28.0811 151.503 26.8486C150.837 25.6161 150.503 24.2219 150.503 22.6661C150.503 20.8476 150.867 19.3019 151.594 18.029C152.342 16.7358 153.312 15.7458 154.504 15.0588C155.696 14.3718 156.959 14.0283 158.292 14.0283C159.323 14.0283 160.293 14.2405 161.202 14.6648C162.131 15.0891 162.95 15.6751 163.657 16.4227C164.364 17.15 164.92 17.9987 165.324 18.9685C165.748 19.9384 165.96 20.9689 165.96 22.06C165.94 22.5449 165.748 22.9389 165.385 23.242C165.021 23.545 164.596 23.6966 164.112 23.6966H152.534L151.625 20.6658H162.748L162.081 21.2719V20.4536C162.041 19.8677 161.828 19.3423 161.444 18.8776C161.081 18.4129 160.616 18.0492 160.05 17.7865C159.505 17.5036 158.919 17.3622 158.292 17.3622C157.686 17.3622 157.121 17.443 156.595 17.6047C156.07 17.7663 155.615 18.0391 155.231 18.423C154.847 18.8069 154.544 19.3221 154.322 19.9687C154.1 20.6153 153.989 21.4336 153.989 22.4236C153.989 23.5147 154.211 24.4442 154.655 25.212C155.12 25.9596 155.706 26.5354 156.413 26.9395C157.141 27.3234 157.909 27.5154 158.717 27.5154C159.464 27.5154 160.06 27.4548 160.505 27.3336C160.949 27.2123 161.303 27.0709 161.566 26.9092C161.849 26.7274 162.101 26.5758 162.323 26.4546C162.687 26.2728 163.031 26.1818 163.354 26.1818C163.798 26.1818 164.162 26.3334 164.445 26.6365C164.748 26.9395 164.9 27.2931 164.9 27.6972C164.9 28.2428 164.617 28.7378 164.051 29.1823C163.526 29.6269 162.788 30.0209 161.838 30.3644C160.889 30.6876 159.909 30.8493 158.899 30.8493ZM170.956 30.5462C170.431 30.5462 169.997 30.3745 169.653 30.031C169.31 29.6673 169.138 29.2228 169.138 28.6974V16.1802C169.138 15.6548 169.31 15.2204 169.653 14.8769C169.997 14.5132 170.431 14.3314 170.956 14.3314C171.482 14.3314 171.916 14.5132 172.26 14.8769C172.603 15.2204 172.775 15.6548 172.775 16.1802V19.0291L172.563 16.9985C172.785 16.5136 173.068 16.0893 173.411 15.7256C173.775 15.3417 174.179 15.0285 174.624 14.786C175.068 14.5233 175.543 14.3314 176.048 14.2102C176.553 14.0889 177.058 14.0283 177.564 14.0283C178.17 14.0283 178.675 14.2001 179.079 14.5436C179.503 14.887 179.715 15.2912 179.715 15.7559C179.715 16.4227 179.544 16.9076 179.2 17.2107C178.857 17.4935 178.483 17.635 178.079 17.635C177.695 17.635 177.341 17.5643 177.018 17.4228C176.715 17.2814 176.361 17.2107 175.957 17.2107C175.594 17.2107 175.22 17.3016 174.836 17.4834C174.472 17.6451 174.129 17.9077 173.805 18.2714C173.502 18.6351 173.25 19.0898 173.048 19.6353C172.866 20.1606 172.775 20.787 172.775 21.5144V28.6974C172.775 29.2228 172.603 29.6673 172.26 30.031C171.916 30.3745 171.482 30.5462 170.956 30.5462Z" fill="#393E4B"/>
<path d="M186.371 28.6974C186.371 29.2228 186.179 29.6673 185.795 30.031C185.411 30.3745 184.967 30.5462 184.462 30.5462C183.896 30.5462 183.441 30.3745 183.098 30.031C182.754 29.6673 182.582 29.2228 182.582 28.6974V11.1794C182.582 10.654 182.764 10.2196 183.128 9.87611C183.492 9.51242 183.956 9.33057 184.522 9.33057C185.007 9.33057 185.431 9.51242 185.795 9.87611C186.179 10.2196 186.371 10.654 186.371 11.1794V28.6974ZM199.294 14.0283C200.789 14.0283 201.921 14.3415 202.689 14.9679C203.477 15.5942 204.012 16.4328 204.295 17.4834C204.598 18.5139 204.749 19.6656 204.749 20.9386V28.6974C204.749 29.2228 204.578 29.6673 204.234 30.031C203.891 30.3745 203.456 30.5462 202.931 30.5462C202.406 30.5462 201.971 30.3745 201.628 30.031C201.284 29.6673 201.112 29.2228 201.112 28.6974V20.9386C201.112 20.2718 201.022 19.6757 200.84 19.1504C200.678 18.6048 200.375 18.1704 199.93 17.8471C199.486 17.5238 198.849 17.3622 198.021 17.3622C197.213 17.3622 196.526 17.5238 195.96 17.8471C195.415 18.1704 194.99 18.6048 194.687 19.1504C194.404 19.6757 194.263 20.2718 194.263 20.9386V28.6974C194.263 29.2228 194.091 29.6673 193.748 30.031C193.404 30.3745 192.97 30.5462 192.444 30.5462C191.919 30.5462 191.485 30.3745 191.141 30.031C190.798 29.6673 190.626 29.2228 190.626 28.6974V16.1802C190.626 15.6548 190.798 15.2204 191.141 14.8769C191.485 14.5132 191.919 14.3314 192.444 14.3314C192.97 14.3314 193.404 14.5132 193.748 14.8769C194.091 15.2204 194.263 15.6548 194.263 16.1802V17.4834L193.808 17.3925C193.99 17.049 194.253 16.6853 194.596 16.3014C194.94 15.8973 195.344 15.5235 195.809 15.18C196.273 14.8365 196.799 14.5638 197.385 14.3617C197.971 14.1394 198.607 14.0283 199.294 14.0283ZM207.741 28.0306C207.539 27.7478 207.448 27.3841 207.468 26.9395C207.488 26.495 207.751 26.1111 208.256 25.7878C208.579 25.5858 208.923 25.505 209.287 25.5454C209.65 25.5656 210.004 25.7474 210.347 26.0909C210.933 26.6769 211.55 27.1315 212.196 27.4548C212.843 27.7781 213.651 27.9397 214.621 27.9397C214.924 27.9195 215.257 27.8791 215.621 27.8185C215.985 27.7377 216.298 27.576 216.561 27.3336C216.843 27.0709 216.985 26.6769 216.985 26.1515C216.985 25.707 216.833 25.3534 216.53 25.0908C216.227 24.8281 215.823 24.6058 215.318 24.424C214.833 24.2421 214.287 24.0704 213.681 23.9087C213.055 23.7269 212.408 23.5248 211.742 23.3026C211.095 23.0803 210.499 22.7974 209.953 22.454C209.408 22.0903 208.963 21.6154 208.62 21.0295C208.276 20.4435 208.105 19.706 208.105 18.817C208.105 17.8067 208.388 16.948 208.953 16.2408C209.519 15.5336 210.246 14.9881 211.135 14.6042C212.045 14.2203 212.994 14.0283 213.984 14.0283C214.611 14.0283 215.267 14.1091 215.954 14.2708C216.641 14.4122 217.298 14.6547 217.924 14.9982C218.551 15.3215 219.076 15.7559 219.5 16.3014C219.723 16.6045 219.854 16.9682 219.894 17.3925C219.935 17.8168 219.743 18.2007 219.319 18.5442C219.016 18.7867 218.662 18.8978 218.258 18.8776C217.854 18.8372 217.52 18.6958 217.258 18.4533C216.914 18.0088 216.449 17.6552 215.864 17.3925C215.298 17.1298 214.641 16.9985 213.893 16.9985C213.59 16.9985 213.257 17.0389 212.893 17.1197C212.55 17.1804 212.247 17.3319 211.984 17.5744C211.721 17.7966 211.59 18.1603 211.59 18.6654C211.59 19.1302 211.742 19.504 212.045 19.7868C212.348 20.0495 212.752 20.2718 213.257 20.4536C213.782 20.6153 214.338 20.7769 214.924 20.9386C215.53 21.1002 216.146 21.2921 216.773 21.5144C217.399 21.7367 217.975 22.0296 218.5 22.3933C219.026 22.757 219.45 23.2319 219.773 23.8178C220.097 24.3836 220.258 25.111 220.258 26C220.258 27.0305 219.955 27.9094 219.349 28.6368C218.743 29.3642 217.985 29.9198 217.076 30.3037C216.167 30.6674 215.237 30.8493 214.287 30.8493C213.095 30.8493 211.903 30.6472 210.711 30.2431C209.519 29.8188 208.529 29.0813 207.741 28.0306ZM226.727 28.6974C226.727 29.2228 226.555 29.6673 226.211 30.031C225.868 30.3745 225.433 30.5462 224.908 30.5462C224.383 30.5462 223.948 30.3745 223.605 30.031C223.261 29.6673 223.09 29.2228 223.09 28.6974V16.1802C223.09 15.6548 223.261 15.2204 223.605 14.8769C223.948 14.5132 224.383 14.3314 224.908 14.3314C225.433 14.3314 225.868 14.5132 226.211 14.8769C226.555 15.2204 226.727 15.6548 226.727 16.1802V28.6974ZM224.878 12.3614C224.191 12.3614 223.706 12.2502 223.423 12.028C223.14 11.8057 222.999 11.4117 222.999 10.846V10.2701C222.999 9.68416 223.15 9.29016 223.453 9.08811C223.777 8.86585 224.262 8.75472 224.908 8.75472C225.615 8.75472 226.11 8.86585 226.393 9.08811C226.676 9.31036 226.817 9.70437 226.817 10.2701V10.846C226.817 11.4319 226.666 11.836 226.363 12.0583C226.06 12.2603 225.565 12.3614 224.878 12.3614ZM237.193 14.0283C238.041 14.0283 238.819 14.1597 239.527 14.4223C240.234 14.685 240.84 15.0184 241.345 15.4225C241.87 15.8266 242.274 16.2408 242.557 16.6651C242.86 17.0692 243.012 17.4127 243.012 17.6956L242.224 18.0896V15.8771C242.224 15.3518 242.396 14.9174 242.739 14.5739C243.083 14.2102 243.517 14.0283 244.042 14.0283C244.568 14.0283 245.002 14.2001 245.346 14.5436C245.689 14.887 245.861 15.3316 245.861 15.8771V29.3642C245.861 31.1221 245.477 32.5263 244.709 33.577C243.962 34.6479 242.972 35.4157 241.739 35.8804C240.506 36.3653 239.183 36.6078 237.769 36.6078C237.365 36.6078 236.839 36.5573 236.193 36.4563C235.546 36.3552 234.93 36.234 234.344 36.0926C233.758 35.9511 233.313 35.8198 233.01 35.6986C232.404 35.4359 231.98 35.1025 231.737 34.6984C231.515 34.3145 231.475 33.9003 231.616 33.4558C231.798 32.8698 232.091 32.4657 232.495 32.2435C232.899 32.0414 233.323 32.0212 233.768 32.1828C233.97 32.2435 234.303 32.3647 234.768 32.5465C235.233 32.7284 235.738 32.89 236.284 33.0315C236.849 33.1931 237.344 33.2739 237.769 33.2739C239.284 33.2739 240.405 32.9708 241.133 32.3647C241.86 31.7585 242.224 30.92 242.224 29.8491V27.2123L242.588 27.4851C242.588 27.7478 242.446 28.071 242.163 28.4549C241.901 28.8186 241.527 29.1823 241.042 29.546C240.577 29.9097 240.022 30.2229 239.375 30.4856C238.728 30.7281 238.041 30.8493 237.314 30.8493C235.879 30.8493 234.586 30.4957 233.435 29.7885C232.283 29.0611 231.374 28.071 230.707 26.8183C230.04 25.5454 229.707 24.0906 229.707 22.454C229.707 20.7971 230.04 19.3423 230.707 18.0896C231.374 16.8167 232.273 15.8266 233.404 15.1194C234.536 14.392 235.799 14.0283 237.193 14.0283ZM237.769 17.3622C236.859 17.3622 236.061 17.5845 235.374 18.029C234.687 18.4735 234.152 19.0797 233.768 19.8475C233.384 20.6153 233.192 21.4841 233.192 22.454C233.192 23.4036 233.384 24.2623 233.768 25.0301C234.152 25.7979 234.687 26.4041 235.374 26.8486C236.061 27.2931 236.859 27.5154 237.769 27.5154C238.698 27.5154 239.506 27.2931 240.193 26.8486C240.88 26.4041 241.416 25.7979 241.8 25.0301C242.184 24.2623 242.375 23.4036 242.375 22.454C242.375 21.4841 242.184 20.6153 241.8 19.8475C241.416 19.0797 240.88 18.4735 240.193 18.029C239.506 17.5845 238.698 17.3622 237.769 17.3622ZM258.308 14.0283C259.763 14.0283 260.864 14.3415 261.612 14.9679C262.38 15.5942 262.905 16.4328 263.188 17.4834C263.471 18.5139 263.612 19.6656 263.612 20.9386V28.6974C263.612 29.2228 263.44 29.6673 263.097 30.031C262.753 30.3745 262.319 30.5462 261.794 30.5462C261.268 30.5462 260.834 30.3745 260.49 30.031C260.147 29.6673 259.975 29.2228 259.975 28.6974V20.9386C259.975 20.2718 259.894 19.6757 259.733 19.1504C259.571 18.6048 259.278 18.1704 258.854 17.8471C258.43 17.5238 257.823 17.3622 257.035 17.3622C256.268 17.3622 255.611 17.5238 255.065 17.8471C254.52 18.1704 254.106 18.6048 253.823 19.1504C253.56 19.6757 253.429 20.2718 253.429 20.9386V28.6974C253.429 29.2228 253.257 29.6673 252.913 30.031C252.57 30.3745 252.136 30.5462 251.61 30.5462C251.085 30.5462 250.65 30.3745 250.307 30.031C249.963 29.6673 249.792 29.2228 249.792 28.6974V9.96704C249.792 9.4417 249.963 9.00728 250.307 8.66379C250.65 8.3001 251.085 8.11825 251.61 8.11825C252.136 8.11825 252.57 8.3001 252.913 8.66379C253.257 9.00728 253.429 9.4417 253.429 9.96704V17.4834L252.974 17.3925C253.156 17.049 253.408 16.6853 253.732 16.3014C254.055 15.8973 254.449 15.5235 254.914 15.18C255.378 14.8365 255.894 14.5638 256.459 14.3617C257.025 14.1394 257.641 14.0283 258.308 14.0283ZM267.732 14.6345H274.915C275.4 14.6345 275.804 14.7961 276.128 15.1194C276.451 15.4427 276.612 15.8468 276.612 16.3317C276.612 16.7965 276.451 17.1905 276.128 17.5137C275.804 17.8168 275.4 17.9684 274.915 17.9684H267.732C267.247 17.9684 266.843 17.8067 266.52 17.4834C266.197 17.1601 266.035 16.756 266.035 16.2711C266.035 15.8064 266.197 15.4225 266.52 15.1194C266.843 14.7961 267.247 14.6345 267.732 14.6345ZM270.975 10.846C271.5 10.846 271.925 11.0278 272.248 11.3915C272.592 11.735 272.763 12.1694 272.763 12.6948V26.1818C272.763 26.4647 272.814 26.6971 272.915 26.8789C273.036 27.0608 273.188 27.1921 273.369 27.2729C273.572 27.3538 273.784 27.3942 274.006 27.3942C274.248 27.3942 274.471 27.3538 274.673 27.2729C274.875 27.1719 275.107 27.1214 275.37 27.1214C275.653 27.1214 275.905 27.2527 276.128 27.5154C276.37 27.7781 276.491 28.1418 276.491 28.6065C276.491 29.1722 276.178 29.637 275.552 30.0007C274.945 30.3644 274.289 30.5462 273.582 30.5462C273.157 30.5462 272.682 30.5159 272.157 30.4553C271.652 30.3745 271.167 30.2027 270.702 29.94C270.258 29.6572 269.884 29.2329 269.581 28.6671C269.278 28.1014 269.126 27.3234 269.126 26.3334V12.6948C269.126 12.1694 269.298 11.735 269.642 11.3915C270.005 11.0278 270.45 10.846 270.975 10.846ZM279.604 28.0306C279.402 27.7478 279.311 27.3841 279.331 26.9395C279.352 26.495 279.614 26.1111 280.119 25.7878C280.443 25.5858 280.786 25.505 281.15 25.5454C281.514 25.5656 281.867 25.7474 282.211 26.0909C282.797 26.6769 283.413 27.1315 284.059 27.4548C284.706 27.7781 285.514 27.9397 286.484 27.9397C286.787 27.9195 287.121 27.8791 287.484 27.8185C287.848 27.7377 288.161 27.576 288.424 27.3336C288.707 27.0709 288.848 26.6769 288.848 26.1515C288.848 25.707 288.697 25.3534 288.394 25.0908C288.09 24.8281 287.686 24.6058 287.181 24.424C286.696 24.2421 286.151 24.0704 285.545 23.9087C284.918 23.7269 284.272 23.5248 283.605 23.3026C282.958 23.0803 282.362 22.7974 281.817 22.454C281.271 22.0903 280.827 21.6154 280.483 21.0295C280.14 20.4435 279.968 19.706 279.968 18.817C279.968 17.8067 280.251 16.948 280.816 16.2408C281.382 15.5336 282.11 14.9881 282.999 14.6042C283.908 14.2203 284.858 14.0283 285.848 14.0283C286.474 14.0283 287.131 14.1091 287.818 14.2708C288.505 14.4122 289.161 14.6547 289.788 14.9982C290.414 15.3215 290.939 15.7559 291.364 16.3014C291.586 16.6045 291.717 16.9682 291.758 17.3925C291.798 17.8168 291.606 18.2007 291.182 18.5442C290.879 18.7867 290.525 18.8978 290.121 18.8776C289.717 18.8372 289.384 18.6958 289.121 18.4533C288.777 18.0088 288.313 17.6552 287.727 17.3925C287.161 17.1298 286.504 16.9985 285.757 16.9985C285.454 16.9985 285.12 17.0389 284.757 17.1197C284.413 17.1804 284.11 17.3319 283.847 17.5744C283.585 17.7966 283.453 18.1603 283.453 18.6654C283.453 19.1302 283.605 19.504 283.908 19.7868C284.211 20.0495 284.615 20.2718 285.12 20.4536C285.646 20.6153 286.201 20.7769 286.787 20.9386C287.393 21.1002 288.01 21.2921 288.636 21.5144C289.262 21.7367 289.838 22.0296 290.364 22.3933C290.889 22.757 291.313 23.2319 291.636 23.8178C291.96 24.3836 292.121 25.111 292.121 26C292.121 27.0305 291.818 27.9094 291.212 28.6368C290.606 29.3642 289.848 29.9198 288.939 30.3037C288.03 30.6674 287.1 30.8493 286.151 30.8493C284.959 30.8493 283.766 30.6472 282.574 30.2431C281.382 29.8188 280.392 29.0813 279.604 28.0306Z" fill="#338EEF"/>
<path d="M13.479 38.7155L22.0288 38.7167L22.034 45.9787L13.6405 45.9776C12.3127 45.409 11.219 44.6006 10.4245 43.6533C10.7357 42.0872 11.8924 40.0414 13.479 38.7155Z" fill="#6F4BBB"/>
<path d="M13.9739 39.3219C12.8426 40.4584 11.7244 41.8348 11.3482 43.4008C12.0254 44.184 12.9108 44.7903 13.8611 45.2325L21.0444 45.2334L21.0401 39.3228L13.9739 39.3219Z" fill="#7D5DC2"/>
<path d="M11.9984 41.7982C11.7774 42.1013 11.3618 43.3264 11.3359 43.4021C12.0132 44.1853 12.8985 44.7916 13.8489 45.2338L17.6749 45.2343L17.6726 42.0642C15.7856 42.0513 13.8986 41.9627 11.9984 41.7982Z" fill="#9478CF"/>
<path d="M13.444 44.439C14.3291 44.7296 14.7459 45.2727 14.8766 45.98L11.7924 45.9796C12.0001 45.3734 12.5852 44.6283 13.444 44.439Z" fill="#5F3EA7"/>
<path d="M13.4309 44.7674C12.9495 44.8937 12.5463 45.26 12.2863 45.6768L13.4446 45.6769L13.444 44.7675L13.4309 44.7674Z" fill="#6F4BBB"/>
<path d="M16.4891 44.2621C17.6735 44.5779 18.2467 45.3483 18.3903 45.9798L14.2781 45.9793C14.5509 45.31 15.3831 44.4135 16.4891 44.2621Z" fill="#5F3EA7"/>
<path d="M16.4625 44.5777C15.8118 44.6913 15.1744 45.1333 14.7974 45.6763L16.4893 45.6766L16.4885 44.5777L16.4625 44.5777Z" fill="#6F4BBB"/>
<path d="M32.28 38.7147L23.7302 38.7135L23.7355 45.9755L32.1291 45.9767C33.456 45.4085 34.5486 44.6004 35.3417 43.6533C35.0413 42.0871 33.8816 40.041 32.28 38.7147Z" fill="#6F4BBB"/>
<path d="M31.7991 39.3208C32.9321 40.4577 34.0522 41.8344 34.4307 43.4005C33.7546 44.1835 32.8702 44.7895 31.9205 45.2314L24.7372 45.2305L24.7329 39.3199L31.7991 39.3208Z" fill="#7D5DC2"/>
<path d="M33.7651 41.7968C33.9865 42.1 34.4039 43.3251 34.4299 43.4009C33.7538 44.1838 32.8693 44.7899 31.9196 45.2318L28.0935 45.2313L28.0913 42.0613C29.9782 42.0489 31.8782 41.9607 33.7651 41.7968Z" fill="#9478CF"/>
<path d="M32.3341 44.4367C31.4494 44.727 31.0333 45.27 30.9037 45.9773L33.9879 45.9777C33.7793 45.3714 33.1931 44.6262 32.3341 44.4367Z" fill="#5F3EA7"/>
<path d="M32.3485 44.7648C32.8301 44.8912 33.2338 45.2576 33.4944 45.6745L32.3361 45.6743L32.3354 44.7648L32.3485 44.7648Z" fill="#6F4BBB"/>
<path d="M29.2903 44.2604C28.1063 44.576 27.5343 45.3462 27.3916 45.9776L31.5038 45.9781C31.23 45.3088 30.3966 44.4121 29.2903 44.2604Z" fill="#5F3EA7"/>
<path d="M29.3029 44.5757C29.9537 44.6895 30.5917 45.1316 30.9695 45.6748L29.2777 45.6746L29.2769 44.5757L29.3029 44.5757Z" fill="#6F4BBB"/>
<path d="M0.0286315 40.9528C0.0816677 42.2792 0.394802 43.3151 0.99399 43.9595C1.93105 43.8838 2.72426 42.8733 3.08806 42.0017C2.54072 41.0795 1.47314 40.6625 0.0286315 40.9528Z" fill="#5F3EA7"/>
<path d="M0.510509 41.3193C0.537099 42.09 0.745975 42.886 1.17602 43.4672L1.53906 41.37C1.21352 41.2941 0.862007 41.2941 0.510509 41.3193Z" fill="#6F4BBB"/>
<path d="M2.39624 41.6603C2.48822 42.8477 2.64517 43.8962 3.41385 44.9574C4.79326 44.6671 5.87298 43.9219 6.32765 42.7346C5.64975 41.2313 4.0357 41.0289 2.39624 41.6603Z" fill="#5F3EA7"/>
<path d="M3.60894 44.4525L4.53127 41.8122C4.01049 41.711 3.42476 41.7867 2.86513 41.9635C2.95691 42.8605 3.1137 43.6565 3.60894 44.4525Z" fill="#6F4BBB"/>
<path d="M6.92466 42.6325C7.15993 43.9842 8.47495 44.6539 9.13869 44.6161C9.43768 44.1235 9.73656 43.4793 9.73599 42.7087L9.16298 42.2413C8.29085 42.0769 7.36682 42.1399 6.92466 42.6325Z" fill="#5F3EA7"/>
<path d="M8.90378 44.1612C9.16387 43.7822 9.33269 43.2011 9.35832 42.6452L8.4209 42.4934L8.90378 44.1612Z" fill="#6F4BBB"/>
<path d="M9.74077 24.5154L9.75389 42.6948C6.51278 43.086 2.73758 42.9591 0.0284548 40.9374C0.0793035 39.2446 0.247338 37.5896 0.558621 36.0105C1.14235 33.1555 2.24697 30.5531 4.15902 28.4183C5.84996 26.5362 7.5416 25.6395 9.74077 24.5154Z" fill="#6F4BBB"/>
<path d="M0.939165 40.5208C2.63242 41.7844 6.69432 42.1765 8.82908 41.9115L8.81763 25.9806C3.31305 28.8225 1.12979 34.0651 0.939165 40.5208Z" fill="#9478CF"/>
<path d="M0.939711 40.5222C1.79951 41.1666 3.25807 41.5711 4.78162 41.7987C5.00013 37.7431 4.96982 31.6408 4.03122 30.0235C1.98899 32.8407 1.06706 36.4414 0.939711 40.5222Z" fill="#A58DD4"/>
<path d="M4.77559 37.8189C5.49144 37.819 6.06453 38.3749 6.06504 39.0697C6.06554 39.7644 5.49327 40.3202 4.77742 40.3201C4.06158 40.32 3.48849 39.7641 3.48798 39.0693C3.48747 38.3745 4.05974 37.8188 4.77559 37.8189Z" fill="#9478CF"/>
<path d="M7.82598 10.3338C7.44681 7.97154 7.86239 6.7463 8.35538 4.58632C9.9051 5.8371 10.8949 6.73411 12.7828 7.65651C13.1585 5.37019 13.9899 3.21026 15.1989 1.18933L15.9138 0.00203566C18.6745 2.02354 21.0314 3.64076 22.8555 6.31899C24.6757 3.64129 27.0302 2.02475 29.788 0.00404202L30.5047 1.19154C31.7166 3.21282 32.5511 5.373 32.9302 7.65943C34.8167 6.73757 35.8052 5.84085 37.3531 4.59052C37.8623 6.73801 38.2667 7.96336 37.891 10.3381L41.3016 11.2481C40.6311 19.8882 39.9467 27.2525 39.0811 35.8926C38.9648 37.08 38.8355 38.28 38.7062 39.4674C38.6675 39.8084 38.2384 40.4273 36.4163 40.4397C27.5144 41.0195 18.1955 41.0181 9.30575 40.4358C7.48361 40.4103 7.05367 39.8039 7.01437 39.4628C6.88333 38.2501 6.75229 37.0374 6.63427 35.8248C6.58184 35.3321 6.52942 34.8394 6.47699 34.3342C5.72948 26.6286 4.99499 18.9483 4.37762 11.2301L7.78692 10.3211L7.82597 10.3211L7.82598 10.3338Z" fill="#6F4BBB"/>
<path d="M16.2921 1.80884C14.8232 4.23395 14.0051 6.79811 13.8509 9.45079C12.3407 8.89477 10.622 7.98502 9.13744 6.81004C8.83904 8.09845 8.90534 9.7785 9.30989 11.2439C8.06064 11.5216 6.9025 11.812 5.7444 12.1402C6.37494 20.0731 6.96644 28.0061 7.77918 35.9138C7.85785 36.697 8.02829 38.3897 8.11997 39.1728C8.44548 39.3497 9.12226 39.3498 9.39559 39.3625C18.3504 39.9449 27.409 39.9462 36.363 39.3664C36.6493 39.3412 37.3131 39.3413 37.6383 39.1771C37.7289 38.4066 37.8968 36.676 37.9743 35.9181C38.7624 27.998 39.3553 20.0653 39.9742 12.1452C38.8157 11.8166 37.6571 11.5259 36.4074 11.2478C36.8098 9.78254 36.8737 8.10251 36.5734 6.81401C35.1035 8.00119 33.3732 8.89781 31.8638 9.4534C31.7057 6.8133 30.8839 4.23628 29.4114 1.81074C26.4195 4.00826 24.4554 5.59959 22.8569 8.7826C21.2406 5.59913 19.2872 4.00722 16.2791 1.80884L16.2921 1.80884V1.80884Z" fill="#9478CF"/>
<path d="M16.2963 1.80845C16.5201 5.33327 17.4342 9.24983 19.1539 10.8924C16.8624 10.6521 15.6385 10.3866 13.8673 9.45152C12.3437 8.89545 10.6246 7.9856 9.13969 6.81048C9.93549 9.13518 10.7048 10.7903 12.2812 12.4076C10.9402 12.3822 10.1718 11.9525 9.3121 11.2449C8.06252 11.5227 6.90408 11.8131 5.74567 12.1415C6.37623 20.0755 6.96774 28.0095 7.78054 35.9183C7.85921 36.7016 8.02966 38.3945 8.12135 39.1778C8.44694 39.3547 9.1239 39.3548 9.3973 39.3675C13.8759 39.6586 18.3804 39.7982 22.8848 39.7987L22.8814 35.0737C15.9299 35.6035 9.56927 24.9651 16.8677 17.9796L15.4101 18.7627C15.2271 17.6383 15.5906 16.236 16.0715 15.099C17.0202 12.8883 19.5447 11.2462 22.8641 10.855L22.8626 8.77043C21.246 5.58654 19.3051 3.99446 16.2963 1.80845Z" fill="#A58DD4"/>
<path d="M33.4398 12.403C35.0006 10.7862 35.7804 9.11883 36.5727 6.79452C36.873 8.0831 36.8091 9.76324 36.4067 11.2286C35.5481 11.9485 34.7805 12.3779 33.4398 12.403ZM30.797 11.7457C31.578 11.7458 32.2033 12.3649 32.2038 13.1103C32.2043 13.8682 31.567 14.4745 30.799 14.4744C30.0181 14.4743 29.3928 13.8552 29.3923 13.1099C29.3917 12.3645 30.0291 11.7456 30.797 11.7457ZM35.9407 14.8288C36.4744 14.8289 36.9173 15.2585 36.9176 15.7764C36.918 16.2944 36.4758 16.7238 35.9421 16.7237C35.4084 16.7237 34.9656 16.2941 34.9652 15.7761C34.9648 15.2456 35.394 14.8287 35.9407 14.8288ZM26.5791 10.8735C28.2961 9.2441 29.2044 5.32809 29.4231 1.79097C30.8957 4.21665 31.7176 6.78121 31.8757 9.43409C30.0932 10.3687 28.8698 10.6338 26.5791 10.8735Z" fill="#7D5DC2"/>
<path d="M10.1112 13.7341C11.3869 13.7343 12.429 14.7451 12.4299 15.9832C12.4308 17.2212 11.3901 18.2318 10.1144 18.2316C8.83873 18.2314 7.7966 17.2206 7.79571 15.9826C7.79481 14.7445 8.83548 13.734 10.1112 13.7341ZM8.61917 20.6317C9.12685 20.6318 9.5437 21.0361 9.54405 21.5288C9.54441 22.0215 9.12814 22.4257 8.62046 22.4256C8.11278 22.4256 7.69593 22.0212 7.69558 21.5285C7.69522 21.0358 8.11149 20.6316 8.61917 20.6317Z" fill="#9478CF"/>
<path d="M23.0166 14.9611C28.5218 14.9619 32.989 19.2952 32.9929 24.6383C32.9968 29.9814 28.536 34.3133 23.0308 34.3125C17.5256 34.3117 13.0584 29.9785 13.0545 24.6354C13.0505 19.2923 17.5114 14.9603 23.0166 14.9611Z" fill="#D3E8EF"/>
<path d="M13.3144 22.437C14.1837 18.7993 17.175 15.945 20.9486 15.1751C25.061 14.8725 28.3947 17.6645 28.3975 21.4665C28.4003 25.2938 25.019 28.6911 20.8677 29.0442C16.7033 29.3973 13.3305 26.5926 13.3277 22.7527C13.3146 22.6517 13.3145 22.538 13.3144 22.437Z" fill="white"/>
<path d="M26.0906 20.9235C29.2011 20.924 31.7147 23.3622 31.7169 26.3811C31.7192 29.4 29.2091 31.8375 26.0986 31.8371C22.9881 31.8366 20.4745 29.3984 20.4723 26.3795C20.4701 23.3732 22.9801 20.923 26.0906 20.9235Z" fill="#EA4E64"/>
<path d="M26.0912 20.9233C26.9112 20.9235 27.6922 21.0878 28.3952 21.4037L28.3953 21.4668C28.398 25.1932 25.1988 28.5148 21.1646 29.0195C20.7215 28.2363 20.4605 27.3394 20.4598 26.3794C20.4576 23.3604 22.9677 20.9229 26.0912 20.9233Z" fill="#EC6277"/>
<path d="M26.0927 22.8432C28.1099 22.8435 29.7509 24.4227 29.7524 26.3932C29.7538 28.3511 28.1282 29.9424 26.0979 29.9421C24.0806 29.9418 22.4396 28.3626 22.4382 26.3921C22.4367 24.4343 24.0624 22.8429 26.0927 22.8432Z" fill="#232323"/>
<path d="M26.0922 22.8432C26.8341 22.8433 27.5241 23.0582 28.097 23.4246C27.3958 25.6857 25.549 27.6055 23.1809 28.5147C22.7249 27.9209 22.451 27.1756 22.4504 26.3924C22.436 24.4344 24.0618 22.8429 26.0922 22.8432Z" fill="#323232"/>
<path d="M22.1109 22.2998C23.3864 22.3 24.4154 23.298 24.4163 24.536C24.4172 25.774 23.3897 26.7718 22.1142 26.7716C20.8386 26.7714 19.8097 25.7733 19.8088 24.5353C19.8079 23.2974 20.8354 22.2996 22.1109 22.2998Z" fill="white"/>
<path d="M11.3018 29.0734C14.138 27.558 18.4089 30.2113 18.0997 34.5061C15.392 33.6972 12.4617 31.221 11.3018 29.0734Z" fill="#6F4BBB"/>
<path d="M11.302 29.0735C13.879 29.1244 16.7303 30.5395 18.0997 34.506C14.8588 34.1519 11.8376 31.7515 11.302 29.0735Z" fill="#A58DD4"/>
<path d="M12.6441 32.662C13.0215 32.5357 14.7916 32.5738 14.9349 32.7633C15.1043 32.9908 14.6366 34.1529 14.1425 34.9107C13.4914 34.4053 12.9572 33.7105 12.6441 32.662Z" fill="#7D5DC2"/>
<path d="M12.1236 32.2452C12.5009 32.119 14.2711 32.1571 14.4144 32.3466C14.5838 32.574 14.1161 33.7361 13.622 34.494C12.9709 33.9886 12.4367 33.2938 12.1236 32.2452Z" fill="white"/>
<path d="M12.6565 31.6515C12.7754 34.0891 16.0565 36.4388 19.1661 35.5677C19.3358 36.275 18.8416 36.6918 18.3342 36.7927C15.5104 37.0323 12.7893 35.3016 11.8897 33.0912C11.629 32.4849 11.9147 31.7272 12.6565 31.6515Z" fill="#6F4BBB"/>
<path d="M12.1254 36.2255C12.9074 37.653 14.1312 38.3226 15.4719 38.5375C13.5594 39.3709 11.8666 38.2591 12.1254 36.2255Z" fill="#6F4BBB"/>
<path d="M13.4136 36.5666C14.9497 37.4001 16.4073 37.6654 18.0988 37.514C16.8632 38.3094 14.4429 38.3975 13.4136 36.5666Z" fill="#9478CF"/>
<path d="M26.4662 12.2165C23.3784 7.03799 15.2603 10.0553 16.0844 15.865C18.1121 12.6069 22.0283 11.5465 26.4662 12.2165Z" fill="#5F3EA7"/>
<path d="M26.4656 12.2149C24.72 9.29816 21.0505 9.10838 18.5923 10.7116C18.5798 11.3934 18.7883 11.8858 19.166 12.2773C21.1561 11.3432 23.7583 10.9647 26.4656 12.2149Z" fill="#6F4BBB"/>
<path d="M42.6178 31.9149C45.8584 31.9153 48.5153 34.442 48.5176 37.5999C48.5199 40.7577 45.8668 43.2836 42.6261 43.2832C39.3855 43.2827 36.7287 40.756 36.7263 37.5982C36.724 34.4403 39.3772 31.9144 42.6178 31.9149Z" fill="#6F4BBB"/>
<path d="M42.6187 32.7486C45.4038 32.749 47.657 34.9219 47.6589 37.5871C47.6609 40.265 45.4109 42.4246 42.6258 42.4242C39.8407 42.4238 37.5875 40.2509 37.5856 37.5857C37.5836 34.9204 39.8466 32.7482 42.6187 32.7486Z" fill="#9478CF"/>
<path d="M42.6187 32.7478C44.5968 32.7481 46.3025 33.8472 47.1366 35.4388C47.3206 37.965 44.1465 39.8213 42.0246 38.9494C40.4623 38.1282 39.3809 36.5239 39.3796 34.6925C39.3794 34.3893 39.4052 34.0988 39.4701 33.8083C40.3415 33.1516 41.4344 32.7476 42.6187 32.7478Z" fill="#A58DD4"/>
<path d="M40.5646 36.8411C40.3298 36.1462 43.0107 35.2749 43.2585 35.9698L45.9196 43.6889C46.1544 44.3838 43.4735 45.2551 43.2257 44.5603L40.5646 36.8411Z" fill="#2B3039"/>
<path d="M44.417 36.0581C43.3632 36.6896 42.4916 37.3085 41.8677 38.4579C42.7666 39.5192 43.9514 40.1004 45.2529 39.949C46.3062 38.6607 45.7584 37.1826 44.417 36.0581Z" fill="#5F3EA7"/>
<path d="M45.2383 37.8264C45.0818 37.3843 44.7952 36.9674 44.4305 36.5632C43.624 37.0683 42.9607 37.6113 42.4537 38.3944C43.0134 38.445 43.8852 38.3061 45.2383 37.8264Z" fill="#6F4BBB"/>
<path d="M45.4333 39.1538C44.3796 39.7852 43.508 40.4041 42.8841 41.5536C43.7829 42.6148 44.9678 43.1961 46.2692 43.0447C47.3225 41.7563 46.7748 40.2783 45.4333 39.1538Z" fill="#5F3EA7"/>
<path d="M46.2548 40.7957C46.0983 40.3536 45.8116 39.9368 45.4469 39.5325C44.6404 40.0376 43.9771 40.5807 43.4701 41.3637C44.0297 41.4269 44.9016 41.2755 46.2548 40.7957Z" fill="#6F4BBB"/>
<path d="M39.942 39.4569C40.944 39.2171 41.8289 39.0656 42.9095 39.3689C43.0404 40.5059 42.7158 41.5417 41.8703 42.1984C40.4645 42.0845 39.8649 40.897 39.942 39.4569Z" fill="#5F3EA7"/>
<path d="M40.5565 40.8337C40.374 40.4801 40.2827 40.0759 40.2433 39.6338C41.024 39.4571 41.7397 39.3814 42.5337 39.5457C42.2477 39.912 41.6493 40.3287 40.5565 40.8337Z" fill="#6F4BBB"/>
<path d="M37.9272 18.5476C32.6044 18.8373 28.5341 23.2704 28.8372 28.4367C29.1403 33.603 33.7114 37.5573 39.0342 37.2675C44.3569 36.9778 48.4273 32.5447 48.1241 27.3784C47.821 22.2121 43.263 18.2578 37.9272 18.5476Z" fill="#393F4C"/>
<path d="M38.0065 19.7097C33.3474 19.9617 29.7712 23.8516 30.0349 28.3863C30.2985 32.9084 34.3095 36.3827 38.9816 36.1181C43.6407 35.8661 47.2169 31.9762 46.9533 27.4414C46.6766 22.9193 42.6786 19.4451 38.0065 19.7097Z" fill="#D3E8EF"/>
<path d="M44.9244 31.9746C45.7826 30.6862 46.2501 29.1324 46.1578 27.4774C45.9602 24.2054 43.6282 21.5395 40.5425 20.7179C40.2972 23.5477 40.0389 26.327 39.7676 29.182C40.7963 29.5864 43.4527 30.8754 44.9244 31.9746Z" fill="white"/>
<path d="M37.8785 20.6188C33.818 20.8456 30.7098 24.2178 30.96 28.159C30.9994 28.7148 31.0909 29.258 31.2475 29.7633C31.2344 29.6496 31.2213 29.5359 31.2212 29.4096C30.9576 24.8368 34.5469 20.9215 39.2581 20.6569L39.2972 20.6569C38.8416 20.6189 38.3601 20.5936 37.8785 20.6188Z" fill="white"/>
<path d="M31.2491 32.1629C31.4055 32.4155 31.5748 32.6555 31.7572 32.8828L34.2532 29.5238L40.0067 31.8484L43.3332 25.168L46.678 25.7873C46.5867 25.4842 46.4954 25.1811 46.378 24.8906L42.864 24.2334L39.6025 30.7875L33.9792 28.5135L31.2491 32.1629Z" fill="#999999"/>
<path d="M34.0053 27.3273C34.9684 27.277 35.7889 27.9845 35.8416 28.9193C35.8944 29.8541 35.1661 30.6498 34.203 30.7002C33.2399 30.7506 32.4194 30.043 32.3666 29.1083C32.3009 28.1861 33.0422 27.3904 34.0053 27.3273Z" fill="#1EC185"/>
<path d="M42.9931 23.0174C43.9562 22.967 44.7767 23.6746 44.8294 24.6094C44.8822 25.5441 44.1539 26.3399 43.1908 26.3903C42.2277 26.4407 41.4072 25.7331 41.3544 24.7983C41.2886 23.8635 42.0299 23.0678 42.9931 23.0174Z" fill="#EA4E64"/>
<path d="M39.6913 29.6391C40.6544 29.5887 41.4749 30.2962 41.5277 31.231C41.5804 32.1658 40.8521 32.9615 39.889 33.0119C38.9259 33.0623 38.1054 32.3547 38.0526 31.42C37.9869 30.4852 38.7282 29.6894 39.6913 29.6391Z" fill="#338EEF"/>
</svg>
