<svg xmlns="http://www.w3.org/2000/svg" xmlns:xlink="http://www.w3.org/1999/xlink" id="WishList_Member" x="0px" y="0px" viewBox="0 0 190 77.5" style="enable-background:new 0 0 190 77.5;" xml:space="preserve"> <style type="text/css"> .st0{fill:#1E7FC0;} .st1{fill:#333333;} </style> <title>WishListMember-logo-dark</title> <g id="member"> <path class="st0" d="M70.8,74.1c0-1.1-0.1-2.3-0.1-3.6h0c-0.3,1.1-0.6,2.4-1,3.4l-1.1,3.4h-1.5l-1-3.4c-0.3-1-0.6-2.3-0.8-3.4h0 c0,1.2-0.1,2.5-0.1,3.6L65,77.4h-1.8l0.6-8.8h2.6l0.9,2.9c0.3,1,0.5,2.1,0.7,3.1h0c0.2-1,0.5-2.2,0.8-3.1l0.9-2.9h2.6l0.5,8.8h-1.9 L70.8,74.1z"></path> <path class="st0" d="M82.2,73.7H79v2.1h3.6v1.6H77v-8.8h5.4v1.6H79v1.8h3.2L82.2,73.7z"></path> <path class="st0" d="M94,74.1c0-1.1-0.1-2.3-0.1-3.6h0c-0.3,1.1-0.6,2.4-1,3.4l-1.1,3.4h-1.5l-0.9-3.4c-0.3-1-0.6-2.3-0.8-3.4h0 c0,1.2-0.1,2.5-0.1,3.6l-0.2,3.3h-1.8l0.6-8.8h2.6l0.9,2.9c0.3,1,0.5,2.1,0.7,3.1h0c0.2-1,0.5-2.2,0.8-3.1l0.9-2.9h2.6l0.5,8.8 h-1.9L94,74.1z"></path> <path class="st0" d="M100.2,68.8c0.8-0.1,1.7-0.2,2.6-0.2c1.2,0,2,0.1,2.6,0.5c0.6,0.3,1.1,1,1,1.7c0,0.8-0.4,1.5-1.4,1.9v0 c1,0.2,1.7,1.1,1.7,2.1c0,0.7-0.3,1.4-0.9,1.9c-0.6,0.5-1.7,0.8-3.4,0.8c-0.7,0-1.4,0-2.1-0.1L100.2,68.8z M102.1,72.1h0.6 c1,0,1.6-0.4,1.6-1.1c0-0.6-0.5-1-1.4-1c-0.3,0-0.6,0-0.8,0.1V72.1z M102.1,76c0.3,0,0.5,0,0.8,0c0.9,0,1.7-0.4,1.7-1.3 c0-0.9-0.8-1.2-1.8-1.2h-0.7L102.1,76z"></path> <path class="st0" d="M115.9,73.7h-3.2v2.1h3.6v1.6h-5.6v-8.8h5.4v1.6h-3.4v1.8h3.2L115.9,73.7z"></path> <path class="st0" d="M120.2,68.8c0.9-0.1,1.8-0.2,2.6-0.2c1.3,0,2.2,0.2,2.8,0.7c0.5,0.4,0.8,1.1,0.8,1.8c0,1-0.6,1.8-1.5,2.1v0 c0.6,0.2,0.9,0.8,1.2,1.6c0.2,0.8,0.4,1.7,0.7,2.5h-2c-0.3-0.7-0.5-1.3-0.6-2c-0.2-1.1-0.6-1.4-1.4-1.4h-0.6v3.4h-2L120.2,68.8z M122.2,72.5h0.8c1,0,1.6-0.5,1.6-1.3s-0.5-1.2-1.5-1.2c-0.3,0-0.6,0-0.9,0.1V72.5z"></path> </g> <g id="WishList"> <path class="st1" d="M8.9,59.9L0,22.4h9.1l2.9,15.4c0.8,4.5,1.6,9.3,2.2,13.1h0.1c0.6-4.1,1.5-8.6,2.4-13.2l3.2-15.3h9l3,15.8 c0.8,4.4,1.4,8.4,2,12.5h0.1c0.6-4.2,1.4-8.5,2.2-13l3-15.3h8.6l-9.7,37.5H29l-3.2-16.1C25,40,24.4,36.4,24,32.2h-0.1 c-0.6,4.2-1.2,7.8-2.1,11.5l-3.6,16.1H8.9z"></path> <path class="st1" d="M50.4,59.9V32.6h8.5v27.2H50.4z"></path> <path class="st1" d="M63.8,52.5c2.2,1.2,4.7,1.9,7.2,2c2.6,0,3.6-0.9,3.6-2.2s-0.9-2.1-4-3.1C65,47.3,62.9,44.2,63,41 C63,35.9,67.3,32,74,32c3.2,0,6,0.7,7.7,1.6l-1.5,5.8c-1.8-0.9-3.8-1.5-5.9-1.5c-2.1,0-3.2,0.8-3.2,2.2c0,1.3,1.1,2,4.4,3.1 c5.2,1.8,7.3,4.4,7.4,8.4c0,5.1-4,8.8-11.8,8.8c-3.5,0-6.7-0.8-8.8-1.9L63.8,52.5z"></path> <path class="st1" d="M85.5,20.4h8.5v15.5h0.1c0.9-1.2,2-2.1,3.3-2.8c1.4-0.7,2.9-1.1,4.4-1.1c5.4,0,9.5,3.7,9.5,11.9v15.9h-8.5v-15 c0-3.6-1.2-6-4.4-6c-1.9,0-3.6,1.2-4.2,3c-0.2,0.6-0.3,1.2-0.3,1.8v16.1h-8.5V20.4z"></path> <path class="st1" d="M114.1,22.4h8.5v30.3h14.9v7.1h-23.3V22.4z"></path> <path class="st1" d="M140.1,59.9V32.6h8.5v27.2H140.1z"></path> <path class="st1" d="M152.8,52.5c1.5,0.9,4.8,2,7.2,2c2.6,0,3.6-0.9,3.6-2.2c0-1.4-0.9-2.1-4-3.1c-5.7-1.9-7.8-4.9-7.8-8.1 c0-5.1,4.3-8.9,11.1-8.9c3.2,0,6,0.7,7.7,1.6l-1.5,5.8c-1.8-0.9-3.8-1.5-5.9-1.5c-2.1,0-3.2,0.8-3.2,2.2c0,1.3,1.1,2,4.4,3.1 c5.2,1.8,7.3,4.4,7.4,8.4c0,5.1-4,8.8-11.8,8.8c-3.5,0-6.7-0.8-8.8-1.9L152.8,52.5z"></path> <path class="st1" d="M183.9,24.9v7.8h6.1v6.2h-6.1v9.9c0,3.3,0.8,4.8,3.3,4.8c0.8,0,1.7-0.1,2.5-0.3l0.1,6.4 c-1.1,0.4-3.1,0.7-5.5,0.7c-2.7,0-5-1-6.4-2.4c-1.6-1.6-2.3-4.2-2.3-8.1V38.9H172v-6.2h3.6v-5.8L183.9,24.9z"></path> </g> <path id="bounce" class="st0" d="M148.8,24.9c0,2.6-2.1,4.8-4.8,4.8c0,0,0,0,0,0c-2.8,0-4.8-2.5-4.8-4.7c0-2.9,2.4-5,4.9-4.9 C146.5,19.9,148.8,22.2,148.8,24.9z M136.9,22.4c0,0-43.2-40.6-81.4,4.7c0,0-13.1-27-42.6-26.7c0,0,25.4-4.8,42.8,20.9 c0,0,37.9-44.8,86.4-3.7C142.2,17.5,137.3,17.2,136.9,22.4z"></path> </svg>