<svg width="160" height="30" viewBox="0 0 160 30" fill="none" xmlns="http://www.w3.org/2000/svg">
<path d="M57.4179 4.23438L50.9575 20.2781L44.316 4.23438H39.4858V25.5266H43.2896V11.0932L49.2066 25.5266H52.467L58.4443 11.0932V25.5266H62.2481V4.23438H57.4179Z" fill="#252525"/>
<path d="M79.276 13.1805C78.6119 12.0473 77.6458 11.1527 76.4987 10.5563C75.3515 9.95983 73.9628 9.66162 72.4534 9.66162C70.944 9.66162 69.6157 10.0195 68.4081 10.6755C67.2609 11.3316 66.2949 12.2859 65.6911 13.5384C65.027 14.7312 64.7251 16.1626 64.7251 17.773C64.7251 19.3833 65.0874 20.7551 65.7515 21.9479C66.4157 23.1407 67.3817 24.095 68.5892 24.7511C69.7968 25.4071 71.2458 25.765 72.9364 25.765C74.8081 25.765 76.4383 25.2282 77.7062 24.2143C78.9741 23.2004 79.759 21.8883 80.0609 20.2779L80.1213 20.0394H76.4383L76.3779 20.2183C76.1968 20.9936 75.7741 21.6497 75.11 22.0672C74.4458 22.4847 73.6609 22.7232 72.6949 22.7232C71.4873 22.7232 70.5213 22.3654 69.7968 21.6497C69.0723 20.934 68.6496 19.9201 68.5892 18.6676H80.2421V18.4887C80.3024 18.0712 80.3628 17.6537 80.3628 17.2362C80.3024 15.6258 79.9402 14.3137 79.276 13.1805ZM68.7704 15.8048C68.9515 14.9101 69.3138 14.1944 69.9779 13.598C70.7024 13.0016 71.6081 12.7034 72.5741 12.7034C73.6609 12.7034 74.5666 13.0016 75.2911 13.598C75.9553 14.1348 76.3779 14.8505 76.4987 15.8048H68.7704Z" fill="#252525"/>
<path d="M88.5131 22.246C87.9697 22.246 87.6074 22.1267 87.4263 21.9478C87.2452 21.7689 87.1244 21.3514 87.1244 20.8146V13.0611H90.8678V9.7808H87.1244V5.48657L83.381 6.67942V9.7808H81.8716L80.6641 13.0611H83.381V21.1128C83.381 22.6039 83.7433 23.6774 84.4678 24.3931C85.1924 25.1088 86.3395 25.4667 87.849 25.4667H91.2301V22.1864H88.5131V22.246Z" fill="#252525"/>
<path d="M106.807 7.69361V4.23438H92.8599V25.5266H96.7844V16.6996H105.056V13.3H96.7844V7.69361H106.807Z" fill="#252525"/>
<path d="M122.143 13.4789C121.479 12.2861 120.513 11.3318 119.306 10.6161C118.098 9.96003 116.649 9.60217 115.079 9.60217C113.51 9.60217 112.06 9.96003 110.853 10.6161C109.645 11.2722 108.679 12.2264 108.015 13.4789C107.351 14.6718 106.989 16.1032 106.989 17.6539C106.989 19.2642 107.351 20.636 108.015 21.8885C108.679 23.0813 109.645 24.0356 110.853 24.6916C112.06 25.3477 113.51 25.7056 115.079 25.7056C116.649 25.7056 118.098 25.3477 119.306 24.6916C120.513 24.0356 121.479 23.0813 122.204 21.8885C122.868 20.6956 123.23 19.2642 123.23 17.6539C123.17 16.1032 122.808 14.7314 122.143 13.4789ZM115.079 22.5445C113.751 22.5445 112.725 22.127 111.94 21.2324C111.155 20.3378 110.732 19.1449 110.732 17.7135C110.732 16.2821 111.155 15.0893 111.94 14.1946C112.725 13.3 113.751 12.8825 115.079 12.8825C116.408 12.8825 117.434 13.3 118.219 14.1946C119.004 15.0893 119.426 16.2821 119.426 17.7135C119.426 19.1449 119.004 20.3378 118.219 21.2324C117.434 22.0674 116.408 22.5445 115.079 22.5445Z" fill="#252525"/>
<path d="M133.372 9.84094C132.165 9.84094 131.139 10.0795 130.414 10.497C129.871 10.8549 129.327 11.2724 128.965 11.8091L128.663 9.90059L125.342 11.0934V25.6461H129.025V17.6541C129.025 16.4016 129.327 15.328 129.871 14.493C130.414 13.6581 131.32 13.3002 132.588 13.3002H134.278V9.84094H133.372Z" fill="#252525"/>
<path d="M158.369 11.3316C157.283 10.1984 155.834 9.66162 154.083 9.66162C152.815 9.66162 151.667 9.90018 150.762 10.437C149.977 10.8545 149.313 11.4509 148.769 12.2262C148.347 11.4509 147.683 10.7948 146.958 10.3773C146.113 9.90018 145.086 9.66162 144 9.66162C142.188 9.66162 140.739 10.3177 139.592 11.5702L139.29 9.84054L136.03 11.0334V25.5861H139.713V17.1765C139.713 15.8644 140.015 14.7908 140.618 14.0155C141.222 13.2401 142.068 12.8823 143.094 12.8823C144.12 12.8823 144.845 13.1805 145.328 13.8366C145.871 14.4926 146.113 15.4469 146.113 16.759V25.5861H149.856V17.0572C149.856 15.7451 150.158 14.7312 150.762 13.9558C151.366 13.2401 152.211 12.8823 153.237 12.8823C154.264 12.8823 154.988 13.1805 155.471 13.8366C155.954 14.4926 156.256 15.4469 156.256 16.759V25.5861H160V16.759C160 14.2541 159.456 12.4648 158.369 11.3316Z" fill="#252525"/>
<path d="M33.0867 11.0338L26.2037 11.5706V3.1014C26.2037 1.37178 24.8151 0 23.0641 0H3.13962C1.38868 0 0 1.37178 0 3.1014V17.177L8.87546 22.5447L33.0867 11.0338Z" fill="url(#paint0_linear_859_4739)"/>
<path d="M8.99687 28.4493L0.0610352 17.1769V26.8986C0.0610352 28.6282 1.44971 30 3.20065 30H23.1252C24.8761 30 26.2648 28.6282 26.2648 26.8986V19.324L33.1478 11.1531L8.99687 28.4493Z" fill="url(#paint1_linear_859_4739)"/>
<g opacity="0.2">
<path d="M20.8897 5.12939H10.1426V6.5608H20.8897V5.12939Z" fill="black"/>
<path d="M6.76336 7.21666C7.49696 7.21666 8.09166 6.62919 8.09166 5.90452C8.09166 5.17986 7.49696 4.59241 6.76336 4.59241C6.02976 4.59241 5.43506 5.17986 5.43506 5.90452C5.43506 6.62919 6.02976 7.21666 6.76336 7.21666Z" fill="black"/>
<path d="M20.8897 10.3777H10.1426V11.8091H20.8897V10.3777Z" fill="black"/>
<path d="M6.76336 12.4055C7.49696 12.4055 8.09166 11.8181 8.09166 11.0934C8.09166 10.3687 7.49696 9.78125 6.76336 9.78125C6.02976 9.78125 5.43506 10.3687 5.43506 11.0934C5.43506 11.8181 6.02976 12.4055 6.76336 12.4055Z" fill="black"/>
<path d="M17.569 15.5668H10.1426V16.9982H17.569V15.5668Z" fill="black"/>
<path d="M6.76336 17.5946C7.49696 17.5946 8.09166 17.0071 8.09166 16.2825C8.09166 15.5578 7.49696 14.9703 6.76336 14.9703C6.02976 14.9703 5.43506 15.5578 5.43506 16.2825C5.43506 17.0071 6.02976 17.5946 6.76336 17.5946Z" fill="black"/>
</g>
<path d="M20.8897 3.69788H10.1426V5.12928H20.8897V3.69788Z" fill="white"/>
<path d="M6.76336 5.72569C7.49696 5.72569 8.09166 5.13823 8.09166 4.41356C8.09166 3.68889 7.49696 3.10144 6.76336 3.10144C6.02976 3.10144 5.43506 3.68889 5.43506 4.41356C5.43506 5.13823 6.02976 5.72569 6.76336 5.72569Z" fill="white"/>
<path d="M20.8897 8.88672H10.1426V10.3181H20.8897V8.88672Z" fill="white"/>
<path d="M6.76336 10.9146C7.49696 10.9146 8.09166 10.3271 8.09166 9.60242C8.09166 8.87775 7.49696 8.29028 6.76336 8.29028C6.02976 8.29028 5.43506 8.87775 5.43506 9.60242C5.43506 10.3271 6.02976 10.9146 6.76336 10.9146Z" fill="white"/>
<path d="M17.569 14.0758H10.1426V15.5072H17.569V14.0758Z" fill="white"/>
<path d="M6.76336 16.1036C7.49696 16.1036 8.09166 15.5162 8.09166 14.7915C8.09166 14.0668 7.49696 13.4794 6.76336 13.4794C6.02976 13.4794 5.43506 14.0668 5.43506 14.7915C5.43506 15.5162 6.02976 16.1036 6.76336 16.1036Z" fill="white"/>
<defs>
<linearGradient id="paint0_linear_859_4739" x1="6.07564" y1="21.0648" x2="21.5844" y2="-0.929494" gradientUnits="userSpaceOnUse">
<stop stop-color="#F8003C"/>
<stop offset="1" stop-color="#FF8438"/>
</linearGradient>
<linearGradient id="paint1_linear_859_4739" x1="0.721864" y1="28.075" x2="25.5087" y2="17.7559" gradientUnits="userSpaceOnUse">
<stop offset="0.1645" stop-color="#0099AC"/>
<stop offset="0.9996" stop-color="#00D5C9"/>
</linearGradient>
</defs>
</svg>
