<svg width="155" height="41" viewBox="0 0 155 41" fill="none" xmlns="http://www.w3.org/2000/svg">
    <path d="M9.90488 25.3584H21.7123C23.1831 27.5862 25.708 29.0714 28.5732 29.0714H9.90488C8.87966 29.0714 8.04836 28.2401 8.04836 27.2149C8.04836 26.1897 8.87966 25.3584 9.90488 25.3584Z" fill="#E63060"/>
    <path d="M6.20627 22.7306C5.18106 22.7306 4.34975 21.8993 4.34975 20.8741C4.34975 19.8489 5.18106 19.0176 6.20627 19.0176H20.5984C20.4643 19.6117 20.3901 20.2346 20.3901 20.8741C20.3901 21.5136 20.4643 22.1365 20.5984 22.7306H6.20627Z" fill="#A735DF"/>
    <path d="M2.49324 16.3874C1.46803 16.3874 0.636719 15.556 0.636719 14.5308C0.636719 13.5056 1.46803 12.6743 2.49324 12.6743H28.5732C28.5134 12.6743 28.4391 12.6743 28.3793 12.6743H28.3339C28.2741 12.6743 28.2143 12.6743 28.14 12.6743H28.1256C28.0658 12.6743 28.006 12.6743 27.9482 12.6888H27.9193C27.8595 12.6888 27.7997 12.7032 27.7254 12.7032H27.6965C27.6367 12.7032 27.5934 12.7176 27.5336 12.7176H27.5047C27.4449 12.7321 27.3851 12.7321 27.3273 12.7465H27.2819C27.1623 12.761 27.0447 12.7919 26.925 12.8063L26.8797 12.8208C26.8198 12.8352 26.7765 12.8497 26.7167 12.8497L26.6713 12.8641L26.5372 12.893L26.4919 12.9074C26.432 12.9219 26.3887 12.9363 26.3289 12.9528L26.3 12.9672C26.2546 12.9817 26.2113 12.9961 26.1659 13.0126L26.1061 13.0271L25.972 13.0724L25.9122 13.0869C25.8524 13.1013 25.8091 13.1158 25.7493 13.1467L25.7204 13.1611L25.6007 13.2065L25.5409 13.2354C25.4955 13.2498 25.4522 13.2808 25.4068 13.2952L25.347 13.3241L25.2439 13.3695L25.184 13.3984C25.1387 13.4128 25.0953 13.4437 25.05 13.4582L24.9901 13.4871L24.9014 13.5324L24.7983 13.5923L24.7096 13.6376L24.6353 13.683L24.5611 13.7284L24.4579 13.7882L24.3981 13.8336L24.3239 13.879L24.2207 13.9388L24.1465 13.9842L24.1011 14.0131C24.0124 14.0729 23.9072 14.1472 23.8185 14.207L23.804 14.2214C23.7442 14.2668 23.6844 14.3101 23.6246 14.3555L23.6101 14.3699C23.5214 14.4442 23.4162 14.5185 23.3275 14.5927L23.3131 14.6072C22.719 15.1125 22.1847 15.7066 21.7536 16.375H2.53862L2.49324 16.3874Z" fill="#6433F9"/>
    <path d="M37.2329 20.874C37.2329 16.0924 33.3569 12.2144 28.5732 12.2144C23.7896 12.2144 19.9136 16.0904 19.9136 20.874C19.9136 25.6576 23.7896 29.5336 28.5732 29.5336C33.3569 29.5336 37.2329 25.6556 37.2329 20.874ZM21.2214 20.874C21.2214 16.8041 24.5178 13.5222 28.5732 13.5222C32.6431 13.5222 35.925 16.8185 35.925 20.874C35.925 24.9439 32.6287 28.2258 28.5732 28.2258C24.5033 28.2258 21.2214 24.9274 21.2214 20.874Z" fill="#210F59"/>
    <path d="M44.6878 9.49754L30.341 1.25459C29.2127 0.600683 27.9193 0.600683 26.7765 1.25459L12.4297 9.49754C12.2957 9.5718 12.1616 9.6605 12.044 9.7492H18.8904L28.499 4.23946C28.5134 4.23946 28.5588 4.21058 28.5732 4.21058C28.5877 4.21058 28.633 4.22502 28.6475 4.23946L42.9943 12.4824C43.0087 12.4824 43.0396 12.5113 43.0541 12.5278C43.0685 12.5567 43.0685 12.6021 43.0685 12.6165V29.1478C43.0685 29.1767 43.0685 29.222 43.0541 29.2365C43.0541 29.2509 43.0087 29.2654 42.9943 29.2819L28.6475 37.5248C28.633 37.5248 28.5877 37.5537 28.5732 37.5537C28.5588 37.5537 28.5134 37.5392 28.499 37.5248L18.8904 32.0151H12.0419C12.1616 32.1038 26.7745 40.5097 26.7745 40.5097C27.9028 41.1636 29.1962 41.1636 30.339 40.5097L44.6858 32.2667C45.8285 31.5984 46.4824 30.47 46.4824 29.1478V12.6165C46.4845 11.2942 45.8327 10.1494 44.6878 9.49754Z" fill="#210F59"/>
    <path d="M28.5732 24.3042C30.4678 24.3042 32.0037 22.7684 32.0037 20.8738C32.0037 18.9792 30.4678 17.4434 28.5732 17.4434C26.6786 17.4434 25.1428 18.9792 25.1428 20.8738C25.1428 22.7684 26.6786 24.3042 28.5732 24.3042Z" fill="#210F59"/>
    <path d="M59.4767 24.4589V22.1724H63.8067V19.7304H59.4767V17.272H64.4117V14.8995H56.7569V26.8314H64.5671V24.4589H59.4767Z" fill="#210F59"/>
    <path d="M74.2691 26.8314L71.0997 22.4666L73.7664 18.7599H70.7871L69.7142 20.4049L68.5883 18.7599H65.5925L68.2593 22.4666L65.0734 26.8314H68.0692L69.6795 24.4754L71.2898 26.8314H74.2691Z" fill="#210F59"/>
    <path d="M80.5695 18.7617V19.6445C79.981 18.8823 78.8898 18.5716 78.0581 18.5716C76.0494 18.5716 74.1448 20.1654 74.1448 22.7792C74.1448 25.3948 76.0494 26.9868 78.0581 26.9868C78.8898 26.9868 79.981 26.6742 80.5695 25.9139V26.8314H83.1157V18.7617H80.5695ZM78.6119 24.5979C77.6067 24.5979 76.7421 23.8009 76.7421 22.7792C76.7421 21.7575 77.6085 20.9605 78.6119 20.9605C79.5825 20.9605 80.4653 21.7392 80.4653 22.7792C80.4653 23.8174 79.599 24.5979 78.6119 24.5979Z" fill="#210F59"/>
    <path d="M88.9025 26.9868C90.4616 26.9868 91.6552 26.2246 92.4356 25.0822L90.4616 23.8357C90.1326 24.32 89.4746 24.6143 88.9208 24.6143C87.7437 24.6143 87.0509 23.7827 87.0509 22.7609C87.0509 21.7556 87.7437 20.9258 88.9208 20.9258C89.4746 20.9258 90.1326 21.2201 90.4616 21.7044L92.4356 20.4579C91.657 19.3155 90.4616 18.5533 88.9025 18.5533C86.5464 18.5533 84.4518 20.1983 84.4518 22.7609C84.4518 25.3235 86.5483 26.9868 88.9025 26.9868Z" fill="#210F59"/>
    <path d="M97.0161 18.7617V15.8518H94.4535V18.7617H92.9821V20.6845H94.4535V26.8333H97.0161V20.6827H98.7141V18.7617H97.0161Z" fill="#210F59"/>
    <path d="M113.953 26.8314L112.481 14.8995H111.061L106.819 23.7498L102.558 14.8995H101.138L99.6829 26.8314H101.224L102.315 17.7399L106.142 25.5337H107.511L111.304 17.7399L112.412 26.8314H113.953Z" fill="#210F59"/>
    <path d="M123.505 22.7609C123.505 20.1983 121.79 18.5698 119.487 18.5698C117.184 18.5698 115.331 20.1983 115.331 22.7609C115.331 25.3235 117.184 27.0033 119.487 27.0033C121.046 27.0033 122.501 26.2758 123.21 24.8739L121.894 24.3548C121.445 25.1681 120.527 25.5849 119.538 25.5849C118.153 25.5849 117.115 24.8757 116.888 23.4372H123.468C123.486 23.2124 123.505 22.9876 123.505 22.7609ZM116.906 22.1376C117.149 20.6827 118.118 19.99 119.487 19.99C120.821 19.99 121.808 20.7522 121.999 22.1376H116.906Z" fill="#210F59"/>
    <path d="M128.955 18.7434H127.206V15.6782H125.7V18.7434H124.245V20.043H125.7V26.8314H127.206V20.043H128.955V18.7434Z" fill="#210F59"/>
    <path d="M134.086 18.5698C133.011 18.5698 132.232 19.1583 131.817 20.5785V18.7434H130.293V26.8314H131.817V23.8704C131.817 21.741 132.459 20.0265 134.069 20.0265C134.382 20.0265 134.813 20.096 135.246 20.3043L135.49 18.8841C135.246 18.727 134.658 18.5698 134.086 18.5698Z" fill="#210F59"/>
    <path d="M137.389 16.7694C137.977 16.7694 138.463 16.3362 138.463 15.7641C138.463 15.192 137.979 14.7588 137.389 14.7588C136.817 14.7588 136.332 15.192 136.332 15.7641C136.332 16.3362 136.818 16.7694 137.389 16.7694ZM136.645 26.8314H138.151V18.7434H136.645V26.8314Z" fill="#210F59"/>
    <path d="M144.217 26.9868C145.482 26.9868 146.59 26.5024 147.299 25.7055L146.347 24.7185C145.844 25.2376 145.117 25.5666 144.269 25.5666C142.676 25.5666 141.393 24.4407 141.393 22.7792C141.393 21.1159 142.675 19.9918 144.269 19.9918C145.117 19.9918 145.844 20.3208 146.347 20.8399L147.299 19.8529C146.59 19.0742 145.48 18.5716 144.217 18.5716C141.898 18.5716 139.871 20.2166 139.871 22.7792C139.871 25.3418 141.898 26.9868 144.217 26.9868Z" fill="#210F59"/>
    <path d="M151.229 27.0051C152.909 27.0051 154.363 26.0875 154.363 24.5814C154.363 23.6639 153.93 22.6586 152.251 22.2436L151.055 21.9494C150.536 21.8287 150.017 21.5345 150.017 20.9788C150.017 20.3555 150.536 19.8876 151.317 19.8876C151.956 19.8876 152.598 20.3025 152.616 20.9258H154.071C154.071 19.2972 152.651 18.5698 151.284 18.5698C149.655 18.5698 148.513 19.5915 148.513 20.9258C148.513 22.2254 149.291 22.8834 150.642 23.2471L151.75 23.5067C152.389 23.6456 152.857 23.9563 152.857 24.5631C152.857 25.2211 152.251 25.6891 151.229 25.6891C150.242 25.6891 149.637 25.117 149.618 24.4242H148.215C148.284 26.0875 149.774 27.0051 151.229 27.0051Z" fill="#210F59"/>
</svg>
