<svg width="20" height="19" viewBox="0 0 20 19" fill="none" xmlns="http://www.w3.org/2000/svg">
<rect x="0.75" y="0.25" width="18.5" height="18.5" rx="9.25" fill="#F9B744"/>
<rect x="0.75" y="0.25" width="18.5" height="18.5" rx="9.25" stroke="#F9B744" stroke-width="0.5"/>
<path d="M5.57415 10.6675C5.38405 9.43188 5.19396 8.19629 5.00387 6.96066C4.96171 6.68676 5.27337 6.49995 5.49505 6.66623C6.0873 7.11041 6.67952 7.55457 7.27177 7.99876C7.46677 8.14501 7.74459 8.09741 7.87977 7.8946L9.35893 5.67585C9.51524 5.44138 9.85974 5.44138 10.0161 5.67585L11.4952 7.8946C11.6304 8.09741 11.9082 8.14498 12.1032 7.99876C12.6955 7.55457 13.2877 7.11041 13.8799 6.66623C14.1016 6.49995 14.4133 6.68676 14.3711 6.96066C14.1811 8.19629 13.991 9.43188 13.8009 10.6675H5.57415Z" fill="white"/>
<path d="M13.372 12.7241H6.00312C5.76625 12.7241 5.57422 12.5321 5.57422 12.2952V11.353H13.8009V12.2952C13.8009 12.5321 13.6089 12.7241 13.372 12.7241Z" fill="white"/>
</svg>
