<svg width="20" height="20" viewBox="0 0 20 20" fill="none" xmlns="http://www.w3.org/2000/svg">
<path d="M8.73536 1.9375C8.96583 1.70703 9.23145 1.55079 9.53614 1.46485C9.8252 1.38282 10.3408 1.41016 10.6338 1.52344C10.8877 1.61719 11.208 1.84375 11.3721 2.04297C11.501 2.19922 19.6416 15.6875 19.8057 16.0156C20.2744 16.9531 19.833 18.082 18.8408 18.4844L18.6143 18.5742H10.001H1.3877L1.16114 18.4844C0.180672 18.0859 -0.272453 16.9609 0.184578 16.0352C0.239266 15.9258 2.1377 12.7578 4.40723 8.98828C7.64942 3.61328 8.57911 2.09766 8.73536 1.9375Z" fill="#FFA800"/>
<path d="M9.64844 6.82024C9.44141 6.88665 9.33203 6.96868 9.22266 7.15227C9.14844 7.27337 9.14062 7.34759 9.14062 7.89055C9.14062 8.22259 9.16797 9.1093 9.19922 9.86321C9.23438 10.6132 9.27344 11.5507 9.28906 11.9413C9.32031 12.7187 9.32813 12.746 9.58984 12.8827C9.77344 12.9804 10.2148 12.9687 10.418 12.8593C10.6719 12.7265 10.6914 12.664 10.7227 11.7577C10.7344 11.3163 10.7734 10.4218 10.8047 9.76555C10.8711 8.31243 10.875 7.33196 10.8164 7.21477C10.6211 6.83587 10.125 6.6679 9.64844 6.82024Z" fill="white"/>
<path d="M9.79296 13.8322C9.22655 13.969 8.93749 14.6135 9.20311 15.1486C9.41796 15.5861 9.92577 15.7736 10.3516 15.5822C10.7266 15.4143 10.9141 15.1252 10.9141 14.7268C10.9141 14.4455 10.8281 14.2385 10.6367 14.0549C10.4336 13.8596 10.0703 13.7658 9.79296 13.8322Z" fill="white"/>
</svg>
