<svg width="188" height="118" viewBox="0 0 188 118" fill="none" xmlns="http://www.w3.org/2000/svg">
<path fill-rule="evenodd" clip-rule="evenodd" d="M93.699 86.6367C145.411 86.6367 187.398 91.0843 187.398 96.5612C187.398 102.038 145.411 106.486 93.699 106.486C41.9867 106.486 0 102.042 0 96.5612C0 91.08 41.9867 86.6367 93.699 86.6367Z" fill="#E1D7FF"/>
<g filter="url(#filter0_d_234_32774)">
<rect x="81.0171" y="14" width="80" height="80" rx="40" fill="#F6F6F6"/>
<rect x="79.0171" y="12" width="84" height="84" rx="42" stroke="white" stroke-width="4"/>
<path d="M96.7639 61.6748H114.277C116.459 64.9969 120.204 67.2117 124.453 67.2117H96.7639C95.2433 67.2117 94.0103 65.9721 94.0103 64.4433C94.0103 62.9145 95.2433 61.6748 96.7639 61.6748Z" fill="#E63060"/>
<path d="M91.2781 57.7566C89.7575 57.7566 88.5245 56.517 88.5245 54.9882C88.5245 53.4594 89.7575 52.2197 91.2781 52.2197H112.625C112.426 53.1056 112.316 54.0346 112.316 54.9882C112.316 55.9418 112.426 56.8707 112.625 57.7566H91.2781Z" fill="#A735DF"/>
<path d="M85.7707 48.2976C84.2501 48.2976 83.0171 47.058 83.0171 45.5292C83.0171 44.0004 84.2501 42.7607 85.7707 42.7607H124.453C124.365 42.7607 124.255 42.7607 124.166 42.7607H124.099C124.01 42.7607 123.921 42.7607 123.811 42.7607H123.79C123.701 42.7607 123.612 42.7607 123.526 42.7823H123.484C123.395 42.7823 123.306 42.8038 123.196 42.8038H123.153C123.064 42.8038 123 42.8253 122.911 42.8253H122.869C122.78 42.8469 122.691 42.8469 122.605 42.8684H122.538C122.361 42.8899 122.186 42.9361 122.009 42.9576L121.942 42.9791C121.853 43.0007 121.789 43.0222 121.7 43.0222L121.633 43.0437L121.434 43.0868L121.366 43.1083C121.278 43.1299 121.213 43.1514 121.125 43.176L121.082 43.1975C121.014 43.2191 120.95 43.2406 120.883 43.2652L120.794 43.2867L120.595 43.3544L120.507 43.376C120.418 43.3975 120.354 43.419 120.265 43.4652L120.222 43.4867L120.045 43.5544L119.956 43.5974C119.889 43.619 119.824 43.6651 119.757 43.6866L119.668 43.7297L119.515 43.7974L119.427 43.8404C119.359 43.862 119.295 43.9081 119.228 43.9296L119.139 43.9727L119.007 44.0404L118.854 44.1296L118.723 44.1973L118.613 44.2649L118.503 44.3326L118.35 44.4218L118.261 44.4895L118.151 44.5572L117.998 44.6464L117.888 44.714L117.82 44.7571C117.689 44.8463 117.533 44.957 117.401 45.0463L117.38 45.0678C117.291 45.1355 117.202 45.2001 117.113 45.2677L117.092 45.2893C116.96 45.4 116.804 45.5107 116.673 45.6215L116.651 45.643C115.77 46.3966 114.978 47.2825 114.338 48.2792H85.8381L85.7707 48.2976Z" fill="#6433F9"/>
<path d="M137.298 54.9875C137.298 47.8572 131.549 42.0742 124.453 42.0742C117.358 42.0742 111.609 47.8541 111.609 54.9875C111.609 62.1209 117.358 67.9008 124.453 67.9008C131.549 67.9008 137.298 62.1178 137.298 54.9875ZM113.549 54.9875C113.549 48.9184 118.438 44.0244 124.453 44.0244C130.49 44.0244 135.358 48.94 135.358 54.9875C135.358 61.0566 130.469 65.9506 124.453 65.9506C118.417 65.9506 113.549 61.0319 113.549 54.9875Z" fill="#210F59"/>
<path d="M148.355 38.0233L127.076 25.7313C125.402 24.7562 123.484 24.7562 121.789 25.7313L100.509 38.0233C100.31 38.134 100.111 38.2663 99.9367 38.3985H110.092L124.343 30.1824C124.365 30.1824 124.432 30.1393 124.453 30.1393C124.475 30.1393 124.542 30.1609 124.564 30.1824L145.843 42.4743C145.865 42.4743 145.911 42.5174 145.932 42.542C145.953 42.585 145.953 42.6527 145.953 42.6742V67.3258C145.953 67.3688 145.953 67.4365 145.932 67.458C145.932 67.4796 145.865 67.5011 145.843 67.5257L124.564 79.8176C124.542 79.8176 124.475 79.8607 124.453 79.8607C124.432 79.8607 124.365 79.8392 124.343 79.8176L110.092 71.6015H99.9337C100.111 71.7337 121.785 84.2687 121.785 84.2687C123.459 85.2438 125.377 85.2438 127.072 84.2687L148.352 71.9768C150.047 70.9801 151.017 69.2975 151.017 67.3258V42.6742C151.02 40.7025 150.053 38.9953 148.355 38.0233Z" fill="#210F59"/>
<path d="M124.453 60.103C127.264 60.103 129.542 57.8128 129.542 54.9875C129.542 52.1623 127.264 49.8721 124.453 49.8721C121.643 49.8721 119.365 52.1623 119.365 54.9875C119.365 57.8128 121.643 60.103 124.453 60.103Z" fill="#210F59"/>
</g>
<path d="M99.1206 57.0078H33.1787V91.4846H99.1206V57.0078Z" fill="#EEE8D3"/>
<path d="M99.1206 57.0078H33.1787V91.4846H99.1206V57.0078Z" fill="#E0D6FE"/>
<path d="M70.9234 61.0742H38.4031V85.3124H70.9234V61.0742Z" fill="#6433F9"/>
<path d="M69.8592 60.2812H39.4695V82.933H69.8592V60.2812Z" fill="#DDD3F1"/>
<path d="M55.3522 60.0254H53.9764V84.3277H55.3522V60.0254Z" fill="#6433F9"/>
<path d="M73.0303 85.012C73.0303 85.677 72.4917 86.2174 71.8267 86.2174H37.6504C36.9854 86.2174 36.4468 85.6789 36.4468 85.012C36.4468 84.3452 36.9854 83.8066 37.6504 83.8066H71.8249C72.4899 83.8066 73.0285 84.3452 73.0285 85.012H73.0303Z" fill="#6433F9"/>
<path d="M102.282 97.0563H30.319V91.7126C30.319 90.3405 31.4309 89.2285 32.8031 89.2285H99.7983C101.17 89.2285 102.282 90.3405 102.282 91.7126V97.0563Z" fill="#210F59"/>
<path d="M94.002 63.7852H78.5131V94.9498H94.002V63.7852Z" fill="#C9BAE8"/>
<path d="M101.909 48.201C101.909 46.0815 100.19 44.3613 98.0691 44.3613H34.6883C32.5669 44.3613 30.8486 46.0797 30.8486 48.201V62.2024H101.909V48.201Z" fill="#A735DF"/>
<path d="M102.134 54L110.189 62.2033H22.8687L30.8485 54H102.134Z" fill="#F9863A"/>
<path d="M93.9728 63.8691H89.0046V93.6415H93.9728V63.8691Z" fill="#6433F9"/>
<path d="M83.5015 63.7852H78.5333V93.5557H83.5015V63.7852Z" fill="#6433F9"/>
<g opacity="0.27">
<path d="M48.6309 65.2207H41.915V65.228H35.1992V68.0913C35.1992 69.9471 36.7032 71.4511 38.5571 71.4511C40.411 71.4511 41.9041 69.9581 41.915 68.1133C41.9297 69.9544 43.4264 71.4437 45.273 71.4437C47.1195 71.4437 48.6199 69.9507 48.6309 68.106C48.6419 69.9507 50.1404 71.4437 51.9888 71.4437C53.8372 71.4437 55.3485 69.9397 55.3485 68.084V65.2207H48.6309Z" fill="#9478CF"/>
<path d="M68.6172 65.2427H62.0662V65.2207H55.3486V68.084C55.3486 69.9379 56.8526 71.4437 58.7065 71.4437C60.3167 71.4437 61.6614 70.3098 61.9893 68.7984C62.308 70.3208 63.6582 71.4657 65.2758 71.4657C67.0765 71.4657 68.5421 70.0478 68.6263 68.2672C68.7143 70.0442 70.178 71.4602 71.9769 71.4602C73.7759 71.4602 75.3367 69.9544 75.3367 68.1005V65.2372H68.619V65.2445L68.6172 65.2427Z" fill="#9478CF"/>
<path d="M88.7738 65.2207H82.058V65.228H75.344V68.0913C75.344 69.9471 76.848 71.4511 78.7019 71.4511C80.5558 71.4511 82.0488 69.9599 82.0598 68.1151C82.0763 69.9562 83.5711 71.4437 85.4159 71.4437C87.2606 71.4437 88.7628 69.9507 88.7738 68.106C88.7866 69.9507 90.2833 71.4437 92.1317 71.4437C93.9801 71.4437 95.4915 69.9397 95.4915 68.084V65.2207H88.7738Z" fill="#9478CF"/>
<path d="M33.1786 65.2344V71.1753C34.3638 70.6569 35.1919 69.4753 35.1919 68.0977V65.2344H33.1786Z" fill="#9478CF"/>
<path d="M99.1114 65.2207H95.4915V68.084C95.4915 69.9379 96.9955 71.4437 98.8494 71.4437C98.9374 71.4437 99.0235 71.4382 99.1096 71.4309V65.2207H99.1114Z" fill="#9478CF"/>
</g>
<path d="M85.0714 80.9464C85.0714 81.2469 84.8296 81.4887 84.5273 81.4887H80.4678C80.1674 81.4887 79.9237 81.245 79.9237 80.9464C79.9237 80.6478 80.1674 80.4023 80.4678 80.4023H84.5273C84.8278 80.4023 85.0714 80.646 85.0714 80.9464Z" fill="white"/>
<path d="M81.4498 80.9468C81.4498 81.5697 80.9442 82.0753 80.3213 82.0753C79.6985 82.0753 79.191 81.5697 79.191 80.9468C79.191 80.324 79.6966 79.8184 80.3213 79.8184C80.946 79.8184 81.4498 80.324 81.4498 80.9468Z" fill="white"/>
<path d="M29.6538 65.0634C29.6538 66.9209 28.1479 68.4249 26.2922 68.4249C24.4364 68.4249 22.9306 66.9209 22.9306 65.0634V62.1982H29.6556V65.0634H29.6538Z" fill="#DF9DFF"/>
<path d="M36.3604 65.0556C36.3604 66.9131 34.8546 68.4171 32.997 68.4171C31.1394 68.4171 29.6354 66.9113 29.6354 65.0556V62.1904H36.3586V65.0556H36.3604Z" fill="#CB66FD"/>
<path d="M43.0927 65.0457C43.0927 66.9014 41.5869 68.4072 39.7293 68.4072C37.8717 68.4072 36.3696 66.9014 36.3696 65.0457V62.1787H43.0927V65.0457Z" fill="#DF9DFF"/>
<path d="M49.8123 65.036C49.8123 66.8936 48.3065 68.3994 46.4507 68.3994C44.595 68.3994 43.0892 66.8954 43.0892 65.036V62.1709H49.8123V65.036Z" fill="#CB66FD"/>
<path d="M56.5336 65.036C56.5336 66.8936 55.0277 68.3994 53.172 68.3994C51.3163 68.3994 49.8104 66.8954 49.8104 65.036V62.1709H56.5336V65.036Z" fill="#DF9DFF"/>
<path d="M63.2587 65.036C63.2587 66.8936 61.7547 68.3994 59.8972 68.3994C58.0396 68.3994 56.5356 66.8954 56.5356 65.036V62.1709H63.2587V65.036Z" fill="#CB66FD"/>
<path d="M69.8319 65.0634C69.8319 66.9209 68.3261 68.4249 66.4685 68.4249C64.6109 68.4249 63.1069 66.9209 63.1069 65.0634V62.1982H69.8301V65.0634H69.8319Z" fill="#DF9DFF"/>
<path d="M76.5405 65.0556C76.5405 66.9131 75.0346 68.4171 73.1789 68.4171C71.3232 68.4171 69.8173 66.9113 69.8173 65.0556V62.1904H76.5405V65.0556Z" fill="#CB66FD"/>
<path d="M83.271 65.0457C83.271 66.9014 81.7652 68.4072 79.9094 68.4072C78.0537 68.4072 76.5479 66.9014 76.5479 65.0457V62.1787H83.271V65.0457Z" fill="#DF9DFF"/>
<path d="M89.9923 65.036C89.9923 66.8936 88.4865 68.3994 86.6307 68.3994C84.775 68.3994 83.2692 66.8954 83.2692 65.036V62.1709H89.9923V65.036Z" fill="#CB66FD"/>
<path d="M96.7136 65.036C96.7136 66.8936 95.2078 68.3994 93.3521 68.3994C91.4963 68.3994 89.9905 66.8954 89.9905 65.036V62.1709H96.7136V65.036Z" fill="#DF9DFF"/>
<path d="M103.437 65.036C103.437 66.8936 101.931 68.3994 100.075 68.3994C98.2193 68.3994 96.7135 66.8954 96.7135 65.036V62.1709H103.437V65.036Z" fill="#CB66FD"/>
<path d="M110.165 65.0585C110.165 66.9161 108.659 68.4201 106.804 68.4201C104.948 68.4201 103.442 66.9161 103.442 65.0585V62.1934H110.165V65.0585Z" fill="#DF9DFF"/>
<path d="M98.9703 95.3981C98.9703 94.4015 98.1624 93.5918 97.164 93.5918H75.1828C74.1844 93.5918 73.3765 94.3997 73.3765 95.3981V96.9039H98.9703V95.3981Z" fill="#6433F9"/>
<path d="M103.442 62.1959L96.3617 53.998H102.134L110.165 62.1959H103.442Z" fill="#CB66FD"/>
<path d="M103.442 62.1959L96.3617 53.998H90.9886L96.7134 62.1739L103.442 62.1959Z" fill="#A735DF"/>
<path d="M89.9922 62.1764L85.5919 53.9785L90.9888 54.0005L96.7135 62.1764H89.9922Z" fill="#CB66FD"/>
<path d="M89.9921 62.1764L85.5918 53.9785H79.9348L83.2707 62.1837L89.9921 62.1764Z" fill="#A735DF"/>
<path d="M76.5403 62.191L74.4519 53.9932L79.9349 53.9785L83.2708 62.1837L76.5403 62.191Z" fill="#CB66FD"/>
<path d="M76.5402 62.19L74.4518 53.9922H68.9872L69.8317 62.1974L76.5402 62.19Z" fill="#A735DF"/>
<path d="M63.1085 62.1974L63.5097 53.9995L68.9872 53.9922L69.8317 62.1974H63.1085Z" fill="#CB66FD"/>
<path d="M63.1086 62.1979L63.5098 54L58.1973 53.9707L56.5339 62.1759L63.1086 62.1979Z" fill="#A735DF"/>
<path d="M29.6539 62.1959L36.3661 53.998H30.7769L22.9308 62.1959H29.6539Z" fill="#CB66FD"/>
<path d="M29.6541 62.1959L36.3662 53.998H41.7411L36.3827 62.1739L29.6541 62.1959Z" fill="#A735DF"/>
<path d="M43.1041 62.1764L47.1362 53.9785L41.7412 54.0005L36.3828 62.1764H43.1041Z" fill="#CB66FD"/>
<path d="M43.1039 62.1764L47.1359 53.9785H52.7947L49.8252 62.1837L43.1039 62.1764Z" fill="#A735DF"/>
<path d="M56.5557 62.1905L58.1971 53.9707L52.7948 53.978L49.8253 62.1832L56.5557 62.1905Z" fill="#CB66FD"/>
<defs>
<filter id="filter0_d_234_32774" x="62.0171" y="0" width="118" height="118" filterUnits="userSpaceOnUse" color-interpolation-filters="sRGB">
<feFlood flood-opacity="0" result="BackgroundImageFix"/>
<feColorMatrix in="SourceAlpha" type="matrix" values="0 0 0 0 0 0 0 0 0 0 0 0 0 0 0 0 0 0 127 0" result="hardAlpha"/>
<feOffset dy="5"/>
<feGaussianBlur stdDeviation="7.5"/>
<feComposite in2="hardAlpha" operator="out"/>
<feColorMatrix type="matrix" values="0 0 0 0 0 0 0 0 0 0 0 0 0 0 0 0 0 0 0.05 0"/>
<feBlend mode="normal" in2="BackgroundImageFix" result="effect1_dropShadow_234_32774"/>
<feBlend mode="normal" in="SourceGraphic" in2="effect1_dropShadow_234_32774" result="shape"/>
</filter>
</defs>
</svg>
