<svg width="248" height="55" viewBox="0 0 248 55" fill="none" xmlns="http://www.w3.org/2000/svg">
<path d="M16.5086 42.485L24.8392 42.4862L24.8443 49.5621L16.6659 49.561C15.3721 49.007 14.3064 48.2193 13.5323 47.2962C13.8355 45.7704 14.9626 43.777 16.5086 42.485Z" fill="#6F4BBB"/>
<path d="M16.9905 43.0758C15.8882 44.1832 14.7987 45.5244 14.4321 47.0502C15.092 47.8133 15.9546 48.4041 16.8806 48.8349L23.8798 48.8359L23.8756 43.0768L16.9905 43.0758Z" fill="#7D5DC2"/>
<path d="M15.0658 45.4887C14.8505 45.784 14.4456 46.9776 14.4203 47.0514C15.0802 47.8144 15.9428 48.4052 16.8687 48.836L20.5965 48.8365L20.5943 45.7479C18.7558 45.7353 16.9172 45.6489 15.0658 45.4887Z" fill="#9478CF"/>
<path d="M16.4745 48.0618C17.3369 48.3449 17.743 48.8741 17.8703 49.5632L14.8653 49.5628C15.0678 48.9722 15.6378 48.2463 16.4745 48.0618Z" fill="#5F3EA7"/>
<path d="M16.4618 48.3819C15.9927 48.5049 15.5999 48.8617 15.3466 49.2678L16.4751 49.268L16.4745 48.3819L16.4618 48.3819Z" fill="#6F4BBB"/>
<path d="M19.4413 47.8894C20.5953 48.1971 21.1537 48.9477 21.2936 49.5629L17.2871 49.5624C17.5529 48.9104 18.3637 48.0369 19.4413 47.8894Z" fill="#5F3EA7"/>
<path d="M19.4153 48.197C18.7813 48.3077 18.1603 48.7383 17.793 49.2674L19.4414 49.2677L19.4406 48.197L19.4153 48.197Z" fill="#6F4BBB"/>
<path d="M34.8277 42.4842L26.4971 42.4831L26.5022 49.559L34.6807 49.5601C35.9736 49.0065 37.0381 48.2191 37.8109 47.2963C37.5182 45.7703 36.3882 43.7766 34.8277 42.4842Z" fill="#6F4BBB"/>
<path d="M34.3592 43.0748C35.4631 44.1825 36.5546 45.5239 36.9234 47.0499C36.2646 47.8128 35.4028 48.4033 34.4775 48.8339L27.4783 48.833L27.4741 43.0739L34.3592 43.0748Z" fill="#7D5DC2"/>
<path d="M36.2746 45.4874C36.4903 45.7827 36.8969 46.9764 36.9224 47.0502C36.2636 47.813 35.4018 48.4036 34.4765 48.8341L30.7488 48.8336L30.7465 45.745C32.585 45.733 34.4362 45.6471 36.2746 45.4874Z" fill="#9478CF"/>
<path d="M34.8803 48.0596C34.0183 48.3425 33.613 48.8716 33.4867 49.5606L36.4917 49.561C36.2884 48.9703 35.7173 48.2443 34.8803 48.0596Z" fill="#5F3EA7"/>
<path d="M34.8943 48.3794C35.3635 48.5025 35.7569 48.8595 36.0108 49.2656L34.8822 49.2655L34.8816 48.3793L34.8943 48.3794Z" fill="#6F4BBB"/>
<path d="M31.9146 47.8878C30.761 48.1952 30.2037 48.9457 30.0647 49.5609L34.0712 49.5614C33.8045 48.9092 32.9924 48.0355 31.9146 47.8878Z" fill="#5F3EA7"/>
<path d="M31.927 48.1951C32.561 48.3059 33.1827 48.7367 33.5508 49.2659L31.9024 49.2657L31.9016 48.1951L31.927 48.1951Z" fill="#6F4BBB"/>
<path d="M3.40265 44.665C3.45433 45.9574 3.75942 46.9667 4.34321 47.5945C5.2562 47.5207 6.02903 46.5362 6.38348 45.687C5.85021 44.7885 4.81005 44.3822 3.40265 44.665Z" fill="#5F3EA7"/>
<path d="M3.87233 45.022C3.89823 45.7729 4.10174 46.5485 4.52074 47.1148L4.87445 45.0714C4.55728 44.9975 4.21479 44.9974 3.87233 45.022Z" fill="#6F4BBB"/>
<path d="M5.70996 45.3542C5.79957 46.5111 5.95249 47.5327 6.70143 48.5666C8.04539 48.2837 9.09738 47.5577 9.54036 46.4009C8.87988 44.9362 7.3073 44.7391 5.70996 45.3542Z" fill="#5F3EA7"/>
<path d="M6.89159 48.0747L7.79022 45.5022C7.28282 45.4037 6.71214 45.4775 6.16689 45.6497C6.2563 46.5237 6.40907 47.2992 6.89159 48.0747Z" fill="#6F4BBB"/>
<path d="M10.1222 46.3016C10.3514 47.6185 11.6326 48.2709 12.2793 48.2341C12.5706 47.7542 12.8618 47.1265 12.8613 46.3758L12.303 45.9203C11.4532 45.7602 10.553 45.8216 10.1222 46.3016Z" fill="#5F3EA7"/>
<path d="M12.0506 47.791C12.304 47.4217 12.4684 46.8555 12.4934 46.3139L11.5801 46.166L12.0506 47.791Z" fill="#6F4BBB"/>
<path d="M12.8661 28.6487L12.8788 46.3622C9.7208 46.7433 6.04235 46.6198 3.40266 44.6499C3.45221 43.0004 3.61594 41.3879 3.91924 39.8492C4.48801 37.0674 5.56432 34.5317 7.42737 32.4517C9.07496 30.6178 10.7232 29.744 12.8661 28.6487Z" fill="#6F4BBB"/>
<path d="M4.29022 44.2439C5.94007 45.4751 9.89787 45.8572 11.9779 45.5989L11.9668 30.0764C6.60326 32.8454 4.47596 37.9536 4.29022 44.2439Z" fill="#9478CF"/>
<path d="M4.2906 44.2451C5.12836 44.873 6.54954 45.2671 8.03404 45.4888C8.24695 41.5372 8.21742 35.5913 7.30288 34.0155C5.31299 36.7605 4.41468 40.2688 4.2906 44.2451Z" fill="#A58DD4"/>
<path d="M8.02813 41.6113C8.72559 41.6114 9.28395 42.153 9.28445 42.83C9.28494 43.5069 8.72738 44.0483 8.02992 44.0482C7.33246 44.0481 6.7741 43.5065 6.7736 42.8296C6.7731 42.1527 7.33067 41.6112 8.02813 41.6113Z" fill="#9478CF"/>
<path d="M11.0001 14.8307C10.6306 12.529 11.0356 11.3352 11.5159 9.23056C13.0259 10.4493 13.9904 11.3233 15.8298 12.2221C16.196 9.99434 17.0061 7.88977 18.184 5.92064L18.8806 4.76377C21.5706 6.73346 23.8671 8.30924 25.6444 10.9188C27.4179 8.30975 29.7121 6.73464 32.3992 4.76573L33.0975 5.92279C34.2784 7.89227 35.0915 9.99708 35.4609 12.2249C37.2991 11.3267 38.2622 10.4529 39.7705 9.23465C40.2666 11.3271 40.6606 12.5211 40.2945 14.8349L43.6177 15.7216C42.9645 24.1403 42.2976 31.3158 41.4541 39.7345C41.3408 40.8914 41.2149 42.0607 41.0889 43.2176C41.0511 43.5499 40.6331 44.153 38.8576 44.165C30.1839 44.7299 21.1039 44.7286 12.4419 44.1612C10.6665 44.1363 10.2476 43.5455 10.2093 43.2132C10.0816 42.0316 9.95391 40.85 9.83891 39.6684C9.78783 39.1883 9.73676 38.7083 9.68567 38.216C8.95731 30.7079 8.24166 23.2244 7.64011 15.7041L10.962 14.8184L11.0001 14.8184L11.0001 14.8307Z" fill="#6F4BBB"/>
<path d="M19.2491 6.52404C17.8178 8.887 17.0207 11.3854 16.8704 13.9701C15.399 13.4284 13.7244 12.5419 12.2778 11.3971C11.9871 12.6524 12.0517 14.2894 12.4459 15.7172C11.2286 15.9878 10.1002 16.2708 8.97174 16.5906C9.58613 24.3202 10.1625 32.0498 10.9544 39.7548C11.031 40.518 11.1971 42.1673 11.2864 42.9304C11.6036 43.1028 12.263 43.1028 12.5294 43.1152C21.2547 43.6826 30.0811 43.6839 38.8056 43.119C39.0846 43.0944 39.7313 43.0945 40.0482 42.9346C40.1365 42.1838 40.3001 40.4976 40.3756 39.7591C41.1435 32.042 41.7212 24.3126 42.3243 16.5954C41.1954 16.2753 40.0665 15.992 38.8489 15.7211C39.241 14.2934 39.3032 12.6564 39.0106 11.4009C37.5784 12.5577 35.8924 13.4313 34.4217 13.9727C34.2677 11.4002 33.4669 8.88926 32.0321 6.52589C29.1169 8.66709 27.2032 10.2176 25.6456 13.3191C24.0708 10.2172 22.1674 8.66608 19.2364 6.52404L19.2491 6.52404V6.52404Z" fill="#9478CF"/>
<path d="M19.2532 6.52363C19.4713 9.95812 20.362 13.7743 22.0376 15.3748C19.8049 15.1406 18.6123 14.882 16.8865 13.9708C15.402 13.429 13.7269 12.5425 12.2801 11.3975C13.0555 13.6626 13.805 15.2753 15.341 16.8511C14.0344 16.8263 13.2857 16.4077 12.448 15.7183C11.2305 15.9889 10.1017 16.2719 8.97302 16.5918C9.58742 24.3225 10.1638 32.0532 10.9557 39.7592C11.0324 40.5225 11.1985 42.172 11.2878 42.9352C11.6051 43.1076 12.2647 43.1077 12.5311 43.12C16.8949 43.4037 21.2839 43.5397 25.6729 43.5402L25.6696 38.9363C18.8962 39.4525 12.6986 29.0868 19.81 22.2803L18.3898 23.0434C18.2114 21.9478 18.5656 20.5814 19.0342 19.4736C19.9586 17.3195 22.4183 15.7195 25.6527 15.3383L25.6513 13.3072C24.0761 10.2049 22.185 8.65361 19.2532 6.52363Z" fill="#A58DD4"/>
<path d="M35.9579 16.847C37.4787 15.2717 38.2385 13.647 39.0104 11.3823C39.3031 12.6379 39.2408 14.2749 38.8487 15.7027C38.0122 16.4042 37.2642 16.8226 35.9579 16.847ZM33.3829 16.2066C34.1438 16.2067 34.753 16.8099 34.7536 17.5362C34.7541 18.2747 34.1331 18.8654 33.3848 18.8653C32.6238 18.8652 32.0146 18.262 32.0141 17.5358C32.0136 16.8096 32.6346 16.2065 33.3829 16.2066ZM38.3947 19.2107C38.9147 19.2108 39.3462 19.6293 39.3466 20.134C39.3469 20.6387 38.916 21.0571 38.3961 21.057C37.8761 21.057 37.4445 20.6384 37.4442 20.1337C37.4438 19.6168 37.862 19.2106 38.3947 19.2107ZM29.2731 15.3567C30.946 13.7691 31.831 9.95347 32.0441 6.507C33.479 8.87051 34.2798 11.3693 34.4339 13.9542C32.697 14.8648 31.505 15.1232 29.2731 15.3567Z" fill="#7D5DC2"/>
<path d="M13.2269 18.1439C14.4699 18.1441 15.4853 19.129 15.4862 20.3353C15.487 21.5416 14.473 22.5262 13.23 22.5261C11.987 22.5259 10.9716 21.541 10.9707 20.3347C10.9699 19.1284 11.9838 18.1437 13.2269 18.1439ZM11.7731 24.8647C12.2678 24.8647 12.6739 25.2587 12.6743 25.7388C12.6746 26.2188 12.269 26.6127 11.7743 26.6126C11.2797 26.6126 10.8735 26.2186 10.8732 25.7385C10.8728 25.2585 11.2784 24.8646 11.7731 24.8647Z" fill="#9478CF"/>
<path d="M25.8018 19.3394C31.1659 19.3402 35.5187 23.5624 35.5225 28.7685C35.5263 33.9747 31.1798 38.1956 25.8157 38.1948C20.4516 38.194 16.0989 33.9718 16.0951 28.7657C16.0912 23.5595 20.4377 19.3386 25.8018 19.3394Z" fill="#D3E8EF"/>
<path d="M16.348 26.6237C17.195 23.0793 20.1096 20.2982 23.7865 19.548C27.7934 19.2532 31.0418 21.9736 31.0445 25.6782C31.0472 29.4073 27.7526 32.7176 23.7076 33.0616C19.65 33.4056 16.3636 30.6729 16.3609 26.9314C16.3481 26.8329 16.3481 26.7222 16.348 26.6237Z" fill="white"/>
<path d="M28.7971 25.1489C31.8279 25.1493 34.2771 27.5251 34.2792 30.4666C34.2814 33.4081 31.8357 35.7832 28.8049 35.7827C25.7741 35.7823 23.3249 33.4065 23.3228 30.465C23.3206 27.5358 25.7663 25.1484 28.7971 25.1489Z" fill="#EA4E64"/>
<path d="M28.7974 25.1487C29.5963 25.1489 30.3573 25.309 31.0423 25.6168L31.0424 25.6783C31.045 29.3091 27.9278 32.5456 23.997 33.0374C23.5652 32.2742 23.311 31.4003 23.3103 30.4649C23.3081 27.5234 25.7539 25.1483 28.7974 25.1487Z" fill="#EC6277"/>
<path d="M28.7987 27.0194C30.7643 27.0197 32.3632 28.5584 32.3647 30.4784C32.3661 32.3861 30.7821 33.9366 28.8038 33.9363C26.8382 33.936 25.2393 32.3973 25.2379 30.4773C25.2365 28.5697 26.8205 27.0191 28.7987 27.0194Z" fill="#232323"/>
<path d="M28.7979 27.0194C29.5207 27.0195 30.193 27.2289 30.7512 27.5859C30.068 29.7889 28.2687 31.6594 25.9613 32.5452C25.5171 31.9667 25.2502 31.2405 25.2497 30.4774C25.2356 28.5697 26.8196 27.0191 28.7979 27.0194Z" fill="#323232"/>
<path d="M24.9194 26.4901C26.1621 26.4903 27.1646 27.4627 27.1655 28.6689C27.1664 29.875 26.1653 30.8472 24.9226 30.847C23.6798 30.8468 22.6773 29.8744 22.6764 28.6682C22.6755 27.4621 23.6766 26.4899 24.9194 26.4901Z" fill="white"/>
<path d="M14.3873 33.0901C17.1506 31.6136 21.3117 34.1987 21.0105 38.3831C18.3723 37.5951 15.5174 35.1825 14.3873 33.0901Z" fill="#6F4BBB"/>
<path d="M14.3872 33.0902C16.898 33.1398 19.676 34.5186 21.0103 38.3832C17.8526 38.0381 14.909 35.6994 14.3872 33.0902Z" fill="#A58DD4"/>
<path d="M15.6951 36.5866C16.0628 36.4636 17.7874 36.5008 17.9271 36.6854C18.0921 36.907 17.6364 38.0392 17.1551 38.7776C16.5206 38.2852 16.0002 37.6082 15.6951 36.5866Z" fill="#7D5DC2"/>
<path d="M15.188 36.1804C15.5557 36.0574 17.2804 36.0946 17.42 36.2792C17.585 36.5008 17.1293 37.633 16.648 38.3714C16.0136 37.879 15.4931 37.202 15.188 36.1804Z" fill="white"/>
<path d="M15.7069 35.602C15.8227 37.9771 19.0198 40.2665 22.0497 39.4178C22.215 40.107 21.7335 40.5131 21.239 40.6114C18.4876 40.8449 15.8363 39.1585 14.9598 37.0048C14.7057 36.414 14.9842 35.6757 15.7069 35.602Z" fill="#6F4BBB"/>
<path d="M15.1897 40.0588C15.9515 41.4496 17.144 42.102 18.4502 42.3114C16.5868 43.1234 14.9375 42.0402 15.1897 40.0588Z" fill="#6F4BBB"/>
<path d="M16.4446 40.391C17.9412 41.2031 19.3614 41.4616 21.0095 41.3141C19.8056 42.089 17.4474 42.1749 16.4446 40.391Z" fill="#9478CF"/>
<path d="M29.1632 16.6651C26.1544 11.6194 18.2444 14.5594 19.0474 20.2201C21.0231 17.0455 24.8389 16.0123 29.1632 16.6651Z" fill="#5F3EA7"/>
<path d="M29.1623 16.6635C27.4614 13.8215 23.8859 13.6366 21.4907 15.1987C21.4785 15.8631 21.6817 16.3429 22.0497 16.7243C23.9888 15.8141 26.5243 15.4453 29.1623 16.6635Z" fill="#6F4BBB"/>
<path d="M44.9008 35.8587C48.0584 35.8591 50.6471 38.321 50.6494 41.398C50.6516 44.4749 48.0665 46.936 44.9089 46.9356C41.7513 46.9351 39.1626 44.4732 39.1603 41.3963C39.1581 38.3194 41.7432 35.8582 44.9008 35.8587Z" fill="#6F4BBB"/>
<path d="M44.9015 36.671C47.6152 36.6714 49.8106 38.7886 49.8125 41.3855C49.8144 43.9947 47.6221 46.099 44.9084 46.0986C42.1946 46.0982 39.9993 43.981 39.9974 41.3841C39.9954 38.7872 42.2004 36.6706 44.9015 36.671Z" fill="#9478CF"/>
<path d="M44.9016 36.6703C46.829 36.6706 48.491 37.7416 49.3037 39.2924C49.483 41.7538 46.3903 43.5625 44.3227 42.713C42.8005 41.9128 41.7468 40.3497 41.7455 38.5652C41.7453 38.2698 41.7705 37.9867 41.8337 37.7037C42.6828 37.0638 43.7477 36.6702 44.9016 36.6703Z" fill="#A58DD4"/>
<path d="M42.8999 40.6587C42.6711 39.9817 45.2833 39.1327 45.5248 39.8097L48.1176 47.331C48.3464 48.0081 45.7343 48.8571 45.4928 48.18L42.8999 40.6587Z" fill="#2B3039"/>
<path d="M46.6532 39.8956C45.6265 40.5109 44.7773 41.1138 44.1694 42.2338C45.0452 43.2677 46.1996 43.8341 47.4676 43.6866C48.4938 42.4313 47.9602 40.9912 46.6532 39.8956Z" fill="#5F3EA7"/>
<path d="M47.4539 41.6185C47.3014 41.1878 47.0222 40.7817 46.6668 40.3878C45.881 40.8799 45.2348 41.409 44.7408 42.1719C45.2861 42.2212 46.1355 42.086 47.4539 41.6185Z" fill="#6F4BBB"/>
<path d="M47.6437 42.912C46.617 43.5272 45.7678 44.1301 45.1599 45.2501C46.0357 46.284 47.1901 46.8504 48.4581 46.7029C49.4843 45.4476 48.9506 44.0075 47.6437 42.912Z" fill="#5F3EA7"/>
<path d="M48.4442 44.5118C48.2917 44.0811 48.0124 43.675 47.6571 43.2811C46.8713 43.7732 46.225 44.3023 45.731 45.0652C46.2763 45.1268 47.1258 44.9793 48.4442 44.5118Z" fill="#6F4BBB"/>
<path d="M42.2934 43.2075C43.2696 42.9738 44.1318 42.8262 45.1846 43.1217C45.3122 44.2295 44.9959 45.2386 44.1721 45.8785C42.8025 45.7676 42.2183 44.6105 42.2934 43.2075Z" fill="#5F3EA7"/>
<path d="M42.892 44.5487C42.7142 44.2041 42.6251 43.8103 42.5868 43.3796C43.3475 43.2075 44.0448 43.1337 44.8184 43.2938C44.5397 43.6506 43.9567 44.0566 42.892 44.5487Z" fill="#6F4BBB"/>
<path d="M40.3304 22.834C35.144 23.1163 31.178 27.4357 31.4734 32.4696C31.7687 37.5035 36.2226 41.3565 41.409 41.0741C46.5953 40.7918 50.5613 36.4724 50.266 31.4385C49.9706 26.4046 45.5294 22.5517 40.3304 22.834Z" fill="#393F4C"/>
<path d="M40.4071 23.9663C35.8675 24.2118 32.383 28.0021 32.6398 32.4206C32.8967 36.8268 36.8049 40.212 41.3573 39.9542C45.8969 39.7087 49.3814 35.9184 49.1246 31.4999C48.855 27.0937 44.9595 23.7085 40.4071 23.9663Z" fill="#D3E8EF"/>
<path d="M47.1481 35.9169C47.9843 34.6615 48.4398 33.1475 48.3498 31.5349C48.1573 28.3468 45.885 25.7492 42.8784 24.9487C42.6395 27.7059 42.3877 30.414 42.1234 33.1959C43.1257 33.5899 45.7141 34.8458 47.1481 35.9169Z" fill="white"/>
<path d="M40.283 24.8521C36.3265 25.0731 33.298 28.359 33.5418 32.1991C33.5802 32.7407 33.6694 33.2699 33.8219 33.7623C33.8092 33.6515 33.7964 33.5407 33.7963 33.4177C33.5394 28.9621 37.0367 25.1471 41.6272 24.8893L41.6653 24.8893C41.2214 24.8523 40.7522 24.8276 40.283 24.8521Z" fill="white"/>
<path d="M33.8232 36.1002C33.9756 36.3464 34.1406 36.5802 34.3182 36.8017L36.7503 33.5288L42.3563 35.7938L45.5976 29.2846L48.8566 29.888C48.7677 29.5927 48.6787 29.2974 48.5644 29.0143L45.1404 28.374L41.9625 34.7601L36.4833 32.5443L33.8232 36.1002Z" fill="#999999"/>
<path d="M36.5084 31.3888C37.4468 31.3397 38.2462 32.029 38.2976 32.9398C38.349 33.8506 37.6394 34.6259 36.7011 34.675C35.7627 34.7241 34.9633 34.0347 34.9119 33.1239C34.8478 32.2255 35.5701 31.4502 36.5084 31.3888Z" fill="#1EC185"/>
<path d="M45.266 27.1892C46.2044 27.1401 47.0038 27.8295 47.0552 28.7402C47.1066 29.651 46.397 30.4263 45.4586 30.4754C44.5203 30.5245 43.7208 29.8351 43.6695 28.9244C43.6054 28.0136 44.3276 27.2383 45.266 27.1892Z" fill="#EA4E64"/>
<path d="M42.049 33.6413C42.9873 33.5922 43.7867 34.2816 43.8381 35.1923C43.8895 36.1031 43.1799 36.8784 42.2416 36.9275C41.3032 36.9766 40.5038 36.2872 40.4524 35.3765C40.3883 34.4657 41.1106 33.6904 42.049 33.6413Z" fill="#338EEF"/>
<path d="M66.312 8.176C66.536 8.176 66.768 8.24001 67.008 8.36801C67.264 8.48 67.456 8.632 67.584 8.82401L73.416 17.8L72.216 17.752L78.192 8.82401C78.496 8.392 78.888 8.176 79.368 8.176C79.752 8.176 80.096 8.31201 80.4 8.58401C80.704 8.856 80.856 9.208 80.856 9.64V23.536C80.856 23.952 80.72 24.304 80.4481 24.592C80.1761 24.864 79.816 25 79.368 25C78.92 25 78.552 24.864 78.264 24.592C77.992 24.304 77.856 23.952 77.856 23.536V12.232L78.7921 12.448L73.896 19.912C73.752 20.088 73.568 20.24 73.344 20.368C73.136 20.496 72.92 20.552 72.696 20.536C72.488 20.552 72.272 20.496 72.048 20.368C71.84 20.24 71.664 20.088 71.52 19.912L66.936 12.664L67.56 11.392V23.536C67.56 23.952 67.432 24.304 67.176 24.592C66.92 24.864 66.584 25 66.168 25C65.768 25 65.44 24.864 65.184 24.592C64.928 24.304 64.8 23.952 64.8 23.536V9.64C64.8 9.24001 64.944 8.89601 65.232 8.60801C65.536 8.32 65.896 8.176 66.312 8.176Z" fill="#23262E"/>
<path d="M96.6801 18.592C96.6801 19.904 96.3841 21.064 95.7921 22.072C95.2161 23.064 94.4321 23.84 93.4401 24.4C92.4641 24.96 91.3681 25.24 90.1521 25.24C88.9361 25.24 87.8321 24.96 86.8401 24.4C85.8641 23.84 85.0801 23.064 84.4881 22.072C83.9121 21.064 83.6241 19.904 83.6241 18.592C83.6241 17.28 83.9121 16.128 84.4881 15.136C85.0801 14.128 85.8641 13.344 86.8401 12.784C87.8321 12.208 88.9361 11.92 90.1521 11.92C91.3681 11.92 92.4641 12.208 93.4401 12.784C94.4321 13.344 95.2161 14.128 95.7921 15.136C96.3841 16.128 96.6801 17.28 96.6801 18.592ZM93.8001 18.592C93.8001 17.776 93.6321 17.072 93.2961 16.48C92.9761 15.872 92.5361 15.4 91.9761 15.064C91.4321 14.728 90.8241 14.56 90.1521 14.56C89.4801 14.56 88.8641 14.728 88.3041 15.064C87.7601 15.4 87.3201 15.872 86.9841 16.48C86.6641 17.072 86.5041 17.776 86.5041 18.592C86.5041 19.392 86.6641 20.096 86.9841 20.704C87.3201 21.296 87.7601 21.76 88.3041 22.096C88.8641 22.432 89.4801 22.6 90.1521 22.6C90.8241 22.6 91.4321 22.432 91.9761 22.096C92.5361 21.76 92.9761 21.296 93.2961 20.704C93.6321 20.096 93.8001 19.392 93.8001 18.592Z" fill="#23262E"/>
<path d="M106.065 11.92C107.249 11.92 108.145 12.168 108.753 12.664C109.377 13.16 109.801 13.824 110.025 14.656C110.265 15.472 110.385 16.384 110.385 17.392V23.536C110.385 23.952 110.249 24.304 109.977 24.592C109.705 24.864 109.361 25 108.945 25C108.529 25 108.185 24.864 107.913 24.592C107.641 24.304 107.505 23.952 107.505 23.536V17.392C107.505 16.864 107.433 16.392 107.289 15.976C107.161 15.544 106.921 15.2 106.569 14.944C106.217 14.688 105.713 14.56 105.057 14.56C104.417 14.56 103.873 14.688 103.425 14.944C102.993 15.2 102.657 15.544 102.417 15.976C102.193 16.392 102.081 16.864 102.081 17.392V23.536C102.081 23.952 101.945 24.304 101.673 24.592C101.401 24.864 101.057 25 100.641 25C100.225 25 99.8807 24.864 99.6087 24.592C99.3367 24.304 99.2007 23.952 99.2007 23.536V13.624C99.2007 13.208 99.3367 12.864 99.6087 12.592C99.8807 12.304 100.225 12.16 100.641 12.16C101.057 12.16 101.401 12.304 101.673 12.592C101.945 12.864 102.081 13.208 102.081 13.624V14.656L101.721 14.584C101.865 14.312 102.073 14.024 102.345 13.72C102.617 13.4 102.937 13.104 103.305 12.832C103.673 12.56 104.089 12.344 104.553 12.184C105.017 12.008 105.521 11.92 106.065 11.92Z" fill="#23262E"/>
<path d="M112.754 23.008C112.594 22.784 112.522 22.496 112.538 22.144C112.554 21.792 112.762 21.488 113.162 21.232C113.418 21.072 113.69 21.008 113.978 21.04C114.266 21.056 114.546 21.2 114.818 21.472C115.282 21.936 115.77 22.296 116.282 22.552C116.794 22.808 117.434 22.936 118.202 22.936C118.442 22.92 118.706 22.888 118.994 22.84C119.282 22.776 119.53 22.648 119.738 22.456C119.962 22.248 120.074 21.936 120.074 21.52C120.074 21.168 119.954 20.888 119.714 20.68C119.474 20.472 119.154 20.296 118.754 20.152C118.37 20.008 117.938 19.872 117.458 19.744C116.962 19.6 116.45 19.44 115.922 19.264C115.41 19.088 114.938 18.864 114.506 18.592C114.074 18.304 113.722 17.928 113.45 17.464C113.178 17 113.042 16.416 113.042 15.712C113.042 14.912 113.266 14.232 113.714 13.672C114.162 13.112 114.738 12.68 115.442 12.376C116.162 12.072 116.914 11.92 117.698 11.92C118.194 11.92 118.714 11.984 119.258 12.112C119.802 12.224 120.322 12.416 120.818 12.688C121.314 12.944 121.73 13.288 122.066 13.72C122.242 13.96 122.346 14.248 122.378 14.584C122.41 14.92 122.258 15.224 121.922 15.496C121.682 15.688 121.402 15.776 121.082 15.76C120.762 15.728 120.498 15.616 120.29 15.424C120.018 15.072 119.65 14.792 119.186 14.584C118.738 14.376 118.218 14.272 117.626 14.272C117.386 14.272 117.122 14.304 116.834 14.368C116.562 14.416 116.322 14.536 116.114 14.728C115.906 14.904 115.802 15.192 115.802 15.592C115.802 15.96 115.922 16.256 116.162 16.48C116.402 16.688 116.722 16.864 117.122 17.008C117.538 17.136 117.978 17.264 118.442 17.392C118.922 17.52 119.41 17.672 119.906 17.848C120.402 18.024 120.858 18.256 121.274 18.544C121.69 18.832 122.026 19.208 122.282 19.672C122.538 20.12 122.666 20.696 122.666 21.4C122.666 22.216 122.426 22.912 121.946 23.488C121.466 24.064 120.866 24.504 120.146 24.808C119.426 25.096 118.69 25.24 117.938 25.24C116.994 25.24 116.05 25.08 115.106 24.76C114.162 24.424 113.378 23.84 112.754 23.008Z" fill="#23262E"/>
<path d="M125.22 12.4H130.908C131.292 12.4 131.612 12.528 131.868 12.784C132.124 13.04 132.252 13.36 132.252 13.744C132.252 14.112 132.124 14.424 131.868 14.68C131.612 14.92 131.292 15.04 130.908 15.04H125.22C124.836 15.04 124.516 14.912 124.26 14.656C124.004 14.4 123.876 14.08 123.876 13.696C123.876 13.328 124.004 13.024 124.26 12.784C124.516 12.528 124.836 12.4 125.22 12.4ZM127.788 9.4C128.204 9.4 128.54 9.544 128.796 9.83201C129.068 10.104 129.204 10.448 129.204 10.864V21.544C129.204 21.768 129.244 21.952 129.324 22.096C129.42 22.24 129.54 22.344 129.684 22.408C129.844 22.472 130.012 22.504 130.188 22.504C130.38 22.504 130.556 22.472 130.716 22.408C130.876 22.328 131.06 22.288 131.268 22.288C131.492 22.288 131.692 22.392 131.868 22.6C132.06 22.808 132.156 23.096 132.156 23.464C132.156 23.912 131.908 24.28 131.412 24.568C130.932 24.856 130.412 25 129.852 25C129.516 25 129.14 24.976 128.724 24.928C128.324 24.864 127.94 24.728 127.572 24.52C127.22 24.296 126.924 23.96 126.684 23.512C126.444 23.064 126.324 22.448 126.324 21.664V10.864C126.324 10.448 126.46 10.104 126.732 9.83201C127.02 9.544 127.372 9.4 127.788 9.4Z" fill="#23262E"/>
<path d="M140.827 25.24C139.467 25.24 138.283 24.96 137.275 24.4C136.283 23.824 135.515 23.048 134.971 22.072C134.443 21.096 134.179 19.992 134.179 18.76C134.179 17.32 134.467 16.096 135.043 15.088C135.635 14.064 136.403 13.28 137.347 12.736C138.291 12.192 139.291 11.92 140.347 11.92C141.163 11.92 141.931 12.088 142.651 12.424C143.387 12.76 144.035 13.224 144.595 13.816C145.155 14.392 145.595 15.064 145.915 15.832C146.251 16.6 146.419 17.416 146.419 18.28C146.403 18.664 146.251 18.976 145.963 19.216C145.675 19.456 145.339 19.576 144.955 19.576H135.787L135.067 17.176H143.875L143.347 17.656V17.008C143.315 16.544 143.147 16.128 142.843 15.76C142.555 15.392 142.187 15.104 141.739 14.896C141.307 14.672 140.843 14.56 140.347 14.56C139.867 14.56 139.419 14.624 139.003 14.752C138.587 14.88 138.227 15.096 137.923 15.4C137.619 15.704 137.379 16.112 137.203 16.624C137.027 17.136 136.939 17.784 136.939 18.568C136.939 19.432 137.115 20.168 137.467 20.776C137.835 21.368 138.299 21.824 138.859 22.144C139.435 22.448 140.043 22.6 140.683 22.6C141.275 22.6 141.747 22.552 142.099 22.456C142.451 22.36 142.731 22.248 142.939 22.12C143.163 21.976 143.363 21.856 143.539 21.76C143.827 21.616 144.099 21.544 144.355 21.544C144.707 21.544 144.995 21.664 145.219 21.904C145.459 22.144 145.579 22.424 145.579 22.744C145.579 23.176 145.355 23.568 144.907 23.92C144.491 24.272 143.907 24.584 143.155 24.856C142.403 25.112 141.627 25.24 140.827 25.24Z" fill="#23262E"/>
<path d="M150.375 25C149.959 25 149.615 24.864 149.343 24.592C149.071 24.304 148.935 23.952 148.935 23.536V13.624C148.935 13.208 149.071 12.864 149.343 12.592C149.615 12.304 149.959 12.16 150.375 12.16C150.791 12.16 151.135 12.304 151.407 12.592C151.679 12.864 151.815 13.208 151.815 13.624V15.88L151.647 14.272C151.823 13.888 152.047 13.552 152.319 13.264C152.607 12.96 152.927 12.712 153.279 12.52C153.631 12.312 154.007 12.16 154.407 12.064C154.807 11.968 155.207 11.92 155.607 11.92C156.087 11.92 156.487 12.056 156.807 12.328C157.143 12.6 157.311 12.92 157.311 13.288C157.311 13.816 157.175 14.2 156.903 14.44C156.631 14.664 156.335 14.776 156.015 14.776C155.711 14.776 155.431 14.72 155.175 14.608C154.935 14.496 154.655 14.44 154.335 14.44C154.047 14.44 153.751 14.512 153.447 14.656C153.159 14.784 152.887 14.992 152.631 15.28C152.391 15.568 152.191 15.928 152.031 16.36C151.887 16.776 151.815 17.272 151.815 17.848V23.536C151.815 23.952 151.679 24.304 151.407 24.592C151.135 24.864 150.791 25 150.375 25Z" fill="#23262E"/>
<path d="M162.581 23.536C162.581 23.952 162.429 24.304 162.125 24.592C161.821 24.864 161.469 25 161.069 25C160.621 25 160.261 24.864 159.989 24.592C159.717 24.304 159.581 23.952 159.581 23.536V9.664C159.581 9.248 159.725 8.90401 160.013 8.632C160.301 8.344 160.669 8.2 161.117 8.2C161.501 8.2 161.837 8.344 162.125 8.632C162.429 8.90401 162.581 9.248 162.581 9.664V23.536Z" fill="#338EEF"/>
<path d="M172.815 11.92C173.999 11.92 174.895 12.168 175.503 12.664C176.127 13.16 176.551 13.824 176.775 14.656C177.015 15.472 177.135 16.384 177.135 17.392V23.536C177.135 23.952 176.999 24.304 176.727 24.592C176.455 24.864 176.111 25 175.695 25C175.279 25 174.935 24.864 174.663 24.592C174.391 24.304 174.255 23.952 174.255 23.536V17.392C174.255 16.864 174.183 16.392 174.039 15.976C173.911 15.544 173.671 15.2 173.319 14.944C172.967 14.688 172.463 14.56 171.807 14.56C171.167 14.56 170.623 14.688 170.175 14.944C169.743 15.2 169.407 15.544 169.167 15.976C168.943 16.392 168.831 16.864 168.831 17.392V23.536C168.831 23.952 168.695 24.304 168.423 24.592C168.151 24.864 167.807 25 167.391 25C166.975 25 166.631 24.864 166.359 24.592C166.087 24.304 165.951 23.952 165.951 23.536V13.624C165.951 13.208 166.087 12.864 166.359 12.592C166.631 12.304 166.975 12.16 167.391 12.16C167.807 12.16 168.151 12.304 168.423 12.592C168.695 12.864 168.831 13.208 168.831 13.624V14.656L168.471 14.584C168.615 14.312 168.823 14.024 169.095 13.72C169.367 13.4 169.687 13.104 170.055 12.832C170.423 12.56 170.839 12.344 171.303 12.184C171.767 12.008 172.271 11.92 172.815 11.92Z" fill="#338EEF"/>
<path d="M179.504 23.008C179.344 22.784 179.272 22.496 179.288 22.144C179.304 21.792 179.512 21.488 179.912 21.232C180.168 21.072 180.44 21.008 180.728 21.04C181.016 21.056 181.296 21.2 181.568 21.472C182.032 21.936 182.52 22.296 183.032 22.552C183.544 22.808 184.184 22.936 184.952 22.936C185.192 22.92 185.456 22.888 185.744 22.84C186.032 22.776 186.28 22.648 186.488 22.456C186.712 22.248 186.824 21.936 186.824 21.52C186.824 21.168 186.704 20.888 186.464 20.68C186.224 20.472 185.904 20.296 185.504 20.152C185.12 20.008 184.688 19.872 184.208 19.744C183.712 19.6 183.2 19.44 182.672 19.264C182.16 19.088 181.688 18.864 181.256 18.592C180.824 18.304 180.472 17.928 180.2 17.464C179.928 17 179.792 16.416 179.792 15.712C179.792 14.912 180.016 14.232 180.464 13.672C180.912 13.112 181.488 12.68 182.192 12.376C182.912 12.072 183.664 11.92 184.448 11.92C184.944 11.92 185.464 11.984 186.008 12.112C186.552 12.224 187.072 12.416 187.568 12.688C188.064 12.944 188.48 13.288 188.816 13.72C188.992 13.96 189.096 14.248 189.128 14.584C189.16 14.92 189.008 15.224 188.672 15.496C188.432 15.688 188.152 15.776 187.832 15.76C187.512 15.728 187.248 15.616 187.04 15.424C186.768 15.072 186.4 14.792 185.936 14.584C185.488 14.376 184.968 14.272 184.376 14.272C184.136 14.272 183.872 14.304 183.584 14.368C183.312 14.416 183.072 14.536 182.864 14.728C182.656 14.904 182.552 15.192 182.552 15.592C182.552 15.96 182.672 16.256 182.912 16.48C183.152 16.688 183.472 16.864 183.872 17.008C184.288 17.136 184.728 17.264 185.192 17.392C185.672 17.52 186.16 17.672 186.656 17.848C187.152 18.024 187.608 18.256 188.024 18.544C188.44 18.832 188.776 19.208 189.032 19.672C189.288 20.12 189.416 20.696 189.416 21.4C189.416 22.216 189.176 22.912 188.696 23.488C188.216 24.064 187.616 24.504 186.896 24.808C186.176 25.096 185.44 25.24 184.688 25.24C183.744 25.24 182.8 25.08 181.856 24.76C180.912 24.424 180.128 23.84 179.504 23.008Z" fill="#338EEF"/>
<path d="M194.538 23.536C194.538 23.952 194.402 24.304 194.13 24.592C193.858 24.864 193.514 25 193.098 25C192.682 25 192.338 24.864 192.066 24.592C191.794 24.304 191.658 23.952 191.658 23.536V13.624C191.658 13.208 191.794 12.864 192.066 12.592C192.338 12.304 192.682 12.16 193.098 12.16C193.514 12.16 193.858 12.304 194.13 12.592C194.402 12.864 194.538 13.208 194.538 13.624V23.536ZM193.074 10.6C192.53 10.6 192.146 10.512 191.922 10.336C191.698 10.16 191.586 9.848 191.586 9.4V8.94401C191.586 8.48001 191.706 8.16801 191.946 8.00801C192.202 7.83201 192.586 7.744 193.098 7.744C193.658 7.744 194.05 7.83201 194.274 8.00801C194.498 8.18401 194.61 8.49601 194.61 8.94401V9.4C194.61 9.864 194.49 10.184 194.25 10.36C194.01 10.52 193.618 10.6 193.074 10.6Z" fill="#338EEF"/>
<path d="M202.826 11.92C203.498 11.92 204.114 12.024 204.674 12.232C205.234 12.44 205.714 12.704 206.114 13.024C206.53 13.344 206.85 13.672 207.074 14.008C207.314 14.328 207.434 14.6 207.434 14.824L206.81 15.136V13.384C206.81 12.968 206.946 12.624 207.218 12.352C207.49 12.064 207.834 11.92 208.25 11.92C208.666 11.92 209.01 12.056 209.282 12.328C209.554 12.6 209.69 12.952 209.69 13.384V24.064C209.69 25.456 209.386 26.568 208.778 27.4C208.186 28.248 207.402 28.856 206.426 29.224C205.45 29.608 204.402 29.8 203.282 29.8C202.962 29.8 202.546 29.76 202.034 29.68C201.522 29.6 201.034 29.504 200.57 29.392C200.106 29.28 199.754 29.176 199.514 29.08C199.034 28.872 198.698 28.608 198.506 28.288C198.33 27.984 198.298 27.656 198.41 27.304C198.554 26.84 198.786 26.52 199.106 26.344C199.426 26.184 199.762 26.168 200.114 26.296C200.274 26.344 200.538 26.44 200.906 26.584C201.274 26.728 201.674 26.856 202.106 26.968C202.554 27.096 202.946 27.16 203.282 27.16C204.482 27.16 205.37 26.92 205.946 26.44C206.522 25.96 206.81 25.296 206.81 24.448V22.36L207.098 22.576C207.098 22.784 206.986 23.04 206.762 23.344C206.554 23.632 206.258 23.92 205.874 24.208C205.506 24.496 205.066 24.744 204.554 24.952C204.042 25.144 203.498 25.24 202.922 25.24C201.786 25.24 200.762 24.96 199.85 24.4C198.938 23.824 198.218 23.04 197.69 22.048C197.162 21.04 196.898 19.888 196.898 18.592C196.898 17.28 197.162 16.128 197.69 15.136C198.218 14.128 198.93 13.344 199.826 12.784C200.722 12.208 201.722 11.92 202.826 11.92ZM203.282 14.56C202.562 14.56 201.93 14.736 201.386 15.088C200.842 15.44 200.418 15.92 200.114 16.528C199.81 17.136 199.658 17.824 199.658 18.592C199.658 19.344 199.81 20.024 200.114 20.632C200.418 21.24 200.842 21.72 201.386 22.072C201.93 22.424 202.562 22.6 203.282 22.6C204.018 22.6 204.658 22.424 205.202 22.072C205.746 21.72 206.17 21.24 206.474 20.632C206.778 20.024 206.93 19.344 206.93 18.592C206.93 17.824 206.778 17.136 206.474 16.528C206.17 15.92 205.746 15.44 205.202 15.088C204.658 14.736 204.018 14.56 203.282 14.56Z" fill="#338EEF"/>
<path d="M219.546 11.92C220.698 11.92 221.57 12.168 222.162 12.664C222.77 13.16 223.186 13.824 223.41 14.656C223.634 15.472 223.746 16.384 223.746 17.392V23.536C223.746 23.952 223.61 24.304 223.338 24.592C223.066 24.864 222.722 25 222.306 25C221.89 25 221.546 24.864 221.274 24.592C221.002 24.304 220.866 23.952 220.866 23.536V17.392C220.866 16.864 220.802 16.392 220.674 15.976C220.546 15.544 220.314 15.2 219.978 14.944C219.642 14.688 219.162 14.56 218.538 14.56C217.93 14.56 217.41 14.688 216.978 14.944C216.546 15.2 216.218 15.544 215.994 15.976C215.786 16.392 215.682 16.864 215.682 17.392V23.536C215.682 23.952 215.546 24.304 215.274 24.592C215.002 24.864 214.658 25 214.242 25C213.826 25 213.482 24.864 213.21 24.592C212.938 24.304 212.802 23.952 212.802 23.536V8.70401C212.802 8.288 212.938 7.944 213.21 7.672C213.482 7.38401 213.826 7.24001 214.242 7.24001C214.658 7.24001 215.002 7.38401 215.274 7.672C215.546 7.944 215.682 8.288 215.682 8.70401V14.656L215.322 14.584C215.466 14.312 215.666 14.024 215.922 13.72C216.178 13.4 216.49 13.104 216.858 12.832C217.226 12.56 217.634 12.344 218.082 12.184C218.53 12.008 219.018 11.92 219.546 11.92Z" fill="#338EEF"/>
<path d="M227.009 12.4H232.697C233.081 12.4 233.401 12.528 233.657 12.784C233.913 13.04 234.041 13.36 234.041 13.744C234.041 14.112 233.913 14.424 233.657 14.68C233.401 14.92 233.081 15.04 232.697 15.04H227.009C226.625 15.04 226.305 14.912 226.049 14.656C225.793 14.4 225.665 14.08 225.665 13.696C225.665 13.328 225.793 13.024 226.049 12.784C226.305 12.528 226.625 12.4 227.009 12.4ZM229.577 9.4C229.993 9.4 230.329 9.544 230.585 9.83201C230.857 10.104 230.993 10.448 230.993 10.864V21.544C230.993 21.768 231.033 21.952 231.113 22.096C231.209 22.24 231.329 22.344 231.473 22.408C231.633 22.472 231.801 22.504 231.977 22.504C232.169 22.504 232.345 22.472 232.505 22.408C232.665 22.328 232.849 22.288 233.057 22.288C233.281 22.288 233.481 22.392 233.657 22.6C233.849 22.808 233.945 23.096 233.945 23.464C233.945 23.912 233.697 24.28 233.201 24.568C232.721 24.856 232.201 25 231.641 25C231.305 25 230.929 24.976 230.513 24.928C230.113 24.864 229.729 24.728 229.361 24.52C229.009 24.296 228.713 23.96 228.473 23.512C228.233 23.064 228.113 22.448 228.113 21.664V10.864C228.113 10.448 228.249 10.104 228.521 9.83201C228.809 9.544 229.161 9.4 229.577 9.4Z" fill="#338EEF"/>
<path d="M236.41 23.008C236.25 22.784 236.178 22.496 236.194 22.144C236.21 21.792 236.418 21.488 236.818 21.232C237.074 21.072 237.346 21.008 237.634 21.04C237.922 21.056 238.202 21.2 238.474 21.472C238.938 21.936 239.426 22.296 239.938 22.552C240.45 22.808 241.09 22.936 241.858 22.936C242.098 22.92 242.362 22.888 242.65 22.84C242.938 22.776 243.186 22.648 243.394 22.456C243.618 22.248 243.73 21.936 243.73 21.52C243.73 21.168 243.61 20.888 243.37 20.68C243.13 20.472 242.81 20.296 242.41 20.152C242.026 20.008 241.594 19.872 241.114 19.744C240.618 19.6 240.106 19.44 239.578 19.264C239.066 19.088 238.594 18.864 238.162 18.592C237.73 18.304 237.378 17.928 237.106 17.464C236.834 17 236.698 16.416 236.698 15.712C236.698 14.912 236.922 14.232 237.37 13.672C237.818 13.112 238.394 12.68 239.098 12.376C239.818 12.072 240.57 11.92 241.354 11.92C241.85 11.92 242.37 11.984 242.914 12.112C243.458 12.224 243.978 12.416 244.474 12.688C244.97 12.944 245.386 13.288 245.722 13.72C245.898 13.96 246.002 14.248 246.034 14.584C246.066 14.92 245.914 15.224 245.578 15.496C245.338 15.688 245.058 15.776 244.738 15.76C244.418 15.728 244.154 15.616 243.946 15.424C243.674 15.072 243.306 14.792 242.842 14.584C242.394 14.376 241.874 14.272 241.282 14.272C241.042 14.272 240.778 14.304 240.49 14.368C240.218 14.416 239.978 14.536 239.77 14.728C239.562 14.904 239.458 15.192 239.458 15.592C239.458 15.96 239.578 16.256 239.818 16.48C240.058 16.688 240.378 16.864 240.778 17.008C241.194 17.136 241.634 17.264 242.098 17.392C242.578 17.52 243.066 17.672 243.562 17.848C244.058 18.024 244.514 18.256 244.93 18.544C245.346 18.832 245.682 19.208 245.938 19.672C246.194 20.12 246.322 20.696 246.322 21.4C246.322 22.216 246.082 22.912 245.602 23.488C245.122 24.064 244.522 24.504 243.802 24.808C243.082 25.096 242.346 25.24 241.594 25.24C240.65 25.24 239.706 25.08 238.762 24.76C237.818 24.424 237.034 23.84 236.41 23.008Z" fill="#338EEF"/>
<path d="M63 42C63 37.5817 66.5817 34 71 34H103C107.418 34 111 37.5817 111 42V42C111 46.4183 107.418 50 103 50H71C66.5817 50 63 46.4183 63 42V42Z" fill="#1EC185"/>
<path d="M71.0796 39.5269L69.0532 45.5571H67.6323L70.2886 38.4478H71.1968L71.0796 39.5269ZM72.7739 45.5571L70.7378 39.5269L70.6157 38.4478H71.5288L74.1997 45.5571H72.7739ZM72.6812 42.9155V43.9751H68.8677V42.9155H72.6812Z" fill="white"/>
<path d="M80.3911 41.8804V44.6489C80.2869 44.7824 80.1226 44.9272 79.8979 45.0835C79.6766 45.2397 79.3869 45.3748 79.0288 45.4888C78.6707 45.5994 78.2313 45.6548 77.7104 45.6548C77.258 45.6548 76.8446 45.5799 76.4702 45.4302C76.0959 45.2772 75.7736 45.0542 75.5034 44.7612C75.2332 44.4683 75.0249 44.1102 74.8784 43.687C74.7319 43.2638 74.6587 42.7804 74.6587 42.2368V41.7681C74.6587 41.2244 74.7271 40.741 74.8638 40.3179C75.0037 39.8947 75.2023 39.5366 75.4595 39.2437C75.7199 38.9507 76.0308 38.7277 76.3921 38.5747C76.7567 38.4217 77.1636 38.3452 77.6128 38.3452C78.215 38.3452 78.7098 38.4445 79.0972 38.6431C79.4878 38.8416 79.7873 39.1151 79.9956 39.4634C80.2039 39.8084 80.3341 40.2056 80.3862 40.6548H79.0776C79.0418 40.4074 78.9702 40.1909 78.8628 40.0054C78.7554 39.8166 78.6024 39.6701 78.4038 39.5659C78.2085 39.4585 77.9546 39.4048 77.6421 39.4048C77.3784 39.4048 77.1457 39.4569 76.9438 39.561C76.742 39.6652 76.5728 39.8166 76.436 40.0151C76.2993 40.2137 76.1951 40.4595 76.1235 40.7524C76.0552 41.0454 76.021 41.3807 76.021 41.7583V42.2368C76.021 42.6177 76.0601 42.9562 76.1382 43.2524C76.2163 43.5454 76.3286 43.7928 76.4751 43.9946C76.6248 44.1932 76.8088 44.3446 77.0269 44.4487C77.2482 44.5496 77.4989 44.6001 77.7788 44.6001C78.0327 44.6001 78.2427 44.5789 78.4087 44.5366C78.578 44.491 78.7131 44.4373 78.814 44.3755C78.9149 44.3136 78.993 44.2534 79.0483 44.1948V42.8618H77.6372V41.8804H80.3911Z" fill="white"/>
<path d="M86.3726 44.5024V45.5571H82.5933V44.5024H86.3726ZM83.0034 38.4478V45.5571H81.6606V38.4478H83.0034ZM85.8794 41.3823V42.4126H82.5933V41.3823H85.8794ZM86.3579 38.4478V39.5073H82.5933V38.4478H86.3579Z" fill="white"/>
<path d="M93.0181 38.4478V45.5571H91.6704L88.6479 40.6255V45.5571H87.3052V38.4478H88.6479L91.6802 43.3843V38.4478H93.0181Z" fill="white"/>
<path d="M98.5454 43.2183H99.8882C99.8524 43.6935 99.7205 44.1151 99.4927 44.4829C99.2648 44.8475 98.9474 45.134 98.5405 45.3423C98.1336 45.5506 97.6405 45.6548 97.061 45.6548C96.6151 45.6548 96.2131 45.5767 95.855 45.4204C95.5002 45.2609 95.1958 45.0347 94.9419 44.7417C94.6912 44.4455 94.4992 44.0907 94.3657 43.6772C94.2323 43.2606 94.1655 42.7935 94.1655 42.2759V41.7339C94.1655 41.2163 94.2339 40.7492 94.3706 40.3325C94.5073 39.9159 94.7026 39.561 94.9565 39.2681C95.2137 38.9718 95.5213 38.744 95.8794 38.5845C96.2407 38.425 96.6444 38.3452 97.0903 38.3452C97.6698 38.3452 98.1597 38.4526 98.5601 38.6675C98.9604 38.8791 99.2713 39.1704 99.4927 39.5415C99.714 39.9126 99.8475 40.339 99.8931 40.8208H98.5503C98.5243 40.5213 98.4591 40.2674 98.355 40.0591C98.2541 39.8507 98.1011 39.6929 97.896 39.5854C97.6942 39.4748 97.4256 39.4194 97.0903 39.4194C96.8299 39.4194 96.6004 39.4683 96.4019 39.5659C96.2065 39.6636 96.0438 39.8101 95.9136 40.0054C95.7834 40.1974 95.6857 40.4383 95.6206 40.728C95.5555 41.0145 95.5229 41.3465 95.5229 41.7241V42.2759C95.5229 42.6372 95.5522 42.9611 95.6108 43.2476C95.6694 43.534 95.7606 43.7765 95.8843 43.9751C96.008 44.1737 96.1675 44.325 96.3628 44.4292C96.5581 44.5334 96.7909 44.5854 97.061 44.5854C97.3898 44.5854 97.6567 44.5334 97.8618 44.4292C98.0701 44.325 98.228 44.172 98.3354 43.9702C98.4461 43.7684 98.5161 43.5177 98.5454 43.2183Z" fill="white"/>
<path d="M101.758 38.4478L103.321 41.7632L104.893 38.4478H106.368L104.004 42.9546V45.5571H102.642V42.9546L100.274 38.4478H101.758Z" fill="white"/>
</svg>
