<svg width="188" height="118" viewBox="0 0 188 118" fill="none" xmlns="http://www.w3.org/2000/svg">
<path fill-rule="evenodd" clip-rule="evenodd" d="M93.699 84.3457C145.411 84.3457 187.398 88.7933 187.398 94.2702C187.398 99.7471 145.411 104.195 93.699 104.195C41.9867 104.195 0 99.7514 0 94.2702C0 88.789 41.9867 84.3457 93.699 84.3457Z" fill="#E1D7FF"/>
<g filter="url(#filter0_d_234_32774)">
<rect x="56.0378" y="14" width="80" height="80" rx="40" fill="#F6F6F6"/>
<rect x="54.0378" y="12" width="84" height="84" rx="42" stroke="white" stroke-width="4"/>
<path d="M71.7847 61.6748H89.2979C91.4794 64.9969 95.2244 67.2117 99.4742 67.2117H71.7847C70.264 67.2117 69.031 65.9721 69.031 64.4433C69.031 62.9145 70.264 61.6748 71.7847 61.6748Z" fill="#E63060"/>
<path d="M66.2988 57.7566C64.7782 57.7566 63.5452 56.517 63.5452 54.9882C63.5452 53.4594 64.7782 52.2197 66.2988 52.2197H87.6458C87.4469 53.1056 87.3368 54.0346 87.3368 54.9882C87.3368 55.9418 87.4469 56.8707 87.6458 57.7566H66.2988Z" fill="#A735DF"/>
<path d="M60.7915 48.2976C59.2709 48.2976 58.0378 47.058 58.0378 45.5292C58.0378 44.0004 59.2709 42.7607 60.7915 42.7607H99.4742C99.3855 42.7607 99.2754 42.7607 99.1866 42.7607H99.1193C99.0306 42.7607 98.9419 42.7607 98.8317 42.7607H98.8103C98.7216 42.7607 98.6328 42.7607 98.5472 42.7823H98.5043C98.4156 42.7823 98.3269 42.8038 98.2167 42.8038H98.1739C98.0852 42.8038 98.0209 42.8253 97.9322 42.8253H97.8894C97.8006 42.8469 97.7119 42.8469 97.6262 42.8684H97.5589C97.3815 42.8899 97.2071 42.9361 97.0296 42.9576L96.9623 42.9791C96.8736 43.0007 96.8093 43.0222 96.7206 43.0222L96.6533 43.0437L96.4544 43.0868L96.3871 43.1083C96.2984 43.1299 96.2341 43.1514 96.1454 43.176L96.1025 43.1975C96.0352 43.2191 95.971 43.2406 95.9037 43.2652L95.8149 43.2867L95.6161 43.3544L95.5273 43.376C95.4386 43.3975 95.3744 43.419 95.2856 43.4652L95.2428 43.4867L95.0653 43.5544L94.9766 43.5974C94.9093 43.619 94.845 43.6651 94.7777 43.6866L94.689 43.7297L94.536 43.7974L94.4473 43.8404C94.38 43.862 94.3157 43.9081 94.2484 43.9296L94.1597 43.9727L94.0281 44.0404L93.8751 44.1296L93.7436 44.1973L93.6334 44.2649L93.5233 44.3326L93.3703 44.4218L93.2816 44.4895L93.1714 44.5572L93.0185 44.6464L92.9083 44.714L92.841 44.7571C92.7094 44.8463 92.5534 44.957 92.4218 45.0463L92.4004 45.0678C92.3117 45.1355 92.2229 45.2001 92.1342 45.2677L92.1128 45.2893C91.9812 45.4 91.8252 45.5107 91.6936 45.6215L91.6722 45.643C90.791 46.3966 89.9986 47.2825 89.3591 48.2792H60.8588L60.7915 48.2976Z" fill="#6433F9"/>
<path d="M112.319 54.9875C112.319 47.8572 106.57 42.0742 99.4743 42.0742C92.379 42.0742 86.63 47.8541 86.63 54.9875C86.63 62.1209 92.379 67.9008 99.4743 67.9008C106.57 67.9008 112.319 62.1178 112.319 54.9875ZM88.5698 54.9875C88.5698 48.9184 93.4591 44.0244 99.4743 44.0244C105.511 44.0244 110.379 48.94 110.379 54.9875C110.379 61.0566 105.489 65.9506 99.4743 65.9506C93.4377 65.9506 88.5698 61.0319 88.5698 54.9875Z" fill="#210F59"/>
<path d="M123.376 38.0233L102.096 25.7313C100.423 24.7562 98.5043 24.7562 96.8093 25.7313L75.5297 38.0233C75.3308 38.134 75.1319 38.2663 74.9575 38.3985H85.1124L99.3641 30.1824C99.3855 30.1824 99.4528 30.1393 99.4742 30.1393C99.4957 30.1393 99.563 30.1609 99.5844 30.1824L120.864 42.4743C120.885 42.4743 120.931 42.5174 120.953 42.542C120.974 42.585 120.974 42.6527 120.974 42.6742V67.3258C120.974 67.3688 120.974 67.4365 120.953 67.458C120.953 67.4796 120.885 67.5011 120.864 67.5257L99.5844 79.8176C99.563 79.8176 99.4957 79.8607 99.4742 79.8607C99.4528 79.8607 99.3855 79.8392 99.3641 79.8176L85.1124 71.6015H74.9545C75.1319 71.7337 96.8063 84.2687 96.8063 84.2687C98.4799 85.2438 100.398 85.2438 102.093 84.2687L123.373 71.9768C125.068 70.9801 126.038 69.2975 126.038 67.3258V42.6742C126.041 40.7025 125.074 38.9953 123.376 38.0233Z" fill="#210F59"/>
<path d="M99.4742 60.103C102.284 60.103 104.562 57.8128 104.562 54.9875C104.562 52.1623 102.284 49.8721 99.4742 49.8721C96.6641 49.8721 94.3861 52.1623 94.3861 54.9875C94.3861 57.8128 96.6641 60.103 99.4742 60.103Z" fill="#210F59"/>
</g>
<path d="M31.9775 75.0153C40.4182 76.6629 51.9298 82.4433 51.9298 82.4433C53.1888 82.9743 54.4204 83.5436 55.5973 84.1457C57.2285 84.9832 58.7612 85.8973 60.1406 86.9045C60.1406 86.9045 63.9669 83.3137 68.0011 77.9766C72.0353 72.6396 74.4438 67.9813 74.4438 67.9813C68.1379 63.022 58.7886 51.6309 55.4221 45.3633C54.404 50.7058 51.3441 56.8365 47.4084 62.0367C43.0512 67.8062 37.3036 72.8476 31.983 75.0098L31.9775 75.0153Z" fill="white"/>
<path d="M68.0011 77.9777C63.9669 83.3147 60.1406 86.9056 60.1406 86.9056L69.7911 94.2023C69.7911 94.2023 73.0864 93.6932 78.7956 86.1393C84.4994 78.5908 84.0943 75.2791 84.0943 75.2791L74.4439 67.9824C74.4439 67.9824 72.0354 72.6407 68.0011 77.9777Z" fill="#6433F9"/>
<path d="M52.565 34.2508C55.6304 36.5663 56.3146 40.6608 55.4169 45.3683C54.3988 50.7108 51.3389 56.8415 47.4032 62.0417C43.046 67.8112 37.2984 72.8526 31.9778 75.0148C28.272 76.5311 24.7632 76.6241 22.0756 74.5933C15.5288 69.6449 19.8532 56.5843 27.2429 46.8079C34.6326 37.0261 46.0183 29.3025 52.565 34.2508ZM24.9493 70.7944C26.7338 72.141 31.6932 70.5043 37.1725 65.6052C39.1814 63.8207 41.2615 61.5983 43.2814 58.9216C45.033 56.6062 46.4453 54.3345 47.551 52.1942C51.2349 45.111 51.5633 39.4565 49.6913 38.0442C47.2609 36.2105 38.9187 39.9218 31.3647 49.9171C23.8163 59.9069 22.5189 68.9552 24.9439 70.789L24.9493 70.7944Z" fill="#6433F9"/>
<path d="M35.4209 53.6995C34.1346 55.4019 33.3846 56.5514 32.9413 57.3177C32.4869 58.1115 32.569 59.1241 33.1383 59.9288L37.1726 65.6052C39.1815 63.8207 41.2615 61.5983 43.2814 58.9216C45.033 56.6061 46.4453 54.3345 47.551 52.1942L40.7963 49.7966C39.8657 49.4682 38.8695 49.6653 38.229 50.3221C37.6159 50.9516 36.7128 51.9917 35.4264 53.694L35.4209 53.6995Z" fill="white"/>
<path d="M31.3703 49.924C23.8218 59.9138 22.5245 68.9621 24.9494 70.7959C26.7339 72.1424 31.6933 70.5057 37.1726 65.6066L33.1384 59.9302C32.5691 59.1256 32.487 58.1129 32.9413 57.3192C33.3847 56.5528 34.1346 55.4033 35.421 53.701C36.7073 51.9986 37.6105 50.9585 38.2236 50.329C38.864 49.6722 39.8603 49.4751 40.7908 49.8035L47.5456 52.2011C51.2295 45.1179 51.5579 39.4634 49.6859 38.0511C47.2555 36.2174 38.9133 39.9287 31.3594 49.924H31.3703Z" fill="#083A6F"/>
<path d="M51.9299 82.4434L48.35 88.4373L51.3552 90.7089L55.5974 84.1512C54.4205 83.5436 53.1889 82.9798 51.9299 82.4488V82.4434Z" fill="#6433F9"/>
<path d="M55.5974 84.1465L51.3551 90.7042L47.8245 96.1726C47.2607 97.0429 47.5179 98.2417 48.4156 98.9205L51.5522 101.291C52.4773 101.986 53.7308 101.871 54.4041 101.044C58.3015 96.2602 64.5581 90.2389 64.5581 90.2389L60.1462 86.9053C58.7722 85.9036 57.2341 84.9895 55.6028 84.1465H55.5974Z" fill="#6433F9"/>
<path d="M69.7969 94.4761C69.7969 94.4761 69.8242 94.4761 69.8407 94.4761C69.9775 94.4542 73.3166 93.863 79.0204 86.309C84.7241 78.7551 84.3847 75.3887 84.3683 75.2464C84.3574 75.1752 84.3191 75.104 84.2643 75.0602L74.6084 67.7636C68.0452 62.6072 58.8765 51.2215 55.6633 45.2331C55.6086 45.1291 55.4936 45.0743 55.3787 45.0908C55.2637 45.1072 55.1762 45.1948 55.1488 45.3097C54.169 50.4442 51.2678 56.4819 47.1843 61.8737C42.641 67.9004 36.9153 72.7119 31.8739 74.7592C31.7589 74.803 31.6932 74.9179 31.7042 75.0383C31.7151 75.1588 31.8027 75.2573 31.9231 75.2792C41.059 77.0691 51.6948 82.6251 51.8042 82.6799C53.1618 83.2546 54.3551 83.813 55.4772 84.3877C57.1905 85.269 58.7013 86.1886 59.9767 87.1192L69.6272 94.4159C69.6764 94.4542 69.7312 94.4706 69.7914 94.4706L69.7969 94.4761ZM83.8264 75.4215C83.8264 76.0401 83.5637 79.3791 78.5824 85.9806C73.6012 92.5766 70.4592 93.7371 69.8571 93.9123L60.3052 86.6922C59.0024 85.7398 57.4642 84.8092 55.729 83.9115C54.5959 83.3313 53.3862 82.7675 52.0396 82.1982C51.9575 82.1544 41.8911 76.8995 32.8865 74.9289C37.813 72.6846 43.2595 67.9989 47.6222 62.213C51.5634 57.0074 54.4208 51.1996 55.5374 46.1527C59.0571 52.3272 67.8865 63.1874 74.269 68.2069L83.8264 75.4325V75.4215Z" fill="#083A6F"/>
<path d="M26.8873 76.4058C28.4802 76.4058 30.2264 76.0281 32.082 75.2672C37.2111 73.1871 43.0188 68.3044 47.6224 62.2065C51.7552 56.7491 54.6946 50.6293 55.6909 45.4181C56.6926 40.1906 55.669 36.2549 52.735 34.038C46.0514 28.9856 34.5015 36.7585 27.0297 46.6443C19.5633 56.5301 15.2335 69.7659 21.9171 74.8183C23.3238 75.8803 25.0043 76.4112 26.8928 76.4112L26.8873 76.4058ZM47.7537 32.9815C49.4671 32.9815 51.0436 33.4468 52.4011 34.4704C55.8879 37.1033 55.8222 41.8218 55.1544 45.3141C54.1746 50.4486 51.2735 56.4863 47.1899 61.8781C42.6466 67.9048 36.921 72.7164 31.8795 74.7636C28.0095 76.3455 24.6759 76.2142 22.2455 74.3749C15.8465 69.5415 20.16 56.6451 27.4676 46.9727C33.2261 39.3586 41.415 32.9815 47.7592 32.9815H47.7537ZM26.6082 71.534C29.2247 71.534 33.3301 69.4101 37.3589 65.8138C39.5265 63.8815 41.5902 61.6208 43.5006 59.0919C45.1865 56.864 46.6316 54.5869 47.7921 52.3262C51.684 44.8379 51.7606 39.271 49.8612 37.8368C48.4982 36.8023 45.6737 37.3551 42.3182 39.3202C38.5412 41.5317 34.5727 45.2375 31.1515 49.7644C23.3841 60.0389 22.2072 69.0708 24.7854 71.0195C25.2507 71.3698 25.8692 71.5395 26.6082 71.5395V71.534ZM48.0767 37.8751C48.6843 37.8751 49.1824 38.0065 49.5328 38.2693C51.2789 39.5885 50.9286 45.1116 47.3104 52.0744C46.1609 54.3077 44.7322 56.5575 43.0681 58.758C41.1796 61.2595 39.1379 63.4929 36.9976 65.4033C31.6222 70.1984 26.7341 71.8022 25.1193 70.5761C22.8367 68.8463 24.2544 59.798 31.5949 50.0874C34.9723 45.6152 38.8806 41.9587 42.6028 39.7855C44.7322 38.543 46.6973 37.8751 48.0822 37.8751H48.0767Z" fill="#083A6F"/>
<path d="M37.1727 65.8799C37.2384 65.8799 37.304 65.858 37.3533 65.8087C39.5155 63.8874 41.5791 61.6267 43.495 59.0868C45.1755 56.8644 46.6206 54.5873 47.792 52.3211C47.8303 52.2499 47.8303 52.1678 47.8029 52.0967C47.7756 52.0255 47.7154 51.9653 47.6387 51.9379L40.884 49.5404C39.8384 49.1736 38.7437 49.398 38.0321 50.1315C37.2603 50.9253 36.3133 52.0693 35.2021 53.5308C34.0963 54.9923 33.2588 56.2185 32.706 57.1764C32.1969 58.0687 32.279 59.1799 32.914 60.083L36.9482 65.7595C36.992 65.8251 37.0632 65.8635 37.1398 65.8744C37.1508 65.8744 37.1617 65.8744 37.1727 65.8744V65.8799ZM47.1625 52.3485C46.0294 54.4997 44.65 56.6509 43.0626 58.7584C41.2343 61.1778 39.2692 63.34 37.2165 65.1956L33.3629 59.771C32.8483 59.043 32.7771 58.1562 33.1822 57.4501C33.7241 56.5086 34.5507 55.3044 35.6455 53.8592C36.7402 52.4141 37.6763 51.2865 38.4262 50.5092C38.99 49.929 39.8658 49.7538 40.7088 50.0549L47.168 52.3485H47.1625Z" fill="#083A6F"/>
<path d="M26.5969 71.5172C29.0109 71.5172 32.9083 69.7875 37.3531 65.8135C37.4571 65.7204 37.4735 65.5672 37.3914 65.4522L33.3572 59.7758C32.8426 59.0478 32.7715 58.161 33.1765 57.4549C33.7184 56.5134 34.545 55.3091 35.6398 53.864C36.7345 52.4189 37.6706 51.2913 38.4205 50.514C38.9843 49.9338 39.8601 49.7586 40.7031 50.0597L47.4579 52.4572C47.5838 52.501 47.7316 52.4463 47.7918 52.3258C51.6837 44.8376 51.7603 39.2707 49.8554 37.831C48.4869 36.7965 45.6679 37.3548 42.3124 39.3144C38.5354 41.5259 34.5669 45.2317 31.1457 49.7586C23.3783 60.0385 22.2014 69.0649 24.7796 71.0136C25.2175 71.3421 25.8306 71.5172 26.5915 71.5172H26.5969ZM36.8057 65.5671C31.507 70.2418 26.7119 71.7909 25.1135 70.5812C22.8309 68.8569 24.2486 59.8032 31.5891 50.0925C34.9665 45.6203 38.8748 41.9638 42.5971 39.7907C45.6624 38.0007 48.3829 37.4041 49.5325 38.2744C51.2622 39.5827 50.9392 45.0073 47.4195 51.866L40.8892 49.5506C39.8437 49.1838 38.7489 49.4083 38.0373 50.1418C37.2655 50.9355 36.3185 52.0795 35.2073 53.541C34.1016 55.0026 33.2641 56.2287 32.7112 57.1866C32.2022 58.0789 32.2843 59.1901 32.9192 60.0933L36.8112 65.5671H36.8057Z" fill="#083A6F"/>
<path d="M51.3608 90.9779C51.3608 90.9779 51.3936 90.9779 51.41 90.9779C51.4867 90.9669 51.5523 90.9231 51.5907 90.8574L55.8329 84.2997C55.8767 84.234 55.8877 84.1574 55.8658 84.0808C55.8439 84.0041 55.7946 83.9439 55.7289 83.9056C54.5958 83.3254 53.3861 82.7616 52.0395 82.1923C51.9136 82.1375 51.7658 82.1868 51.7001 82.3018L48.1202 88.2957C48.0491 88.4161 48.0764 88.5694 48.1914 88.6569L51.202 90.9231C51.2513 90.9614 51.306 90.9779 51.3662 90.9779H51.3608ZM55.2089 84.2505L51.2896 90.3046L48.7114 88.3613L52.045 82.7835C53.189 83.2706 54.2291 83.7523 55.2089 84.2505Z" fill="#083A6F"/>
<path d="M52.8934 102.024C53.5503 102.024 54.1853 101.751 54.6122 101.22C58.4549 96.5011 64.6841 90.4962 64.7444 90.436C64.8046 90.3813 64.8319 90.3046 64.8265 90.2225C64.8265 90.1404 64.7827 90.0693 64.717 90.02L60.2996 86.6864C58.9968 85.734 57.4586 84.8034 55.7234 83.9057C55.603 83.84 55.4442 83.8838 55.3676 83.9987L47.5892 96.0303C46.9488 97.0101 47.2389 98.3786 48.2461 99.1395L51.3826 101.51C51.8424 101.855 52.3734 102.024 52.8934 102.024ZM64.1368 90.2663C62.9708 91.4049 57.6283 96.6489 54.1907 100.875C53.6105 101.592 52.5212 101.679 51.7165 101.072L48.58 98.7016C47.8027 98.1159 47.5673 97.0704 48.0545 96.3314L55.696 84.5078C57.3163 85.3563 58.7559 86.2376 59.9766 87.1243L64.1368 90.2663Z" fill="#083A6F"/>
<path d="M34.0527 59.0808C34.091 59.0808 34.1293 59.0698 34.1676 59.0534C37.3589 57.5481 39.7948 54.6086 40.6816 51.1984C40.7199 51.0506 40.6323 50.9028 40.4845 50.8645C40.3367 50.8261 40.1889 50.9137 40.1506 51.0615C39.3021 54.324 36.9812 57.1266 33.9323 58.5607C33.7954 58.6264 33.7352 58.7906 33.8009 58.9275C33.8447 59.026 33.9432 59.0862 34.0472 59.0862L34.0527 59.0808Z" fill="#083A6F"/>
<path d="M78.834 73.3509C78.9216 73.3509 79.0037 73.3126 79.0584 73.236C79.146 73.1101 79.1132 72.9404 78.9927 72.8528C70.4918 66.8644 66.5835 62.1952 60.6607 55.1284C59.6645 53.9406 58.619 52.6871 57.4804 51.3514C57.3819 51.2365 57.2122 51.2201 57.0918 51.3186C56.9768 51.4171 56.9604 51.5868 57.0589 51.7018C58.192 53.0374 59.243 54.2909 60.2338 55.4788C66.1839 62.5784 70.1086 67.275 78.6698 73.3017C78.719 73.3345 78.7738 73.3509 78.8285 73.3509H78.834Z" fill="#083A6F"/>
<defs>
<filter id="filter0_d_234_32774" x="37.0378" y="0" width="118" height="118" filterUnits="userSpaceOnUse" color-interpolation-filters="sRGB">
<feFlood flood-opacity="0" result="BackgroundImageFix"/>
<feColorMatrix in="SourceAlpha" type="matrix" values="0 0 0 0 0 0 0 0 0 0 0 0 0 0 0 0 0 0 127 0" result="hardAlpha"/>
<feOffset dy="5"/>
<feGaussianBlur stdDeviation="7.5"/>
<feComposite in2="hardAlpha" operator="out"/>
<feColorMatrix type="matrix" values="0 0 0 0 0 0 0 0 0 0 0 0 0 0 0 0 0 0 0.05 0"/>
<feBlend mode="normal" in2="BackgroundImageFix" result="effect1_dropShadow_234_32774"/>
<feBlend mode="normal" in="SourceGraphic" in2="effect1_dropShadow_234_32774" result="shape"/>
</filter>
</defs>
</svg>
