<svg width="188" height="104" viewBox="0 0 188 104" fill="none" xmlns="http://www.w3.org/2000/svg">
<path fill-rule="evenodd" clip-rule="evenodd" d="M94.0347 78.9534C145.747 78.9534 187.734 83.4009 187.734 88.8779C187.734 94.3548 145.747 98.8024 94.0347 98.8024C42.3224 98.8024 0.335693 94.3591 0.335693 88.8779C0.335693 83.3967 42.3224 78.9534 94.0347 78.9534Z" fill="#C5E6F8"/>
<path d="M73.9589 80.3987L89.8999 80.4009L89.9098 93.941L74.2599 93.9388C71.7843 92.8788 69.7451 91.3715 68.2637 89.6052C68.8439 86.6853 71.0006 82.8709 73.9589 80.3987Z" fill="#6F4BBB"/>
<path d="M74.8812 81.529C72.7719 83.648 70.6871 86.2144 69.9856 89.1342C71.2483 90.5943 72.899 91.7249 74.6709 92.5493L88.0642 92.5511L88.0562 81.5308L74.8812 81.529Z" fill="#7D5DC2"/>
<path d="M71.1981 86.1466C70.786 86.7117 70.0113 88.9957 69.9629 89.1369C71.2256 90.597 72.8763 91.7275 74.648 92.5518L81.7813 92.5528L81.777 86.6425C78.2589 86.6185 74.7407 86.4532 71.1981 86.1466Z" fill="#9478CF"/>
<path d="M73.8936 91.0702C75.5438 91.612 76.321 92.6246 76.5645 93.9432L70.8144 93.9424C71.2018 92.8123 72.2926 91.4232 73.8936 91.0702Z" fill="#5F3EA7"/>
<path d="M73.8692 91.6827C72.9716 91.918 72.2199 92.6009 71.7352 93.378L73.8947 93.3783L73.8935 91.6827L73.8692 91.6827Z" fill="#6F4BBB"/>
<path d="M79.5708 90.7405C81.779 91.3294 82.8476 92.7657 83.1153 93.9429L75.4486 93.942C75.9572 92.6942 77.5087 91.0228 79.5708 90.7405Z" fill="#5F3EA7"/>
<path d="M79.521 91.329C78.308 91.5408 77.1197 92.3648 76.4168 93.3773L79.571 93.3778L79.5696 91.3291L79.521 91.329Z" fill="#6F4BBB"/>
<path d="M109.013 80.3977L93.0724 80.3955L93.0822 93.9356L108.732 93.9377C111.206 92.8784 113.243 91.3716 114.722 89.6057C114.162 86.6857 112 82.8707 109.013 80.3977Z" fill="#6F4BBB"/>
<path d="M108.117 81.5277C110.229 83.6473 112.318 86.2143 113.023 89.1343C111.763 90.594 110.114 91.7241 108.343 92.548L94.9498 92.5462L94.9418 81.5259L108.117 81.5277Z" fill="#7D5DC2"/>
<path d="M111.782 86.1442C112.195 86.7094 112.973 88.9935 113.022 89.1348C111.761 90.5946 110.112 91.7246 108.341 92.5485L101.208 92.5475L101.204 86.6373C104.722 86.6142 108.264 86.4499 111.782 86.1442Z" fill="#9478CF"/>
<path d="M109.114 91.0658C107.465 91.6071 106.689 92.6195 106.447 93.9381L112.197 93.9388C111.808 92.8085 110.716 91.4192 109.114 91.0658Z" fill="#5F3EA7"/>
<path d="M109.141 91.678C110.039 91.9136 110.792 92.5967 111.278 93.3739L109.118 93.3736L109.117 91.678L109.141 91.678Z" fill="#6F4BBB"/>
<path d="M103.439 90.7372C101.232 91.3256 100.165 92.7616 99.8992 93.9388L107.566 93.9397C107.056 92.6918 105.502 91.02 103.439 90.7372Z" fill="#5F3EA7"/>
<path d="M103.463 91.3254C104.676 91.5376 105.865 92.3619 106.57 93.3746L103.416 93.3741L103.414 91.3254L103.463 91.3254Z" fill="#6F4BBB"/>
<path d="M48.8801 84.5702C48.979 87.0431 49.5628 88.9745 50.6799 90.1758C52.427 90.0347 53.9058 88.1508 54.5841 86.5258C53.5636 84.8064 51.5733 84.0289 48.8801 84.5702Z" fill="#5F3EA7"/>
<path d="M49.7788 85.2538C49.8284 86.6906 50.2178 88.1747 51.0196 89.2583L51.6964 85.3482C51.0895 85.2068 50.4342 85.2067 49.7788 85.2538Z" fill="#6F4BBB"/>
<path d="M53.2949 85.8889C53.4664 88.1028 53.759 90.0575 55.1921 92.036C57.7639 91.4947 59.7769 90.1055 60.6246 87.8918C59.3607 85.0891 56.3515 84.7118 53.2949 85.8889Z" fill="#5F3EA7"/>
<path d="M55.5561 91.0948L57.2757 86.1722C56.3047 85.9837 55.2127 86.1248 54.1693 86.4545C54.3404 88.1268 54.6328 89.6108 55.5561 91.0948Z" fill="#6F4BBB"/>
<path d="M61.7382 87.702C62.1768 90.222 64.6285 91.4705 65.866 91.4C66.4234 90.4817 66.9807 89.2806 66.9796 87.844L65.9113 86.9725C64.2853 86.6661 62.5625 86.7836 61.7382 87.702Z" fill="#5F3EA7"/>
<path d="M65.4281 90.5518C65.913 89.8452 66.2278 88.7617 66.2755 87.7253L64.5278 87.4424L65.4281 90.5518Z" fill="#6F4BBB"/>
<path d="M66.9887 53.9223L67.0132 87.8178C60.9701 88.5472 53.9312 88.3107 48.8801 84.5413C48.9749 81.385 49.2882 78.2993 49.8686 75.355C50.9569 70.0318 53.0165 65.1797 56.5815 61.1994C59.7343 57.6901 62.8884 56.0182 66.9887 53.9223Z" fill="#6F4BBB"/>
<path d="M50.5785 83.7644C53.7355 86.1203 61.309 86.8515 65.2892 86.3574L65.2679 56.6543C55.0046 61.9528 50.9339 71.7277 50.5785 83.7644Z" fill="#9478CF"/>
<path d="M50.5791 83.7671C52.1822 84.9687 54.9017 85.7228 57.7424 86.1471C58.1498 78.5855 58.0933 67.2077 56.3433 64.1923C52.5355 69.445 50.8166 76.1584 50.5791 83.7671Z" fill="#A58DD4"/>
<path d="M57.731 78.7272C59.0657 78.7273 60.1341 79.7638 60.1351 81.0591C60.136 82.3544 59.0691 83.3905 57.7345 83.3903C56.3999 83.3901 55.3314 82.3537 55.3304 81.0584C55.3295 79.7631 56.3964 78.727 57.731 78.7272Z" fill="#9478CF"/>
<path d="M63.4183 27.481C62.7113 23.0766 63.4862 20.7922 64.4054 16.7649C67.2948 19.097 69.1403 20.7695 72.6603 22.4893C73.3609 18.2264 74.911 14.1992 77.165 10.4312L78.4981 8.21747C83.6454 11.9866 88.0399 15.0019 91.4409 19.9955C94.8346 15.0029 99.2247 11.9888 104.367 8.22121L105.703 10.4353C107.962 14.204 109.518 18.2316 110.225 22.4947C113.743 20.7759 115.586 19.104 118.472 16.7727C119.421 20.7767 120.175 23.0614 119.475 27.4891L125.834 29.1858C124.584 45.2953 123.308 59.0261 121.694 75.1356C121.477 77.3495 121.236 79.5869 120.995 81.8008C120.922 82.4367 120.122 83.5906 116.725 83.6137C100.127 84.6947 82.7523 84.6922 66.1773 83.6064C62.7799 83.5588 61.9783 82.4281 61.905 81.7922C61.6607 79.5312 61.4164 77.2701 61.1963 75.0091C61.0986 74.0905 61.0008 73.172 60.9031 72.2299C59.5093 57.8628 58.1399 43.5429 56.9888 29.1523L63.3455 27.4574L63.4183 27.4575L63.4183 27.481Z" fill="#6F4BBB"/>
<path d="M79.2031 11.5859C76.4643 16.1075 74.939 20.8884 74.6514 25.8343C71.8357 24.7976 68.6313 23.1014 65.8632 20.9106C65.3069 23.3129 65.4305 26.4453 66.1848 29.1775C63.8555 29.6953 61.6962 30.2367 59.5369 30.8487C60.7126 45.6397 61.8154 60.4307 63.3308 75.1746C63.4774 76.6348 63.7952 79.7909 63.9662 81.2512C64.5731 81.581 65.8349 81.5812 66.3446 81.6048C83.0409 82.6906 99.9306 82.6931 116.625 81.6121C117.159 81.565 118.397 81.5652 119.003 81.2591C119.172 79.8225 119.485 76.5958 119.63 75.1827C121.099 60.4157 122.205 45.6251 123.359 30.858C121.198 30.2453 119.038 29.7033 116.708 29.1848C117.459 26.4528 117.578 23.3204 117.018 20.918C114.277 23.1315 111.051 24.8033 108.237 25.8392C107.942 20.9167 106.41 16.1118 103.664 11.5894C98.0857 15.6867 94.4236 18.6537 91.4431 24.5885C88.4297 18.6529 84.7875 15.6848 79.1789 11.5859L79.2031 11.5859Z" fill="#9478CF"/>
<path d="M79.2109 11.5848C79.6283 18.1568 81.3326 25.4592 84.5388 28.5219C80.2665 28.0738 77.9844 27.5788 74.682 25.8353C71.8414 24.7985 68.6361 23.1021 65.8674 20.9111C67.3512 25.2455 68.7855 28.3314 71.7247 31.3469C69.2245 31.2995 67.7918 30.4984 66.1889 29.1791C63.859 29.697 61.6991 30.2385 59.5392 30.8507C60.7149 45.6437 61.8178 60.4367 63.3333 75.1827C63.4799 76.6432 63.7977 79.7996 63.9687 81.2601C64.5758 81.59 65.838 81.5901 66.3477 81.6137C74.698 82.1566 83.0967 82.4167 91.4952 82.4178L91.4889 73.608C78.5278 74.5957 66.6683 54.7605 80.2762 41.736L77.5587 43.1961C77.2174 41.0996 77.8951 38.485 78.7917 36.3651C80.5607 32.2431 85.2675 29.1815 91.4566 28.4521L91.4539 24.5654C88.4397 18.629 84.8209 15.6606 79.2109 11.5848Z" fill="#A58DD4"/>
<path d="M111.176 31.3397C114.086 28.3252 115.54 25.2163 117.017 20.8826C117.577 23.2852 117.458 26.4178 116.708 29.1499C115.107 30.4923 113.676 31.2929 111.176 31.3397ZM106.249 30.1142C107.705 30.1144 108.871 31.2687 108.872 32.6583C108.873 34.0716 107.684 35.202 106.252 35.2018C104.796 35.2016 103.631 34.0473 103.629 32.6576C103.628 31.2679 104.817 30.114 106.249 30.1142ZM115.839 35.8626C116.834 35.8628 117.66 36.6637 117.661 37.6294C117.661 38.5951 116.837 39.3958 115.842 39.3957C114.847 39.3955 114.021 38.5946 114.02 37.6289C114.019 36.6396 114.82 35.8625 115.839 35.8626ZM98.3844 28.4878C101.586 25.4499 103.279 18.1485 103.687 11.5535C106.433 16.0762 107.965 20.8578 108.26 25.8041C104.936 27.5466 102.655 28.0409 98.3844 28.4878Z" fill="#7D5DC2"/>
<path d="M67.679 33.8212C70.0576 33.8215 72.0006 35.7061 72.0023 38.0145C72.004 40.3229 70.0637 42.207 67.6851 42.2067C65.3065 42.2063 63.3635 40.3217 63.3618 38.0133C63.3601 35.705 65.3005 33.8208 67.679 33.8212ZM64.8972 46.6817C65.8437 46.6818 66.6209 47.4357 66.6216 48.3543C66.6223 49.273 65.8461 50.0266 64.8996 50.0265C63.953 50.0263 63.1758 49.2725 63.1751 48.3539C63.1745 47.4352 63.9506 46.6816 64.8972 46.6817Z" fill="#9478CF"/>
<path d="M91.742 36.1087C102.006 36.1101 110.336 44.1895 110.343 54.1517C110.35 64.1139 102.033 72.1908 91.7685 72.1893C81.504 72.1879 73.1749 64.1085 73.1676 54.1463C73.1603 44.1841 81.4775 36.1072 91.742 36.1087Z" fill="#D3E8EF"/>
<path d="M73.6517 50.0472C75.2725 43.2648 80.8497 37.943 87.8856 36.5074C95.5531 35.9433 101.769 41.149 101.774 48.2379C101.779 55.3738 95.475 61.7081 87.7347 62.3664C79.9703 63.0247 73.6816 57.7955 73.6764 50.636C73.652 50.4476 73.6518 50.2356 73.6517 50.0472Z" fill="white"/>
<path d="M97.4734 47.2249C103.273 47.2258 107.96 51.7718 107.964 57.4006C107.968 63.0294 103.288 67.5741 97.4883 67.5733C91.6888 67.5724 87.0021 63.0263 86.998 57.3976C86.9939 51.7924 91.6738 47.2241 97.4734 47.2249Z" fill="#EA4E64"/>
<path d="M97.4741 47.2249C99.0028 47.2251 100.459 47.5315 101.77 48.1205L101.77 48.2383C101.775 55.186 95.8101 61.3792 88.2882 62.3202C87.4621 60.8599 86.9756 59.1877 86.9743 57.3977C86.9701 51.7689 91.6502 47.2241 97.4741 47.2249Z" fill="#EC6277"/>
<path d="M97.4768 50.8047C101.238 50.8052 104.298 53.7496 104.3 57.4236C104.303 61.0741 101.272 64.0411 97.4865 64.0405C93.7253 64.04 90.6656 61.0956 90.6629 57.4216C90.6603 53.7712 93.6913 50.8042 97.4768 50.8047Z" fill="#232323"/>
<path d="M97.4752 50.8047C98.8583 50.8049 100.145 51.2055 101.213 51.8886C99.9057 56.1042 96.4625 59.6835 92.0473 61.3786C91.1972 60.2715 90.6866 58.8819 90.6855 57.4217C90.6586 53.7712 93.6897 50.8041 97.4752 50.8047Z" fill="#323232"/>
<path d="M90.0531 49.7916C92.4311 49.792 94.3495 51.6528 94.3512 53.9608C94.3529 56.2689 92.4372 58.1292 90.0592 58.1288C87.6811 58.1285 85.7627 56.2676 85.7611 53.9596C85.7594 51.6516 87.675 49.7913 90.0531 49.7916Z" fill="white"/>
<path d="M69.8995 62.4213C75.1872 59.596 83.1498 64.5428 82.5733 72.5499C77.525 71.0419 72.062 66.4252 69.8995 62.4213Z" fill="#6F4BBB"/>
<path d="M69.8993 62.4216C74.7038 62.5165 80.0197 65.1549 82.5729 72.55C76.5305 71.8897 70.8978 67.4144 69.8993 62.4216Z" fill="#A58DD4"/>
<path d="M72.4023 69.1119C73.1059 68.8764 76.4061 68.9476 76.6733 69.3009C76.989 69.7249 76.1171 71.8915 75.196 73.3044C73.982 72.3622 72.9861 71.0667 72.4023 69.1119Z" fill="#7D5DC2"/>
<path d="M71.4317 68.3345C72.1353 68.0991 75.4355 68.1702 75.7027 68.5235C76.0185 68.9475 75.1465 71.1141 74.2254 72.5271C73.0114 71.5848 72.0156 70.2894 71.4317 68.3345Z" fill="white"/>
<path d="M72.4248 67.2275C72.6464 71.7725 78.7642 76.1534 84.5621 74.5294C84.8785 75.8482 83.957 76.6251 83.0108 76.8134C77.7459 77.2601 72.6724 74.0332 70.9951 69.9119C70.509 68.7815 71.0418 67.3686 72.4248 67.2275Z" fill="#6F4BBB"/>
<path d="M71.4352 75.7559C72.893 78.4172 75.1748 79.6656 77.6743 80.0664C74.1086 81.6201 70.9527 79.5473 71.4352 75.7559Z" fill="#6F4BBB"/>
<path d="M73.8365 76.3916C76.7004 77.9456 79.418 78.4402 82.5717 78.1581C80.2679 79.6409 75.7555 79.8052 73.8365 76.3916Z" fill="#9478CF"/>
<path d="M98.174 30.9913C92.4166 21.336 77.2804 26.9618 78.8169 37.7939C82.5975 31.7191 89.8993 29.7421 98.174 30.9913Z" fill="#5F3EA7"/>
<path d="M98.1723 30.9883C94.9176 25.55 88.0758 25.1961 83.4926 28.1853C83.4692 29.4566 83.858 30.3747 84.5621 31.1045C88.2728 29.3629 93.1245 28.6572 98.1723 30.9883Z" fill="#6F4BBB"/>
<path d="M128.289 67.7191C134.331 67.72 139.284 72.431 139.289 78.3188C139.293 84.2067 134.346 88.9162 128.304 88.9154C122.262 88.9145 117.308 84.2035 117.304 78.3157C117.3 72.4278 122.246 67.7182 128.289 67.7191Z" fill="#6F4BBB"/>
<path d="M128.29 69.2736C133.483 69.2743 137.684 73.3258 137.687 78.2951C137.691 83.288 133.496 87.3146 128.303 87.3139C123.11 87.3131 118.909 83.2617 118.906 78.2924C118.902 73.323 123.121 69.2728 128.29 69.2736Z" fill="#9478CF"/>
<path d="M128.29 69.2719C131.979 69.2724 135.159 71.3217 136.714 74.2893C137.057 78.9994 131.139 82.4604 127.183 80.8349C124.27 79.3037 122.254 76.3125 122.251 72.8977C122.251 72.3325 122.299 71.7909 122.42 71.2492C124.045 70.0249 126.082 69.2715 128.29 69.2719Z" fill="#A58DD4"/>
<path d="M124.46 76.9043C124.022 75.6087 129.021 73.9841 129.483 75.2797L134.444 89.6721C134.882 90.9677 129.883 92.5922 129.421 91.2967L124.46 76.9043Z" fill="#2B3039"/>
<path d="M131.642 75.4438C129.677 76.6211 128.053 77.7749 126.889 79.9179C128.565 81.8965 130.774 82.9802 133.201 82.6979C135.164 80.2959 134.143 77.5403 131.642 75.4438Z" fill="#5F3EA7"/>
<path d="M133.174 78.7411C132.882 77.9168 132.348 77.1397 131.668 76.386C130.164 77.3277 128.928 78.3401 127.982 79.8C129.026 79.8944 130.651 79.6356 133.174 78.7411Z" fill="#6F4BBB"/>
<path d="M133.537 81.2158C131.573 82.3931 129.948 83.5469 128.785 85.6899C130.46 87.6685 132.669 88.7521 135.096 88.4699C137.06 86.0679 136.038 83.3122 133.537 81.2158Z" fill="#5F3EA7"/>
<path d="M135.069 84.2774C134.777 83.4532 134.243 82.676 133.563 81.9224C132.059 82.8641 130.823 83.8765 129.877 85.3364C130.921 85.4543 132.546 85.1719 135.069 84.2774Z" fill="#6F4BBB"/>
<path d="M123.299 81.7812C125.167 81.334 126.817 81.0516 128.832 81.6171C129.076 83.7368 128.471 85.6679 126.894 86.8924C124.273 86.68 123.155 84.466 123.299 81.7812Z" fill="#5F3EA7"/>
<path d="M124.445 84.3477C124.105 83.6883 123.934 82.9348 123.861 82.1106C125.316 81.7811 126.651 81.64 128.131 81.9464C127.598 82.6292 126.482 83.4061 124.445 84.3477Z" fill="#6F4BBB"/>
<path d="M119.543 42.7959C109.618 43.3361 102.029 51.6016 102.594 61.2341C103.16 70.8667 111.682 78.2395 121.607 77.6993C131.531 77.159 139.12 68.8936 138.555 59.261C137.99 49.6285 129.491 42.2556 119.543 42.7959Z" fill="#393F4C"/>
<path d="M119.69 44.9623C111.003 45.4321 104.335 52.6849 104.827 61.1399C105.318 69.5714 112.797 76.0491 121.508 75.5558C130.195 75.086 136.863 67.8332 136.371 59.3781C135.855 50.9467 128.401 44.469 119.69 44.9623Z" fill="#D3E8EF"/>
<path d="M132.589 67.8305C134.189 65.4282 135.061 62.5311 134.889 59.4454C134.52 53.3447 130.172 48.3741 124.419 46.8422C123.961 52.1184 123.48 57.3004 122.974 62.6236C124.892 63.3777 129.845 65.7809 132.589 67.8305Z" fill="white"/>
<path d="M119.452 46.6578C111.881 47.0806 106.086 53.3682 106.552 60.7166C106.626 61.7529 106.797 62.7656 107.088 63.7078C107.064 63.4958 107.04 63.2838 107.039 63.0483C106.548 54.5223 113.24 47.2221 122.024 46.7288L122.097 46.7288C121.248 46.6581 120.35 46.6108 119.452 46.6578Z" fill="white"/>
<path d="M107.091 68.1813C107.383 68.6523 107.698 69.0997 108.038 69.5236L112.692 63.2607L123.42 67.5948L129.622 55.1393L135.858 56.294C135.688 55.7288 135.518 55.1637 135.299 54.622L128.747 53.3967L122.666 65.6168L112.181 61.3769L107.091 68.1813Z" fill="#999999"/>
<path d="M112.23 59.1658C114.025 59.0719 115.555 60.391 115.653 62.1338C115.752 63.8766 114.394 65.3602 112.598 65.4541C110.803 65.5481 109.273 64.229 109.175 62.4861C109.052 60.7669 110.434 59.2833 112.23 59.1658Z" fill="#1EC185"/>
<path d="M128.988 51.1299C130.783 51.036 132.313 52.3551 132.411 54.0979C132.51 55.8407 131.152 57.3243 129.356 57.4182C127.561 57.5122 126.031 56.1931 125.933 54.4502C125.81 52.7074 127.192 51.2239 128.988 51.1299Z" fill="#EA4E64"/>
<path d="M122.832 63.4761C124.627 63.3822 126.157 64.7013 126.255 66.4441C126.354 68.1869 124.996 69.6704 123.2 69.7644C121.405 69.8583 119.875 68.5392 119.777 66.7964C119.654 65.0536 121.036 63.5701 122.832 63.4761Z" fill="#338EEF"/>
<path d="M56.1987 86.2456L51.3701 59.4388L65.5228 50.4473L71.6834 56.0251L76.8449 53.3617L78.7597 71.2607L56.1987 86.2456Z" fill="#D9D9D9"/>
<path d="M33.6376 59.5203L34.3036 51.196L46.9577 42.5371L56.7813 47.4495L45.2094 55.2751L33.6376 59.5203Z" fill="#D9D9D9"/>
<path d="M48.3467 38.7889C48.0241 38.8369 47.7161 38.9553 47.4444 39.1356C47.4444 39.1356 44.6331 40.9046 41.6107 42.8181C38.5882 44.7293 35.2258 46.8362 34.4568 47.2629L34.3168 47.3295C31.5255 49.0519 30.9455 51.8654 30.8455 53.4433C30.8388 53.5166 30.8455 53.5766 30.8455 53.6544C30.821 54.2456 30.8455 54.6256 30.8455 54.6256V83.6565C30.8455 87.8746 35.7636 89.9036 40.4306 89.9036C41.9862 89.9036 43.5419 89.6525 44.8753 89.208C45.7643 88.7635 46.4021 87.8746 46.4021 86.9856V63.6507C46.4021 58.5392 47.5133 56.139 50.8469 54.1389C51.7358 53.6944 61.0565 47.2606 61.0565 47.2606C61.5009 46.8162 61.9588 45.9139 61.9588 45.2472V45.0383C61.9588 44.1493 61.5143 43.4693 60.8476 43.0248C60.1809 42.5803 59.2919 42.5803 58.6252 43.0248C58.4029 43.247 44.8464 52.3743 41.9574 53.93C39.0683 55.7079 36.3725 56.1368 35.7058 55.2479C35.4991 55.0412 35.3191 54.4078 35.2902 53.79V53.65C35.2924 53.0455 35.448 51.9076 36.6792 51.1498C37.9282 50.4542 41.0284 48.474 44.0419 46.5672C45.3154 45.7605 45.4732 45.6739 46.471 45.0383C46.6024 45.5812 46.9333 46.0547 47.3981 46.3646C47.8628 46.6745 48.4272 46.798 48.9789 46.7106C49.5306 46.6232 50.0291 46.3312 50.3753 45.8929C50.7214 45.4545 50.8898 44.9018 50.8469 44.3449V41.0113C50.8493 40.6945 50.7841 40.3809 50.6555 40.0914C50.5268 39.8019 50.3378 39.5433 50.101 39.3328C49.8643 39.1224 49.5852 38.965 49.2827 38.8712C48.9801 38.7774 48.661 38.7493 48.3467 38.7889ZM66.1257 46.5672C65.7723 46.626 65.4384 46.7694 65.1523 46.9851C65.1523 46.9851 53.9649 54.5123 52.0269 55.8035L51.9581 55.8746C50.3491 57.0813 49.3957 58.517 48.9712 59.8304C48.7347 60.5717 48.6177 61.3458 48.6245 62.1239V62.8195C48.6213 62.8884 48.6213 62.9573 48.6245 63.0262V89.9036C48.6245 94.1261 53.487 96.5708 57.9318 96.5708C59.9319 96.5708 61.7365 96.1396 63.0699 95.2507C65.7368 93.695 78.6266 83.6543 78.6266 83.6543C79.2933 83.2098 79.7378 82.5831 79.7378 81.9164V53.0255C79.7378 51.9143 79.3066 51.2476 78.4177 50.8031C77.751 50.3586 76.6553 50.5675 75.9886 51.012C72.4328 53.6789 62.861 61.2083 60.6387 62.5417C57.5273 64.3196 54.596 64.7641 53.4848 63.6529C53.0404 63.2084 53.0692 62.7906 53.0692 62.1239C53.0811 61.7387 53.1278 61.4142 53.2093 61.1505C53.3337 60.7638 53.5871 60.2882 54.5271 59.5548C54.5716 59.5193 54.5493 59.5215 54.596 59.4859C56.2028 58.4125 61.1165 55.0634 64.3211 52.8855C64.5027 53.3725 64.8493 53.7806 65.3005 54.0386C65.7518 54.2966 66.2792 54.3882 66.7911 54.2976C67.3029 54.2069 67.7668 53.9397 68.102 53.5425C68.4373 53.1452 68.6226 52.643 68.6259 52.1232V48.7896C68.6284 48.4729 68.5631 48.1592 68.4345 47.8697C68.3058 47.5803 68.1168 47.3216 67.88 47.1112C67.6433 46.9007 67.3643 46.7433 67.0617 46.6495C66.7591 46.5557 66.44 46.5276 66.1257 46.5672ZM75.293 62.8195V67.2643L64.1811 75.8737V71.429L75.293 62.8195Z" fill="#1EC185"/>
<path d="M28.7708 74.4655L27.28 73.2594C26.9794 70.6068 27.4359 68.1773 27.9276 66.2989C29.4383 65.723 32.7116 67.1181 33.7549 71.5925C32.9295 73.5961 30.8373 74.4499 28.7708 74.4655Z" fill="#6F4BBB"/>
<path d="M30.3573 73.0932L28.1661 73.2108C28.0185 71.2727 28.1856 69.1834 28.627 67.7005L30.3573 73.0932Z" fill="#9478CF"/>
<path d="M29.8148 67.4197L28.4819 66.1641C28.3153 63.6713 28.8 61.4521 29.3397 59.7057C30.7587 59.2854 33.7484 60.8589 34.5543 65.1454C33.7181 66.9389 31.7374 67.5589 29.8148 67.4197Z" fill="#6F4BBB"/>
<path d="M31.3444 66.2539L29.2964 66.2172C29.2318 64.3853 29.4636 62.428 29.9353 61.0765L31.3444 66.2539Z" fill="#9478CF"/>
<path d="M30.5523 80.4227L29.0838 80.1606C28.2934 78.1801 28.1502 76.0538 28.152 74.2972C29.2654 73.111 32.2321 72.6657 34.0486 75.7395C33.7965 77.7276 32.2512 79.4042 30.5696 80.423L30.5523 80.4227Z" fill="#6F4BBB"/>
<path d="M31.5765 78.5706L29.7936 79.7168C29.2678 78.2414 28.9582 76.4819 29.018 75.0955L31.5592 78.5703L31.5765 78.5706Z" fill="#9478CF"/>
</svg>
