<svg width="188" height="118" viewBox="0 0 188 118" fill="none" xmlns="http://www.w3.org/2000/svg">
<path fill-rule="evenodd" clip-rule="evenodd" d="M93.699 86.7842C145.411 86.7842 187.398 91.2318 187.398 96.7087C187.398 102.186 145.411 106.633 93.699 106.633C41.9867 106.633 0 102.19 0 96.7087C0 91.2275 41.9867 86.7842 93.699 86.7842Z" fill="#E1D7FF"/>
<g filter="url(#filter0_d_234_32774)">
<rect x="64.7295" y="14" width="80" height="80" rx="40" fill="#F6F6F6"/>
<rect x="62.7295" y="12" width="84" height="84" rx="42" stroke="white" stroke-width="4"/>
<path d="M80.4763 61.6748H97.9896C100.171 64.9969 103.916 67.2117 108.166 67.2117H80.4763C78.9557 67.2117 77.7227 65.9721 77.7227 64.4433C77.7227 62.9145 78.9557 61.6748 80.4763 61.6748Z" fill="#E63060"/>
<path d="M74.9905 57.7566C73.4699 57.7566 72.2369 56.517 72.2369 54.9882C72.2369 53.4594 73.4699 52.2197 74.9905 52.2197H96.3375C96.1386 53.1056 96.0285 54.0346 96.0285 54.9882C96.0285 55.9418 96.1386 56.8707 96.3375 57.7566H74.9905Z" fill="#A735DF"/>
<path d="M69.4831 48.2976C67.9625 48.2976 66.7295 47.058 66.7295 45.5292C66.7295 44.0004 67.9625 42.7607 69.4831 42.7607H108.166C108.077 42.7607 107.967 42.7607 107.878 42.7607H107.811C107.722 42.7607 107.634 42.7607 107.523 42.7607H107.502C107.413 42.7607 107.324 42.7607 107.239 42.7823H107.196C107.107 42.7823 107.019 42.8038 106.908 42.8038H106.866C106.777 42.8038 106.713 42.8253 106.624 42.8253H106.581C106.492 42.8469 106.404 42.8469 106.318 42.8684H106.251C106.073 42.8899 105.899 42.9361 105.721 42.9576L105.654 42.9791C105.565 43.0007 105.501 43.0222 105.412 43.0222L105.345 43.0437L105.146 43.0868L105.079 43.1083C104.99 43.1299 104.926 43.1514 104.837 43.176L104.794 43.1975C104.727 43.2191 104.663 43.2406 104.595 43.2652L104.507 43.2867L104.308 43.3544L104.219 43.376C104.13 43.3975 104.066 43.419 103.977 43.4652L103.934 43.4867L103.757 43.5544L103.668 43.5974C103.601 43.619 103.537 43.6651 103.469 43.6866L103.381 43.7297L103.228 43.7974L103.139 43.8404C103.072 43.862 103.007 43.9081 102.94 43.9296L102.851 43.9727L102.72 44.0404L102.567 44.1296L102.435 44.1973L102.325 44.2649L102.215 44.3326L102.062 44.4218L101.973 44.4895L101.863 44.5572L101.71 44.6464L101.6 44.714L101.533 44.7571C101.401 44.8463 101.245 44.957 101.113 45.0463L101.092 45.0678C101.003 45.1355 100.915 45.2001 100.826 45.2677L100.804 45.2893C100.673 45.4 100.517 45.5107 100.385 45.6215L100.364 45.643C99.4827 46.3966 98.6903 47.2825 98.0508 48.2792H69.5505L69.4831 48.2976Z" fill="#6433F9"/>
<path d="M121.01 54.9875C121.01 47.8572 115.261 42.0742 108.166 42.0742C101.071 42.0742 95.3216 47.8541 95.3216 54.9875C95.3216 62.1209 101.071 67.9008 108.166 67.9008C115.261 67.9008 121.01 62.1178 121.01 54.9875ZM97.2614 54.9875C97.2614 48.9184 102.151 44.0244 108.166 44.0244C114.202 44.0244 119.07 48.94 119.07 54.9875C119.07 61.0566 114.181 65.9506 108.166 65.9506C102.129 65.9506 97.2614 61.0319 97.2614 54.9875Z" fill="#210F59"/>
<path d="M132.068 38.0233L110.788 25.7313C109.114 24.7562 107.196 24.7562 105.501 25.7313L84.2213 38.0233C84.0224 38.134 83.8235 38.2663 83.6491 38.3985H93.804L108.056 30.1824C108.077 30.1824 108.144 30.1393 108.166 30.1393C108.187 30.1393 108.255 30.1609 108.276 30.1824L129.556 42.4743C129.577 42.4743 129.623 42.5174 129.644 42.542C129.666 42.585 129.666 42.6527 129.666 42.6742V67.3258C129.666 67.3688 129.666 67.4365 129.644 67.458C129.644 67.4796 129.577 67.5011 129.556 67.5257L108.276 79.8176C108.255 79.8176 108.187 79.8607 108.166 79.8607C108.144 79.8607 108.077 79.8392 108.056 79.8176L93.804 71.6015H83.6461C83.8235 71.7337 105.498 84.2687 105.498 84.2687C107.171 85.2438 109.09 85.2438 110.785 84.2687L132.064 71.9768C133.76 70.9801 134.729 69.2975 134.729 67.3258V42.6742C134.732 40.7025 133.766 38.9953 132.068 38.0233Z" fill="#210F59"/>
<path d="M108.166 60.103C110.976 60.103 113.254 57.8128 113.254 54.9875C113.254 52.1623 110.976 49.8721 108.166 49.8721C105.356 49.8721 103.078 52.1623 103.078 54.9875C103.078 57.8128 105.356 60.103 108.166 60.103Z" fill="#210F59"/>
</g>
<path d="M55.8634 94.0767L51.0348 67.2699L65.1875 58.2783L71.348 63.8561L76.5096 61.1927L78.4244 79.0917L55.8634 94.0767Z" fill="#D9D9D9"/>
<path d="M33.3022 67.3514L33.9683 59.027L46.6224 50.3682L56.446 55.2806L44.8741 63.1062L33.3022 67.3514Z" fill="#D9D9D9"/>
<path d="M48.0114 46.62C47.6888 46.6679 47.3808 46.7863 47.1091 46.9667C47.1091 46.9667 44.2978 48.7357 41.2753 50.6492C38.2529 52.5604 34.8904 54.6672 34.1215 55.0939L33.9815 55.1606C31.1902 56.8829 30.6101 59.6965 30.5101 61.2743C30.5035 61.3477 30.5101 61.4077 30.5101 61.4855C30.4857 62.0766 30.5101 62.4566 30.5101 62.4566V91.4876C30.5101 95.7056 35.4283 97.7347 40.0953 97.7347C41.6509 97.7347 43.2066 97.4836 44.54 97.0391C45.429 96.5946 46.0668 95.7056 46.0668 94.8167V71.4817C46.0668 66.3703 47.178 63.9701 50.5115 61.9699C51.4005 61.5255 60.7211 55.0917 60.7211 55.0917C61.1656 54.6472 61.6234 53.7449 61.6234 53.0782V52.8693C61.6234 51.9804 61.179 51.3003 60.5122 50.8558C59.8455 50.4114 58.9566 50.4114 58.2899 50.8558C58.0676 51.0781 44.5111 60.2054 41.622 61.761C38.7329 63.5389 36.0372 63.9679 35.3705 63.0789C35.1638 62.8722 34.9838 62.2389 34.9549 61.621V61.481C34.9571 60.8765 35.1127 59.7387 36.3439 58.9808C37.5929 58.2852 40.6931 56.3051 43.7066 54.3983C44.98 53.5916 45.1378 53.5049 46.1357 52.8693C46.267 53.4122 46.598 53.8858 47.0627 54.1957C47.5275 54.5056 48.0918 54.6291 48.6435 54.5417C49.1952 54.4543 49.6938 54.1623 50.0399 53.7239C50.3861 53.2855 50.5545 52.7329 50.5115 52.1759V48.8424C50.514 48.5256 50.4488 48.212 50.3201 47.9225C50.1915 47.633 50.0025 47.3743 49.7657 47.1639C49.5289 46.9534 49.2499 46.796 48.9473 46.7022C48.6448 46.6084 48.3257 46.5804 48.0114 46.62ZM65.7904 54.3983C65.437 54.4571 65.103 54.6004 64.817 54.8161C64.817 54.8161 53.6295 62.3433 51.6916 63.6345L51.6227 63.7056C50.0137 64.9124 49.0603 66.348 48.6358 67.6615C48.3994 68.4027 48.2823 69.1769 48.2892 69.9549V70.6506C48.286 70.7194 48.286 70.7884 48.2892 70.8572V97.7347C48.2892 101.957 53.1517 104.402 57.5965 104.402C59.5966 104.402 61.4012 103.971 62.7346 103.082C65.4015 101.526 78.2913 91.4853 78.2913 91.4853C78.958 91.0409 79.4025 90.4142 79.4025 89.7475V60.8565C79.4025 59.7453 78.9713 59.0786 78.0824 58.6342C77.4156 58.1897 76.32 58.3986 75.6533 58.8431C72.0975 61.5099 62.5257 69.0393 60.3033 70.3728C57.192 72.1507 54.2607 72.5951 53.1495 71.4839C52.705 71.0395 52.7339 70.6217 52.7339 69.9549C52.7458 69.5697 52.7924 69.2453 52.8739 68.9815C52.9984 68.5949 53.2517 68.1193 54.1918 67.3859C54.2362 67.3503 54.214 67.3525 54.2607 67.317C55.8675 66.2436 60.7811 62.8945 63.9858 60.7165C64.1674 61.2036 64.5139 61.6116 64.9652 61.8696C65.4165 62.1276 65.9439 62.2193 66.4557 62.1286C66.9676 62.038 67.4315 61.7708 67.7667 61.3735C68.1019 60.9763 68.2873 60.4741 68.2906 59.9542V56.6207C68.293 56.3039 68.2278 55.9903 68.0992 55.7008C67.9705 55.4113 67.7815 55.1527 67.5447 54.9422C67.308 54.7318 67.0289 54.5744 66.7264 54.4805C66.4238 54.3867 66.1047 54.3587 65.7904 54.3983ZM74.9577 70.6506V75.0953L63.8458 83.7048V79.26L74.9577 70.6506Z" fill="#E63060"/>
<defs>
<filter id="filter0_d_234_32774" x="45.7295" y="0" width="118" height="118" filterUnits="userSpaceOnUse" color-interpolation-filters="sRGB">
<feFlood flood-opacity="0" result="BackgroundImageFix"/>
<feColorMatrix in="SourceAlpha" type="matrix" values="0 0 0 0 0 0 0 0 0 0 0 0 0 0 0 0 0 0 127 0" result="hardAlpha"/>
<feOffset dy="5"/>
<feGaussianBlur stdDeviation="7.5"/>
<feComposite in2="hardAlpha" operator="out"/>
<feColorMatrix type="matrix" values="0 0 0 0 0 0 0 0 0 0 0 0 0 0 0 0 0 0 0.05 0"/>
<feBlend mode="normal" in2="BackgroundImageFix" result="effect1_dropShadow_234_32774"/>
<feBlend mode="normal" in="SourceGraphic" in2="effect1_dropShadow_234_32774" result="shape"/>
</filter>
</defs>
</svg>
