<svg width="22" height="22" viewBox="0 0 22 22" fill="none" xmlns="http://www.w3.org/2000/svg">
<path d="M10.8994 7.14057C10.1244 7.14057 9.3667 7.3704 8.72227 7.801C8.07783 8.2316 7.57556 8.84362 7.27896 9.55968C6.98236 10.2757 6.90475 11.0637 7.05596 11.8238C7.20716 12.584 7.58039 13.2822 8.12843 13.8303C8.67648 14.3783 9.37474 14.7516 10.1349 14.9028C10.8951 15.054 11.683 14.9764 12.399 14.6798C13.1151 14.3832 13.7271 13.8809 14.1577 13.2365C14.5883 12.592 14.8182 11.8344 14.8182 11.0593C14.8171 10.0203 14.4039 9.02421 13.6692 8.28954C12.9345 7.55487 11.9384 7.14165 10.8994 7.14057ZM10.8994 13.6718C10.3827 13.6718 9.87761 13.5186 9.44798 13.2315C9.01836 12.9445 8.68351 12.5365 8.48577 12.0591C8.28804 11.5817 8.2363 11.0564 8.33711 10.5496C8.43791 10.0429 8.68673 9.57737 9.05209 9.212C9.41746 8.84664 9.88296 8.59782 10.3897 8.49702C10.8965 8.39622 11.4218 8.44795 11.8992 8.64569C12.3765 8.84342 12.7846 9.17827 13.0716 9.60789C13.3587 10.0375 13.5119 10.5426 13.5119 11.0593C13.5119 11.7522 13.2367 12.4167 12.7467 12.9066C12.2568 13.3966 11.5923 13.6718 10.8994 13.6718ZM18.0838 11.2357C18.0871 11.1181 18.0871 11.0005 18.0838 10.883L19.3019 9.3612C19.3657 9.2813 19.4099 9.18751 19.4309 9.0874C19.4519 8.98728 19.4491 8.88364 19.4227 8.78481C19.223 8.03421 18.9243 7.31352 18.5344 6.64175C18.4834 6.55383 18.4125 6.47905 18.3275 6.42335C18.2425 6.36765 18.1456 6.33257 18.0446 6.3209L16.1081 6.10537C16.0275 6.02046 15.9459 5.93882 15.8632 5.86045L15.6346 3.91903C15.6228 3.81797 15.5876 3.72105 15.5318 3.63601C15.4759 3.55096 15.401 3.48014 15.3129 3.42919C14.6409 3.04004 13.9202 2.74163 13.1698 2.54175C13.0709 2.51546 12.9673 2.51277 12.8672 2.5339C12.767 2.55503 12.6733 2.59939 12.5935 2.6634L11.0758 3.87495H10.7231L9.20128 2.65932C9.12138 2.59545 9.0276 2.55124 8.92748 2.53025C8.82737 2.50926 8.72373 2.51209 8.6249 2.53849C7.87442 2.73853 7.15378 3.03722 6.48183 3.42674C6.39392 3.47779 6.31914 3.54865 6.26344 3.63369C6.20774 3.71873 6.17266 3.8156 6.16099 3.91658L5.94546 5.85636C5.86055 5.93746 5.77891 6.0191 5.70053 6.10129L3.75912 6.32416C3.65806 6.33592 3.56114 6.37113 3.4761 6.42697C3.39105 6.48282 3.32023 6.55776 3.26928 6.64583C2.88012 7.31786 2.58172 8.03849 2.38184 8.7889C2.35555 8.88778 2.35286 8.99146 2.37399 9.09158C2.39512 9.1917 2.43948 9.28545 2.50349 9.36528L3.71503 10.883V11.2357L2.4994 12.7574C2.43554 12.8373 2.39133 12.9311 2.37034 13.0312C2.34935 13.1314 2.35217 13.235 2.37858 13.3338C2.57825 14.0844 2.87696 14.8051 3.26683 15.4769C3.31787 15.5648 3.38874 15.6396 3.47378 15.6953C3.55882 15.751 3.65568 15.7861 3.75667 15.7977L5.69319 16.0133C5.77428 16.0982 5.85592 16.1798 5.93811 16.2582L6.16425 18.1996C6.17601 18.3007 6.21122 18.3976 6.26706 18.4826C6.32291 18.5677 6.39785 18.6385 6.48592 18.6895C7.15795 19.0786 7.87857 19.377 8.62898 19.5769C8.72787 19.6032 8.83155 19.6059 8.93167 19.5847C9.03178 19.5636 9.12554 19.5193 9.20537 19.4552L10.7231 18.2437C10.8406 18.247 10.9582 18.247 11.0758 18.2437L12.5975 19.4618C12.6774 19.5256 12.7712 19.5699 12.8713 19.5908C12.9714 19.6118 13.0751 19.609 13.1739 19.5826C13.9245 19.3829 14.6452 19.0842 15.317 18.6944C15.4049 18.6433 15.4797 18.5724 15.5354 18.4874C15.5911 18.4024 15.6262 18.3055 15.6378 18.2045L15.8534 16.268C15.9383 16.1874 16.0199 16.1058 16.0983 16.0231L18.0397 15.7945C18.1408 15.7827 18.2377 15.7475 18.3227 15.6917C18.4078 15.6358 18.4786 15.5609 18.5295 15.4728C18.9187 14.8008 19.2171 14.0802 19.417 13.3297C19.4433 13.2309 19.446 13.1272 19.4248 13.0271C19.4037 12.9269 19.3593 12.8332 19.2953 12.7534L18.0838 11.2357ZM16.7694 10.705C16.7832 10.941 16.7832 11.1776 16.7694 11.4136C16.7596 11.5752 16.8103 11.7347 16.9114 11.861L18.0699 13.3085C17.937 13.731 17.7668 14.1408 17.5613 14.5331L15.7162 14.7421C15.5555 14.76 15.4072 14.8368 15.2998 14.9577C15.1427 15.1344 14.9753 15.3018 14.7986 15.4589C14.6777 15.5663 14.6009 15.7146 14.583 15.8753L14.3781 17.7187C13.9858 17.9243 13.576 18.0945 13.1535 18.2274L11.7052 17.0689C11.5893 16.9763 11.4453 16.9259 11.297 16.926H11.2578C11.0218 16.9399 10.7852 16.9399 10.5492 16.926C10.3876 16.9163 10.2282 16.9669 10.1018 17.0681L8.65021 18.2274C8.22775 18.0944 7.81794 17.9242 7.4256 17.7187L7.2166 15.8761C7.19876 15.7154 7.12197 15.5671 7.00107 15.4598C6.82431 15.3026 6.65693 15.1352 6.4998 14.9585C6.39247 14.8376 6.24411 14.7608 6.08343 14.7429L4.23998 14.5372C4.0344 14.1449 3.86418 13.7351 3.73136 13.3126L4.88984 11.8643C4.991 11.7379 5.04162 11.5785 5.0319 11.4169C5.01803 11.1809 5.01803 10.9443 5.0319 10.7083C5.04162 10.5467 4.991 10.3872 4.88984 10.2609L3.73136 8.81012C3.86431 8.38766 4.03451 7.97785 4.23998 7.58551L6.08261 7.37651C6.24329 7.35868 6.39165 7.28188 6.49898 7.16098C6.65611 6.98422 6.82349 6.81684 7.00025 6.65971C7.12163 6.55231 7.19875 6.40361 7.2166 6.24252L7.42152 4.3999C7.8138 4.19431 8.22362 4.0241 8.64613 3.89127L10.0944 5.04975C10.2208 5.15091 10.3802 5.20154 10.5418 5.19181C10.7778 5.17794 11.0145 5.17794 11.2505 5.19181C11.412 5.20154 11.5715 5.15091 11.6979 5.04975L13.1486 3.89127C13.5711 4.02422 13.9809 4.19443 14.3732 4.3999L14.5822 6.24252C14.6001 6.40321 14.6769 6.55156 14.7977 6.65889C14.9745 6.81603 15.1419 6.98341 15.299 7.16016C15.4064 7.28106 15.5547 7.35786 15.7154 7.3757L17.5588 7.58061C17.7644 7.9729 17.9346 8.38272 18.0675 8.80522L16.909 10.2535C16.8068 10.381 16.7562 10.542 16.7669 10.705H16.7694Z" fill="#B0BBD1"/>
</svg>
