<svg width="189" height="104" viewBox="0 0 189 104" fill="none" xmlns="http://www.w3.org/2000/svg">
<path fill-rule="evenodd" clip-rule="evenodd" d="M94.4617 79.1857C146.174 79.1857 188.161 83.6332 188.161 89.1102C188.161 94.5871 146.174 99.0347 94.4617 99.0347C42.7494 99.0347 0.762695 94.5914 0.762695 89.1102C0.762695 83.629 42.7494 79.1857 94.4617 79.1857Z" fill="#C5E6F8"/>
<path d="M74.3861 80.6312L90.3271 80.6334L90.337 94.1734L74.6871 94.1713C72.2115 93.1113 70.1722 91.6039 68.6909 89.8376C69.2711 86.9178 71.4278 83.1033 74.3861 80.6312Z" fill="#6F4BBB"/>
<path d="M75.3084 81.7614C73.199 83.8804 71.1143 86.4468 70.4128 89.3666C71.6755 90.8268 73.3262 91.9573 75.098 92.7817L88.4914 92.7835L88.4834 81.7632L75.3084 81.7614Z" fill="#7D5DC2"/>
<path d="M71.6251 86.3788C71.213 86.9439 70.4383 89.2278 70.3899 89.3691C71.6526 90.8292 73.3033 91.9596 75.075 92.784L82.2083 92.785L82.204 86.8747C78.6859 86.8507 75.1677 86.6854 71.6251 86.3788Z" fill="#9478CF"/>
<path d="M74.3206 91.3024C75.9708 91.8442 76.7479 92.8568 76.9915 94.1754L71.2413 94.1746C71.6287 93.0445 72.7195 91.6554 74.3206 91.3024Z" fill="#5F3EA7"/>
<path d="M74.296 91.9151C73.3984 92.1505 72.6467 92.8333 72.162 93.6104L74.3215 93.6107L74.3203 91.9151L74.296 91.9151Z" fill="#6F4BBB"/>
<path d="M79.9977 90.9724C82.2059 91.5613 83.2744 92.9976 83.5421 94.1748L75.8754 94.1739C76.3841 92.9261 77.9356 91.2547 79.9977 90.9724Z" fill="#5F3EA7"/>
<path d="M79.9482 91.5612C78.7351 91.773 77.5468 92.597 76.8439 93.6095L79.9982 93.6099L79.9967 91.5612L79.9482 91.5612Z" fill="#6F4BBB"/>
<path d="M109.44 80.6294L93.4993 80.6272L93.5091 94.1673L109.159 94.1694C111.633 93.1101 113.67 91.6033 115.149 89.8374C114.589 86.9174 112.427 83.1023 109.44 80.6294Z" fill="#6F4BBB"/>
<path d="M108.544 81.7596C110.656 83.8792 112.745 86.4462 113.45 89.3662C112.19 90.826 110.541 91.956 108.77 92.78L95.3767 92.7781L95.3687 81.7578L108.544 81.7596Z" fill="#7D5DC2"/>
<path d="M112.209 86.3759C112.622 86.9411 113.4 89.2252 113.449 89.3665C112.188 90.8262 110.539 91.9563 108.768 92.7802L101.635 92.7792L101.631 86.869C105.149 86.8459 108.691 86.6816 112.209 86.3759Z" fill="#9478CF"/>
<path d="M109.541 91.2982C107.892 91.8395 107.116 92.8519 106.874 94.1705L112.625 94.1712C112.236 93.041 111.143 91.6516 109.541 91.2982Z" fill="#5F3EA7"/>
<path d="M109.568 91.9099C110.466 92.1455 111.219 92.8286 111.704 93.6058L109.545 93.6055L109.544 91.9099L109.568 91.9099Z" fill="#6F4BBB"/>
<path d="M103.866 90.9694C101.659 91.5578 100.592 92.9938 100.326 94.171L107.993 94.1719C107.483 92.924 105.929 91.2522 103.866 90.9694Z" fill="#5F3EA7"/>
<path d="M103.889 91.5576C105.103 91.7697 106.292 92.5941 106.997 93.6068L103.842 93.6063L103.841 91.5576L103.889 91.5576Z" fill="#6F4BBB"/>
<path d="M49.3071 84.8026C49.406 87.2755 49.9898 89.2069 51.1069 90.4082C52.854 90.2671 54.3328 88.3832 55.0111 86.7582C53.9906 85.0388 52.0003 84.2613 49.3071 84.8026Z" fill="#5F3EA7"/>
<path d="M50.2058 85.4857C50.2554 86.9226 50.6448 88.4066 51.4466 89.4902L52.1234 85.5802C51.5165 85.4388 50.8612 85.4387 50.2058 85.4857Z" fill="#6F4BBB"/>
<path d="M53.7219 86.1214C53.8934 88.3352 54.186 90.2899 55.6191 92.2684C58.1909 91.7271 60.2039 90.3379 61.0516 88.1243C59.7877 85.3215 56.7785 84.9443 53.7219 86.1214Z" fill="#5F3EA7"/>
<path d="M55.9831 91.3272L57.7027 86.4047C56.7317 86.2161 55.6397 86.3573 54.5963 86.6869C54.7674 88.3592 55.0598 89.8432 55.9831 91.3272Z" fill="#6F4BBB"/>
<path d="M62.1652 87.9342C62.6038 90.4542 65.0555 91.7027 66.293 91.6322C66.8504 90.7138 67.4077 89.5128 67.4066 88.0762L66.3383 87.2047C64.7123 86.8983 62.9895 87.0158 62.1652 87.9342Z" fill="#5F3EA7"/>
<path d="M65.8551 90.7842C66.34 90.0776 66.6548 88.9941 66.7026 87.9577L64.9548 87.6748L65.8551 90.7842Z" fill="#6F4BBB"/>
<path d="M67.4157 54.1545L67.4401 88.05C61.3971 88.7794 54.3582 88.5429 49.307 84.7735C49.4018 81.6171 49.7151 78.5315 50.2955 75.5872C51.3839 70.2639 53.4434 65.4119 57.0085 61.4316C60.1612 57.9223 63.3153 56.2503 67.4157 54.1545Z" fill="#6F4BBB"/>
<path d="M51.0055 83.9968C54.1625 86.3528 61.736 87.0839 65.7162 86.5898L65.6949 56.8867C55.4316 62.1853 51.3609 71.9602 51.0055 83.9968Z" fill="#9478CF"/>
<path d="M51.006 83.9988C52.6091 85.2004 55.3286 85.9545 58.1692 86.3788C58.5767 78.8172 58.5202 67.4394 56.7701 64.424C52.9624 69.6767 51.2434 76.3901 51.006 83.9988Z" fill="#A58DD4"/>
<path d="M58.1581 78.959C59.4927 78.9592 60.5611 79.9956 60.5621 81.2909C60.563 82.5862 59.4961 83.6223 58.1615 83.6221C56.8269 83.6219 55.7584 82.5855 55.7574 81.2902C55.7565 79.9949 56.8234 78.9588 58.1581 78.959Z" fill="#9478CF"/>
<path d="M63.8452 27.7131C63.1383 23.3087 63.9131 21.0242 64.8323 16.9969C67.7218 19.329 69.5673 21.0015 73.0872 22.7213C73.7878 18.4585 75.3379 14.4313 77.592 10.6632L78.925 8.44952C84.0724 12.2186 88.4669 15.2339 91.8679 20.2275C95.2616 15.2349 99.6516 12.2209 104.793 8.45326L106.13 10.6674C108.389 14.436 109.945 18.4637 110.652 22.7268C114.17 21.008 116.013 19.336 118.899 17.0048C119.848 21.0088 120.602 23.2935 119.902 27.7212L126.261 29.4178C125.011 45.5274 123.735 59.2582 122.12 75.3676C121.904 77.5815 121.663 79.8189 121.422 82.0328C121.349 82.6687 120.549 83.8227 117.152 83.8457C100.554 84.9267 83.1793 84.9242 66.6043 83.8384C63.2069 83.7908 62.4053 82.6602 62.332 82.0243C62.0877 79.7632 61.8433 77.5022 61.6233 75.2411C61.5255 74.3226 61.4278 73.404 61.33 72.4619C59.9363 58.0949 58.5668 43.7749 57.4157 29.3843L63.7724 27.6895L63.8452 27.6895L63.8452 27.7131Z" fill="#6F4BBB"/>
<path d="M79.6303 11.8179C76.8915 16.3395 75.3662 21.1204 75.0786 26.0664C72.2629 25.0296 69.0585 23.3334 66.2904 21.1427C65.7341 23.5449 65.8577 26.6774 66.612 29.4095C64.2827 29.9274 62.1234 30.4687 59.9641 31.0808C61.1397 45.8718 62.2426 60.6627 63.758 75.4066C63.9046 76.8669 64.2224 80.023 64.3933 81.4832C65.0003 81.813 66.2621 81.8132 66.7717 81.8368C83.4681 82.9227 100.358 82.9251 117.053 81.8441C117.586 81.7971 118.824 81.7973 119.43 81.4912C119.599 80.0545 119.912 76.8279 120.057 75.4148C121.526 60.6478 122.632 45.8571 123.786 31.09C121.626 30.4774 119.465 29.9353 117.135 29.4169C117.886 26.6849 118.005 23.5525 117.445 21.1501C114.704 23.3636 111.478 25.0353 108.664 26.0712C108.369 21.1488 106.837 16.3439 104.091 11.8214C98.5129 15.9187 94.8508 18.8858 91.8703 24.8205C88.8569 18.8849 85.2147 15.9168 79.6061 11.8179L79.6303 11.8179Z" fill="#9478CF"/>
<path d="M79.6379 11.8172C80.0552 18.3892 81.7596 25.6917 84.9658 28.7543C80.6934 28.3062 78.4114 27.8112 75.109 26.0677C72.2683 25.0309 69.063 23.3345 66.2943 21.1435C67.7781 25.4779 69.2124 28.5638 72.1516 31.5793C69.6515 31.5319 68.2188 30.7308 66.6158 29.4115C64.286 29.9294 62.126 30.471 59.9662 31.0831C61.1419 45.8761 62.2447 60.6692 63.7602 75.4151C63.9069 76.8756 64.2247 80.0321 64.3956 81.4925C65.0027 81.8224 66.2649 81.8225 66.7747 81.8462C75.125 82.389 83.5237 82.6492 91.9222 82.6502L91.9159 73.8405C78.9547 74.8282 67.0953 54.9929 80.7032 41.9684L77.9856 43.4285C77.6443 41.332 78.3221 38.7174 79.2187 36.5975C80.9877 32.4756 85.6945 29.4139 91.8836 28.6845L91.8808 24.7978C88.8667 18.8614 85.2479 15.893 79.6379 11.8172Z" fill="#A58DD4"/>
<path d="M111.603 31.5715C114.513 28.557 115.967 25.4481 117.444 21.1144C118.004 23.517 117.885 26.6496 117.135 29.3817C115.534 30.7241 114.103 31.5247 111.603 31.5715ZM106.676 30.346C108.132 30.3462 109.297 31.5005 109.299 32.8901C109.3 34.3034 108.111 35.4338 106.679 35.4336C105.223 35.4334 104.057 34.2791 104.056 32.8894C104.055 31.4997 105.244 30.3458 106.676 30.346ZM116.266 36.0944C117.261 36.0946 118.087 36.8955 118.087 37.8612C118.088 38.8269 117.264 39.6276 116.269 39.6275C115.274 39.6273 114.448 38.8264 114.447 37.8607C114.446 36.8714 115.247 36.0943 116.266 36.0944ZM98.8113 28.7197C102.013 25.6817 103.706 18.3803 104.114 11.7853C106.86 16.308 108.392 21.0896 108.687 26.0359C105.363 27.7784 103.082 28.2727 98.8113 28.7197Z" fill="#7D5DC2"/>
<path d="M68.1062 34.053C70.4848 34.0533 72.4278 35.9379 72.4295 38.2463C72.4312 40.5547 70.4908 42.4388 68.1123 42.4385C65.7337 42.4382 63.7907 40.5535 63.789 38.2451C63.7873 35.9368 65.7277 34.0527 68.1062 34.053ZM65.3243 46.9135C66.2709 46.9136 67.0481 47.6675 67.0488 48.5861C67.0495 49.5048 66.2733 50.2584 65.3268 50.2583C64.3802 50.2582 63.603 49.5043 63.6023 48.5857C63.6016 47.667 64.3778 46.9134 65.3243 46.9135Z" fill="#9478CF"/>
<path d="M92.1691 36.3408C102.434 36.3423 110.763 44.4216 110.77 54.3839C110.777 64.3461 102.46 72.423 92.1956 72.4215C81.9311 72.42 73.602 64.3407 73.5947 54.3785C73.5873 44.4163 81.9046 36.3393 92.1691 36.3408Z" fill="#D3E8EF"/>
<path d="M74.0786 50.2798C75.6994 43.4973 81.2766 38.1756 88.3125 36.74C95.98 36.1759 102.196 41.3815 102.201 48.4704C102.206 55.6064 95.9019 61.9407 88.1616 62.599C80.3971 63.2573 74.1085 58.028 74.1033 50.8685C74.0789 50.6801 74.0787 50.4682 74.0786 50.2798Z" fill="white"/>
<path d="M97.9006 47.4575C103.7 47.4583 108.387 52.0044 108.391 57.6332C108.395 63.2619 103.715 67.8067 97.9155 67.8058C92.116 67.805 87.4293 63.2589 87.4252 57.6301C87.4211 52.0249 92.101 47.4566 97.9006 47.4575Z" fill="#EA4E64"/>
<path d="M97.9011 47.4571C99.4298 47.4573 100.886 47.7637 102.197 48.3527L102.197 48.4704C102.202 55.4182 96.2371 61.6114 88.7153 62.5524C87.8891 61.0921 87.4026 59.4198 87.4013 57.6299C87.3971 52.001 92.0772 47.4562 97.9011 47.4571Z" fill="#EC6277"/>
<path d="M97.9038 51.0368C101.665 51.0373 104.725 53.9817 104.727 57.6557C104.73 61.3061 101.699 64.2731 97.9135 64.2726C94.1523 64.272 91.0926 61.3277 91.0899 57.6537C91.0873 54.0032 94.1183 51.0362 97.9038 51.0368Z" fill="#232323"/>
<path d="M97.9021 51.0368C99.2852 51.037 100.572 51.4375 101.64 52.1207C100.333 56.3362 96.8894 59.9156 92.4742 61.6106C91.6241 60.5036 91.1135 59.114 91.1124 57.6538C91.0855 54.0033 94.1166 51.0362 97.9021 51.0368Z" fill="#323232"/>
<path d="M90.48 50.0239C92.8581 50.0243 94.7764 51.8851 94.7781 54.1931C94.7798 56.5012 92.8642 58.3615 90.4861 58.3611C88.1081 58.3608 86.1897 56.4999 86.188 54.1919C86.1863 51.8839 88.1019 50.0236 90.48 50.0239Z" fill="white"/>
<path d="M70.3263 62.6533C75.614 59.828 83.5766 64.7747 83.0001 72.7818C77.9518 71.2738 72.4888 66.6571 70.3263 62.6533Z" fill="#6F4BBB"/>
<path d="M70.3263 62.6534C75.1308 62.7483 80.4467 65.3867 82.9999 72.7818C76.9575 72.1215 71.3248 67.6462 70.3263 62.6534Z" fill="#A58DD4"/>
<path d="M72.8293 69.3442C73.5329 69.1087 76.8331 69.1799 77.1003 69.5332C77.416 69.9572 76.5441 72.1238 75.623 73.5367C74.409 72.5945 73.4131 71.299 72.8293 69.3442Z" fill="#7D5DC2"/>
<path d="M71.8587 68.5668C72.5623 68.3314 75.8625 68.4025 76.1297 68.7558C76.4455 69.1798 75.5735 71.3464 74.6524 72.7594C73.4384 71.8171 72.4426 70.5217 71.8587 68.5668Z" fill="white"/>
<path d="M72.8519 67.4599C73.0736 72.0049 79.1913 76.3859 84.9892 74.7618C85.3056 76.0806 84.3841 76.8576 83.438 77.0458C78.173 77.4925 73.0995 74.2656 71.4223 70.1443C70.9362 69.0139 71.4689 67.601 72.8519 67.4599Z" fill="#6F4BBB"/>
<path d="M71.8623 75.9884C73.3201 78.6497 75.6018 79.8982 78.1014 80.2989C74.5356 81.8527 71.3798 79.7798 71.8623 75.9884Z" fill="#6F4BBB"/>
<path d="M74.2637 76.6238C77.1275 78.1778 79.8451 78.6724 82.9988 78.3903C80.6951 79.8731 76.1827 80.0374 74.2637 76.6238Z" fill="#9478CF"/>
<path d="M98.601 31.2235C92.8436 21.5682 77.7074 27.194 79.2439 38.0261C83.0245 31.9513 90.3263 29.9743 98.601 31.2235Z" fill="#5F3EA7"/>
<path d="M98.5994 31.2204C95.3447 25.782 88.5028 25.4282 83.9196 28.4174C83.8962 29.6886 84.2851 30.6068 84.9891 31.3366C88.6998 29.595 93.5515 28.8893 98.5994 31.2204Z" fill="#6F4BBB"/>
<path d="M128.716 67.9509C134.758 67.9518 139.712 72.6628 139.716 78.5507C139.72 84.4385 134.773 89.1481 128.731 89.1472C122.689 89.1463 117.735 84.4353 117.731 78.5475C117.727 72.6596 122.673 67.9501 128.716 67.9509Z" fill="#6F4BBB"/>
<path d="M128.717 69.5054C133.91 69.5061 138.111 73.5576 138.114 78.5269C138.118 83.5198 133.923 87.5464 128.73 87.5457C123.537 87.5449 119.336 83.4935 119.333 78.5242C119.329 73.5549 123.548 69.5046 128.717 69.5054Z" fill="#9478CF"/>
<path d="M128.717 69.5043C132.406 69.5048 135.586 71.5541 137.141 74.5217C137.484 79.2318 131.566 82.6928 127.61 81.0673C124.697 79.5361 122.68 76.5449 122.678 73.1302C122.678 72.5649 122.726 72.0233 122.847 71.4817C124.471 70.2573 126.509 69.504 128.717 69.5043Z" fill="#A58DD4"/>
<path d="M124.887 77.1363C124.449 75.8408 129.447 74.2162 129.909 75.5118L134.871 89.9042C135.309 91.1997 130.31 92.8243 129.848 91.5287L124.887 77.1363Z" fill="#2B3039"/>
<path d="M132.069 75.676C130.105 76.8533 128.48 78.0071 127.317 80.1501C128.992 82.1287 131.201 83.2123 133.628 82.9301C135.591 80.5281 134.57 77.7724 132.069 75.676Z" fill="#5F3EA7"/>
<path d="M133.601 78.9728C133.309 78.1485 132.775 77.3713 132.095 76.6177C130.591 77.5594 129.355 78.5718 128.409 80.0317C129.453 80.126 131.078 79.8672 133.601 78.9728Z" fill="#6F4BBB"/>
<path d="M133.964 81.4477C132 82.625 130.375 83.7788 129.212 85.9218C130.887 87.9004 133.096 88.9841 135.523 88.7018C137.487 86.2998 136.465 83.5442 133.964 81.4477Z" fill="#5F3EA7"/>
<path d="M135.496 84.5094C135.204 83.6851 134.67 82.908 133.99 82.1543C132.486 83.096 131.25 84.1085 130.304 85.5683C131.348 85.6862 132.973 85.4039 135.496 84.5094Z" fill="#6F4BBB"/>
<path d="M123.726 82.0136C125.594 81.5664 127.244 81.284 129.259 81.8495C129.503 83.9692 128.898 85.9003 127.321 87.1248C124.7 86.9124 123.583 84.6984 123.726 82.0136Z" fill="#5F3EA7"/>
<path d="M124.872 84.5799C124.532 83.9205 124.361 83.167 124.288 82.3428C125.743 82.0133 127.078 81.8722 128.558 82.1785C128.025 82.8613 126.909 83.6383 124.872 84.5799Z" fill="#6F4BBB"/>
<path d="M119.97 43.0279C110.045 43.5682 102.456 51.8336 103.021 61.4662C103.587 71.0988 112.109 78.4716 122.034 77.9313C131.958 77.3911 139.547 69.1257 138.982 59.4931C138.417 49.8605 129.918 42.4877 119.97 43.0279Z" fill="#393F4C"/>
<path d="M120.117 45.1945C111.43 45.6642 104.763 52.9171 105.254 61.3721C105.746 69.8036 113.224 76.2813 121.935 75.788C130.622 75.3182 137.29 68.0653 136.798 59.6103C136.283 51.1789 128.828 44.7012 120.117 45.1945Z" fill="#D3E8EF"/>
<path d="M133.016 68.0627C134.616 65.6603 135.488 62.7632 135.315 59.6776C134.947 53.5769 130.599 48.6062 124.846 47.0744C124.388 52.3506 123.907 57.5325 123.401 62.8558C125.319 63.6098 130.272 66.0131 133.016 68.0627Z" fill="white"/>
<path d="M119.879 46.8895C112.308 47.3123 106.513 53.5999 106.98 60.9483C107.053 61.9846 107.224 62.9973 107.516 63.9395C107.491 63.7275 107.467 63.5155 107.467 63.28C106.975 54.754 113.667 47.4538 122.451 46.9605L122.524 46.9605C121.675 46.8897 120.777 46.8425 119.879 46.8895Z" fill="white"/>
<path d="M107.518 68.4134C107.81 68.8843 108.125 69.3318 108.465 69.7557L113.119 63.4928L123.847 67.8269L130.049 55.3714L136.285 56.526C136.115 55.9609 135.945 55.3957 135.726 54.8541L129.174 53.6288L123.093 65.8488L112.608 61.609L107.518 68.4134Z" fill="#999999"/>
<path d="M112.657 59.3979C114.452 59.3039 115.982 60.6231 116.08 62.3659C116.179 64.1087 114.821 65.5922 113.025 65.6862C111.23 65.7801 109.7 64.461 109.602 62.7182C109.479 60.9989 110.861 59.5154 112.657 59.3979Z" fill="#1EC185"/>
<path d="M129.415 51.3616C131.21 51.2677 132.74 52.5868 132.838 54.3296C132.937 56.0724 131.579 57.556 129.783 57.6499C127.988 57.7438 126.458 56.4247 126.36 54.6819C126.237 52.9391 127.619 51.4556 129.415 51.3616Z" fill="#EA4E64"/>
<path d="M123.259 63.7082C125.054 63.6142 126.584 64.9333 126.682 66.6762C126.781 68.419 125.423 69.9025 123.627 69.9964C121.832 70.0904 120.302 68.7713 120.204 67.0285C120.081 65.2857 121.463 63.8021 123.259 63.7082Z" fill="#338EEF"/>
<rect x="26.6119" y="62.4609" width="53.1177" height="25.1465" fill="white"/>
<path d="M31.9237 95.4423C30.463 95.4423 29.2129 94.9226 28.1736 93.8833C27.1343 92.8439 26.6137 91.593 26.6119 90.1305V79.507H45.2031V84.8187H61.1384V79.507H79.7296V90.1305C79.7296 91.5912 79.2099 92.8421 78.1706 93.8833C77.1313 94.9244 75.8803 95.444 74.4178 95.4423H31.9237ZM50.5149 79.507V74.1952H55.8267V79.507H50.5149ZM26.6119 74.1952V60.9158C26.6119 59.455 27.1325 58.205 28.1736 57.1657C29.2147 56.1263 30.4647 55.6058 31.9237 55.604H42.5472V50.2922C42.5472 48.8315 43.0678 47.5815 44.1089 46.5421C45.15 45.5028 46.4 44.9822 47.859 44.9805H58.4825C59.9433 44.9805 61.1942 45.501 62.2353 46.5421C63.2764 47.5832 63.7961 48.8333 63.7943 50.2922V55.604H74.4178C75.8786 55.604 77.1295 56.1246 78.1706 57.1657C79.2117 58.2068 79.7314 59.4568 79.7296 60.9158V74.1952H61.1384V68.8834H45.2031V74.1952H26.6119ZM47.859 55.604H58.4825V50.2922H47.859V55.604Z" fill="#387ADA"/>
<path d="M47.6295 43.7251L49.0562 41.7942C52.3132 41.2697 55.3254 41.704 57.66 42.2131C58.4301 44.069 56.8416 48.2382 51.3692 49.7932C48.8671 48.874 47.7313 46.307 47.6295 43.7251Z" fill="#6F4BBB"/>
<path d="M49.3687 45.6515L49.1351 42.8979C51.5228 42.603 54.1099 42.696 55.9591 43.1687L49.3687 45.6515Z" fill="#9478CF"/>
<path d="M56.4019 44.6848L57.896 42.9483C60.9616 42.6003 63.716 43.0816 65.8899 43.6582C66.4645 45.4083 64.6449 49.2336 59.3943 50.4814C57.1505 49.5368 56.3073 47.0958 56.4019 44.6848Z" fill="#6F4BBB"/>
<path d="M57.8828 46.5527L57.8456 43.9699C60.1056 43.7854 62.5324 43.9676 64.2206 44.486L57.8828 46.5527Z" fill="#9478CF"/>
<path d="M40.3275 46.2172L40.5918 44.3682C43.0002 43.2698 45.614 42.9716 47.7782 42.8754C49.2841 44.1996 49.9512 47.8805 46.237 50.322C43.7775 50.1186 41.6501 48.2822 40.3278 46.2389L40.3275 46.2172Z" fill="#6F4BBB"/>
<path d="M42.6394 47.4028L41.1536 45.2316C42.953 44.4893 45.1116 44.0023 46.8247 43.9994L42.6391 47.3811L42.6394 47.4028Z" fill="#9478CF"/>
</svg>
