<svg width="188" height="118" viewBox="0 0 188 118" fill="none" xmlns="http://www.w3.org/2000/svg">
<path fill-rule="evenodd" clip-rule="evenodd" d="M93.699 83.9785C145.411 83.9785 187.398 88.4261 187.398 93.903C187.398 99.3799 145.411 103.828 93.699 103.828C41.9867 103.828 0 99.3842 0 93.903C0 88.4218 41.9867 83.9785 93.699 83.9785Z" fill="#E1D7FF"/>
<g filter="url(#filter0_d_234_32774)">
<rect x="60.2373" y="14" width="80" height="80" rx="40" fill="#F6F6F6"/>
<rect x="58.2373" y="12" width="84" height="84" rx="42" stroke="white" stroke-width="4"/>
<path d="M75.9841 61.6748H93.4974C95.6789 64.9969 99.4238 67.2117 103.674 67.2117H75.9841C74.4635 67.2117 73.2305 65.9721 73.2305 64.4433C73.2305 62.9145 74.4635 61.6748 75.9841 61.6748Z" fill="#E63060"/>
<path d="M70.4983 57.7566C68.9777 57.7566 67.7446 56.517 67.7446 54.9882C67.7446 53.4594 68.9777 52.2197 70.4983 52.2197H91.8452C91.6464 53.1056 91.5362 54.0346 91.5362 54.9882C91.5362 55.9418 91.6464 56.8707 91.8452 57.7566H70.4983Z" fill="#A735DF"/>
<path d="M64.991 48.2976C63.4703 48.2976 62.2373 47.058 62.2373 45.5292C62.2373 44.0004 63.4703 42.7607 64.991 42.7607H103.674C103.585 42.7607 103.475 42.7607 103.386 42.7607H103.319C103.23 42.7607 103.141 42.7607 103.031 42.7607H103.01C102.921 42.7607 102.832 42.7607 102.747 42.7823H102.704C102.615 42.7823 102.526 42.8038 102.416 42.8038H102.373C102.285 42.8038 102.22 42.8253 102.132 42.8253H102.089C102 42.8469 101.911 42.8469 101.826 42.8684H101.758C101.581 42.8899 101.407 42.9361 101.229 42.9576L101.162 42.9791C101.073 43.0007 101.009 43.0222 100.92 43.0222L100.853 43.0437L100.654 43.0868L100.587 43.1083C100.498 43.1299 100.434 43.1514 100.345 43.176L100.302 43.1975C100.235 43.2191 100.17 43.2406 100.103 43.2652L100.014 43.2867L99.8155 43.3544L99.7268 43.376C99.6381 43.3975 99.5738 43.419 99.4851 43.4652L99.4423 43.4867L99.2648 43.5544L99.1761 43.5974C99.1088 43.619 99.0445 43.6651 98.9772 43.6866L98.8885 43.7297L98.7355 43.7974L98.6468 43.8404C98.5794 43.862 98.5152 43.9081 98.4479 43.9296L98.3591 43.9727L98.2276 44.0404L98.0746 44.1296L97.943 44.1973L97.8329 44.2649L97.7228 44.3326L97.5698 44.4218L97.481 44.4895L97.3709 44.5572L97.2179 44.6464L97.1078 44.714L97.0405 44.7571C96.9089 44.8463 96.7528 44.957 96.6213 45.0463L96.5999 45.0678C96.5111 45.1355 96.4224 45.2001 96.3337 45.2677L96.3123 45.2893C96.1807 45.4 96.0247 45.5107 95.8931 45.6215L95.8717 45.643C94.9905 46.3966 94.1981 47.2825 93.5586 48.2792H65.0583L64.991 48.2976Z" fill="#6433F9"/>
<path d="M116.518 54.9875C116.518 47.8572 110.769 42.0742 103.674 42.0742C96.5785 42.0742 90.8295 47.8541 90.8295 54.9875C90.8295 62.1209 96.5785 67.9008 103.674 67.9008C110.769 67.9008 116.518 62.1178 116.518 54.9875ZM92.7693 54.9875C92.7693 48.9184 97.6585 44.0244 103.674 44.0244C109.71 44.0244 114.578 48.94 114.578 54.9875C114.578 61.0566 109.689 65.9506 103.674 65.9506C97.6371 65.9506 92.7693 61.0319 92.7693 54.9875Z" fill="#210F59"/>
<path d="M127.575 38.0233L106.296 25.7313C104.622 24.7562 102.704 24.7562 101.009 25.7313L79.7291 38.0233C79.5303 38.134 79.3314 38.2663 79.157 38.3985H89.3119L103.564 30.1824C103.585 30.1824 103.652 30.1393 103.674 30.1393C103.695 30.1393 103.762 30.1609 103.784 30.1824L125.063 42.4743C125.085 42.4743 125.131 42.5174 125.152 42.542C125.174 42.585 125.174 42.6527 125.174 42.6742V67.3258C125.174 67.3688 125.174 67.4365 125.152 67.458C125.152 67.4796 125.085 67.5011 125.063 67.5257L103.784 79.8176C103.762 79.8176 103.695 79.8607 103.674 79.8607C103.652 79.8607 103.585 79.8392 103.564 79.8176L89.3119 71.6015H79.1539C79.3314 71.7337 101.006 84.2687 101.006 84.2687C102.679 85.2438 104.598 85.2438 106.293 84.2687L127.572 71.9768C129.267 70.9801 130.237 69.2975 130.237 67.3258V42.6742C130.24 40.7025 129.274 38.9953 127.575 38.0233Z" fill="#210F59"/>
<path d="M103.674 60.103C106.484 60.103 108.762 57.8128 108.762 54.9875C108.762 52.1623 106.484 49.8721 103.674 49.8721C100.864 49.8721 98.5856 52.1623 98.5856 54.9875C98.5856 57.8128 100.864 60.103 103.674 60.103Z" fill="#210F59"/>
</g>
<rect x="32.8491" y="65.2539" width="53.1177" height="25.1465" fill="white"/>
<path d="M38.1609 98.2352C36.7002 98.2352 35.4501 97.7156 34.4108 96.6762C33.3714 95.6369 32.8509 94.386 32.8491 92.9235V82.2999H51.4403V87.6117H67.3756V82.2999H85.9668V92.9235C85.9668 94.3842 85.4471 95.6351 84.4078 96.6762C83.3685 97.7173 82.1175 98.237 80.655 98.2352H38.1609ZM56.7521 82.2999V76.9882H62.0638V82.2999H56.7521ZM32.8491 76.9882V63.7087C32.8491 62.248 33.3697 60.998 34.4108 59.9586C35.4519 58.9193 36.7019 58.3987 38.1609 58.397H48.7844V53.0852C48.7844 51.6245 49.305 50.3744 50.3461 49.3351C51.3872 48.2958 52.6372 47.7752 54.0962 47.7734H64.7197C66.1805 47.7734 67.4314 48.294 68.4725 49.3351C69.5136 50.3762 70.0333 51.6262 70.0315 53.0852V58.397H80.655C82.1158 58.397 83.3667 58.9175 84.4078 59.9586C85.4489 60.9997 85.9686 62.2498 85.9668 63.7087V76.9882H67.3756V71.6764H51.4403V76.9882H32.8491ZM54.0962 58.397H64.7197V53.0852H54.0962V58.397Z" fill="#6433F9"/>
<defs>
<filter id="filter0_d_234_32774" x="41.2373" y="0" width="118" height="118" filterUnits="userSpaceOnUse" color-interpolation-filters="sRGB">
<feFlood flood-opacity="0" result="BackgroundImageFix"/>
<feColorMatrix in="SourceAlpha" type="matrix" values="0 0 0 0 0 0 0 0 0 0 0 0 0 0 0 0 0 0 127 0" result="hardAlpha"/>
<feOffset dy="5"/>
<feGaussianBlur stdDeviation="7.5"/>
<feComposite in2="hardAlpha" operator="out"/>
<feColorMatrix type="matrix" values="0 0 0 0 0 0 0 0 0 0 0 0 0 0 0 0 0 0 0.05 0"/>
<feBlend mode="normal" in2="BackgroundImageFix" result="effect1_dropShadow_234_32774"/>
<feBlend mode="normal" in="SourceGraphic" in2="effect1_dropShadow_234_32774" result="shape"/>
</filter>
</defs>
</svg>
