<svg width="175" height="32" viewBox="0 0 175 32" fill="none" xmlns="http://www.w3.org/2000/svg">
<path d="M7.92365 2.10221C6.3573 2.61745 5.14132 3.47276 4.2757 4.66814C3.4307 5.8429 3.0082 7.3062 3.0082 9.05804C3.0082 9.84121 3.08033 10.3771 3.2246 10.6656C3.36887 10.9541 3.441 11.1293 3.441 11.1912C1.23575 11.1912 0.133119 10.2534 0.133119 8.37791C0.133119 7.1001 0.617451 5.82229 1.58611 4.54448C2.57539 3.24606 3.83259 2.19495 5.35772 1.39117C6.90346 0.566772 8.4389 0.154574 9.96403 0.154574C10.7266 0.154574 11.5098 0.298843 12.3136 0.587381L11.6025 16.8795L18.4038 0.587381H22.8555L19.6094 23.3407H15.1577L17.1363 9.45993L11.3243 23.3407H7.08895L7.70725 9.3981L2.54447 23.3407H0.0712891L7.92365 2.10221Z" fill="#6558F5"/>
<path d="M27.156 31.0694C26.1874 31.0694 25.3321 30.7499 24.5901 30.111C23.8688 29.4927 23.5081 28.6992 23.5081 27.7306C23.5081 26.8237 23.7348 26.0818 24.1882 25.5047C24.6416 24.9276 25.229 24.4742 25.9504 24.1445C26.6717 23.8147 27.6404 23.4643 28.8564 23.0934L29.1655 21.7331C28.1144 22.9285 26.8572 23.5262 25.3939 23.5262C24.4046 23.5262 23.6008 23.217 22.9825 22.5987C22.3849 21.9804 22.086 21.053 22.086 19.8164C22.086 19.3011 22.1685 18.6313 22.3333 17.8069L24.4355 7.88328H28.8873L26.6614 18.3943C26.5996 18.6416 26.5687 18.8993 26.5687 19.1672C26.5687 20.074 26.8778 20.5274 27.4961 20.5274C28.0732 20.5274 28.5678 20.2904 28.98 19.8164C29.3922 19.3218 29.722 18.6519 29.9693 17.8069L32.0715 7.88328H36.5541L32.7825 25.8139C32.3703 27.7924 31.6387 29.163 30.5876 29.9255C29.5571 30.6881 28.4132 31.0694 27.156 31.0694ZM26.445 28.318C26.816 28.318 27.1663 28.1222 27.4961 27.7306C27.8259 27.3596 28.0835 26.7516 28.269 25.9066L28.64 24.0826C27.5476 24.4536 26.7026 24.8864 26.1049 25.3811C25.5073 25.8757 25.2084 26.5146 25.2084 27.2978C25.2084 27.5451 25.3321 27.7718 25.5794 27.9779C25.8267 28.2046 26.1152 28.318 26.445 28.318Z" fill="#6558F5"/>
<path d="M50.8293 23.8971C49.5309 23.8971 48.387 23.6704 47.3978 23.217C46.4085 22.7636 45.6459 22.135 45.1101 21.3312C44.5742 20.5068 44.3063 19.5588 44.3063 18.4871C44.3063 17.5802 44.4918 16.7558 44.8627 16.0139C45.2543 15.2719 45.7696 14.6845 46.4085 14.2517C47.068 13.8189 47.7893 13.6025 48.5725 13.6025C49.2939 13.6025 49.9019 13.788 50.3965 14.159C50.8911 14.5094 51.2003 15.004 51.3239 15.6429C50.2522 15.6429 49.3969 15.9314 48.758 16.5085C48.1191 17.065 47.7996 17.8275 47.7996 18.7962C47.7996 19.6824 48.0676 20.3935 48.6034 20.9293C49.1393 21.4652 49.8503 21.7331 50.7366 21.7331C51.8289 21.7331 52.7254 21.3724 53.4261 20.6511C54.1475 19.9091 54.5082 18.9817 54.5082 17.8688C54.5082 16.9001 54.2402 15.983 53.7044 15.1173C53.1685 14.2517 52.3647 13.2006 51.293 11.964C50.1801 10.6862 49.3351 9.5939 48.758 8.68706C48.2015 7.75962 47.9233 6.74973 47.9233 5.65741C47.9233 4.5857 48.2221 3.62734 48.8198 2.78233C49.4175 1.91672 50.2419 1.23659 51.293 0.741957C52.3441 0.247319 53.5292 0 54.8482 0C56.5176 0 57.847 0.391588 58.8362 1.17476C59.8461 1.95794 60.3511 3.00904 60.3511 4.32807C60.3511 5.19369 60.1347 5.89442 59.7018 6.43028C59.269 6.96614 58.7023 7.23407 58.0015 7.23407C57.2184 7.23407 56.5898 6.91461 56.1157 6.27571C56.5073 5.98717 56.8165 5.60589 57.0432 5.13186C57.2699 4.65783 57.3832 4.16319 57.3832 3.64795C57.3832 2.98843 57.1874 2.46288 56.7959 2.07129C56.4043 1.67971 55.8684 1.48391 55.1883 1.48391C54.3639 1.48391 53.6838 1.78275 53.1479 2.38044C52.6327 2.95752 52.375 3.69947 52.375 4.60631C52.375 5.4307 52.6121 6.20357 53.0861 6.92492C53.5601 7.62565 54.3021 8.53249 55.3119 9.64542C56.1363 10.5316 56.7959 11.2942 57.2905 11.9331C57.8057 12.572 58.2385 13.314 58.5889 14.159C58.9599 14.9834 59.1454 15.8799 59.1454 16.8486C59.1454 18.1676 58.7744 19.363 58.0324 20.4347C57.3111 21.5064 56.3115 22.3514 55.0337 22.9697C53.7765 23.588 52.375 23.8971 50.8293 23.8971Z" fill="#6558F5"/>
<path d="M63.9468 23.5262C62.9576 23.5262 62.1538 23.217 61.5355 22.5987C60.9378 21.9804 60.6389 21.053 60.6389 19.8164C60.6389 19.3011 60.7214 18.6313 60.8863 17.8069L62.7412 9.11987H61.721L61.9683 7.88328H62.9885L63.9159 3.61703L68.4913 2.99874L67.4402 7.88328H69.2951L69.0478 9.11987H67.1929L65.2143 18.3943C65.1319 18.7035 65.0907 19.0332 65.0907 19.3836C65.0907 19.7958 65.1834 20.0946 65.3689 20.2801C65.575 20.445 65.9048 20.5274 66.3582 20.5274C66.9559 20.5274 67.5123 20.2801 68.0276 19.7855C68.5428 19.2702 68.9138 18.6107 69.1405 17.8069H70.4389C69.6764 20.0328 68.6974 21.5476 67.502 22.3514C66.3067 23.1346 65.1216 23.5262 63.9468 23.5262Z" fill="#6558F5"/>
<path d="M74.291 6.21388C73.6109 6.21388 73.0338 5.97686 72.5597 5.50284C72.0857 5.02881 71.8487 4.45173 71.8487 3.77161C71.8487 3.09148 72.0857 2.51441 72.5597 2.04038C73.0338 1.54574 73.6109 1.29842 74.291 1.29842C74.9711 1.29842 75.5482 1.54574 76.0222 2.04038C76.5168 2.51441 76.7642 3.09148 76.7642 3.77161C76.7642 4.45173 76.5168 5.02881 76.0222 5.50284C75.5482 5.97686 74.9711 6.21388 74.291 6.21388ZM72.1888 23.5262C71.1995 23.5262 70.3957 23.217 69.7774 22.5987C69.1797 21.9804 68.8809 21.053 68.8809 19.8164C68.8809 19.3011 68.9633 18.6313 69.1282 17.8069L71.2304 7.88328H75.6821L73.4563 18.3943C73.3738 18.7035 73.3326 19.0332 73.3326 19.3836C73.3326 19.7958 73.4254 20.0946 73.6108 20.2801C73.8169 20.445 74.1467 20.5274 74.6001 20.5274C75.1978 20.5274 75.7543 20.2801 76.2695 19.7855C76.7848 19.2702 77.1557 18.6107 77.3825 17.8069H78.6809C77.9183 20.0328 76.9393 21.5476 75.744 22.3514C74.5486 23.1346 73.3635 23.5262 72.1888 23.5262Z" fill="#6558F5"/>
<path d="M81.791 23.5262C80.2658 23.5262 79.0807 23.1346 78.2357 22.3514C77.3907 21.5476 76.9682 20.3007 76.9682 18.6107C76.9682 17.1886 77.2465 15.6223 77.8029 13.9117C78.38 12.201 79.2868 10.7274 80.5234 9.49085C81.7806 8.23364 83.3676 7.60504 85.2843 7.60504C86.5209 7.60504 87.3968 7.87297 87.9121 8.40883C88.4479 8.94468 88.7159 9.62481 88.7159 10.4492C88.7159 11.1706 88.5613 11.727 88.2522 12.1186C87.943 12.5102 87.5514 12.706 87.0774 12.706C86.727 12.706 86.3663 12.5823 85.9954 12.335C86.2427 11.6549 86.3663 11.0469 86.3663 10.511C86.3663 10.1194 86.2942 9.8103 86.1499 9.58359C86.0057 9.35688 85.7893 9.24353 85.5007 9.24353C84.8824 9.24353 84.2641 9.74847 83.6458 10.7584C83.0275 11.7682 82.5226 12.9945 82.131 14.4372C81.7394 15.8799 81.5436 17.1783 81.5436 18.3325C81.5436 19.3424 81.7188 20.0328 82.0692 20.4038C82.4196 20.7541 82.9863 20.9293 83.7695 20.9293C84.8824 20.9293 85.8305 20.6717 86.6137 20.1565C87.4174 19.6412 88.2934 18.858 89.2414 17.8069H90.2925C88.0048 21.6198 85.171 23.5262 81.791 23.5262Z" fill="#6558F5"/>
<path d="M100.859 23.5262C99.5811 23.5262 98.6124 23.2273 97.9529 22.6296C97.2934 22.0113 96.9636 21.1354 96.9636 20.0019C96.9636 19.5072 97.0254 18.9714 97.1491 18.3943L97.3964 17.1886C97.4789 16.8383 97.5201 16.457 97.5201 16.0448C97.5201 15.0555 97.1491 14.5609 96.4071 14.5609C96.0774 14.5609 95.727 14.6536 95.356 14.8391C95.0057 15.0246 94.5935 15.3131 94.1194 15.7047L92.5119 23.3407H88.0601L92.5428 2.31861L97.1182 1.70031L94.7996 12.5823L100.766 7.88328H103.827L97.6437 12.1804C97.9529 12.098 98.2929 12.0568 98.6639 12.0568C99.7769 12.0568 100.622 12.3968 101.199 13.077C101.776 13.7571 102.065 14.6227 102.065 15.6738C102.065 16.1066 102.023 16.4982 101.941 16.8486L101.601 18.3943C101.498 18.7653 101.446 19.095 101.446 19.3836C101.446 20.1462 101.848 20.5274 102.652 20.5274C103.27 20.5274 103.765 20.311 104.136 19.8782C104.507 19.4248 104.878 18.7344 105.249 17.8069H106.547C105.269 21.6198 103.373 23.5262 100.859 23.5262Z" fill="#6558F5"/>
<path d="M110.058 31.0694C109.09 31.0694 108.234 30.7499 107.493 30.111C106.771 29.4927 106.41 28.6992 106.41 27.7306C106.41 26.8237 106.637 26.0818 107.091 25.5047C107.544 24.9276 108.131 24.4742 108.853 24.1445C109.574 23.8147 110.543 23.4643 111.759 23.0934L112.068 21.7331C111.017 22.9285 109.76 23.5262 108.296 23.5262C107.307 23.5262 106.503 23.217 105.885 22.5987C105.287 21.9804 104.988 21.053 104.988 19.8164C104.988 19.3011 105.071 18.6313 105.236 17.8069L107.338 7.88328H111.79L109.564 18.3943C109.502 18.6416 109.471 18.8993 109.471 19.1672C109.471 20.074 109.78 20.5274 110.399 20.5274C110.976 20.5274 111.47 20.2904 111.882 19.8164C112.295 19.3218 112.624 18.6519 112.872 17.8069L114.974 7.88328H119.457L115.685 25.8139C115.273 27.7924 114.541 29.163 113.49 29.9255C112.459 30.6881 111.316 31.0694 110.058 31.0694ZM109.347 28.318C109.718 28.318 110.069 28.1222 110.399 27.7306C110.728 27.3596 110.986 26.7516 111.171 25.9066L111.542 24.0826C110.45 24.4536 109.605 24.8864 109.007 25.3811C108.41 25.8757 108.111 26.5146 108.111 27.2978C108.111 27.5451 108.234 27.7718 108.482 27.9779C108.729 28.2046 109.018 28.318 109.347 28.318Z" fill="#6558F5"/>
<path d="M138.122 23.8662C137.297 23.8662 136.576 23.691 135.958 23.3407C135.36 23.0109 135.061 22.4235 135.061 21.5785C135.061 21.0427 135.195 20.445 135.463 19.7855C135.834 20.1977 136.174 20.4862 136.483 20.6511C136.813 20.816 137.163 20.8984 137.534 20.8984C138.565 20.8984 139.327 20.3213 139.822 19.1672C140.337 18.013 140.595 16.7352 140.595 15.3337C140.595 12.7163 139.616 11.4076 137.658 11.4076C137.101 11.4076 136.627 11.4385 136.236 11.5003L133.701 23.3407H129.249L133.453 3.67886L138.029 3.06057L136.576 9.92365H136.761C137.545 9.92365 138.276 9.67634 138.956 9.1817C139.636 8.66645 140.183 8.02755 140.595 7.26498C141.007 6.4818 141.213 5.69863 141.213 4.91546C141.213 3.9674 140.873 3.17392 140.193 2.53501C139.533 1.89611 138.513 1.57666 137.132 1.57666C135.875 1.57666 134.649 1.86519 133.453 2.44227C132.258 2.99874 131.279 3.84374 130.517 4.97728C129.775 6.11083 129.404 7.48138 129.404 9.08895C129.404 9.85152 129.476 10.3874 129.62 10.6965C129.764 10.9851 129.836 11.1499 129.836 11.1912C128.744 11.1912 127.92 10.9748 127.363 10.5419C126.807 10.0885 126.529 9.35688 126.529 8.347C126.529 6.94553 127.054 5.61619 128.105 4.35899C129.156 3.10179 130.547 2.0919 132.279 1.32934C134.01 0.546162 135.834 0.154574 137.751 0.154574C139.193 0.154574 140.409 0.381283 141.399 0.8347C142.388 1.28812 143.119 1.8858 143.594 2.62776C144.088 3.36972 144.335 4.1838 144.335 5.07003C144.335 6.01808 144.068 6.93522 143.532 7.82145C142.996 8.70767 142.233 9.42902 141.244 9.98548C142.481 10.2122 143.398 10.7893 143.995 11.7167C144.593 12.6235 144.892 13.7056 144.892 14.9628C144.892 16.1375 144.665 17.4153 144.212 18.7962C143.779 20.1771 143.047 21.3724 142.017 22.3823C141.007 23.3716 139.709 23.8662 138.122 23.8662Z" fill="#6558F5"/>
<path d="M149.672 23.5262C148.497 23.5262 147.518 23.1243 146.735 22.3205C145.952 21.5167 145.56 20.2595 145.56 18.5489C145.56 17.0238 145.859 15.4265 146.457 13.7571C147.075 12.0671 147.982 10.645 149.178 9.49085C150.393 8.31608 151.836 7.7287 153.506 7.7287C154.351 7.7287 154.979 7.87297 155.391 8.16151C155.804 8.45005 156.01 8.83133 156.01 9.30536V9.52176L156.35 7.88328H160.801L158.576 18.3943C158.493 18.7035 158.452 19.0332 158.452 19.3836C158.452 20.2698 158.874 20.7129 159.719 20.7129C160.297 20.7129 160.791 20.445 161.203 19.9091C161.636 19.3733 161.976 18.6725 162.224 17.8069H163.522C162.759 20.0328 161.811 21.5476 160.678 22.3514C159.565 23.1346 158.442 23.5262 157.308 23.5262C156.442 23.5262 155.742 23.2892 155.206 22.8151C154.691 22.3205 154.382 21.6095 154.278 20.682C153.681 21.527 153.011 22.2174 152.269 22.7533C151.548 23.2685 150.682 23.5262 149.672 23.5262ZM151.682 20.5274C152.197 20.5274 152.702 20.2904 153.196 19.8164C153.712 19.3218 154.062 18.6519 154.248 17.8069L155.731 10.8202C155.731 10.5523 155.628 10.2946 155.422 10.0473C155.216 9.77939 154.897 9.64542 154.464 9.64542C153.64 9.64542 152.898 10.1298 152.238 11.0984C151.579 12.0465 151.063 13.2006 150.692 14.5609C150.321 15.9005 150.136 17.0856 150.136 18.1161C150.136 19.1466 150.28 19.8061 150.569 20.0946C150.878 20.3832 151.249 20.5274 151.682 20.5274Z" fill="#6558F5"/>
<path d="M164.337 7.88328H168.789L168.387 9.79999C169.088 9.1817 169.716 8.70767 170.273 8.37791C170.85 8.04816 171.468 7.88328 172.128 7.88328C172.787 7.88328 173.302 8.10999 173.673 8.5634C174.065 9.01682 174.261 9.56298 174.261 10.2019C174.261 10.7996 174.065 11.3251 173.673 11.7785C173.282 12.232 172.736 12.4587 172.035 12.4587C171.581 12.4587 171.272 12.3556 171.107 12.1495C170.963 11.9228 170.85 11.6034 170.767 11.1912C170.706 10.9232 170.644 10.7274 170.582 10.6038C170.52 10.4801 170.407 10.4183 170.242 10.4183C169.809 10.4183 169.438 10.511 169.129 10.6965C168.84 10.8614 168.459 11.1602 167.985 11.5931L165.512 23.3407H161.06L164.337 7.88328Z" fill="#6558F5"/>
</svg>
