<svg width="188" height="104" viewBox="0 0 188 104" fill="none" xmlns="http://www.w3.org/2000/svg">
<path fill-rule="evenodd" clip-rule="evenodd" d="M93.9881 78.8478C145.7 78.8478 187.687 83.2954 187.687 88.7723C187.687 94.2492 145.7 98.6968 93.9881 98.6968C42.2758 98.6968 0.289062 94.2535 0.289062 88.7723C0.289062 83.2911 42.2758 78.8478 93.9881 78.8478Z" fill="#C5E6F8"/>
<path d="M73.9123 80.2933L89.8533 80.2955L89.8631 93.8355L74.2133 93.8334C71.7376 92.7734 69.6984 91.266 68.2171 89.4997C68.7973 86.5799 70.9539 82.7654 73.9123 80.2933Z" fill="#6F4BBB"/>
<path d="M74.8346 81.4236C72.7252 83.5426 70.6404 86.1091 69.9389 89.0289C71.2017 90.489 72.8524 91.6195 74.6242 92.4439L88.0176 92.4458L88.0096 81.4255L74.8346 81.4236Z" fill="#7D5DC2"/>
<path d="M71.1515 86.0409C70.7394 86.606 69.9646 88.8899 69.9162 89.0312C71.1789 90.4913 72.8296 91.6217 74.6014 92.4461L81.7347 92.4471L81.7304 86.5368C78.2123 86.5128 74.6941 86.3475 71.1515 86.0409Z" fill="#9478CF"/>
<path d="M73.847 90.9645C75.4972 91.5063 76.2743 92.5189 76.5179 93.8375L70.7678 93.8367C71.1551 92.7066 72.2459 91.3175 73.847 90.9645Z" fill="#5F3EA7"/>
<path d="M73.8226 91.5772C72.925 91.8126 72.1733 92.4954 71.6886 93.2725L73.8481 93.2728L73.8469 91.5772L73.8226 91.5772Z" fill="#6F4BBB"/>
<path d="M79.5241 90.6345C81.7324 91.2234 82.8009 92.6597 83.0686 93.8369L75.4019 93.836C75.9105 92.5882 77.4621 90.9168 79.5241 90.6345Z" fill="#5F3EA7"/>
<path d="M79.4744 91.2233C78.2614 91.4351 77.0731 92.2591 76.3701 93.2716L79.5244 93.2721L79.5229 91.2233L79.4744 91.2233Z" fill="#6F4BBB"/>
<path d="M108.967 80.2915L93.0258 80.2893L93.0356 93.8294L108.685 93.8315C111.16 92.7722 113.197 91.2654 114.675 89.4995C114.115 86.5795 111.953 82.7645 108.967 80.2915Z" fill="#6F4BBB"/>
<path d="M108.07 81.4216C110.183 83.5412 112.271 86.1082 112.977 89.0282C111.716 90.488 110.067 91.618 108.296 92.442L94.9031 92.4401L94.8951 81.4198L108.07 81.4216Z" fill="#7D5DC2"/>
<path d="M111.735 86.038C112.148 86.6032 112.926 88.8873 112.975 89.0286C111.714 90.4884 110.065 91.6184 108.295 92.4423L101.161 92.4413L101.157 86.5311C104.675 86.508 108.217 86.3437 111.735 86.038Z" fill="#9478CF"/>
<path d="M109.067 90.9603C107.418 91.5017 106.642 92.514 106.401 93.8326L112.151 93.8333C111.762 92.7031 110.669 91.3137 109.067 90.9603Z" fill="#5F3EA7"/>
<path d="M109.094 91.572C109.992 91.8077 110.745 92.4907 111.231 93.268L109.071 93.2676L109.07 91.572L109.094 91.572Z" fill="#6F4BBB"/>
<path d="M103.392 90.6315C101.185 91.2199 100.119 92.6559 99.8526 93.8331L107.519 93.834C107.009 92.5861 105.455 90.9143 103.392 90.6315Z" fill="#5F3EA7"/>
<path d="M103.416 91.2197C104.629 91.4318 105.819 92.2562 106.523 93.2689L103.369 93.2684L103.367 91.2197L103.416 91.2197Z" fill="#6F4BBB"/>
<path d="M48.8335 84.4647C48.9324 86.9377 49.5162 88.869 50.6333 90.0703C52.3803 89.9292 53.8592 88.0453 54.5374 86.4203C53.517 84.7009 51.5266 83.9234 48.8335 84.4647Z" fill="#5F3EA7"/>
<path d="M49.7322 85.1478C49.7818 86.5847 50.1712 88.0687 50.973 89.1523L51.6498 85.2423C51.0429 85.1009 50.3875 85.1008 49.7322 85.1478Z" fill="#6F4BBB"/>
<path d="M53.2483 85.7835C53.4197 87.9973 53.7124 89.9521 55.1455 91.9305C57.7172 91.3892 59.7303 90 60.5779 87.7864C59.3141 84.9836 56.3049 84.6064 53.2483 85.7835Z" fill="#5F3EA7"/>
<path d="M55.5095 90.9893L57.229 86.0668C56.2581 85.8782 55.1661 86.0194 54.1227 86.349C54.2938 88.0213 54.5861 89.5053 55.5095 90.9893Z" fill="#6F4BBB"/>
<path d="M61.6916 87.5963C62.1302 90.1163 64.5819 91.3648 65.8194 91.2943C66.3768 90.3759 66.934 89.1749 66.933 87.7383L65.8647 86.8668C64.2387 86.5604 62.5159 86.6779 61.6916 87.5963Z" fill="#5F3EA7"/>
<path d="M65.3815 90.4463C65.8664 89.7397 66.1811 88.6562 66.2289 87.6198L64.4812 87.3369L65.3815 90.4463Z" fill="#6F4BBB"/>
<path d="M66.9421 53.8166L66.9666 87.7121C60.9235 88.4415 53.8846 88.205 48.8334 84.4356C48.9282 81.2792 49.2415 78.1936 49.8219 75.2493C50.9103 69.926 52.9699 65.074 56.5349 61.0937C59.6877 57.5844 62.8417 55.9125 66.9421 53.8166Z" fill="#6F4BBB"/>
<path d="M50.5318 83.6589C53.6889 86.0149 61.2623 86.7461 65.2426 86.2519L65.2213 56.5488C54.9579 61.8474 50.8872 71.6223 50.5318 83.6589Z" fill="#9478CF"/>
<path d="M50.5325 83.6609C52.1356 84.8625 54.8551 85.6166 57.6957 86.0409C58.1031 78.4793 58.0466 67.1015 56.2966 64.0861C52.4889 69.3388 50.7699 76.0522 50.5325 83.6609Z" fill="#A58DD4"/>
<path d="M57.6844 78.6211C59.019 78.6213 60.0875 79.6577 60.0884 80.953C60.0894 82.2483 59.0225 83.2844 57.6878 83.2842C56.3532 83.284 55.2848 82.2476 55.2838 80.9523C55.2829 79.657 56.3498 78.6209 57.6844 78.6211Z" fill="#9478CF"/>
<path d="M63.3717 27.3752C62.6647 22.9708 63.4395 20.6864 64.3587 16.6591C67.2482 18.9911 69.0937 20.6636 72.6136 22.3834C73.3142 18.1206 74.8644 14.0934 77.1184 10.3253L78.4515 8.11163C83.5988 11.8807 87.9933 14.8961 91.3943 19.8896C94.788 14.897 99.1781 11.883 104.32 8.11537L105.656 10.3295C107.916 14.0982 109.472 18.1258 110.179 22.3889C113.696 20.6701 115.539 18.9981 118.425 16.6669C119.374 20.6709 120.128 22.9556 119.428 27.3833L125.787 29.08C124.537 45.1895 123.261 58.9203 121.647 75.0297C121.43 77.2436 121.189 79.481 120.948 81.6949C120.876 82.3308 120.076 83.4848 116.678 83.5078C100.081 84.5888 82.7057 84.5863 66.1307 83.5005C62.7333 83.4529 61.9317 82.3223 61.8584 81.6864C61.6141 79.4253 61.3698 77.1643 61.1497 74.9032C61.052 73.9847 60.9542 73.0661 60.8565 72.124C59.4627 57.757 58.0933 43.437 56.9422 29.0465L63.2988 27.3516L63.3716 27.3516L63.3717 27.3752Z" fill="#6F4BBB"/>
<path d="M79.1565 11.48C76.4177 16.0017 74.8924 20.7825 74.6048 25.7285C71.7891 24.6918 68.5846 22.9955 65.8166 20.8048C65.2602 23.207 65.3839 26.3395 66.1381 29.0717C63.8089 29.5895 61.6496 30.1309 59.4903 30.7429C60.6659 45.5339 61.7688 60.3248 63.2841 75.0688C63.4308 76.529 63.7486 79.6851 63.9195 81.1453C64.5264 81.4751 65.7883 81.4753 66.2979 81.499C82.9943 82.5848 99.884 82.5872 116.579 81.5062C117.113 81.4592 118.35 81.4594 118.957 81.1533C119.125 79.7166 119.439 76.49 119.583 75.0769C121.053 60.3099 122.158 45.5192 123.312 30.7521C121.152 30.1395 118.992 29.5974 116.662 29.079C117.412 26.347 117.531 23.2146 116.971 20.8122C114.231 23.0257 111.004 24.6974 108.19 25.7333C107.895 20.8109 106.363 16.006 103.617 11.4836C98.0391 15.5808 94.377 18.5479 91.3965 24.4826C88.3831 18.547 84.7409 15.5789 79.1322 11.48L79.1565 11.48Z" fill="#9478CF"/>
<path d="M79.1643 11.4793C79.5816 18.0513 81.286 25.3538 84.4922 28.4164C80.2198 27.9683 77.9378 27.4733 74.6354 25.7298C71.7947 24.693 68.5895 22.9966 65.8208 20.8056C67.3045 25.14 68.7388 28.226 71.678 31.2414C69.1779 31.194 67.7452 30.3929 66.1422 29.0736C63.8124 29.5916 61.6525 30.1331 59.4926 30.7452C60.6683 45.5383 61.7711 60.3313 63.2866 75.0772C63.4333 76.5377 63.7511 79.6942 63.9221 81.1546C64.5291 81.4845 65.7913 81.4847 66.3011 81.5083C74.6514 82.0511 83.0501 82.3113 91.4486 82.3123L91.4423 73.5026C78.4812 74.4903 66.6217 54.655 80.2296 41.6305L77.5121 43.0906C77.1707 40.9941 77.8485 38.3795 78.7451 36.2597C80.5141 32.1377 85.2209 29.076 91.41 28.3466L91.4072 24.4599C88.3931 18.5236 84.7743 15.5551 79.1643 11.4793Z" fill="#A58DD4"/>
<path d="M111.13 31.2336C114.04 28.2191 115.493 25.1102 116.971 20.7766C117.531 23.1791 117.412 26.3117 116.661 29.0439C115.06 30.3862 113.629 31.1868 111.13 31.2336ZM106.202 30.0081C107.658 30.0083 108.824 31.1626 108.825 32.5523C108.826 33.9655 107.638 35.0959 106.206 35.0957C104.75 35.0955 103.584 33.9412 103.583 32.5515C103.582 31.1618 104.77 30.0079 106.202 30.0081ZM115.792 35.7565C116.787 35.7567 117.613 36.5576 117.614 37.5233C117.615 38.489 116.79 39.2897 115.795 39.2896C114.8 39.2895 113.974 38.4885 113.974 37.5228C113.973 36.5336 114.773 35.7564 115.792 35.7565ZM98.3377 28.3818C101.539 25.3438 103.233 18.0424 103.64 11.4474C106.386 15.9701 107.918 20.7517 108.213 25.698C104.89 27.4405 102.609 27.9349 98.3377 28.3818Z" fill="#7D5DC2"/>
<path d="M67.6324 33.7151C70.011 33.7154 71.954 35.6 71.9557 37.9084C71.9573 40.2168 70.017 42.1009 67.6385 42.1006C65.2599 42.1003 63.3168 40.2156 63.3152 37.9073C63.3135 35.5989 65.2538 33.7148 67.6324 33.7151ZM64.8505 46.5756C65.7971 46.5757 66.5743 47.3296 66.575 48.2482C66.5756 49.1669 65.7995 49.9205 64.8529 49.9204C63.9064 49.9203 63.1292 49.1664 63.1285 48.2478C63.1278 47.3291 63.904 46.5755 64.8505 46.5756Z" fill="#9478CF"/>
<path d="M91.6954 36.0029C101.96 36.0044 110.289 44.0838 110.296 54.046C110.304 64.0082 101.986 72.0851 91.7219 72.0836C81.4574 72.0821 73.1283 64.0028 73.121 54.0406C73.1137 44.0784 81.4309 36.0015 91.6954 36.0029Z" fill="#D3E8EF"/>
<path d="M73.6051 49.9419C75.2259 43.1594 80.803 37.8377 87.839 36.4021C95.5065 35.838 101.722 41.0436 101.728 48.1325C101.733 55.2685 95.4283 61.6028 87.6881 62.2611C79.9236 62.9194 73.635 57.6901 73.6298 50.5306C73.6053 50.3422 73.6052 50.1303 73.6051 49.9419Z" fill="white"/>
<path d="M97.4268 47.1196C103.226 47.1204 107.913 51.6665 107.917 57.2953C107.921 62.924 103.241 67.4688 97.4417 67.4679C91.6422 67.4671 86.9555 62.921 86.9514 57.2922C86.9473 51.687 91.6272 47.1187 97.4268 47.1196Z" fill="#EA4E64"/>
<path d="M97.4274 47.1192C98.9562 47.1194 100.412 47.4258 101.723 48.0148L101.723 48.1325C101.728 55.0803 95.7635 61.2735 88.2416 62.2145C87.4155 60.7542 86.9289 59.0819 86.9276 57.292C86.9235 51.6632 91.6035 47.1184 97.4274 47.1192Z" fill="#EC6277"/>
<path d="M97.4302 50.6989C101.191 50.6994 104.251 53.6438 104.254 57.3178C104.256 60.9682 101.225 63.9352 97.4399 63.9347C93.6787 63.9342 90.619 60.9898 90.6163 57.3158C90.6136 53.6653 93.6447 50.6983 97.4302 50.6989Z" fill="#232323"/>
<path d="M97.4285 50.6989C98.8117 50.6991 100.098 51.0996 101.166 51.7828C99.859 55.9983 96.4159 59.5777 92.0007 61.2727C91.1506 60.1657 90.64 58.7761 90.6389 57.3159C90.612 53.6654 93.643 50.6983 97.4285 50.6989Z" fill="#323232"/>
<path d="M90.0064 49.686C92.3845 49.6864 94.3029 51.5472 94.3046 53.8553C94.3063 56.1633 92.3906 58.0236 90.0126 58.0232C87.6345 58.0229 85.7161 56.162 85.7144 53.854C85.7127 51.546 87.6284 49.6857 90.0064 49.686Z" fill="white"/>
<path d="M69.8528 62.3154C75.1405 59.4901 83.1031 64.4368 82.5266 72.4439C77.4784 70.9359 72.0154 66.3193 69.8528 62.3154Z" fill="#6F4BBB"/>
<path d="M69.8527 62.3156C74.6571 62.4104 79.973 65.0488 82.5263 72.4439C76.4839 71.7836 70.8512 67.3083 69.8527 62.3156Z" fill="#A58DD4"/>
<path d="M72.3557 69.0063C73.0592 68.7709 76.3595 68.842 76.6266 69.1953C76.9424 69.6193 76.0704 71.7859 75.1494 73.1988C73.9354 72.2566 72.9395 70.9611 72.3557 69.0063Z" fill="#7D5DC2"/>
<path d="M71.3851 68.2289C72.0887 67.9935 75.3889 68.0646 75.6561 68.4179C75.9718 68.8419 75.0999 71.0085 74.1788 72.4215C72.9648 71.4792 71.9689 70.1838 71.3851 68.2289Z" fill="white"/>
<path d="M72.3781 67.1221C72.5998 71.667 78.7175 76.048 84.5154 74.4239C84.8318 75.7427 83.9104 76.5197 82.9642 76.7079C77.6993 77.1546 72.6257 73.9277 70.9485 69.8064C70.4624 68.676 70.9952 67.2632 72.3781 67.1221Z" fill="#6F4BBB"/>
<path d="M71.3886 75.6505C72.8464 78.3118 75.1281 79.5603 77.6277 79.961C74.0619 81.5148 70.9061 79.4419 71.3886 75.6505Z" fill="#6F4BBB"/>
<path d="M73.7899 76.2859C76.6538 77.8399 79.3713 78.3345 82.525 78.0524C80.2213 79.5352 75.7089 79.6995 73.7899 76.2859Z" fill="#9478CF"/>
<path d="M98.1273 30.8856C92.3699 21.2303 77.2338 26.8561 78.7703 37.6882C82.5509 31.6134 89.8527 29.6364 98.1273 30.8856Z" fill="#5F3EA7"/>
<path d="M98.1257 30.8825C94.871 25.4441 88.0291 25.0903 83.4459 28.0795C83.4225 29.3507 83.8114 30.2689 84.5154 30.9987C88.2261 29.2571 93.0778 28.5514 98.1257 30.8825Z" fill="#6F4BBB"/>
<path d="M128.242 67.613C134.284 67.6139 139.238 72.3249 139.242 78.2128C139.246 84.1006 134.3 88.8102 128.257 88.8093C122.215 88.8084 117.262 84.0974 117.257 78.2096C117.253 72.3217 122.2 67.6122 128.242 67.613Z" fill="#6F4BBB"/>
<path d="M128.243 69.1675C133.436 69.1683 137.637 73.2197 137.641 78.189C137.645 83.1819 133.449 87.2085 128.257 87.2078C123.064 87.207 118.863 83.1556 118.859 78.1863C118.855 73.217 123.075 69.1667 128.243 69.1675Z" fill="#9478CF"/>
<path d="M128.244 69.1664C131.932 69.1669 135.112 71.2163 136.667 74.1838C137.01 78.8939 131.092 82.3549 127.136 80.7294C124.223 79.1982 122.207 76.207 122.204 72.7923C122.204 72.2271 122.252 71.6854 122.373 71.1438C123.998 69.9194 126.036 69.1661 128.244 69.1664Z" fill="#A58DD4"/>
<path d="M124.413 76.7984C123.975 75.5029 128.974 73.8783 129.436 75.1739L134.398 89.5663C134.835 90.8618 129.837 92.4864 129.375 91.1909L124.413 76.7984Z" fill="#2B3039"/>
<path d="M131.596 75.3381C129.631 76.5154 128.006 77.6692 126.843 79.8122C128.519 81.7908 130.727 82.8745 133.154 82.5922C135.118 80.1902 134.096 77.4345 131.596 75.3381Z" fill="#5F3EA7"/>
<path d="M133.127 78.6349C132.836 77.8106 132.301 77.0335 131.621 76.2798C130.118 77.2215 128.881 78.2339 127.936 79.6938C128.979 79.7882 130.605 79.5293 133.127 78.6349Z" fill="#6F4BBB"/>
<path d="M133.491 81.1098C131.526 82.2871 129.901 83.4409 128.738 85.5839C130.414 87.5625 132.623 88.6462 135.049 88.3639C137.013 85.9619 135.992 83.2063 133.491 81.1098Z" fill="#5F3EA7"/>
<path d="M135.023 84.1716C134.731 83.3474 134.196 82.5702 133.516 81.8166C132.013 82.7583 130.776 83.7707 129.831 85.2306C130.874 85.3484 132.5 85.0661 135.023 84.1716Z" fill="#6F4BBB"/>
<path d="M123.252 81.6756C125.121 81.2284 126.77 80.946 128.785 81.5115C129.029 83.6312 128.424 85.5623 126.848 86.7868C124.227 86.5744 123.109 84.3604 123.252 81.6756Z" fill="#5F3EA7"/>
<path d="M124.398 84.242C124.058 83.5826 123.888 82.8291 123.814 82.0049C125.27 81.6754 126.604 81.5343 128.084 81.8406C127.551 82.5235 126.436 83.3004 124.398 84.242Z" fill="#6F4BBB"/>
<path d="M119.496 42.69C109.572 43.2303 101.983 51.4957 102.548 61.1283C103.113 70.7609 111.636 78.1337 121.56 77.5935C131.484 77.0532 139.074 68.7878 138.508 59.1552C137.943 49.5226 129.445 42.1498 119.496 42.69Z" fill="#393F4C"/>
<path d="M119.643 44.8566C110.957 45.3264 104.289 52.5792 104.78 61.0342C105.272 69.4657 112.75 75.9434 121.461 75.4501C130.148 74.9803 136.816 67.7274 136.325 59.2724C135.809 50.841 128.354 44.3633 119.643 44.8566Z" fill="#D3E8EF"/>
<path d="M132.542 67.7248C134.142 65.3225 135.014 62.4254 134.842 59.3397C134.473 53.239 130.125 48.2684 124.372 46.7365C123.915 52.0127 123.433 57.1947 122.927 62.5179C124.845 63.2719 129.798 65.6752 132.542 67.7248Z" fill="white"/>
<path d="M119.405 46.5516C111.834 46.9744 106.039 53.262 106.506 60.6104C106.579 61.6467 106.75 62.6594 107.042 63.6016C107.017 63.3896 106.993 63.1776 106.993 62.9421C106.501 54.4161 113.194 47.1159 121.978 46.6226L122.051 46.6226C121.201 46.5519 120.303 46.5046 119.405 46.5516Z" fill="white"/>
<path d="M107.044 68.0755C107.336 68.5464 107.652 68.9939 107.992 69.4178L112.646 63.1549L123.373 67.489L129.575 55.0335L135.812 56.1881C135.641 55.623 135.471 55.0578 135.252 54.5162L128.7 53.2909L122.619 65.5109L112.135 61.2711L107.044 68.0755Z" fill="#999999"/>
<path d="M112.183 59.06C113.979 58.9661 115.508 60.2852 115.607 62.028C115.705 63.7708 114.347 65.2543 112.552 65.3483C110.756 65.4422 109.226 64.1231 109.128 62.3803C109.005 60.661 110.387 59.1775 112.183 59.06Z" fill="#1EC185"/>
<path d="M128.941 51.0237C130.737 50.9298 132.266 52.2489 132.365 53.9917C132.463 55.7345 131.105 57.2181 129.31 57.312C127.514 57.406 125.984 56.0869 125.886 54.344C125.763 52.6012 127.146 51.1177 128.941 51.0237Z" fill="#EA4E64"/>
<path d="M122.785 63.3703C124.581 63.2764 126.11 64.5955 126.209 66.3383C126.307 68.0811 124.949 69.5646 123.154 69.6585C121.358 69.7525 119.828 68.4334 119.73 66.6906C119.607 64.9478 120.989 63.4642 122.785 63.3703Z" fill="#338EEF"/>
<path d="M78.9825 54.8223H13.0406V89.299H78.9825V54.8223Z" fill="#EEE8D3"/>
<path d="M78.9825 54.8223H13.0406V89.299H78.9825V54.8223Z" fill="#A58ED5"/>
<path d="M50.7853 58.8888H18.2651V83.1269H50.7853V58.8888Z" fill="#9478CF"/>
<path d="M49.7212 58.0957H19.3314V80.7474H49.7212V58.0957Z" fill="#DDD3F1"/>
<path d="M35.2142 57.8398H33.8384V82.1421H35.2142V57.8398Z" fill="#9478CF"/>
<path d="M52.8923 82.8264C52.8923 83.4914 52.3537 84.0318 51.6887 84.0318H17.5123C16.8474 84.0318 16.3088 83.4932 16.3088 82.8264C16.3088 82.1596 16.8474 81.621 17.5123 81.621H51.6868C52.3518 81.621 52.8904 82.1596 52.8904 82.8264H52.8923Z" fill="#9478CF"/>
<path d="M82.1443 94.8708H10.1809V89.5271C10.1809 88.1549 11.2929 87.043 12.665 87.043H79.6602C81.0323 87.043 82.1443 88.1549 82.1443 89.5271V94.8708Z" fill="#5F3EA7"/>
<path d="M73.8639 61.5995H58.375V92.7641H73.8639V61.5995Z" fill="#C9BAE8"/>
<path d="M81.7708 46.0156C81.7708 43.8961 80.0524 42.1759 77.931 42.1759H14.5502C12.4289 42.1759 10.7105 43.8942 10.7105 46.0156V60.017H81.7708V46.0156Z" fill="#2262BF"/>
<path d="M81.996 51.8145L90.051 60.0178H2.73059L10.7104 51.8145H81.996Z" fill="#F9863A"/>
<path d="M73.8347 61.6836H68.8665V91.456H73.8347V61.6836Z" fill="#9478CF"/>
<path d="M63.3634 61.5995H58.3953V91.37H63.3634V61.5995Z" fill="#9478CF"/>
<g opacity="0.27">
<path d="M28.4928 63.0352H21.777V63.0425H15.0612V65.9058C15.0612 67.7615 16.5652 69.2655 18.4191 69.2655C20.273 69.2655 21.766 67.7725 21.777 65.9278C21.7916 67.7688 23.2883 69.2582 25.1349 69.2582C26.9815 69.2582 28.4818 67.7652 28.4928 65.9204C28.5038 67.7652 30.0023 69.2582 31.8507 69.2582C33.6991 69.2582 35.2105 67.7542 35.2105 65.8984V63.0352H28.4928Z" fill="#9478CF"/>
<path d="M48.4791 63.0571H41.9282V63.0352H35.2105V65.8984C35.2105 67.7524 36.7145 69.2582 38.5684 69.2582C40.1787 69.2582 41.5233 68.1242 41.8512 66.6129C42.17 68.1352 43.5201 69.2802 45.1377 69.2802C46.9385 69.2802 48.404 67.8623 48.4883 66.0816C48.5762 67.8586 50.0399 69.2747 51.8389 69.2747C53.6378 69.2747 55.1986 67.7688 55.1986 65.9149V63.0516H48.4809V63.059L48.4791 63.0571Z" fill="#9478CF"/>
<path d="M68.6357 63.0352H61.9199V63.0425H55.2059V65.9058C55.2059 67.7615 56.7099 69.2655 58.5638 69.2655C60.4177 69.2655 61.9108 67.7743 61.9218 65.9296C61.9382 67.7707 63.4331 69.2582 65.2778 69.2582C67.1226 69.2582 68.6248 67.7652 68.6357 65.9204C68.6486 67.7652 70.1452 69.2582 71.9937 69.2582C73.8421 69.2582 75.3534 67.7542 75.3534 65.8984V63.0352H68.6357Z" fill="#9478CF"/>
<path d="M13.0405 63.0488V68.9898C14.2258 68.4713 15.0538 67.2897 15.0538 65.9121V63.0488H13.0405Z" fill="#9478CF"/>
<path d="M78.9733 63.0352H75.3535V65.8984C75.3535 67.7524 76.8575 69.2582 78.7114 69.2582C78.7993 69.2582 78.8854 69.2527 78.9715 69.2454V63.0352H78.9733Z" fill="#9478CF"/>
</g>
<path d="M64.9333 78.7609C64.9333 79.0613 64.6915 79.3031 64.3893 79.3031H60.3297C60.0293 79.3031 59.7856 79.0595 59.7856 78.7609C59.7856 78.4623 60.0293 78.2168 60.3297 78.2168H64.3893C64.6897 78.2168 64.9333 78.4604 64.9333 78.7609Z" fill="white"/>
<path d="M61.3117 78.7614C61.3117 79.3843 60.8061 79.8899 60.1833 79.8899C59.5604 79.8899 59.053 79.3843 59.053 78.7614C59.053 78.1385 59.5586 77.6329 60.1833 77.6329C60.808 77.6329 61.3117 78.1385 61.3117 78.7614Z" fill="white"/>
<path d="M9.51569 62.8786C9.51569 64.7361 8.00985 66.2401 6.15412 66.2401C4.29838 66.2401 2.79254 64.7361 2.79254 62.8786V60.0134H9.51752V62.8786H9.51569Z" fill="#9478CF"/>
<path d="M16.2224 62.8707C16.2224 64.7283 14.7165 66.2323 12.859 66.2323C11.0014 66.2323 9.49738 64.7265 9.49738 62.8707V60.0056H16.2205V62.8707H16.2224Z" fill="#2262BF"/>
<path d="M22.9547 62.8609C22.9547 64.7166 21.4488 66.2224 19.5913 66.2224C17.7337 66.2224 16.2315 64.7166 16.2315 62.8609V59.9939H22.9547V62.8609Z" fill="#9478CF"/>
<path d="M29.6743 62.851C29.6743 64.7085 28.1684 66.2144 26.3127 66.2144C24.4569 66.2144 22.9511 64.7104 22.9511 62.851V59.9858H29.6743V62.851Z" fill="#2262BF"/>
<path d="M36.3955 62.8508C36.3955 64.7084 34.8897 66.2143 33.0339 66.2143C31.1782 66.2143 29.6724 64.7102 29.6724 62.8508V59.9857H36.3955V62.8508Z" fill="#9478CF"/>
<path d="M43.1207 62.8508C43.1207 64.7084 41.6167 66.2143 39.7591 66.2143C37.9015 66.2143 36.3975 64.7102 36.3975 62.8508V59.9857H43.1207V62.8508Z" fill="#2262BF"/>
<path d="M49.6939 62.8784C49.6939 64.736 48.188 66.24 46.3304 66.24C44.4729 66.24 42.9689 64.736 42.9689 62.8784V60.0133H49.692V62.8784H49.6939Z" fill="#9478CF"/>
<path d="M56.4024 62.8706C56.4024 64.7282 54.8966 66.2322 53.0408 66.2322C51.1851 66.2322 49.6793 64.7264 49.6793 62.8706V60.0055H56.4024V62.8706Z" fill="#2262BF"/>
<path d="M63.1329 62.8607C63.1329 64.7165 61.6271 66.2223 59.7714 66.2223C57.9156 66.2223 56.4098 64.7165 56.4098 62.8607V59.9938H63.1329V62.8607Z" fill="#9478CF"/>
<path d="M69.8543 62.8508C69.8543 64.7084 68.3484 66.2143 66.4927 66.2143C64.6369 66.2143 63.1311 64.7102 63.1311 62.8508V59.9857H69.8543V62.8508Z" fill="#2262BF"/>
<path d="M76.5756 62.8507C76.5756 64.7083 75.0697 66.2141 73.214 66.2141C71.3583 66.2141 69.8524 64.7101 69.8524 62.8507V59.9856H76.5756V62.8507Z" fill="#9478CF"/>
<path d="M83.2986 62.8507C83.2986 64.7083 81.7928 66.2141 79.937 66.2141C78.0813 66.2141 76.5754 64.7101 76.5754 62.8507V59.9856H83.2986V62.8507Z" fill="#2262BF"/>
<path d="M90.0272 62.8727C90.0272 64.7303 88.5214 66.2343 86.6657 66.2343C84.8099 66.2343 83.3041 64.7303 83.3041 62.8727V60.0076H90.0272V62.8727Z" fill="#9478CF"/>
<path d="M78.8322 93.2125C78.8322 92.216 78.0244 91.4062 77.026 91.4062H55.0447C54.0463 91.4062 53.2385 92.2141 53.2385 93.2125V94.7184H78.8322V93.2125Z" fill="#5F3EA7"/>
<path d="M83.304 60.0103L76.2236 51.8125H81.996L90.0272 60.0103H83.304Z" fill="#A58ED5"/>
<path d="M83.304 60.0103L76.2236 51.8125H70.8506L76.5753 59.9884L83.304 60.0103Z" fill="#387ADA"/>
<path d="M69.8541 59.9908L65.4539 51.793L70.8507 51.815L76.5755 59.9908H69.8541Z" fill="#A58ED5"/>
<path d="M69.854 59.9908L65.4537 51.793H59.7968L63.1327 59.9981L69.854 59.9908Z" fill="#387ADA"/>
<path d="M56.4022 60.0055L54.3138 51.8076L59.7968 51.793L63.1327 59.9981L56.4022 60.0055Z" fill="#A58ED5"/>
<path d="M56.4021 60.0045L54.3137 51.8066H48.8491L49.6936 60.0118L56.4021 60.0045Z" fill="#387ADA"/>
<path d="M42.9705 60.0118L43.3717 51.814L48.8491 51.8066L49.6936 60.0118H42.9705Z" fill="#A58ED5"/>
<path d="M42.9706 60.0123L43.3718 51.8145L38.0592 51.7852L36.3958 59.9903L42.9706 60.0123Z" fill="#387ADA"/>
<path d="M9.51588 60.0103L16.228 51.8125H10.6388L2.79272 60.0103H9.51588Z" fill="#A58ED5"/>
<path d="M9.51599 60.0103L16.2282 51.8125H21.603L16.2446 59.9884L9.51599 60.0103Z" fill="#387ADA"/>
<path d="M22.9661 59.9908L26.9981 51.793L21.6031 51.815L16.2448 59.9908H22.9661Z" fill="#A58ED5"/>
<path d="M22.9658 59.9908L26.9979 51.793H32.6567L29.6871 59.9981L22.9658 59.9908Z" fill="#387ADA"/>
<path d="M36.4177 60.005L38.0591 51.7852L32.6567 51.7925L29.6872 59.9977L36.4177 60.005Z" fill="#A58ED5"/>
<path d="M49.6758 41.7758L50.7165 40.3674C53.0922 39.9848 55.2893 40.3016 56.9921 40.6729C57.5539 42.0266 56.3952 45.0677 52.4036 46.2019C50.5786 45.5314 49.7501 43.6591 49.6758 41.7758Z" fill="#6F4BBB"/>
<path d="M50.9445 43.1816L50.7741 41.173C52.5157 40.9579 54.4027 41.0258 55.7515 41.3706L50.9445 43.1816Z" fill="#9478CF"/>
<path d="M56.0745 42.4776L57.1644 41.211C59.4005 40.9571 61.4095 41.3082 62.9952 41.7288C63.4143 43.0053 62.0871 45.7955 58.2572 46.7057C56.6206 46.0167 56.0055 44.2362 56.0745 42.4776Z" fill="#6F4BBB"/>
<path d="M57.1548 43.8398L57.1277 41.9559C58.7761 41.8214 60.5463 41.9542 61.7777 42.3324L57.1548 43.8398Z" fill="#9478CF"/>
<path d="M44.3499 43.593L44.5427 42.2443C46.2994 41.4431 48.2059 41.2257 49.7845 41.1554C50.8829 42.1214 51.3695 44.8063 48.6603 46.587C46.8663 46.4387 45.3146 45.0992 44.3501 43.6088L44.3499 43.593Z" fill="#6F4BBB"/>
<path d="M46.0362 44.4593L44.9525 42.8756C46.265 42.3342 47.8395 41.979 49.089 41.9769L46.036 44.4435L46.0362 44.4593Z" fill="#9478CF"/>
</svg>
