<svg width="189" height="104" viewBox="0 0 189 104" fill="none" xmlns="http://www.w3.org/2000/svg">
<path fill-rule="evenodd" clip-rule="evenodd" d="M94.6699 78.9534C146.382 78.9534 188.369 83.4009 188.369 88.8779C188.369 94.3548 146.382 98.8024 94.6699 98.8024C42.9576 98.8024 0.970947 94.3591 0.970947 88.8779C0.970947 83.3967 42.9576 78.9534 94.6699 78.9534Z" fill="#C5E6F8"/>
<path d="M74.5943 80.3987L90.5354 80.4009L90.5452 93.941L74.8953 93.9388C72.4197 92.8788 70.3805 91.3715 68.8992 89.6052C69.4793 86.6853 71.636 82.8709 74.5943 80.3987Z" fill="#6F4BBB"/>
<path d="M75.5167 81.529C73.4073 83.648 71.3225 86.2144 70.621 89.1342C71.8838 90.5943 73.5345 91.7249 75.3063 92.5493L88.6996 92.5511L88.6916 81.5308L75.5167 81.529Z" fill="#7D5DC2"/>
<path d="M71.8333 86.1466C71.4213 86.7117 70.6465 88.9957 70.5981 89.1369C71.8608 90.597 73.5115 91.7275 75.2833 92.5518L82.4166 92.5528L82.4123 86.6425C78.8942 86.6185 75.3759 86.4532 71.8333 86.1466Z" fill="#9478CF"/>
<path d="M74.5288 91.0702C76.179 91.612 76.9562 92.6246 77.1997 93.9432L71.4496 93.9424C71.837 92.8123 72.9278 91.4232 74.5288 91.0702Z" fill="#5F3EA7"/>
<path d="M74.5043 91.6827C73.6067 91.918 72.855 92.6009 72.3703 93.378L74.5298 93.3783L74.5286 91.6827L74.5043 91.6827Z" fill="#6F4BBB"/>
<path d="M80.2059 90.7405C82.4141 91.3294 83.4827 92.7657 83.7504 93.9429L76.0837 93.942C76.5923 92.6942 78.1439 91.0228 80.2059 90.7405Z" fill="#5F3EA7"/>
<path d="M80.1564 91.329C78.9434 91.5408 77.7551 92.3648 77.0522 93.3773L80.2064 93.3778L80.2049 91.3291L80.1564 91.329Z" fill="#6F4BBB"/>
<path d="M109.649 80.3977L93.7075 80.3955L93.7174 93.9356L109.367 93.9377C111.841 92.8784 113.878 91.3716 115.357 89.6057C114.797 86.6857 112.635 82.8707 109.649 80.3977Z" fill="#6F4BBB"/>
<path d="M108.752 81.5277C110.864 83.6473 112.953 86.2143 113.659 89.1343C112.398 90.594 110.749 91.7241 108.978 92.548L95.5849 92.5462L95.5769 81.5259L108.752 81.5277Z" fill="#7D5DC2"/>
<path d="M112.417 86.1442C112.83 86.7094 113.608 88.9935 113.657 89.1348C112.396 90.5946 110.747 91.7246 108.977 92.5485L101.843 92.5475L101.839 86.6373C105.357 86.6142 108.899 86.4499 112.417 86.1442Z" fill="#9478CF"/>
<path d="M109.749 91.0658C108.1 91.6071 107.324 92.6195 107.083 93.9381L112.833 93.9388C112.444 92.8085 111.351 91.4192 109.749 91.0658Z" fill="#5F3EA7"/>
<path d="M109.776 91.678C110.674 91.9136 111.427 92.5967 111.913 93.3739L109.753 93.3736L109.752 91.678L109.776 91.678Z" fill="#6F4BBB"/>
<path d="M104.075 90.7372C101.867 91.3256 100.801 92.7616 100.535 93.9388L108.201 93.9397C107.691 92.6918 106.137 91.02 104.075 90.7372Z" fill="#5F3EA7"/>
<path d="M104.098 91.3254C105.311 91.5376 106.501 92.3619 107.205 93.3746L104.051 93.3741L104.049 91.3254L104.098 91.3254Z" fill="#6F4BBB"/>
<path d="M49.5154 84.5702C49.6143 87.0431 50.1981 88.9745 51.3152 90.1758C53.0622 90.0347 54.5411 88.1508 55.2193 86.5258C54.1989 84.8064 52.2085 84.0289 49.5154 84.5702Z" fill="#5F3EA7"/>
<path d="M50.4141 85.2538C50.4637 86.6906 50.8531 88.1747 51.6549 89.2583L52.3317 85.3482C51.7248 85.2068 51.0694 85.2067 50.4141 85.2538Z" fill="#6F4BBB"/>
<path d="M53.9301 85.8889C54.1016 88.1028 54.3943 90.0575 55.8274 92.036C58.3991 91.4947 60.4121 90.1055 61.2598 87.8918C59.9959 85.0891 56.9867 84.7118 53.9301 85.8889Z" fill="#5F3EA7"/>
<path d="M56.1913 91.0948L57.9109 86.1722C56.94 85.9837 55.8479 86.1248 54.8046 86.4545C54.9757 88.1268 55.268 89.6108 56.1913 91.0948Z" fill="#6F4BBB"/>
<path d="M58.3663 78.7272C59.7009 78.7273 60.7694 79.7638 60.7703 81.0591C60.7713 82.3544 59.7043 83.3905 58.3697 83.3903C57.0351 83.3901 55.9667 82.3537 55.9657 81.0584C55.9647 79.7631 57.0317 78.727 58.3663 78.7272Z" fill="#9478CF"/>
<path d="M64.0535 27.481C63.3465 23.0766 64.1214 20.7922 65.0406 16.7649C67.93 19.097 69.7755 20.7695 73.2955 22.4893C73.9961 18.2264 75.5462 14.1992 77.8002 10.4312L79.1333 8.21747C84.2806 11.9866 88.6751 15.0019 92.0761 19.9955C95.4698 15.0029 99.8599 11.9888 105.002 8.22121L106.338 10.4353C108.598 14.204 110.154 18.2316 110.86 22.4947C114.378 20.7759 116.221 19.104 119.107 16.7727C120.056 20.7767 120.81 23.0614 120.11 27.4891L126.469 29.1858C125.219 45.2953 123.943 59.0261 122.329 75.1356C122.112 77.3495 121.871 79.5869 121.63 81.8008C121.558 82.4367 120.758 83.5906 117.36 83.6137C100.763 84.6947 83.3875 84.6922 66.8125 83.6064C63.4151 83.5588 62.6135 82.4281 62.5402 81.7922C62.2959 79.5312 62.0516 77.2701 61.8315 75.0091C61.7338 74.0905 61.636 73.172 61.5383 72.2299C60.1445 57.8628 58.7751 43.5429 57.624 29.1523L63.9807 27.4574L64.0535 27.4575L64.0535 27.481Z" fill="#6F4BBB"/>
<path d="M79.8386 11.5859C77.0998 16.1075 75.5744 20.8884 75.2869 25.8343C72.4712 24.7976 69.2667 23.1014 66.4987 20.9106C65.9423 23.3129 66.0659 26.4453 66.8202 29.1775C64.491 29.6953 62.3316 30.2367 60.1723 30.8487C61.348 45.6397 62.4508 60.4307 63.9662 75.1746C64.1129 76.6348 64.4307 79.7909 64.6016 81.2512C65.2085 81.581 66.4704 81.5812 66.98 81.6048C83.6764 82.6906 100.566 82.6931 117.261 81.6121C117.795 81.565 119.032 81.5652 119.639 81.2591C119.808 79.8225 120.121 76.5958 120.265 75.1827C121.735 60.4157 122.84 45.6251 123.994 30.858C121.834 30.2453 119.674 29.7033 117.344 29.1848C118.094 26.4528 118.213 23.3204 117.653 20.918C114.913 23.1315 111.686 24.8033 108.872 25.8392C108.577 20.9167 107.045 16.1118 104.3 11.5894C98.7212 15.6867 95.0591 18.6537 92.0786 24.5885C89.0651 18.6529 85.423 15.6848 79.8143 11.5859L79.8386 11.5859Z" fill="#9478CF"/>
<path d="M79.8461 11.5848C80.2635 18.1568 81.9678 25.4592 85.174 28.5219C80.9017 28.0738 78.6196 27.5788 75.3172 25.8353C72.4765 24.7985 69.2713 23.1021 66.5026 20.9111C67.9864 25.2455 69.4207 28.3314 72.3599 31.3469C69.8597 31.2995 68.427 30.4984 66.8241 29.1791C64.4942 29.697 62.3343 30.2385 60.1744 30.8507C61.3501 45.6437 62.453 60.4367 63.9684 75.1827C64.1151 76.6432 64.4329 79.7996 64.6039 81.2601C65.211 81.59 66.4732 81.5901 66.9829 81.6137C75.3332 82.1566 83.7319 82.4167 92.1304 82.4178L92.1241 73.608C79.163 74.5957 67.3035 54.7605 80.9114 41.736L78.1939 43.1961C77.8526 41.0996 78.5303 38.485 79.4269 36.3651C81.1959 32.2431 85.9027 29.1815 92.0918 28.4521L92.089 24.5654C89.0749 18.629 85.4561 15.6606 79.8461 11.5848Z" fill="#A58DD4"/>
<path d="M111.811 31.3397C114.721 28.3252 116.175 25.2163 117.653 20.8826C118.212 23.2852 118.093 26.4178 117.343 29.1499C115.742 30.4923 114.311 31.2929 111.811 31.3397ZM106.884 30.1142C108.34 30.1144 109.506 31.2687 109.507 32.6583C109.508 34.0716 108.319 35.202 106.888 35.2018C105.431 35.2016 104.266 34.0473 104.265 32.6576C104.264 31.2679 105.452 30.114 106.884 30.1142ZM116.474 35.8626C117.469 35.8628 118.295 36.6637 118.296 37.6294C118.296 38.5951 117.472 39.3958 116.477 39.3957C115.482 39.3955 114.656 38.5946 114.655 37.6289C114.655 36.6396 115.455 35.8625 116.474 35.8626ZM99.0196 28.4878C102.221 25.4499 103.914 18.1485 104.322 11.5535C107.068 16.0762 108.6 20.8578 108.895 25.8041C105.571 27.5466 103.291 28.0409 99.0196 28.4878Z" fill="#7D5DC2"/>
<path d="M68.3145 33.8212C70.693 33.8215 72.6361 35.7061 72.6377 38.0145C72.6394 40.3229 70.6991 42.207 68.3205 42.2067C65.942 42.2063 63.9989 40.3217 63.9972 38.0133C63.9956 35.705 65.9359 33.8208 68.3145 33.8212ZM65.5326 46.6817C66.4792 46.6818 67.2564 47.4357 67.257 48.3543C67.2577 49.273 66.4816 50.0266 65.535 50.0265C64.5884 50.0263 63.8112 49.2725 63.8106 48.3539C63.8099 47.4352 64.586 46.6816 65.5326 46.6817Z" fill="#9478CF"/>
<path d="M92.3773 36.1087C102.642 36.1101 110.971 44.1895 110.978 54.1517C110.986 64.1139 102.668 72.1908 92.4038 72.1893C82.1393 72.1879 73.8102 64.1085 73.8029 54.1463C73.7956 44.1841 82.1129 36.1072 92.3773 36.1087Z" fill="#D3E8EF"/>
<path d="M74.2868 50.0472C75.9076 43.2648 81.4848 37.943 88.5208 36.5074C96.1883 35.9433 102.404 41.149 102.409 48.2379C102.414 55.3738 96.1101 61.7081 88.3699 62.3664C80.6054 63.0247 74.3168 57.7955 74.3115 50.636C74.2871 50.4476 74.287 50.2356 74.2868 50.0472Z" fill="white"/>
<path d="M98.1088 47.2249C103.908 47.2258 108.595 51.7718 108.599 57.4006C108.603 63.0294 103.923 67.5741 98.1238 67.5733C92.3242 67.5724 87.6376 63.0263 87.6334 57.3976C87.6293 51.7924 92.3093 47.2241 98.1088 47.2249Z" fill="#EA4E64"/>
<path d="M98.1093 47.2249C99.6381 47.2251 101.094 47.5315 102.405 48.1205L102.405 48.2383C102.41 55.186 96.4453 61.3792 88.9235 62.3202C88.0974 60.8599 87.6108 59.1877 87.6095 57.3977C87.6054 51.7689 92.2854 47.2241 98.1093 47.2249Z" fill="#EC6277"/>
<path d="M98.112 50.8047C101.873 50.8052 104.933 53.7496 104.936 57.4236C104.938 61.0741 101.907 64.0411 98.1218 64.0405C94.3605 64.04 91.3009 61.0956 91.2982 57.4216C91.2955 53.7712 94.3266 50.8042 98.112 50.8047Z" fill="#232323"/>
<path d="M98.1103 50.8047C99.4935 50.8049 100.78 51.2055 101.848 51.8886C100.541 56.1042 97.0976 59.6835 92.6825 61.3786C91.8323 60.2715 91.3217 58.8819 91.3207 57.4217C91.2937 53.7712 94.3248 50.8041 98.1103 50.8047Z" fill="#323232"/>
<path d="M90.6883 49.7916C93.0663 49.792 94.9847 51.6528 94.9864 53.9608C94.9881 56.2689 93.0724 58.1292 90.6944 58.1288C88.3163 58.1285 86.3979 56.2676 86.3962 53.9596C86.3946 51.6516 88.3102 49.7913 90.6883 49.7916Z" fill="white"/>
<path d="M70.5345 62.4213C75.8222 59.596 83.7848 64.5428 83.2083 72.5499C78.1601 71.0419 72.6971 66.4252 70.5345 62.4213Z" fill="#6F4BBB"/>
<path d="M70.5345 62.4216C75.339 62.5165 80.6549 65.1549 83.2081 72.55C77.1657 71.8897 71.5331 67.4144 70.5345 62.4216Z" fill="#A58DD4"/>
<path d="M73.0376 69.1119C73.7411 68.8764 77.0413 68.9476 77.3085 69.3009C77.6243 69.7249 76.7523 71.8915 75.8312 73.3044C74.6173 72.3622 73.6214 71.0667 73.0376 69.1119Z" fill="#7D5DC2"/>
<path d="M72.067 68.3345C72.7705 68.0991 76.0708 68.1702 76.338 68.5235C76.6537 68.9475 75.7817 71.1141 74.8607 72.5271C73.6467 71.5848 72.6508 70.2894 72.067 68.3345Z" fill="white"/>
<path d="M73.0601 67.2275C73.2818 71.7725 79.3995 76.1534 85.1974 74.5294C85.5138 75.8482 84.5924 76.6251 83.6462 76.8134C78.3813 77.2601 73.3077 74.0332 71.6305 69.9119C71.1444 68.7815 71.6772 67.3686 73.0601 67.2275Z" fill="#6F4BBB"/>
<path d="M72.0705 75.7559C73.5283 78.4172 75.8101 79.6656 78.3096 80.0664C74.7439 81.6201 71.588 79.5473 72.0705 75.7559Z" fill="#6F4BBB"/>
<path d="M74.4719 76.3916C77.3358 77.9456 80.0533 78.4402 83.2071 78.1581C80.9033 79.6409 76.3909 79.8052 74.4719 76.3916Z" fill="#9478CF"/>
<path d="M98.8092 30.9913C93.0518 21.336 77.9157 26.9618 79.4521 37.7939C83.2328 31.7191 90.5346 29.7421 98.8092 30.9913Z" fill="#5F3EA7"/>
<path d="M98.8077 30.9883C95.5529 25.55 88.7111 25.1961 84.1279 28.1853C84.1045 29.4566 84.4933 30.3747 85.1974 31.1045C88.9081 29.3629 93.7598 28.6572 98.8077 30.9883Z" fill="#6F4BBB"/>
<path d="M128.924 67.7191C134.966 67.72 139.92 72.431 139.924 78.3188C139.928 84.2067 134.982 88.9162 128.939 88.9154C122.897 88.9145 117.944 84.2035 117.939 78.3157C117.935 72.4278 122.882 67.7182 128.924 67.7191Z" fill="#6F4BBB"/>
<path d="M128.925 69.2736C134.118 69.2743 138.319 73.3258 138.323 78.2951C138.326 83.288 134.131 87.3146 128.938 87.3139C123.746 87.3131 119.545 83.2617 119.541 78.2924C119.537 73.323 123.757 69.2728 128.925 69.2736Z" fill="#9478CF"/>
<path d="M128.925 69.2719C132.614 69.2724 135.794 71.3217 137.349 74.2893C137.692 78.9994 131.774 82.4604 127.818 80.8349C124.905 79.3037 122.889 76.3125 122.886 72.8977C122.886 72.3325 122.934 71.7909 123.055 71.2492C124.68 70.0249 126.717 69.2715 128.925 69.2719Z" fill="#A58DD4"/>
<path d="M125.095 76.9043C124.657 75.6087 129.656 73.9841 130.118 75.2797L135.079 89.6721C135.517 90.9677 130.519 92.5922 130.057 91.2967L125.095 76.9043Z" fill="#2B3039"/>
<path d="M132.278 75.4438C130.313 76.6211 128.688 77.7749 127.525 79.9179C129.201 81.8965 131.41 82.9802 133.836 82.6979C135.8 80.2959 134.779 77.5403 132.278 75.4438Z" fill="#5F3EA7"/>
<path d="M133.809 78.7411C133.517 77.9168 132.983 77.1397 132.303 76.386C130.8 77.3277 129.563 78.3401 128.618 79.8C129.661 79.8944 131.286 79.6356 133.809 78.7411Z" fill="#6F4BBB"/>
<path d="M134.173 81.2158C132.208 82.3931 130.583 83.5469 129.42 85.6899C131.096 87.6685 133.305 88.7521 135.731 88.4699C137.695 86.0679 136.674 83.3122 134.173 81.2158Z" fill="#5F3EA7"/>
<path d="M135.704 84.2774C135.413 83.4532 134.878 82.676 134.198 81.9224C132.695 82.8641 131.458 83.8765 130.513 85.3364C131.556 85.4543 133.182 85.1719 135.704 84.2774Z" fill="#6F4BBB"/>
<path d="M123.934 81.7812C125.803 81.334 127.452 81.0516 129.467 81.6171C129.711 83.7368 129.106 85.6679 127.53 86.8924C124.909 86.68 123.791 84.466 123.934 81.7812Z" fill="#5F3EA7"/>
<path d="M125.08 84.3477C124.74 83.6883 124.569 82.9348 124.496 82.1106C125.952 81.7811 127.286 81.64 128.766 81.9464C128.233 82.6292 127.117 83.4061 125.08 84.3477Z" fill="#6F4BBB"/>
<path d="M120.178 42.7959C110.254 43.3361 102.665 51.6016 103.23 61.2341C103.795 70.8667 112.318 78.2395 122.242 77.6993C132.166 77.159 139.755 68.8936 139.19 59.261C138.625 49.6285 130.127 42.2556 120.178 42.7959Z" fill="#393F4C"/>
<path d="M120.325 44.9623C111.639 45.4321 104.971 52.6849 105.462 61.1399C105.954 69.5714 113.432 76.0491 122.144 75.5558C130.83 75.086 137.498 67.8332 137.007 59.3781C136.491 50.9467 129.037 44.469 120.325 44.9623Z" fill="#D3E8EF"/>
<path d="M133.224 67.8305C134.824 65.4282 135.696 62.5311 135.524 59.4454C135.155 53.3447 130.807 48.3741 125.054 46.8422C124.597 52.1184 124.115 57.3004 123.609 62.6236C125.527 63.3777 130.48 65.7809 133.224 67.8305Z" fill="white"/>
<path d="M120.087 46.6578C112.516 47.0806 106.721 53.3682 107.188 60.7166C107.261 61.7529 107.432 62.7656 107.724 63.7078C107.699 63.4958 107.675 63.2838 107.675 63.0483C107.183 54.5223 113.875 47.2221 122.66 46.7288L122.732 46.7288C121.883 46.6581 120.985 46.6108 120.087 46.6578Z" fill="white"/>
<path d="M107.726 68.1813C108.018 68.6523 108.334 69.0997 108.674 69.5236L113.328 63.2607L124.055 67.5948L130.257 55.1393L136.494 56.294C136.323 55.7288 136.153 55.1637 135.934 54.622L129.382 53.3967L123.301 65.6168L112.817 61.3769L107.726 68.1813Z" fill="#999999"/>
<path d="M112.865 59.1658C114.661 59.0719 116.19 60.391 116.289 62.1338C116.387 63.8766 115.029 65.3602 113.234 65.4541C111.438 65.5481 109.908 64.229 109.81 62.4861C109.687 60.7669 111.069 59.2833 112.865 59.1658Z" fill="#1EC185"/>
<path d="M129.623 51.1299C131.419 51.036 132.948 52.3551 133.047 54.0979C133.145 55.8407 131.787 57.3243 129.992 57.4182C128.196 57.5122 126.666 56.1931 126.568 54.4502C126.445 52.7074 127.827 51.2239 129.623 51.1299Z" fill="#EA4E64"/>
<path d="M123.467 63.4761C125.262 63.3822 126.792 64.7013 126.891 66.4441C126.989 68.1869 125.631 69.6704 123.835 69.7644C122.04 69.8583 120.51 68.5392 120.412 66.7964C120.289 65.0536 121.671 63.5701 123.467 63.4761Z" fill="#338EEF"/>
<path d="M32.9483 69.6227C41.3891 71.2703 52.9006 77.0507 52.9006 77.0507C54.1596 77.5817 55.3912 78.151 56.5681 78.7531C58.1993 79.5906 59.732 80.5047 61.1114 81.5119C61.1114 81.5119 64.9377 77.9211 68.9719 72.584C73.0062 67.247 75.4147 62.5888 75.4147 62.5888C69.1088 57.6294 59.7594 46.2383 56.393 39.9707C55.3748 45.3132 52.3149 51.4439 48.3792 56.6441C44.022 62.4136 38.2744 67.455 32.9538 69.6172L32.9483 69.6227Z" fill="white"/>
<path d="M68.972 72.5851C64.9377 77.9222 61.1115 81.513 61.1115 81.513L70.7619 88.8097C70.7619 88.8097 74.0572 88.3006 79.7664 80.7467C85.4702 73.1982 85.0651 69.8865 85.0651 69.8865L75.4147 62.5898C75.4147 62.5898 73.0062 67.2481 68.972 72.5851Z" fill="#338EEF"/>
<path d="M53.5359 28.8583C56.6012 31.1737 57.2855 35.2682 56.3878 39.9757C55.3696 45.3182 52.3097 51.4489 48.374 56.6491C44.0168 62.4186 38.2692 67.46 32.9486 69.6222C29.2428 71.1385 25.7341 71.2315 23.0464 69.2007C16.4996 64.2523 20.824 51.1917 28.2137 41.4153C35.6035 31.6335 46.9891 23.9099 53.5359 28.8583ZM25.9202 65.4019C27.7047 66.7484 32.664 65.1117 38.1433 60.2126C40.1522 58.4281 42.2323 56.2057 44.2522 53.529C46.0038 51.2136 47.4161 48.9419 48.5218 46.8016C52.2057 39.7184 52.5341 34.0639 50.6621 32.6517C48.2317 30.8179 39.8895 34.5292 32.3356 44.5245C24.7871 54.5143 23.4898 63.5626 25.9147 65.3964L25.9202 65.4019Z" fill="#338EEF"/>
<path d="M36.3917 48.3069C35.1054 50.0093 34.3555 51.1588 33.9121 51.9252C33.4577 52.7189 33.5399 53.7315 34.1091 54.5362L38.1434 60.2126C40.1523 58.4281 42.2324 56.2057 44.2522 53.529C46.0039 51.2136 47.4161 48.9419 48.5219 46.8016L41.7671 44.4041C40.8365 44.0756 39.8403 44.2727 39.1998 44.9296C38.5868 45.5591 37.6836 46.5991 36.3972 48.3015L36.3917 48.3069Z" fill="white"/>
<path d="M32.3411 44.5314C24.7927 54.5212 23.4953 63.5695 25.9203 65.4033C27.7048 66.7499 32.6641 65.1132 38.1434 60.2141L34.1092 54.5376C33.5399 53.733 33.4578 52.7203 33.9121 51.9266C34.3555 51.1603 35.1054 50.0107 36.3918 48.3084C37.6782 46.606 38.5813 45.566 39.1944 44.9365C39.8349 44.2796 40.8311 44.0825 41.7617 44.411L48.5164 46.8085C52.2003 39.7253 52.5288 34.0708 50.6567 32.6586C48.2263 30.8248 39.8841 34.5361 32.3302 44.5314H32.3411Z" fill="#083A6F"/>
<path d="M52.9007 77.0508L49.3208 83.0447L52.326 85.3163L56.5682 78.7586C55.3914 78.151 54.1597 77.5872 52.9007 77.0563V77.0508Z" fill="#338EEF"/>
<path d="M56.5682 78.7539L52.3259 85.3116L48.7953 90.78C48.2315 91.6504 48.4888 92.8491 49.3865 93.5279L52.523 95.8981C53.4481 96.5933 54.7016 96.4783 55.3749 95.6518C59.2723 90.8676 65.5289 84.8463 65.5289 84.8463L61.117 81.5127C59.743 80.511 58.2049 79.5969 56.5737 78.7539H56.5682Z" fill="#338EEF"/>
<path d="M70.7677 89.0835C70.7677 89.0835 70.7951 89.0835 70.8115 89.0835C70.9483 89.0616 74.2874 88.4704 79.9912 80.9165C85.695 73.3625 85.3556 69.9961 85.3392 69.8538C85.3282 69.7826 85.2899 69.7114 85.2351 69.6677L75.5792 62.371C69.0161 57.2146 59.8473 45.8289 56.6342 39.8405C56.5794 39.7365 56.4645 39.6818 56.3495 39.6982C56.2346 39.7146 56.147 39.8022 56.1196 39.9171C55.1398 45.0516 52.2386 51.0893 48.1551 56.4811C43.6118 62.5078 37.8861 67.3194 32.8447 69.3666C32.7297 69.4104 32.6641 69.5253 32.675 69.6458C32.686 69.7662 32.7735 69.8647 32.894 69.8866C42.0299 71.6766 52.6656 77.2326 52.7751 77.2873C54.1326 77.8621 55.3259 78.4204 56.448 78.9951C58.1614 79.8764 59.6722 80.796 60.9476 81.7266L70.598 89.0233C70.6473 89.0616 70.702 89.078 70.7622 89.078L70.7677 89.0835ZM84.7972 70.0289C84.7972 70.6475 84.5345 73.9865 79.5533 80.588C74.572 87.1841 71.43 88.3445 70.8279 88.5197L61.276 81.2996C59.9732 80.3472 58.4351 79.4166 56.6998 78.5189C55.5667 77.9387 54.357 77.3749 53.0104 76.8056C52.9283 76.7618 42.8619 71.5069 33.8574 69.5363C38.7839 67.292 44.2304 62.6064 48.593 56.8205C52.5342 51.6148 55.3916 45.807 56.5083 40.7601C60.028 46.9347 68.8573 57.7948 75.2399 62.8144L84.7972 70.0399V70.0289Z" fill="#083A6F"/>
<path d="M27.8582 71.0132C29.4511 71.0132 31.1972 70.6355 33.0529 69.8746C38.1819 67.7945 43.9897 62.9118 48.5932 56.8139C52.726 51.3565 55.6654 45.2367 56.6617 40.0256C57.6634 34.798 56.6398 30.8623 53.7058 28.6454C47.0222 23.593 35.4723 31.3659 28.0005 41.2517C20.5341 51.1375 16.2043 64.3734 22.8879 69.4258C24.2947 70.4877 25.9752 71.0186 27.8636 71.0186L27.8582 71.0132ZM48.7246 27.5889C50.4379 27.5889 52.0144 28.0542 53.3719 29.0778C56.8588 31.7107 56.7931 36.4292 56.1253 39.9216C55.1454 45.0561 52.2443 51.0937 48.1608 56.4855C43.6174 62.5122 37.8918 67.3238 32.8503 69.371C28.9803 70.953 25.6467 70.8216 23.2163 68.9824C16.8174 64.1489 21.1308 51.2525 28.4384 41.5801C34.1969 33.966 42.3858 27.5889 48.73 27.5889H48.7246ZM27.579 66.1414C30.1955 66.1414 34.3009 64.0176 38.3297 60.4212C40.4973 58.4889 42.561 56.2282 44.4714 53.6993C46.1573 51.4714 47.6024 49.1943 48.7629 46.9336C52.6548 39.4453 52.7315 33.8784 50.832 32.4442C49.469 31.4097 46.6445 31.9625 43.289 33.9277C39.512 36.1391 35.5435 39.8449 32.1223 44.3718C24.3549 54.6463 23.178 63.6782 25.7562 65.6269C26.2215 65.9772 26.84 66.1469 27.579 66.1469V66.1414ZM49.0475 32.4826C49.6551 32.4826 50.1533 32.6139 50.5036 32.8767C52.2497 34.1959 51.8994 39.719 48.2812 46.6818C47.1317 48.9151 45.703 51.1649 44.0389 53.3654C42.1505 55.867 40.1087 58.1003 37.9684 60.0107C32.5931 64.8058 27.7049 66.4096 26.0901 65.1835C23.8075 63.4538 25.2252 54.4054 32.5657 44.6948C35.9431 40.2226 39.8514 36.5661 43.5737 34.3929C45.703 33.1504 47.6681 32.4826 49.053 32.4826H49.0475Z" fill="#083A6F"/>
<path d="M38.1435 60.4873C38.2092 60.4873 38.2749 60.4654 38.3241 60.4161C40.4863 58.4948 42.55 56.2341 44.4658 53.6942C46.1463 51.4718 47.5914 49.1947 48.7628 46.9285C48.8011 46.8574 48.8011 46.7752 48.7738 46.7041C48.7464 46.6329 48.6862 46.5727 48.6095 46.5453L41.8548 44.1478C40.8093 43.781 39.7145 44.0055 39.0029 44.739C38.2311 45.5327 37.2841 46.6767 36.1729 48.1382C35.0672 49.5998 34.2297 50.8259 33.6768 51.7838C33.1677 52.6761 33.2498 53.7873 33.8848 54.6905L37.9191 60.3669C37.9629 60.4326 38.034 60.4709 38.1107 60.4818C38.1216 60.4818 38.1325 60.4818 38.1435 60.4818V60.4873ZM48.1333 46.9559C47.0002 49.1071 45.6208 51.2583 44.0334 53.3658C42.2051 55.7852 40.24 57.9474 38.1873 59.8031L34.3337 54.3785C33.8191 53.6504 33.748 52.7637 34.153 52.0575C34.695 51.116 35.5215 49.9118 36.6163 48.4667C37.7111 47.0216 38.6471 45.894 39.397 45.1167C39.9608 44.5364 40.8366 44.3613 41.6796 44.6623L48.1388 46.9559H48.1333Z" fill="#083A6F"/>
<path d="M27.5678 66.1247C29.9817 66.1247 33.8791 64.3949 38.3239 60.4209C38.4279 60.3278 38.4443 60.1746 38.3622 60.0596L34.328 54.3832C33.8134 53.6552 33.7423 52.7684 34.1473 52.0623C34.6893 51.1208 35.5158 49.9165 36.6106 48.4714C37.7054 47.0263 38.6414 45.8987 39.3913 45.1214C39.9551 44.5412 40.8309 44.366 41.6739 44.6671L48.4287 47.0646C48.5546 47.1084 48.7024 47.0537 48.7626 46.9333C52.6545 39.445 52.7312 33.8781 50.8262 32.4384C49.4578 31.4039 46.6387 31.9622 43.2832 33.9219C39.5063 36.1333 35.5377 39.8391 32.1165 44.366C24.3491 54.646 23.1722 63.6724 25.7504 65.6211C26.1883 65.9495 26.8014 66.1247 27.5623 66.1247H27.5678ZM37.7765 60.1746C32.4778 64.8493 27.6827 66.3984 26.0843 65.1886C23.8017 63.4644 25.2195 54.4106 32.5599 44.6999C35.9373 40.2278 39.8456 36.5712 43.5679 34.3981C46.6333 32.6081 49.3538 32.0115 50.5033 32.8818C52.233 34.1901 51.9101 39.6147 48.3904 46.4735L41.86 44.158C40.8145 43.7913 39.7197 44.0157 39.0081 44.7492C38.2363 45.5429 37.2894 46.6869 36.1782 48.1485C35.0724 49.61 34.2349 50.8361 33.6821 51.7941C33.173 52.6863 33.2551 53.7975 33.8901 54.7007L37.782 60.1746H37.7765Z" fill="#083A6F"/>
<path d="M52.3316 85.5853C52.3316 85.5853 52.3644 85.5853 52.3809 85.5853C52.4575 85.5743 52.5232 85.5305 52.5615 85.4649L56.8037 78.9071C56.8475 78.8415 56.8585 78.7648 56.8366 78.6882C56.8147 78.6116 56.7654 78.5513 56.6997 78.513C55.5666 77.9328 54.3569 77.369 53.0103 76.7997C52.8844 76.745 52.7367 76.7942 52.671 76.9092L49.0911 82.9031C49.0199 83.0235 49.0473 83.1768 49.1622 83.2644L52.1728 85.5305C52.2221 85.5689 52.2769 85.5853 52.3371 85.5853H52.3316ZM56.1797 78.8579L52.2604 84.912L49.6822 82.9688L53.0158 77.3909C54.1599 77.8781 55.1999 78.3598 56.1797 78.8579Z" fill="#083A6F"/>
<path d="M53.8642 96.6316C54.5211 96.6316 55.1561 96.3579 55.583 95.827C59.4257 91.1085 65.655 85.1037 65.7152 85.0434C65.7754 84.9887 65.8028 84.9121 65.7973 84.83C65.7973 84.7479 65.7535 84.6767 65.6878 84.6274L61.2704 81.2938C59.9676 80.3414 58.4295 79.4108 56.6942 78.5131C56.5738 78.4474 56.4151 78.4912 56.3384 78.6062L48.5601 90.6377C47.9196 91.6176 48.2097 92.986 49.2169 93.7469L52.3535 96.1171C52.8133 96.4619 53.3442 96.6316 53.8642 96.6316ZM65.1076 84.8737C63.9416 86.0123 58.5991 91.2563 55.1616 95.4821C54.5813 96.1992 53.492 96.2868 52.6874 95.6792L49.5508 93.309C48.7735 92.7233 48.5382 91.6778 49.0253 90.9388L56.6669 79.1152C58.2871 79.9637 59.7268 80.845 60.9474 81.7317L65.1076 84.8737Z" fill="#083A6F"/>
<path d="M35.0235 53.6882C35.0618 53.6882 35.1002 53.6772 35.1385 53.6608C38.3297 52.1555 40.7656 49.216 41.6524 45.8058C41.6907 45.658 41.6031 45.5102 41.4553 45.4719C41.3075 45.4336 41.1597 45.5211 41.1214 45.6689C40.273 48.9314 37.952 51.734 34.9031 53.1682C34.7662 53.2338 34.706 53.3981 34.7717 53.5349C34.8155 53.6334 34.914 53.6936 35.018 53.6936L35.0235 53.6882Z" fill="#083A6F"/>
<path d="M79.8048 67.9584C79.8924 67.9584 79.9745 67.9201 80.0293 67.8434C80.1168 67.7175 80.084 67.5478 79.9636 67.4602C71.4626 61.4718 67.5543 56.8026 61.6316 49.7358C60.6353 48.548 59.5898 47.2945 58.4512 45.9589C58.3527 45.8439 58.183 45.8275 58.0626 45.926C57.9476 46.0246 57.9312 46.1942 58.0297 46.3092C59.1628 47.6448 60.2138 48.8983 61.2046 50.0862C67.1547 57.1858 71.0795 61.8824 79.6406 67.9091C79.6899 67.9419 79.7446 67.9584 79.7994 67.9584H79.8048Z" fill="#083A6F"/>
<path d="M48.0411 88.2891L47.4463 87.0218C48.1071 84.9956 49.1962 83.3268 50.1299 82.072C51.3153 82.0348 53.0273 83.8964 52.2672 87.4513C51.0723 88.7128 49.4124 88.8057 48.0411 88.2891Z" fill="#6F4BBB"/>
<path d="M49.4942 87.6046L48.0401 87.1358C48.5554 85.6977 49.3219 84.2298 50.0747 83.2696L49.4942 87.6046Z" fill="#9478CF"/>
<path d="M50.8349 83.6217L50.3607 82.3588C51.058 80.4849 52.0971 78.9785 53.0193 77.8333C54.0932 77.8871 55.5593 79.8067 54.7036 83.1616C53.5701 84.2655 52.0604 84.215 50.8349 83.6217Z" fill="#6F4BBB"/>
<path d="M52.1848 83.0781L50.8731 82.5341C51.4079 81.1944 52.1739 79.839 52.9042 78.9819L52.1848 83.0781Z" fill="#9478CF"/>
<path d="M47.5271 92.9441L46.6392 92.3752C46.7588 90.7146 47.3546 89.1123 47.9264 87.8193C49.0495 87.2308 51.1599 87.6623 51.3651 90.3906C50.5522 91.7899 48.9836 92.629 47.5385 92.9488L47.5271 92.9441Z" fill="#6F4BBB"/>
<path d="M48.7868 91.7883L47.2547 92.1707C47.3826 90.9626 47.7429 89.6024 48.2253 88.6077L48.7756 91.7836L48.7868 91.7883Z" fill="#9478CF"/>
</svg>
