<svg width="132" height="128" viewBox="0 0 132 128" fill="none" xmlns="http://www.w3.org/2000/svg">
<rect x="4" width="128" height="128" rx="8" fill="#F1F8FE"/>
<ellipse cx="68" cy="102.5" rx="49" ry="6.5" fill="#D0DFEC"/>
<g filter="url(#filter0_d_1131_94)">
<path d="M89.0454 91.7029H72.6887V105.347H88.7467C91.2861 104.279 93.3773 102.76 94.896 100.981C94.2985 98.0384 92.0827 94.1944 89.0454 91.7029Z" fill="#6F4BBB"/>
<path d="M88.1001 92.8416C90.2661 94.9771 92.4072 97.5635 93.1292 100.506C91.8346 101.977 90.1416 103.116 88.3242 103.946H74.5815V92.8416H88.1001Z" fill="#7D5DC2"/>
<path d="M91.8829 97.4923C92.3061 98.0618 93.1028 100.363 93.1526 100.506C91.858 101.977 90.1651 103.116 88.3476 103.946H81.0282V97.9906C84.6381 97.9669 88.2481 97.8008 91.8829 97.4923Z" fill="#9478CF"/>
<path d="M89.1197 102.452C87.4268 102.997 86.6301 104.018 86.3811 105.346H92.2815C91.8832 104.207 90.7628 102.807 89.1197 102.452Z" fill="#5F3EA7"/>
<path d="M89.1461 103.069C90.0672 103.306 90.839 103.993 91.3369 104.774H89.1212V103.069H89.1461Z" fill="#6F4BBB"/>
<path d="M83.294 102.119C81.0285 102.713 79.933 104.16 79.6592 105.346H87.5264C87.0035 104.089 85.4102 102.404 83.294 102.119Z" fill="#5F3EA7"/>
<path d="M83.3441 102.713C84.5889 102.926 85.8088 103.756 86.5308 104.776H83.2943V102.713H83.3441Z" fill="#6F4BBB"/>
<path d="M53.0703 91.7029H69.427V105.347H53.369C50.8296 104.279 48.7383 102.76 47.2197 100.981C47.7923 98.0384 50.008 94.1944 53.0703 91.7029Z" fill="#6F4BBB"/>
<path d="M53.9914 92.8416C51.8255 94.9771 49.6844 97.5635 48.9624 100.506C50.257 101.977 51.95 103.116 53.7674 103.946H67.51V92.8416H53.9914Z" fill="#7D5DC2"/>
<path d="M50.2327 97.4923C49.8095 98.0618 49.0128 100.363 48.963 100.506C50.2576 101.977 51.9505 103.116 53.7679 103.946H61.0874V97.9906C57.4775 97.9669 53.8426 97.8008 50.2327 97.4923Z" fill="#9478CF"/>
<path d="M52.9721 102.452C54.6651 102.997 55.4617 104.018 55.7107 105.346H49.8103C50.2087 104.207 51.329 102.807 52.9721 102.452Z" fill="#5F3EA7"/>
<path d="M52.9446 103.069C52.0234 103.306 51.2516 103.993 50.7537 104.774H52.9695V103.069H52.9446Z" fill="#6F4BBB"/>
<path d="M58.7966 102.119C61.0621 102.713 62.1575 104.16 62.4314 105.346H54.5642C55.087 104.089 56.6804 102.404 58.7966 102.119Z" fill="#5F3EA7"/>
<path d="M58.772 102.713C57.5272 102.926 56.3073 103.756 55.5853 104.776H58.8218V102.713H58.772Z" fill="#6F4BBB"/>
<path d="M114.788 95.903C114.688 98.3945 114.091 100.34 112.945 101.55C111.153 101.408 109.634 99.5097 108.937 97.8725C109.983 96.1403 112.024 95.3572 114.788 95.903Z" fill="#5F3EA7"/>
<path d="M113.866 96.5909C113.816 98.0383 113.418 99.5332 112.596 100.625L111.899 96.6858C112.522 96.5434 113.194 96.5434 113.866 96.5909Z" fill="#6F4BBB"/>
<path d="M110.256 97.2313C110.082 99.4618 109.783 101.431 108.314 103.424C105.675 102.879 103.609 101.479 102.738 99.2482C104.032 96.4246 107.119 96.0449 110.256 97.2313Z" fill="#5F3EA7"/>
<path d="M107.941 102.476L106.173 97.5163C107.169 97.3265 108.29 97.4688 109.36 97.801C109.186 99.4858 108.887 100.981 107.941 102.476Z" fill="#6F4BBB"/>
<path d="M101.594 99.0589C101.146 101.598 98.6311 102.855 97.3614 102.784C96.7888 101.859 96.2162 100.649 96.2162 99.2012L97.3116 98.3233C98.9797 98.0148 100.747 98.1335 101.594 99.0589Z" fill="#5F3EA7"/>
<path d="M97.8086 101.93C97.3107 101.218 96.987 100.126 96.9372 99.0822L98.7297 98.7975L97.8086 101.93Z" fill="#6F4BBB"/>
<path d="M96.1902 65.0323V99.1774C102.389 99.913 109.609 99.6757 114.788 95.8792C114.688 92.6996 114.364 89.5912 113.767 86.6251C112.647 81.2625 110.53 76.3745 106.871 72.3644C103.634 68.8289 100.398 67.1442 96.1902 65.0323Z" fill="#6F4BBB"/>
<path d="M113.044 95.0958C109.807 97.4686 102.04 98.2042 97.9569 97.7059V67.7844C108.488 73.1233 112.671 82.9706 113.044 95.0958Z" fill="#9478CF"/>
<path d="M113.044 95.096C111.401 96.3061 108.612 97.0654 105.7 97.4925C105.276 89.8757 105.326 78.4149 107.119 75.3777C111.027 80.6691 112.795 87.4317 113.044 95.096Z" fill="#A58DD4"/>
<path d="M105.702 90.0178C104.332 90.0178 103.237 91.0619 103.237 92.3669C103.237 93.672 104.332 94.716 105.702 94.716C107.071 94.716 108.166 93.672 108.166 92.3669C108.166 91.0619 107.071 90.0178 105.702 90.0178Z" fill="#9478CF"/>
<path d="M99.8252 38.4097C100.547 33.9725 99.7505 31.6709 98.8044 27.6134C95.8418 29.9624 93.9497 31.6472 90.3398 33.3793C89.6178 29.0845 88.0245 25.027 85.7091 21.2305L84.3399 19C79.0619 22.7965 74.5557 25.8337 71.0703 30.8641C67.5849 25.8337 63.0787 22.7965 57.8007 19L56.4315 21.2305C54.1161 25.027 52.5228 29.0845 51.8008 33.3793C48.1909 31.6472 46.2988 29.9624 43.3362 27.6134C42.3652 31.6472 41.5934 33.9488 42.3154 38.4097L35.7927 40.1181C37.0873 56.3482 38.4068 70.1818 40.0748 86.4119C40.2989 88.6424 40.5478 90.8966 40.7968 93.127C40.8715 93.7677 41.693 94.9304 45.1785 94.9541C62.2073 96.0456 80.0329 96.0456 97.0368 94.9541C100.522 94.9066 101.344 93.7677 101.419 93.127C101.667 90.8491 101.916 88.5712 102.14 86.2933C102.24 85.3679 102.34 84.4425 102.439 83.4933C103.858 69.0191 105.252 54.5924 106.423 40.0944L99.8999 38.386H99.8252V38.4097Z" fill="#6F4BBB"/>
<path d="M83.6175 22.3927C86.4307 26.9485 87.9992 31.7654 88.2979 36.7483C91.1858 35.7043 94.4721 33.9958 97.3103 31.7891C97.8829 34.2094 97.7584 37.3652 96.9866 40.1177C99.3766 40.6397 101.592 41.1855 103.808 41.8024C102.613 56.7038 101.493 71.6051 99.9492 86.459C99.7999 87.9302 99.4762 91.1098 99.3019 92.5809C98.6795 92.9131 97.3849 92.9131 96.8621 92.9368C79.7337 94.0283 62.4061 94.0283 45.2777 92.9368C44.73 92.8894 43.4603 92.8894 42.8379 92.5809C42.6636 91.1335 42.34 87.8827 42.1906 86.459C40.6719 71.5814 39.5267 56.68 38.3317 41.8024C40.5475 41.1855 42.7632 40.6397 45.1532 40.1177C44.3814 37.3652 44.257 34.2094 44.8296 31.7891C47.6428 34.0195 50.954 35.7043 53.8419 36.7483C54.1406 31.7891 55.7091 26.9485 58.5223 22.3927C64.2484 26.5214 68.0077 29.5112 71.0699 35.4907C74.157 29.5112 77.8914 26.5214 83.6424 22.3927H83.6175V22.3927Z" fill="#9478CF"/>
<path d="M83.6175 22.3927C83.1942 29.0129 81.4515 36.3686 78.1652 39.4533C82.5469 39.0025 84.8872 38.5042 88.273 36.7483C91.1858 35.7042 94.4721 33.9958 97.3102 31.7891C95.7916 36.1551 94.3227 39.2635 91.3103 42.3007C93.8746 42.2532 95.3435 41.4465 96.9866 40.1177C99.3766 40.6397 101.592 41.1855 103.808 41.8024C102.613 56.7037 101.493 71.6051 99.9492 86.459C99.7999 87.9301 99.4762 91.1097 99.3019 92.5808C98.6795 92.913 97.3849 92.913 96.8621 92.9368C88.2979 93.4825 79.6839 93.7435 71.0699 93.7435V84.8692C84.3643 85.8657 96.5136 65.8866 82.5469 52.7648L85.3353 54.236C85.6838 52.1242 84.9867 49.4904 84.0656 47.3548C82.2482 43.2024 77.4184 40.1177 71.0699 39.3821V35.467C74.157 29.4874 77.8665 26.4977 83.6175 22.3927Z" fill="#A58DD4"/>
<path d="M50.8304 42.3007C47.8429 39.2635 46.3491 36.1313 44.8305 31.7653C44.2579 34.1856 44.3823 37.3415 45.1541 40.094C46.7973 41.4465 48.2661 42.2533 50.8304 42.3007ZM55.8843 41.0668C54.3906 41.0668 53.1956 42.2295 53.1956 43.6295C53.1956 45.0532 54.4155 46.1922 55.8843 46.1922C57.3781 46.1922 58.5731 45.0295 58.5731 43.6295C58.5731 42.2295 57.3532 41.0668 55.8843 41.0668ZM46.0504 46.8566C45.0296 46.8566 44.1832 47.6633 44.1832 48.6362C44.1832 49.609 45.0296 50.4158 46.0504 50.4158C47.0711 50.4158 47.9176 49.609 47.9176 48.6362C47.9176 47.6396 47.096 46.8566 46.0504 46.8566ZM63.9507 39.4296C60.6644 36.3686 58.9217 29.0128 58.4984 22.3689C55.6852 26.9247 54.1167 31.7416 53.818 36.7245C57.2287 38.4804 59.569 38.9787 63.9507 39.4296Z" fill="#7D5DC2"/>
<path d="M95.4684 44.7921C93.0286 44.7921 91.0369 46.6904 91.0369 49.0158C91.0369 51.3411 93.0286 53.2394 95.4684 53.2394C97.9083 53.2394 99.9 51.3411 99.9 49.0158C99.9 46.6904 97.9083 44.7921 95.4684 44.7921ZM98.3315 57.7478C97.3606 57.7478 96.5639 58.5071 96.5639 59.4325C96.5639 60.3579 97.3606 61.1172 98.3315 61.1172C99.3024 61.1172 100.099 60.3579 100.099 59.4325C100.099 58.5071 99.3024 57.7478 98.3315 57.7478Z" fill="#9478CF"/>
<path d="M70.7704 47.0939C60.2394 47.0939 51.7 55.2327 51.7 65.2698C51.7 75.3069 60.2394 83.4457 70.7704 83.4457C81.3015 83.4457 89.8408 75.3069 89.8408 65.2698C89.8408 55.2327 81.3015 47.0939 70.7704 47.0939Z" fill="#D3E8EF"/>
<path d="M89.344 61.1409C87.676 54.3072 81.9499 48.9446 74.73 47.4971C66.8628 46.9277 60.4894 52.1716 60.4894 59.3139C60.4894 66.5035 66.9624 72.8865 74.9043 73.5509C82.871 74.2153 89.3191 68.9476 89.3191 61.7341C89.344 61.5443 89.344 61.3308 89.344 61.1409Z" fill="white"/>
<path d="M64.896 58.2935C58.9458 58.2935 54.1409 62.873 54.1409 68.5441C54.1409 74.2152 58.9458 78.7947 64.896 78.7947C70.8462 78.7947 75.6511 74.2152 75.6511 68.5441C75.6511 62.8968 70.8462 58.2935 64.896 58.2935Z" fill="#EA4E64"/>
<path d="M64.8962 58.2935C63.3278 58.2935 61.834 58.6019 60.4896 59.1951V59.3138C60.4896 66.3136 66.6141 72.5542 74.3319 73.5033C75.1783 72.0322 75.6763 70.3475 75.6763 68.5441C75.6763 62.873 70.8713 58.2935 64.8962 58.2935Z" fill="#EC6277"/>
<path d="M64.8951 61.8999C61.0362 61.8999 57.8992 64.8659 57.8992 68.5676C57.8992 72.2454 61.0113 75.2352 64.8951 75.2352C68.754 75.2352 71.8909 72.2692 71.8909 68.5676C71.8909 64.8897 68.7789 61.8999 64.8951 61.8999Z" fill="#232323"/>
<path d="M64.8969 61.8999C63.4778 61.8999 62.1583 62.3033 61.0629 62.9914C62.4073 67.2388 65.9425 70.8455 70.4736 72.5539C71.345 71.4387 71.8678 70.0387 71.8678 68.5676C71.8927 64.8897 68.7807 61.8999 64.8969 61.8999Z" fill="#323232"/>
<path d="M72.5148 60.8796C70.075 60.8796 68.1082 62.7542 68.1082 65.0796C68.1082 67.4049 70.075 69.2795 72.5148 69.2795C74.9546 69.2795 76.9214 67.4049 76.9214 65.0796C76.9214 62.7542 74.9546 60.8796 72.5148 60.8796Z" fill="white"/>
<path d="M93.2031 73.598C87.7758 70.7506 79.6098 75.7336 80.2073 83.8012C85.3857 82.2826 90.9874 77.6318 93.2031 73.598Z" fill="#6F4BBB"/>
<path d="M93.2031 73.5984C88.2737 73.6933 82.8215 76.3509 80.2074 83.8016C86.4065 83.1372 92.1824 78.6288 93.2031 73.5984Z" fill="#A58DD4"/>
<path d="M90.6394 80.3371C89.9174 80.0998 86.5315 80.171 86.2577 80.527C85.934 80.9541 86.8303 83.1371 87.7764 84.5608C89.0212 83.6116 90.0419 82.3066 90.6394 80.3371Z" fill="#7D5DC2"/>
<path d="M91.6348 79.5538C90.9128 79.3165 87.5269 79.3877 87.253 79.7436C86.9294 80.1707 87.8257 82.3537 88.7717 83.7774C90.0165 82.8283 91.0373 81.5233 91.6348 79.5538Z" fill="white"/>
<path d="M90.6133 78.4387C90.3893 83.0183 84.1154 87.4318 78.1653 85.7945C77.8416 87.1233 78.7877 87.9063 79.7586 88.0961C85.1611 88.547 90.3644 85.2962 92.0822 81.1437C92.5801 80.0048 92.0324 78.5811 90.6133 78.4387Z" fill="#6F4BBB"/>
<path d="M91.6345 87.0283C90.1407 89.7096 87.8005 90.9672 85.2362 91.3706C88.8959 92.9367 92.1324 90.8486 91.6345 87.0283Z" fill="#6F4BBB"/>
<path d="M89.1707 87.6687C86.2329 89.2348 83.4446 89.7331 80.2081 89.4483C82.5732 90.9432 87.2039 91.1093 89.1707 87.6687Z" fill="#9478CF"/>
<path d="M64.1735 41.9449C70.0738 32.2162 85.609 37.8873 84.0405 48.8024C80.1567 42.6805 72.663 40.6873 64.1735 41.9449Z" fill="#5F3EA7"/>
<path d="M64.1738 41.9446C67.5099 36.4633 74.5306 36.1074 79.236 39.1209C79.2609 40.4022 78.8625 41.3276 78.1405 42.0632C74.3314 40.3073 69.3522 39.5954 64.1738 41.9446Z" fill="#6F4BBB"/>
<path d="M33.278 78.9369C27.0788 78.9369 22 83.6826 22 89.6147C22 95.5467 27.0788 100.292 33.278 100.292C39.4771 100.292 44.5559 95.5467 44.5559 89.6147C44.5559 83.6826 39.4771 78.9369 33.278 78.9369Z" fill="#6F4BBB"/>
<path d="M33.279 80.5032C27.9513 80.5032 23.6442 84.5845 23.6442 89.5911C23.6442 94.6216 27.9513 98.6791 33.279 98.6791C38.6068 98.6791 42.9138 94.5978 42.9138 89.5911C42.9138 84.5845 38.5819 80.5032 33.279 80.5032Z" fill="#9478CF"/>
<path d="M33.2782 80.5032C29.4939 80.5032 26.2325 82.5675 24.6392 85.5573C24.2906 90.303 30.3653 93.791 34.4234 92.1538C37.4109 90.6114 39.4773 87.5979 39.4773 84.1573C39.4773 83.5879 39.4275 83.0421 39.303 82.4964C37.635 81.2625 35.5437 80.5032 33.2782 80.5032Z" fill="#A58DD4"/>
<path d="M37.2115 88.1911C37.6597 86.8861 32.5311 85.2488 32.0581 86.5539L26.9792 101.052C26.5311 102.357 31.6597 103.994 32.1327 102.689L37.2115 88.1911Z" fill="#2B3039"/>
<path d="M29.8426 86.72C31.8591 87.9064 33.5272 89.0691 34.7222 91.2284C33.0043 93.2216 30.7388 94.3131 28.2492 94.0283C26.2326 91.608 27.2783 88.8318 29.8426 86.72Z" fill="#5F3EA7"/>
<path d="M28.2743 90.0415C28.5731 89.211 29.1208 88.428 29.8179 87.6687C31.3614 88.6178 32.6311 89.6382 33.6021 91.1093C32.5315 91.2042 30.8635 90.9432 28.2743 90.0415Z" fill="#6F4BBB"/>
<path d="M27.9002 92.5331C29.9168 93.7195 31.5848 94.8822 32.7798 97.0415C31.062 99.0347 28.7964 100.126 26.3068 99.8414C24.2903 97.4211 25.3359 94.6449 27.9002 92.5331Z" fill="#5F3EA7"/>
<path d="M26.3319 95.618C26.6306 94.7875 27.1784 94.0044 27.8754 93.2451C29.419 94.1943 30.6887 95.2146 31.6597 96.6857C30.5891 96.8044 28.9211 96.5196 26.3319 95.618Z" fill="#6F4BBB"/>
<path d="M38.4078 93.103C36.4908 92.6522 34.7978 92.3674 32.7315 92.9369C32.4825 95.0725 33.1049 97.0182 34.7231 98.252C37.4119 98.0385 38.5572 95.808 38.4078 93.103Z" fill="#5F3EA7"/>
<path d="M37.2355 95.6877C37.584 95.0237 37.7583 94.2648 37.833 93.4348C36.3392 93.1027 34.9699 92.9605 33.4512 93.2688C33.999 93.9565 35.1442 94.7391 37.2355 95.6877Z" fill="#6F4BBB"/>
<path d="M42.2413 53.8325C52.4238 54.3782 60.2163 62.7069 59.6437 72.4118C59.0711 82.1167 50.3326 89.5436 40.1501 88.9979C29.9676 88.4521 22.1751 80.1235 22.7477 70.4186C23.3203 60.7137 32.0339 53.2867 42.2413 53.8325Z" fill="#393F4C"/>
<path d="M42.0916 56.0156C51.0044 56.4902 57.8508 63.7985 57.3529 72.317C56.855 80.8118 49.187 87.3371 40.2493 86.8388C31.3365 86.3642 24.49 79.0559 24.9879 70.5374C25.5108 62.0426 33.1539 55.5173 42.0916 56.0156Z" fill="#D3E8EF"/>
<path d="M28.8726 79.0555C27.2295 76.6352 26.3332 73.7167 26.5075 70.6082C26.8809 64.4626 31.3373 59.4559 37.2377 57.9136C37.7107 63.2287 38.2086 68.449 38.7314 73.8116C36.7647 74.5709 31.6859 76.9912 28.8726 79.0555Z" fill="white"/>
<path d="M42.3405 57.7241C50.1081 58.1512 56.0582 64.4866 55.5852 71.8899C55.5105 72.9339 55.3363 73.9542 55.0375 74.9034C55.0624 74.6898 55.0873 74.4763 55.0873 74.239C55.5852 65.6493 48.7139 58.2935 39.7015 57.7952H39.6268C40.4982 57.7241 41.4193 57.6766 42.3405 57.7241Z" fill="white"/>
<path d="M55.0364 79.4115C54.7376 79.8861 54.414 80.337 54.0654 80.7641L49.2854 74.4523L38.2813 78.8183L31.9079 66.266L25.5096 67.4287C25.6839 66.8592 25.8582 66.2898 26.0822 65.744L32.8042 64.5101L39.0531 76.8252L49.8082 72.5541L55.0364 79.4115Z" fill="#999999"/>
<path d="M49.7593 70.3234C47.917 70.2285 46.3485 71.5573 46.2489 73.3132C46.1493 75.0691 47.5435 76.564 49.3858 76.6589C51.2282 76.7538 52.7966 75.425 52.8962 73.6691C53.0207 71.9369 51.6016 70.442 49.7593 70.3234Z" fill="#1EC185"/>
<path d="M32.5559 62.232C30.7136 62.137 29.1451 63.4658 29.0455 65.2217C28.9459 66.9776 30.3401 68.4725 32.1825 68.5674C34.0248 68.6623 35.5933 67.3335 35.6928 65.5776C35.8173 63.8218 34.3982 62.3269 32.5559 62.232Z" fill="#EA4E64"/>
<path d="M38.8794 74.6659C37.0371 74.571 35.4687 75.8998 35.3691 77.6557C35.2695 79.4116 36.6637 80.9064 38.506 81.0014C40.3483 81.0963 41.9167 79.7675 42.0163 78.0116C42.1408 76.2557 40.7217 74.7608 38.8794 74.6659Z" fill="#FF893A"/>
</g>
<defs>
<filter id="filter0_d_1131_94" x="0.338883" y="4.4712" width="122.902" height="116.461" filterUnits="userSpaceOnUse" color-interpolation-filters="sRGB">
<feFlood flood-opacity="0" result="BackgroundImageFix"/>
<feColorMatrix in="SourceAlpha" type="matrix" values="0 0 0 0 0 0 0 0 0 0 0 0 0 0 0 0 0 0 127 0" result="hardAlpha"/>
<feOffset dx="-6.604" dy="0.52832"/>
<feGaussianBlur stdDeviation="7.52856"/>
<feComposite in2="hardAlpha" operator="out"/>
<feColorMatrix type="matrix" values="0 0 0 0 0.312478 0 0 0 0 0.543573 0 0 0 0 0.921395 0 0 0 0.2 0"/>
<feBlend mode="normal" in2="BackgroundImageFix" result="effect1_dropShadow_1131_94"/>
<feBlend mode="normal" in="SourceGraphic" in2="effect1_dropShadow_1131_94" result="shape"/>
</filter>
</defs>
</svg>
