<svg width="27" height="27" viewBox="0 0 27 27" fill="none" xmlns="http://www.w3.org/2000/svg">
<rect x="1.125" y="1.125" width="24.75" height="24.75" rx="12.375" fill="white"/>
<rect x="1.125" y="1.125" width="24.75" height="24.75" rx="12.375" stroke="white" stroke-width="0.75"/>
<path d="M13.5 1.5C6.87192 1.5 1.5 6.87192 1.5 13.5C1.5 20.1259 6.87192 25.5 13.5 25.5C20.1281 25.5 25.5 20.1281 25.5 13.5C25.4978 6.87192 20.1259 1.5 13.5 1.5ZM10.5005 18.4985H8.50152V8.49936H10.5005V18.4985ZM18.4985 18.4985H12.4994V16.4995H18.4985V18.4985ZM18.4985 14.4984H12.4994V12.4994H18.4985V14.4984ZM18.4985 10.4983H12.4994V8.49936H18.4985V10.4983Z" fill="#92003B"/>
</svg>
