<svg width="51" height="50" viewBox="0 0 51 50" fill="none" xmlns="http://www.w3.org/2000/svg">
<rect x="0.300781" width="50" height="50" rx="25" fill="#1717CC"/>
<path d="M25.7876 21.2708C25.8827 21.2262 25.9304 21.1647 25.9304 21.0856V14.2969H27.1515V21.1089C27.151 21.4904 26.9189 21.7922 26.4551 22.0144L26.2366 22.1185L26.4551 22.2226C26.9194 22.4456 27.1515 22.747 27.1515 23.1269V25.426H25.9271V23.1564C25.9271 23.0723 25.8794 23.0076 25.7843 22.9629L25.0146 22.6661L24.245 22.9625C24.1499 23.0072 24.1022 23.0719 24.1022 23.156V25.4256H22.8802V23.1256C22.8802 22.7455 23.1122 22.4441 23.5762 22.2214L23.7947 22.1173L23.5762 22.0132C23.1122 21.7907 22.8802 21.4889 22.8802 21.1077V14.2969L24.0989 14.3014V21.0905C24.0989 21.17 24.1462 21.2327 24.2417 21.2762L25.0146 21.5693L25.7876 21.2708Z" fill="white"/>
<path d="M13.6292 14.3281L15.45 18.2512V14.3281H16.6699V25.4568H15.45L15.4475 20.2446L13.6292 16.3227V25.4568H12.4093V14.3281H13.6292Z" fill="white"/>
<path d="M28.4912 15.2783L29.9605 15.2774V25.4568H31.1767L31.1817 15.2774H32.6485V14.3281H28.4925L28.4912 15.2783Z" fill="white"/>
<path fill-rule="evenodd" clip-rule="evenodd" d="M43.0095 22.3231C43.0095 22.7877 42.7517 23.1067 42.2361 23.2802C42.7527 23.4577 43.014 23.7799 43.0169 24.2455V25.4506H41.7958L41.8015 24.2164C41.8014 24.175 41.7964 24.1337 41.7867 24.0935C41.7843 24.0819 41.7812 24.0706 41.7772 24.0594C41.7721 24.0425 41.7658 24.0259 41.7583 24.0099L41.7534 24.0008C41.7123 23.9224 41.6459 23.86 41.5649 23.8238L41.5525 23.818C41.5373 23.8111 41.5225 23.8045 41.506 23.7988C41.4557 23.7791 41.403 23.7662 41.3492 23.7606L41.3436 23.7597L41.3381 23.7584C41.3324 23.7571 41.3268 23.7557 41.3208 23.7557H40.0775V25.4502H38.8567V14.3203H41.7929C42.1547 14.3203 42.3506 14.424 42.6136 14.629C42.8766 14.8339 43.0095 15.0799 43.0095 15.3668V22.3231ZM41.7506 22.564C41.7773 22.515 41.7918 22.4604 41.7929 22.4047L41.7945 15.5C41.7947 15.4684 41.7869 15.4374 41.7718 15.4096C41.7568 15.3818 41.735 15.3582 41.7085 15.341C41.6509 15.2984 41.5807 15.2761 41.5089 15.2774H40.0758V22.8052H41.2694C41.4029 22.8091 41.5337 22.7671 41.6398 22.6863C41.686 22.6549 41.724 22.613 41.7506 22.564Z" fill="white"/>
<path d="M18.0119 25.4558H21.5387V24.5045H19.2351V22.598H20.8674V21.6475H19.2351V15.2773H21.5387V14.3268H18.0119V25.4558Z" fill="white"/>
<path d="M36.2949 15.2795L33.9901 15.2783V14.3281H37.5181V25.4568H33.9901V24.5067H36.2937V18.7165H34.6626V17.7651H36.2949V15.2795Z" fill="white"/>
<path d="M9.22024 24.1211L9.21448 25.3877H7.38916V23.628H8.70948C8.71632 23.628 8.72215 23.6296 8.72783 23.6312C8.7317 23.6322 8.73552 23.6333 8.73953 23.6338C8.79601 23.64 8.85138 23.6538 8.90415 23.6748C8.92096 23.6803 8.93737 23.6875 8.95302 23.6943L8.95436 23.6949C8.95642 23.6963 8.95858 23.6974 8.96074 23.6985C8.9629 23.6997 8.96506 23.7008 8.96712 23.7022C9.05341 23.7404 9.12389 23.807 9.16674 23.8908C9.16884 23.8941 9.17007 23.8963 9.17122 23.8983L9.1725 23.9006C9.18067 23.9177 9.18742 23.9353 9.19267 23.9535C9.19706 23.9656 9.20036 23.9781 9.20254 23.9908C9.21375 24.0334 9.21969 24.0771 9.22024 24.1211Z" fill="white"/>
<path d="M9.21448 22.1785V14.7717C9.21471 14.738 9.20661 14.7048 9.19089 14.675C9.17516 14.6452 9.15231 14.6197 9.12434 14.6007C9.06323 14.5549 8.98846 14.5308 8.91197 14.5323H7.38916V22.6072H8.65762C8.80003 22.612 8.93963 22.567 9.05232 22.4802C9.16139 22.3941 9.21448 22.2941 9.21448 22.1785Z" fill="white"/>
<path d="M10.5731 33.1377V32.7525H11.3235C11.4696 32.7525 11.598 32.7282 11.7087 32.6795C11.8193 32.6308 11.9057 32.5621 11.9676 32.4736C12.0296 32.3806 12.0606 32.27 12.0606 32.1416C12.0606 31.9468 11.992 31.7963 11.8548 31.69C11.7175 31.5838 11.5404 31.5306 11.3235 31.5306H10.759V34.8908H11.4098C11.5869 34.8908 11.7441 34.862 11.8813 34.8045C12.0186 34.7469 12.127 34.6606 12.2067 34.5455C12.2864 34.4304 12.3262 34.2865 12.3262 34.1138C12.3262 33.9899 12.3019 33.8814 12.2532 33.7885C12.2089 33.6911 12.1447 33.6114 12.0606 33.5494C11.9809 33.483 11.8857 33.4365 11.7751 33.4099C11.6644 33.3789 11.5426 33.3635 11.4098 33.3635H10.5731V32.9318H11.4563C11.6821 32.9318 11.8946 32.9562 12.0938 33.0049C12.293 33.0536 12.4701 33.1288 12.6251 33.2306C12.7844 33.3325 12.9084 33.4631 12.9969 33.6224C13.0855 33.7818 13.1298 33.9722 13.1298 34.1935C13.1298 34.499 13.0567 34.7513 12.9106 34.9506C12.7689 35.1498 12.5719 35.2981 12.3196 35.3955C12.0717 35.4885 11.7839 35.5349 11.4563 35.5349H9.97545V30.8865H11.3766C11.6688 30.8865 11.9256 30.9286 12.1469 31.0127C12.3727 31.0968 12.5476 31.2252 12.6715 31.3978C12.7999 31.5705 12.8641 31.7896 12.8641 32.0552C12.8641 32.2855 12.7999 32.4825 12.6715 32.6463C12.5476 32.8056 12.3727 32.9274 12.1469 33.0115C11.9256 33.0956 11.6688 33.1377 11.3766 33.1377H10.5731Z" fill="white"/>
<path d="M15.2854 30.8865H16.069V34.831H17.915V35.5349H15.2854V30.8865Z" fill="white"/>
<path d="M20.174 33.2107C20.174 33.5295 20.2404 33.815 20.3732 34.0674C20.5105 34.3153 20.6986 34.5101 20.9377 34.6517C21.1767 34.7934 21.449 34.8642 21.7545 34.8642C22.0644 34.8642 22.3366 34.7934 22.5713 34.6517C22.8103 34.5101 22.9963 34.3153 23.1291 34.0674C23.2663 33.815 23.3349 33.5295 23.3349 33.2107C23.3349 32.892 23.2685 32.6086 23.1357 32.3607C23.0029 32.1084 22.817 31.9114 22.5779 31.7697C22.3433 31.628 22.0688 31.5572 21.7545 31.5572C21.449 31.5572 21.1767 31.628 20.9377 31.7697C20.6986 31.9114 20.5105 32.1084 20.3732 32.3607C20.2404 32.6086 20.174 32.892 20.174 33.2107ZM19.3439 33.2107C19.3439 32.861 19.4037 32.54 19.5232 32.2478C19.6428 31.9556 19.811 31.7033 20.0279 31.4908C20.2493 31.2739 20.506 31.1056 20.7982 30.9861C21.0948 30.8666 21.4136 30.8068 21.7545 30.8068C22.1042 30.8068 22.4252 30.8666 22.7174 30.9861C23.0095 31.1056 23.2641 31.2739 23.481 31.4908C23.7024 31.7033 23.8728 31.9556 23.9924 32.2478C24.1119 32.54 24.1717 32.861 24.1717 33.2107C24.1717 33.556 24.1119 33.877 23.9924 34.1736C23.8728 34.4702 23.7046 34.727 23.4877 34.9439C23.2707 35.1608 23.014 35.3313 22.7174 35.4552C22.4252 35.5748 22.1042 35.6345 21.7545 35.6345C21.4092 35.6345 21.0882 35.5748 20.7916 35.4552C20.495 35.3313 20.2382 35.1608 20.0213 34.9439C19.8088 34.727 19.6428 34.4702 19.5232 34.1736C19.4037 33.877 19.3439 33.556 19.3439 33.2107Z" fill="white"/>
<path d="M26.8396 33.2107C26.8396 33.5383 26.9126 33.8261 27.0587 34.074C27.2092 34.3219 27.404 34.5145 27.6431 34.6517C27.8866 34.7845 28.15 34.851 28.4333 34.851C28.6547 34.851 28.8539 34.8222 29.031 34.7646C29.2081 34.7071 29.3674 34.6296 29.5091 34.5322C29.6552 34.4304 29.7814 34.3175 29.8876 34.1935V35.1232C29.6928 35.2826 29.4826 35.4043 29.2568 35.4885C29.031 35.5726 28.7477 35.6146 28.4068 35.6146C28.0659 35.6146 27.7471 35.5571 27.4505 35.442C27.1583 35.3269 26.9038 35.1608 26.6868 34.9439C26.4699 34.727 26.2995 34.4724 26.1755 34.1803C26.056 33.8836 25.9962 33.5605 25.9962 33.2107C25.9962 32.861 26.056 32.54 26.1755 32.2478C26.2995 31.9512 26.4699 31.6944 26.6868 31.4775C26.9038 31.2606 27.1583 31.0946 27.4505 30.9795C27.7471 30.8644 28.0659 30.8068 28.4068 30.8068C28.7477 30.8068 29.031 30.8489 29.2568 30.933C29.4826 31.0171 29.6928 31.1388 29.8876 31.2982V32.2279C29.7814 32.1039 29.6552 31.9933 29.5091 31.8959C29.3674 31.7941 29.2081 31.7144 29.031 31.6568C28.8539 31.5993 28.6547 31.5705 28.4333 31.5705C28.15 31.5705 27.8866 31.6391 27.6431 31.7763C27.404 31.9092 27.2092 32.0995 27.0587 32.3474C26.9126 32.5909 26.8396 32.8787 26.8396 33.2107Z" fill="white"/>
<path d="M32.1813 30.8865H32.9849V35.5349H32.1813V30.8865ZM34.7114 30.8865H35.6544L33.6954 33.0646L35.754 35.5349H34.7911L32.7458 33.0845L34.7114 30.8865Z" fill="white"/>
<path d="M37.9264 34.0408C38.0282 34.2179 38.1367 34.375 38.2518 34.5123C38.3713 34.6451 38.5019 34.7491 38.6436 34.8244C38.7853 34.8952 38.9446 34.9306 39.1217 34.9306C39.3342 34.9306 39.5069 34.8731 39.6397 34.758C39.7725 34.6429 39.8389 34.4946 39.8389 34.3131C39.8389 34.1404 39.7969 34.0032 39.7127 33.9013C39.6286 33.7951 39.5113 33.7066 39.3608 33.6357C39.2147 33.5605 39.0443 33.4874 38.8495 33.4166C38.7344 33.3767 38.606 33.3236 38.4643 33.2572C38.3226 33.1864 38.1876 33.1 38.0592 32.9982C37.9308 32.892 37.8246 32.7636 37.7405 32.6131C37.6564 32.4581 37.6143 32.2722 37.6143 32.0552C37.6143 31.8073 37.6785 31.5904 37.8069 31.4045C37.9353 31.2141 38.1079 31.068 38.3249 30.9662C38.5462 30.8599 38.7963 30.8068 39.0752 30.8068C39.3497 30.8068 39.5888 30.8555 39.7924 30.9529C39.9961 31.0503 40.1665 31.1743 40.3038 31.3248C40.4454 31.4753 40.5561 31.6325 40.6358 31.7963L39.9983 32.1549C39.9407 32.0398 39.8677 31.9335 39.7792 31.8361C39.6906 31.7343 39.5866 31.6546 39.467 31.597C39.3519 31.5351 39.2169 31.5041 39.062 31.5041C38.845 31.5041 38.6857 31.555 38.5838 31.6568C38.482 31.7542 38.4311 31.8693 38.4311 32.0021C38.4311 32.1217 38.4665 32.2301 38.5374 32.3275C38.6126 32.4205 38.7277 32.509 38.8827 32.5931C39.0376 32.6773 39.239 32.7636 39.487 32.8521C39.6242 32.9008 39.7614 32.9628 39.8987 33.0381C40.0403 33.1133 40.1687 33.2085 40.2838 33.3236C40.3989 33.4343 40.4897 33.5649 40.5561 33.7154C40.6269 33.8659 40.6624 34.043 40.6624 34.2467C40.6624 34.4636 40.6203 34.6584 40.5362 34.831C40.4521 35.0037 40.337 35.1498 40.1909 35.2693C40.0448 35.3844 39.8788 35.473 39.6928 35.5349C39.5113 35.6013 39.3209 35.6345 39.1217 35.6345C38.8472 35.6345 38.5927 35.5814 38.3581 35.4752C38.1278 35.3645 37.9264 35.2184 37.7538 35.0369C37.5811 34.8554 37.4439 34.6584 37.342 34.4459L37.9264 34.0408Z" fill="white"/>
</svg>
