<svg width="51" height="50" viewBox="0 0 51 50" fill="none" xmlns="http://www.w3.org/2000/svg">
<rect x="0.699219" width="50" height="50" rx="25" fill="#1717CC"/>
<path d="M26.1838 21.6683C26.2789 21.6236 26.3266 21.5621 26.3266 21.483V14.6943H27.5478V21.5064C27.5472 21.8879 27.3151 22.1897 26.8514 22.4119L26.6328 22.516L26.8514 22.6201C27.3156 22.8431 27.5478 23.1445 27.5478 23.5243V25.8234H26.3233V23.5538C26.3233 23.4698 26.2756 23.405 26.1805 23.3604L25.4109 23.0636L24.6412 23.36C24.5462 23.4046 24.4984 23.4694 24.4984 23.5534V25.823H23.2765V23.5231C23.2765 23.143 23.5085 22.8416 23.9724 22.6189L24.191 22.5147L23.9724 22.4106C23.5085 22.1882 23.2765 21.8864 23.2765 21.5052V14.6943L24.4951 14.6988V21.488C24.4951 21.5675 24.5425 21.6302 24.638 21.6736L25.4109 21.9667L26.1838 21.6683Z" fill="white"/>
<path d="M14.0254 14.7256L15.8462 18.6487V14.7256H17.0661V25.8543H15.8462L15.8437 20.642L14.0254 16.7201V25.8543H12.8055V14.7256H14.0254Z" fill="white"/>
<path d="M28.8875 15.6757L30.3568 15.6749V25.8543H31.573L31.5779 15.6749H33.0447V14.7256H28.8887L28.8875 15.6757Z" fill="white"/>
<path fill-rule="evenodd" clip-rule="evenodd" d="M43.4057 22.7206C43.4057 23.1851 43.1479 23.5042 42.6324 23.6777C43.1489 23.8552 43.4103 24.1774 43.4131 24.643V25.8481H42.192L42.1978 24.6139C42.1976 24.5725 42.1927 24.5312 42.1829 24.4909C42.1806 24.4794 42.1774 24.468 42.1735 24.4569C42.1684 24.44 42.162 24.4234 42.1545 24.4073L42.1496 24.3983C42.1086 24.3198 42.0422 24.2574 41.9611 24.2212L41.9488 24.2155C41.9335 24.2085 41.9187 24.202 41.9023 24.1962C41.8519 24.1765 41.7992 24.1637 41.7454 24.1581L41.7398 24.1571L41.7343 24.1559C41.7287 24.1545 41.723 24.1532 41.717 24.1532H40.4737V25.8477H39.253V14.7178H42.1891C42.5509 14.7178 42.7468 14.8215 43.0098 15.0264C43.2728 15.2314 43.4057 15.4773 43.4057 15.7642V22.7206ZM42.1469 22.9615C42.1735 22.9125 42.188 22.8579 42.1891 22.8022L42.1908 15.8975C42.1909 15.8659 42.1831 15.8348 42.1681 15.807C42.1531 15.7793 42.1313 15.7557 42.1047 15.7384C42.0471 15.6959 41.9769 15.6735 41.9051 15.6749H40.472V23.2026H41.6656C41.7991 23.2065 41.9299 23.1646 42.036 23.0838C42.0822 23.0524 42.1203 23.0105 42.1469 22.9615Z" fill="white"/>
<path d="M18.4081 25.8533H21.9349V24.9019H19.6313V22.9955H21.2636V22.045H19.6313V15.6748H21.9349V14.7242H18.4081V25.8533Z" fill="white"/>
<path d="M36.6912 15.677L34.3864 15.6757V14.7256H37.9144V25.8543H34.3864V24.9041H36.6899V19.1139H35.0589V18.1626H36.6912V15.677Z" fill="white"/>
<path d="M9.61648 24.5186L9.61071 25.7852H7.7854V24.0255H9.10572C9.11256 24.0255 9.11839 24.0271 9.12406 24.0286C9.12794 24.0297 9.13175 24.0307 9.13576 24.0312C9.19224 24.0375 9.24762 24.0512 9.30039 24.0722C9.31719 24.0778 9.33361 24.0849 9.34926 24.0917L9.3506 24.0923C9.35265 24.0937 9.35481 24.0949 9.35696 24.096C9.35912 24.0971 9.3613 24.0983 9.36336 24.0997C9.44964 24.1379 9.52012 24.2044 9.56297 24.2882C9.56435 24.2904 9.56535 24.2921 9.56621 24.2936C9.56665 24.2944 9.56706 24.2951 9.56746 24.2958L9.56873 24.2981C9.57691 24.3151 9.58365 24.3328 9.5889 24.351C9.59329 24.3631 9.5966 24.3756 9.59878 24.3883C9.60999 24.4308 9.61593 24.4746 9.61648 24.5186Z" fill="white"/>
<path d="M9.61071 22.5759V15.1691C9.61095 15.1354 9.60284 15.1022 9.58712 15.0724C9.5714 15.0426 9.54855 15.0171 9.52058 14.9982C9.45947 14.9524 9.3847 14.9283 9.30821 14.9297H7.7854V23.0047H9.05386C9.19627 23.0094 9.33587 22.9645 9.44856 22.8776C9.55762 22.7915 9.61071 22.6915 9.61071 22.5759Z" fill="white"/>
<path d="M8.0127 34.9324V34.323H10.0811V34.9324H8.0127ZM8.0127 31.4402V30.8308H10.0811V31.4402H8.0127ZM8.0127 33.034V32.4363H9.96387V33.034H8.0127ZM7.58496 30.8308H8.26465V34.9324H7.58496V30.8308Z" fill="white"/>
<path d="M13.6452 30.8308H14.489L13.2468 32.7996L14.5769 34.9324H13.7331L12.8542 33.3562L11.946 34.9324H11.1081L12.4675 32.7996L11.2546 30.8308H12.0925L12.8601 32.2195L13.6452 30.8308Z" fill="white"/>
<path d="M15.4306 31.4695V30.8308H18.2899V31.4695H17.206V34.9324H16.5087V31.4695H15.4306Z" fill="white"/>
<path d="M19.807 34.9324V34.323H21.8753V34.9324H19.807ZM19.807 31.4402V30.8308H21.8753V31.4402H19.807ZM19.807 33.034V32.4363H21.7581V33.034H19.807ZM19.3792 30.8308H20.0589V34.9324H19.3792V30.8308Z" fill="white"/>
<path d="M26.3067 30.8308H26.9864V35.1375L23.9923 32.1785V34.9324H23.3126V30.6258L26.3067 33.5847V30.8308Z" fill="white"/>
<path d="M28.7514 33.614C28.8412 33.7703 28.937 33.909 29.0385 34.0301C29.144 34.1472 29.2592 34.239 29.3842 34.3054C29.5092 34.3679 29.6498 34.3992 29.8061 34.3992C29.9936 34.3992 30.1459 34.3484 30.2631 34.2469C30.3803 34.1453 30.4389 34.0144 30.4389 33.8543C30.4389 33.7019 30.4018 33.5808 30.3276 33.491C30.2534 33.3972 30.1498 33.3191 30.017 33.2566C29.8881 33.1902 29.7377 33.1258 29.5659 33.0633C29.4643 33.0281 29.351 32.9812 29.226 32.9226C29.101 32.8601 28.9819 32.784 28.8686 32.6941C28.7553 32.6004 28.6616 32.4871 28.5873 32.3543C28.5131 32.2176 28.476 32.0535 28.476 31.8621C28.476 31.6433 28.5327 31.4519 28.6459 31.2879C28.7592 31.1199 28.9116 30.991 29.103 30.9011C29.2983 30.8074 29.519 30.7605 29.7651 30.7605C30.0073 30.7605 30.2182 30.8035 30.3979 30.8894C30.5776 30.9754 30.728 31.0847 30.8491 31.2176C30.9741 31.3504 31.0717 31.489 31.142 31.6336L30.5795 31.95C30.5287 31.8484 30.4643 31.7547 30.3862 31.6687C30.308 31.5789 30.2162 31.5086 30.1108 31.4578C30.0092 31.4031 29.8901 31.3758 29.7534 31.3758C29.562 31.3758 29.4213 31.4207 29.3315 31.5105C29.2416 31.5965 29.1967 31.698 29.1967 31.8152C29.1967 31.9207 29.228 32.0164 29.2905 32.1023C29.3569 32.1844 29.4584 32.2625 29.5952 32.3367C29.7319 32.4109 29.9096 32.4871 30.1284 32.5652C30.2495 32.6082 30.3705 32.6629 30.4916 32.7293C30.6166 32.7957 30.7299 32.8797 30.8315 32.9812C30.933 33.0789 31.0131 33.1941 31.0717 33.3269C31.1342 33.4597 31.1655 33.616 31.1655 33.7957C31.1655 33.9871 31.1284 34.159 31.0541 34.3113C30.9799 34.4636 30.8784 34.5926 30.7495 34.698C30.6205 34.7996 30.4741 34.8777 30.31 34.9324C30.1498 34.991 29.9819 35.0203 29.8061 35.0203C29.5639 35.0203 29.3393 34.9734 29.1323 34.8797C28.9291 34.782 28.7514 34.6531 28.5991 34.4929C28.4467 34.3328 28.3256 34.159 28.2358 33.9715L28.7514 33.614Z" fill="white"/>
<path d="M32.461 30.8308H33.1582V34.9324H32.461V30.8308Z" fill="white"/>
<path d="M35.1586 32.8816C35.1586 33.1629 35.2172 33.4148 35.3344 33.6375C35.4555 33.8562 35.6215 34.0281 35.8324 34.1531C36.0434 34.2781 36.2836 34.3406 36.5531 34.3406C36.8266 34.3406 37.0668 34.2781 37.2738 34.1531C37.4848 34.0281 37.6488 33.8562 37.766 33.6375C37.8871 33.4148 37.9476 33.1629 37.9476 32.8816C37.9476 32.6004 37.8891 32.3504 37.7719 32.1316C37.6547 31.909 37.4906 31.7351 37.2797 31.6101C37.0726 31.4851 36.8305 31.4226 36.5531 31.4226C36.2836 31.4226 36.0434 31.4851 35.8324 31.6101C35.6215 31.7351 35.4555 31.909 35.3344 32.1316C35.2172 32.3504 35.1586 32.6004 35.1586 32.8816ZM34.4262 32.8816C34.4262 32.573 34.4789 32.2898 34.5844 32.032C34.6898 31.7742 34.8383 31.5515 35.0297 31.364C35.225 31.1726 35.4516 31.0242 35.7094 30.9187C35.9711 30.8133 36.2523 30.7605 36.5531 30.7605C36.8617 30.7605 37.1449 30.8133 37.4027 30.9187C37.6605 31.0242 37.8851 31.1726 38.0766 31.364C38.2719 31.5515 38.4223 31.7742 38.5277 32.032C38.6332 32.2898 38.6859 32.573 38.6859 32.8816C38.6859 33.1863 38.6332 33.4695 38.5277 33.7312C38.4223 33.9929 38.2738 34.2195 38.0824 34.4109C37.891 34.6023 37.6644 34.7527 37.4027 34.8621C37.1449 34.9676 36.8617 35.0203 36.5531 35.0203C36.2484 35.0203 35.9652 34.9676 35.7035 34.8621C35.4418 34.7527 35.2152 34.6023 35.0238 34.4109C34.8363 34.2195 34.6898 33.9929 34.5844 33.7312C34.4789 33.4695 34.4262 33.1863 34.4262 32.8816Z" fill="white"/>
<path d="M42.9384 30.8308H43.6181V35.1375L40.624 32.1785V34.9324H39.9443V30.6258L42.9384 33.5847V30.8308Z" fill="white"/>
</svg>
