<svg width="26" height="27" viewBox="0 0 26 27" fill="none" xmlns="http://www.w3.org/2000/svg">
<rect x="0.625" y="1.125" width="24.75" height="24.75" rx="12.375" fill="url(#paint0_linear_1138_10482)"/>
<rect x="0.625" y="1.125" width="24.75" height="24.75" rx="12.375" stroke="white" stroke-width="0.75"/>
<path d="M13.1593 12.0227H12.4822V12.9803H11.5194V13.6627H12.4822V14.6202H13.1593V13.6627H14.1169V12.9803H13.1593V12.0227Z" fill="white"/>
<path d="M12.8208 6.29883H10.2551V12.9803H8.18134V13.6627H10.2551V14.6202H10.9322V6.98125H12.8208C13.8576 6.98125 14.6988 7.82239 14.7041 8.85925V10.1712H15.3865V8.85925C15.3812 7.93877 14.8839 7.09235 14.0851 6.6374C13.6989 6.41521 13.2652 6.29883 12.8208 6.29883Z" fill="white"/>
<path d="M13.1593 8.68468H12.4822V10.7531H11.5194V11.4355H19.1584V13.3188C19.1584 14.3557 18.3172 15.2021 17.2856 15.2074H15.9684V15.8898H17.2856C18.2008 15.8845 19.0526 15.3873 19.5075 14.5832C19.7244 14.2023 19.8408 13.7632 19.8408 13.3188V10.7531H13.1593V8.68468Z" fill="white"/>
<path d="M15.3865 12.0227H14.7094V19.6617H12.8208C11.7839 19.6617 10.9375 18.8206 10.9322 17.7837V16.4717H10.2551V17.7837C10.2551 18.7042 10.7576 19.5559 11.5564 20.0055C11.9426 20.2277 12.3764 20.3388 12.8208 20.3388H15.3865V13.6627H17.4602V12.9803H15.3865V12.0227Z" fill="white"/>
<path d="M9.67316 10.7531H8.35591C7.44072 10.7584 6.58901 11.2557 6.13406 12.0598C5.91716 12.4407 5.80078 12.8797 5.80078 13.3241V15.8898H12.4822V17.9583H13.1593V15.8898H14.1169V15.2074H6.48321V13.3241C6.48321 12.2873 7.32434 11.4408 8.35591 11.4355H9.67316V10.7531Z" fill="white"/>
<path d="M11.5194 13.6627V12.9803H15.3865V13.6627H11.5194Z" fill="white"/>
<path d="M10.9322 10.7531V15.8898H10.2551V10.7531H10.9322Z" fill="white"/>
<path d="M15.3865 10.7531H11.5247V11.4355H15.3865V10.7531Z" fill="white"/>
<path d="M15.3812 15.2074V15.8898H11.5194V15.2074H15.3812Z" fill="white"/>
<defs>
<linearGradient id="paint0_linear_1138_10482" x1="13" y1="1.5" x2="13" y2="25.5" gradientUnits="userSpaceOnUse">
<stop stop-color="#6D68FE"/>
<stop offset="1" stop-color="#B446FF"/>
</linearGradient>
</defs>
</svg>
