<svg width="16" height="16" viewBox="0 0 16 16" fill="none" xmlns="http://www.w3.org/2000/svg">
  <path d="M11.333 2.00004C11.5084 1.82456 11.7163 1.68477 11.9451 1.58847C12.1738 1.49217 12.4191 1.44141 12.6667 1.43896C12.9142 1.43651 13.1594 1.48241 13.3888 1.5742C13.6181 1.666 13.8272 1.80202 14.0047 1.97451C14.1822 2.147 14.3246 2.35282 14.4235 2.58053C14.5224 2.80823 14.5758 3.05324 14.5808 3.30124C14.5858 3.54923 14.5423 3.79555 14.4528 4.02601C14.3633 4.25648 14.2294 4.46651 14.0587 4.64404L5.24268 13.46C4.89311 13.8097 4.46088 14.0666 3.98535 14.2067L2.00002 14.8L2.59335 12.8147C2.73346 12.3391 2.99034 11.9069 3.34002 11.5574L12.156 2.74004L11.333 2.00004Z" stroke="currentColor" stroke-width="1.5" stroke-linecap="round" stroke-linejoin="round"/>
</svg>
