<svg width="17" height="17" viewBox="0 0 17 17" fill="none" xmlns="http://www.w3.org/2000/svg">
<path d="M8.48653 4.76441H7.73497C7.66622 4.76441 7.60997 4.82066 7.60997 4.88941V9.19097C7.60997 9.23159 7.62872 9.26909 7.66153 9.29253L10.2443 11.1785C10.3006 11.2191 10.3787 11.2082 10.4193 11.1519L10.8662 10.5425C10.9084 10.4847 10.8959 10.4066 10.8397 10.3675L8.61153 8.75659V4.88941C8.61153 4.82066 8.55528 4.76441 8.48653 4.76441ZM11.9209 5.93941L14.3709 6.53784C14.449 6.55659 14.5256 6.49722 14.5256 6.41753L14.5381 3.89409C14.5381 3.78941 14.4178 3.73003 14.3365 3.79566L11.874 5.71909C11.8554 5.73349 11.8412 5.75285 11.8331 5.77494C11.8251 5.79703 11.8234 5.82096 11.8282 5.84398C11.8331 5.86699 11.8444 5.88816 11.8608 5.90504C11.8772 5.92192 11.898 5.93383 11.9209 5.93941ZM14.5412 10.6441L13.6553 10.3394C13.6244 10.3288 13.5906 10.3307 13.5611 10.3448C13.5316 10.3588 13.5088 10.3838 13.4975 10.4144C13.4678 10.4941 13.4365 10.5722 13.4037 10.6503C13.1256 11.3082 12.7272 11.9003 12.2178 12.4082C11.7141 12.9134 11.1171 13.3162 10.46 13.5941C9.77922 13.8819 9.04748 14.0296 8.3084 14.0285C7.56153 14.0285 6.83809 13.8832 6.15684 13.5941C5.49972 13.3162 4.90275 12.9134 4.39903 12.4082C3.89122 11.9003 3.49278 11.3082 3.21309 10.6503C2.92685 9.96923 2.78021 9.2376 2.78184 8.49878C2.78184 7.75191 2.92715 7.02691 3.21622 6.34566C3.49434 5.68784 3.89278 5.09566 4.40215 4.58784C4.90587 4.08256 5.50284 3.67981 6.15997 3.40191C6.83809 3.11284 7.56309 2.96753 8.30997 2.96753C9.05684 2.96753 9.78028 3.11284 10.4615 3.40191C11.1187 3.67981 11.7156 4.08256 12.2193 4.58784C12.3787 4.74878 12.5287 4.91597 12.6662 5.09253L13.6006 4.36128C12.3709 2.78941 10.4568 1.77847 8.30684 1.78003C4.56309 1.78159 1.55684 4.82222 1.59434 8.56753C1.63184 12.2472 4.62403 15.2175 8.30997 15.2175C11.2084 15.2175 13.6772 13.38 14.6178 10.8066C14.6412 10.741 14.6068 10.6675 14.5412 10.6441Z" fill="#393F4C"/>
</svg>
