<svg width="18" height="18" viewBox="0 0 18 18" fill="none" xmlns="http://www.w3.org/2000/svg">
<path fill-rule="evenodd" clip-rule="evenodd" d="M12.0385 11.8063H12.8285L17.0685 16.0663C17.4785 16.4763 17.4785 17.1463 17.0685 17.5563C16.6585 17.9663 15.9885 17.9663 15.5785 17.5563L11.3285 13.3063V12.5163L11.0585 12.2363C9.65851 13.4363 7.74851 14.0563 5.71851 13.7163C2.93851 13.2463 0.718506 10.9263 0.378506 8.12629C-0.141494 3.89629 3.41851 0.33629 7.64851 0.85629C10.4485 1.19629 12.7685 3.41629 13.2385 6.19629C13.5785 8.22629 12.9585 10.1363 11.7585 11.5363L12.0385 11.8063ZM2.32851 7.30629C2.32851 9.79629 4.33851 11.8063 6.82851 11.8063C9.31851 11.8063 11.3285 9.79629 11.3285 7.30629C11.3285 4.81629 9.31851 2.80629 6.82851 2.80629C4.33851 2.80629 2.32851 4.81629 2.32851 7.30629Z" fill="#ABB7CE"/>
</svg>
