<svg width="16" height="16" viewBox="0 0 16 16" fill="none" xmlns="http://www.w3.org/2000/svg">
  <path d="M2 4H3.33333H14" stroke="currentColor" stroke-width="1.5" stroke-linecap="round" stroke-linejoin="round"/>
  <path d="M5.33334 4V2.66667C5.33334 2.31305 5.47381 1.97391 5.7239 1.7238C5.97399 1.47371 6.31313 1.33334 6.66668 1.33334H9.33334C9.6869 1.33334 10.026 1.47371 10.2761 1.7238C10.5262 1.97391 10.6667 2.31305 10.6667 2.66667V4M12.6667 4V13.3333C12.6667 13.687 12.5262 14.0261 12.2761 14.2762C12.026 14.5263 11.6869 14.6667 11.3333 14.6667H4.66668C4.31313 14.6667 3.97399 14.5263 3.7239 14.2762C3.47381 14.0261 3.33334 13.687 3.33334 13.3333V4H12.6667Z" stroke="currentColor" stroke-width="1.5" stroke-linecap="round" stroke-linejoin="round"/>
</svg>
