<svg width="17" height="17" viewBox="0 0 17 17" fill="none" xmlns="http://www.w3.org/2000/svg">
<path d="M8.57853 8.65511C9.28578 8.65511 9.96405 8.37416 10.4641 7.87406C10.9642 7.37396 11.2452 6.69569 11.2452 5.98844C11.2452 5.2812 10.9642 4.60292 10.4641 4.10283C9.96405 3.60273 9.28578 3.32178 8.57853 3.32178C7.87129 3.32178 7.19301 3.60273 6.69291 4.10283C6.19282 4.60292 5.91187 5.2812 5.91187 5.98844C5.91187 6.69569 6.19282 7.37396 6.69291 7.87406C7.19301 8.37416 7.87129 8.65511 8.57853 8.65511Z" stroke="#393F4C" stroke-linecap="round" stroke-linejoin="round"/>
<path d="M3.91187 13.9884V13.3217C3.9117 12.5343 4.11075 11.7597 4.49049 11.07C4.87022 10.3803 5.4183 9.79785 6.08369 9.37692C6.74908 8.956 7.51015 8.71027 8.29606 8.66261C9.08196 8.61495 9.86715 8.76691 10.5785 9.10435M11.6685 11.5984L12.3612 10.1297C12.3799 10.0877 12.4104 10.052 12.449 10.027C12.4876 10.002 12.5326 9.98869 12.5785 9.98869C12.6245 9.98869 12.6695 10.002 12.7081 10.027C12.7466 10.052 12.7771 10.0877 12.7959 10.1297L13.4892 11.5984L15.0379 11.8357C15.2365 11.8657 15.3152 12.1217 15.1712 12.2684L14.0512 13.4103L14.3152 15.0244C14.3492 15.2317 14.1419 15.3897 13.9639 15.2917L12.5785 14.5297L11.1932 15.2917C11.0152 15.3897 10.8079 15.2317 10.8419 15.025L11.1059 13.4103L9.98587 12.2684C9.84187 12.1217 9.92053 11.8657 10.1192 11.835L11.6685 11.5984Z" stroke="#393F4C" stroke-linecap="round" stroke-linejoin="round"/>
</svg>
