<svg width="17" height="17" viewBox="0 0 17 17" fill="none" xmlns="http://www.w3.org/2000/svg">
<path d="M11.2452 14.616V13.2826C11.2452 12.5754 10.9642 11.8971 10.4641 11.397C9.96405 10.8969 9.28578 10.616 8.57853 10.616H4.57853C3.87129 10.616 3.19301 10.8969 2.69291 11.397C2.19282 11.8971 1.91187 12.5754 1.91187 13.2826V14.616" stroke="#393F4C" stroke-linecap="round" stroke-linejoin="round"/>
<path d="M6.57853 7.9493C8.05129 7.9493 9.2452 6.75539 9.2452 5.28263C9.2452 3.80987 8.05129 2.61597 6.57853 2.61597C5.10577 2.61597 3.91187 3.80987 3.91187 5.28263C3.91187 6.75539 5.10577 7.9493 6.57853 7.9493Z" stroke="#393F4C" stroke-linecap="round" stroke-linejoin="round"/>
<path d="M11.2451 7.9493L12.5785 9.28263L15.2451 6.61597" stroke="#393F4C" stroke-linecap="round" stroke-linejoin="round"/>
</svg>
