<svg width="17" height="17" viewBox="0 0 17 17" fill="none" xmlns="http://www.w3.org/2000/svg">
<path d="M6.57853 7.16549C8.05129 7.16549 9.2452 5.97158 9.2452 4.49882C9.2452 3.02606 8.05129 1.83215 6.57853 1.83215C5.10577 1.83215 3.91187 3.02606 3.91187 4.49882C3.91187 5.97158 5.10577 7.16549 6.57853 7.16549Z" stroke="#393F4C"/>
<path d="M10.5786 6.49878C11.6832 6.49878 12.5786 5.60335 12.5786 4.49878C12.5786 3.39421 11.6832 2.49878 10.5786 2.49878" stroke="#393F4C" stroke-linecap="round"/>
<path d="M6.57853 14.4987C9.15586 14.4987 11.2452 13.3048 11.2452 11.8321C11.2452 10.3593 9.15586 9.16541 6.57853 9.16541C4.0012 9.16541 1.91187 10.3593 1.91187 11.8321C1.91187 13.3048 4.0012 14.4987 6.57853 14.4987Z" stroke="#393F4C"/>
<path d="M12.5786 9.83215C13.7481 10.0886 14.5786 10.7381 14.5786 11.4988C14.5786 12.185 13.9028 12.7808 12.9119 13.0791" stroke="#393F4C" stroke-linecap="round"/>
</svg>
