<svg width="17" height="17" viewBox="0 0 17 17" fill="none" xmlns="http://www.w3.org/2000/svg">
<path d="M7.77653 10.5768H4.77653C4.06929 10.5768 3.39101 10.8578 2.89091 11.3579C2.39081 11.858 2.10986 12.5363 2.10986 13.2435V14.5768M14.3619 11.6608C14.6274 11.3953 14.7766 11.0351 14.7766 10.6595C14.7766 10.2839 14.6274 9.92374 14.3619 9.65817C14.0963 9.3926 13.7361 9.24341 13.3605 9.24341C12.985 9.24341 12.6248 9.3926 12.3592 9.65817L9.68586 12.3328C9.52736 12.4913 9.41134 12.6871 9.34853 12.9022L8.79053 14.8155C8.7738 14.8729 8.7728 14.9337 8.78763 14.9916C8.80246 15.0495 8.83257 15.1023 8.87483 15.1445C8.91708 15.1868 8.96992 15.2169 9.0278 15.2317C9.08569 15.2466 9.1465 15.2456 9.20386 15.2288L11.1172 14.6708C11.3323 14.608 11.5281 14.492 11.6865 14.3335L14.3619 11.6608Z" stroke="#393F4C" stroke-linecap="round" stroke-linejoin="round"/>
<path d="M6.77653 7.91024C8.24929 7.91024 9.4432 6.71633 9.4432 5.24357C9.4432 3.77081 8.24929 2.5769 6.77653 2.5769C5.30377 2.5769 4.10986 3.77081 4.10986 5.24357C4.10986 6.71633 5.30377 7.91024 6.77653 7.91024Z" stroke="#393F4C" stroke-linecap="round" stroke-linejoin="round"/>
</svg>
