<svg width="17" height="17" viewBox="0 0 17 17" fill="none" xmlns="http://www.w3.org/2000/svg">
<g clip-path="url(#clip0_234_33128)">
<path d="M8.57861 3.03784C13.5786 3.03784 16.5786 8.53784 16.5786 8.53784C16.5786 8.53784 13.5786 14.0378 8.57861 14.0378C3.57861 14.0378 0.578613 8.53784 0.578613 8.53784C0.578613 8.53784 3.57861 3.03784 8.57861 3.03784ZM8.57861 4.03784C5.05861 4.03784 2.57661 7.28884 1.75361 8.53784C2.57561 9.78584 5.05761 13.0378 8.57861 13.0378C12.0986 13.0378 14.5806 9.78684 15.4036 8.53784C14.5816 7.28984 12.0996 4.03784 8.57861 4.03784ZM8.57861 5.03784C9.50687 5.03784 10.3971 5.40659 11.0535 6.06297C11.7099 6.71935 12.0786 7.60958 12.0786 8.53784C12.0786 9.4661 11.7099 10.3563 11.0535 11.0127C10.3971 11.6691 9.50687 12.0378 8.57861 12.0378C7.65036 12.0378 6.76012 11.6691 6.10374 11.0127C5.44736 10.3563 5.07861 9.4661 5.07861 8.53784C5.07861 7.60958 5.44736 6.71935 6.10374 6.06297C6.76012 5.40659 7.65036 5.03784 8.57861 5.03784ZM8.57861 6.03784C7.91581 6.03863 7.28039 6.30227 6.81171 6.77094C6.34304 7.23961 6.0794 7.87504 6.07861 8.53784C6.07861 9.91584 7.19961 11.0378 8.57861 11.0378C9.95761 11.0378 11.0786 9.91584 11.0786 8.53784C11.0786 7.15984 9.95761 6.03784 8.57861 6.03784Z" fill="#393F4C"/>
</g>
<defs>
<clipPath id="clip0_234_33128">
<rect width="16" height="16" fill="white" transform="translate(0.578613 0.537842)"/>
</clipPath>
</defs>
</svg>
